<svg width="80" height="80" viewBox="0 0 80 80" fill="none" xmlns="http://www.w3.org/2000/svg">
<g id="fi_6179633" clip-path="url(#clip0_1796_54)">
<g id="Group">
<g id="Group_2">
<g id="Group_3">
<path id="Vector" d="M77.8981 25.9953L76.3714 24.0345L73.242 19.4186C72.1161 17.7577 70.2392 16.7655 68.2327 16.7716C62.0291 16.7905 37.0795 16.8117 24.6455 16.8231L18.0347 11.8916C17.4797 11.4775 16.8063 11.2539 16.1139 11.2539H8.82516C7.59626 11.2539 6.86797 12.6278 7.55766 13.645L18.8734 30.3358C20.1403 32.2045 22.2514 33.3233 24.5092 33.3233H73.8192C75.4214 33.3233 76.9344 32.588 77.9239 31.3291C79.1498 29.7694 79.1169 27.5609 77.8981 25.9953Z" fill="#ECF4FE"/>
<path id="Vector_2" d="M77.8986 25.9972L76.3718 24.0364L73.2425 19.4205C72.1165 17.7596 70.2396 16.7674 68.2331 16.7735C67.3378 16.7761 66.0501 16.7791 64.4678 16.7819C66.3612 16.8694 68.1098 17.8421 69.18 19.4207L72.3093 24.0366L73.8361 25.9975C75.055 27.5632 75.0882 29.7713 73.8621 31.3311C72.8726 32.59 71.3596 33.3253 69.7575 33.3253H73.8198C75.422 33.3253 76.935 32.59 77.9245 31.3311C79.1503 29.7713 79.1173 27.5628 77.8986 25.9972Z" fill="#D8E9FD"/>
<path id="Vector_3" d="M72.1688 25.778H77.7296L76.3713 24.0331L73.5972 19.9414H69.0124C68.5336 19.9414 68.1455 20.3295 68.1455 20.8083V21.7545C68.1455 23.9766 69.9468 25.778 72.1688 25.778Z" fill="#C5DFFC"/>
<path id="Vector_4" d="M76.3717 24.033L73.5977 19.9414H69.5352L72.3091 24.0331L73.6675 25.778H77.73L76.3717 24.033Z" fill="#D8E9FD"/>
<path id="Vector_5" d="M38.6484 36.9728H57.1839C58.5473 36.9728 59.6527 35.8673 59.6527 34.5037C59.6527 33.1402 58.5473 32.0352 57.1839 32.0352H38.6484V36.9728Z" fill="#9FACBA"/>
<path id="Vector_6" d="M37.7594 27.3894L28.9259 38.6858C28.5861 39.1203 28.8958 39.7555 29.4473 39.7555H36.8906C37.907 39.7555 38.9078 39.5055 39.8048 39.0275L60.7247 27.8806C61.185 27.6353 61.0108 26.9375 60.489 26.9375H38.6862C38.3242 26.9375 37.9823 27.1042 37.7594 27.3894Z" fill="#ECF4FE"/>
<path id="Vector_7" d="M60.4891 26.9375H55.4891C56.0106 26.9375 56.185 27.6353 55.7247 27.8806L34.8048 39.0275C33.9078 39.5055 32.907 39.7553 31.8906 39.7553H36.8906C37.907 39.7553 38.9078 39.5053 39.8048 39.0273L60.7247 27.8805C61.185 27.6353 61.0106 26.9375 60.4891 26.9375Z" fill="#D8E9FD"/>
<path id="Vector_8" d="M1.17188 48.8281V67.9642C1.17188 68.3956 1.52172 68.7455 1.95312 68.7455H24.3688V48.8281H1.17188Z" fill="#E3A76F"/>
<path id="Vector_9" d="M19.6367 48.8281H24.3688V68.7455H19.6367V48.8281Z" fill="#C48958"/>
<path id="Vector_10" d="M15.8107 55.7822L12.9898 54.0295C12.8557 53.9462 12.6859 53.9462 12.5517 54.0295L9.73074 55.7822C9.45434 55.9539 9.09668 55.7552 9.09668 55.4297V48.8281H16.4448V55.4297C16.4448 55.7552 16.0873 55.9539 15.8107 55.7822Z" fill="#D1D1D6"/>
<path id="Vector_11" d="M1.17188 29.6912V48.8273H24.3688V29.6914C24.3688 29.26 24.0189 28.9102 23.5875 28.9102H1.95312C1.52172 28.91 1.17188 29.2598 1.17188 29.6912Z" fill="#E3A76F"/>
<path id="Vector_12" d="M19.6367 28.9102V48.8275H24.3688V29.6916C24.3688 29.2602 24.0189 28.9103 23.5875 28.9103H19.6367V28.9102Z" fill="#C48958"/>
<path id="Vector_13" d="M15.8107 35.8642L12.9898 34.1116C12.8557 34.0283 12.6859 34.0283 12.5517 34.1116L9.73074 35.8642C9.45434 36.0359 9.09668 35.8372 9.09668 35.5117V28.9102H16.4448V35.5117C16.4448 35.8372 16.0873 36.0359 15.8107 35.8642Z" fill="#D1D1D6"/>
<path id="Vector_14" d="M24.3691 48.8281V68.7455H46.7848C47.2162 68.7455 47.566 68.3958 47.566 67.9642V49.6094C47.566 49.178 47.2162 48.8281 46.7848 48.8281H24.3691Z" fill="#E3A76F"/>
<path id="Vector_15" d="M42.834 48.8281V68.7455H46.7848C47.2162 68.7455 47.566 68.3958 47.566 67.9642V49.6094C47.566 49.178 47.2162 48.8281 46.7848 48.8281H42.834Z" fill="#C48958"/>
<path id="Vector_16" d="M39.007 55.7822L36.1861 54.0295C36.052 53.9462 35.8822 53.9462 35.748 54.0295L32.927 55.7822C32.6506 55.9539 32.293 55.7552 32.293 55.4297V48.8281H39.6411V55.4297C39.6411 55.7552 39.2834 55.9539 39.007 55.7822Z" fill="#D1D1D6"/>
</g>
</g>
<path id="Vector_17" d="M78.8181 25.2777L77.3153 23.3472L74.2073 18.7636C72.8641 16.7831 70.6377 15.6028 68.2475 15.6028C68.24 15.6028 48.85 15.632 38.0763 15.6419C37.4291 15.6425 36.9048 16.1677 36.9055 16.8147C36.9061 17.4614 37.4305 17.9855 38.0773 17.9855C38.0773 17.9855 68.2423 17.9464 68.2475 17.9464C69.228 17.9464 70.1667 18.2425 70.9566 18.7741H69.0084C67.8842 18.7741 66.9697 19.6886 66.9697 20.8128V21.7591C66.9697 24.6234 69.3 26.9539 72.1645 26.9539H77.1362C77.8705 28.0892 77.8262 29.5534 76.997 30.6078C76.2256 31.59 75.0655 32.1533 73.8142 32.1533H59.9567C59.3689 31.4603 58.5273 30.9895 57.5766 30.8862L61.2722 28.917C62.8045 28.1005 62.2219 25.768 60.4856 25.768H38.6842C37.9567 25.768 37.2825 26.0967 36.8344 26.6698L32.5464 32.1533H25.5391V29.6942C25.5391 28.6173 24.663 27.7413 23.5861 27.7413H18.5281L15.6277 23.4633H20.1727C20.8198 23.4633 21.3445 22.9386 21.3445 22.2914C21.3445 21.6442 20.82 21.1195 20.1727 21.1195H14.0387L8.52672 12.9898C8.42109 12.8344 8.46875 12.6919 8.50625 12.6208C8.54422 12.5494 8.63578 12.4294 8.82438 12.4294H16.1128C16.5495 12.4294 16.9825 12.5731 17.3323 12.8344L23.943 17.7653C24.1455 17.9163 24.3911 17.9978 24.6436 17.9978C24.6436 17.9978 30.8047 17.9925 32.6092 17.9916C33.2564 17.9913 33.7808 17.4663 33.7805 16.8192C33.7802 16.1723 33.2556 15.6509 32.6086 15.6509H25.032L18.7342 10.9561C17.9825 10.3948 17.0516 10.0859 16.1131 10.0859H8.82453C7.82078 10.0859 6.90547 10.6369 6.43547 11.5239C5.96594 12.4103 6.02437 13.4766 6.5875 14.3059L11.2073 21.1198H9.03547C8.38828 21.1198 7.86359 21.6445 7.86359 22.2917C7.86359 22.9389 8.38813 23.4636 9.03547 23.4636H12.7961L15.6966 27.7416H1.95297C0.876094 27.7412 0 28.6173 0 29.6942V67.9639C0 69.0408 0.876094 69.9169 1.95297 69.9169H46.7816C47.8584 69.9169 48.7345 69.0408 48.7345 67.9639V63.7478C48.7345 63.1006 48.21 62.5759 47.5627 62.5759C46.9155 62.5759 46.3908 63.1006 46.3908 63.7478V67.5733H25.5392V50.0008H31.1195V55.4302C31.1195 56.0058 31.432 56.5372 31.9352 56.8169C32.4383 57.0967 33.0545 57.0819 33.5437 56.778L35.9652 55.2736L38.3866 56.7781C38.8755 57.0819 39.4919 57.0967 39.995 56.817C40.4983 56.5373 40.8106 56.0059 40.8106 55.4303V50.0009H46.3909V58.2794C46.3909 58.9266 46.9155 59.4512 47.5628 59.4512C48.21 59.4512 48.7347 58.9266 48.7347 58.2794V49.6103C48.7347 48.5334 47.8586 47.6573 46.7817 47.6573H25.5392V34.4969H30.7139L28.0016 37.9655C27.0619 39.1673 27.9159 40.9287 29.4461 40.9287H36.8891C38.0933 40.9287 39.2914 40.6294 40.3541 40.0631L43.9537 38.145H57.1809C59.1883 38.145 60.8213 36.512 60.8213 34.5047C60.8213 34.502 60.8211 34.4995 60.8211 34.4969H73.8142C75.7897 34.4969 77.6216 33.607 78.8395 32.0559C80.3947 30.0788 80.3861 27.2914 78.8181 25.2777ZM10.2677 30.0848H15.2716V34.1531L13.6072 33.1191C13.0908 32.798 12.4487 32.7977 11.932 33.1189L10.2675 34.1531L10.2677 30.0848ZM7.92406 30.0848V35.5142C7.92406 36.0898 8.23656 36.6213 8.73969 36.9011C9.24266 37.1808 9.85906 37.1659 10.3481 36.8622L12.7695 35.3577L15.1911 36.8622C15.4469 37.0211 15.7375 37.1009 16.0284 37.1009C16.2938 37.1009 16.5595 37.0345 16.7994 36.9011C17.3025 36.6213 17.615 36.0898 17.615 35.5142V30.0848H23.1955V47.6573H2.34359V30.0848H7.92406ZM10.2677 50.0008H15.2716V54.0691L13.6072 53.035C13.0908 52.7139 12.4487 52.7136 11.932 53.0348L10.2675 54.0691L10.2677 50.0008ZM2.34359 50.0008H7.92406V55.4302C7.92406 56.0058 8.23656 56.5372 8.73969 56.817C9.24266 57.0967 9.85906 57.0819 10.3481 56.778L12.7695 55.2734L15.1911 56.778C15.4469 56.9369 15.7375 57.0167 16.0284 57.0167C16.9058 57.0167 17.6152 56.3041 17.6152 55.43V50.0006H23.1956V67.5733H2.34359V50.0008ZM38.4672 54.0691L36.8028 53.035C36.2861 52.7136 35.6441 52.7137 35.1277 53.0348L33.463 54.0691V50.0008H38.467L38.4672 54.0691ZM39.2517 37.9948C38.5272 38.3809 37.71 38.5852 36.8889 38.5852H30.492L38.6806 28.1134L38.6842 28.1116H57.8L39.2517 37.9948ZM57.1808 35.8014H48.3519L53.2194 33.2078H57.1808C57.8958 33.2078 58.4775 33.7895 58.4775 34.5047C58.4775 35.2198 57.8958 35.8014 57.1808 35.8014ZM69.3133 21.7589V21.1175H72.972L75.3403 24.6102H72.1645C70.5923 24.6102 69.3133 23.3311 69.3133 21.7589Z" fill="black"/>
</g>
</g>
<defs>
<clipPath id="clip0_1796_54">
<rect width="80" height="80" fill="white"/>
</clipPath>
</defs>
</svg>
