<svg width="78" height="78" viewBox="0 0 78 78" fill="none" xmlns="http://www.w3.org/2000/svg">
<g id="fi_5735327">
<g id="Group">
<g id="Group_2">
<g id="Group_3">
<path id="Vector" fill-rule="evenodd" clip-rule="evenodd" d="M11.1104 16.2305H72.5322V58.6861C72.5322 61.5099 70.2216 63.8202 67.3977 63.8202H16.2446C13.4209 63.8202 11.1104 61.5101 11.1104 58.6861V16.2305Z" fill="#E3A76F"/>
<path id="Vector_2" fill-rule="evenodd" clip-rule="evenodd" d="M69.4853 16.2305H72.5323V58.6861C72.5323 61.5099 70.2217 63.8202 67.3979 63.8202H16.2448C14.8056 63.8202 13.5001 63.2198 12.5654 62.2575C12.7728 62.2832 12.9838 62.2968 13.1978 62.2968H64.3507C67.1746 62.2968 69.4852 59.9865 69.4852 57.1626V16.2305H69.4853Z" fill="#C48958"/>
<path id="Vector_3" fill-rule="evenodd" clip-rule="evenodd" d="M10.7962 18.4617H72.8464C74.3403 18.4617 75.5626 17.2395 75.5626 15.7456V7.59489C75.5626 6.10101 74.3403 4.87891 72.8464 4.87891H10.7962C9.30233 4.87891 8.08008 6.10116 8.08008 7.59489V15.7457C8.08008 17.2396 9.30233 18.4617 10.7962 18.4617Z" fill="#C48958"/>
<path id="Vector_4" fill-rule="evenodd" clip-rule="evenodd" d="M10.7963 18.4614H72.8465C74.3404 18.4614 75.5627 17.2391 75.5627 15.7452V7.59455C75.5627 6.24936 74.5715 5.1246 73.2834 4.91406C73.4504 5.26552 73.5439 5.65796 73.5439 6.07111V14.222C73.5439 15.7158 72.3217 16.9379 70.828 16.9379H8.77759C8.6289 16.9379 8.48311 16.9258 8.34082 16.9024C8.77729 17.8218 9.71557 18.4614 10.7963 18.4614Z" fill="#B5733E"/>
<path id="Vector_5" fill-rule="evenodd" clip-rule="evenodd" d="M35.4961 4.87891H48.1464V63.8196H35.4961C35.4961 44.1728 35.4961 24.5258 35.4961 4.87891Z" fill="#ECEFF1"/>
<path id="Vector_6" fill-rule="evenodd" clip-rule="evenodd" d="M45.8232 4.87891H48.1465V63.8196H45.8232C45.8232 44.1728 45.8232 24.5258 45.8232 4.87891Z" fill="#D1D1D6"/>
</g>
<g id="Group_4">
<path id="Vector_7" fill-rule="evenodd" clip-rule="evenodd" d="M44.4227 67.261C46.0345 67.261 47.3532 68.5798 47.3532 70.1918C47.3532 71.8034 46.0347 73.1223 44.4227 73.1223H29.7036C26.7851 72.9565 24.7325 72.5382 19.8506 69.6216C17.9861 68.5076 17.2853 66.9959 9.01074 67.1594C9.01074 61.9137 9.01074 55.7362 9.01074 50.4905C18.481 50.4905 18.868 48.0259 20.6183 46.1193C22.3437 44.2399 26.3755 43.3727 28.6014 41.9983C30.7804 40.7404 33.442 39.3931 36.4443 37.8238C43.23 34.2772 43.2709 39.0305 41.8486 40.8371C40.5805 42.4482 38.1896 43.707 35.6608 45.1192C33.2346 47.0626 35.2355 49.6767 39.7374 49.6767H55.7979C57.4102 49.6767 58.7284 50.9956 58.7284 52.6072C58.7284 54.2191 57.4099 55.538 55.7979 55.538H59.0226C60.6347 55.538 61.9532 56.857 61.9532 58.4688C61.9532 60.0804 60.6347 61.3993 59.0226 61.3993H55.1124C56.7245 61.3993 58.043 62.7181 58.043 64.3299C58.043 65.9418 56.7245 67.2607 55.1124 67.2607H44.4227V67.261Z" fill="#F6DCCD"/>
<path id="Vector_8" fill-rule="evenodd" clip-rule="evenodd" d="M35.661 45.1188C38.1899 43.7066 40.5808 42.4477 41.8488 40.8368C42.8177 39.606 43.1074 37.0076 41.0483 36.5977C41.073 37.4179 40.7661 38.3102 40.3063 38.8944C39.2719 40.2087 37.4901 41.2885 35.4959 42.4085C35.0455 42.6614 34.5844 42.9164 34.1185 43.1765C32.4936 44.4779 32.8544 46.0803 34.6222 46.9968C34.5932 46.4193 34.8702 45.8151 35.4959 45.2581C35.5484 45.2113 35.6036 45.1649 35.661 45.1188ZM47.3098 70.6945C47.0694 72.0686 45.8635 73.1218 44.4231 73.1218H32.612C31.9444 73.1218 31.3984 72.5756 31.3984 71.9082C31.3984 71.2406 31.9446 70.6945 32.612 70.6945H47.3098ZM44.4229 67.2605L44.4298 67.2606H37.6965C37.0289 67.2606 36.4829 66.7145 36.4829 66.0471V66.0469C36.4829 65.3793 37.0291 64.8333 37.6965 64.8333H57.9993C57.7588 66.2075 56.5528 67.2605 55.1124 67.2605H44.4229ZM61.9097 58.9718C61.6693 60.3459 60.4633 61.3991 59.0228 61.3991H55.1126H40.7121C40.0446 61.3991 39.4984 60.8529 39.4984 60.1855V60.1853C39.4984 59.5178 40.0446 58.9718 40.7121 58.9718H61.9097ZM58.685 53.1103C58.4449 54.4825 57.2425 55.5343 55.8051 55.5376H41.6068C40.9394 55.5376 40.3933 54.9915 40.3933 54.3241V54.3239C40.3933 53.6563 40.9394 53.1103 41.6068 53.1103H58.685Z" fill="#F1CBBC"/>
<path id="Vector_9" fill-rule="evenodd" clip-rule="evenodd" d="M4.0851 47.8477H11.6551C12.5614 47.8477 13.3027 48.5891 13.3027 49.4951V68.9989C13.3027 69.905 12.5614 70.6465 11.6551 70.6465H4.0851C3.17896 70.6465 2.4375 69.905 2.4375 68.9989V49.4953C2.4375 48.5891 3.17896 47.8477 4.0851 47.8477Z" fill="#9FACBA"/>
<path id="Vector_10" fill-rule="evenodd" clip-rule="evenodd" d="M11.7743 47.8516C12.6251 47.9134 13.3021 48.6288 13.3021 49.4946V68.9984C13.3021 69.9045 12.5608 70.646 11.6545 70.646H4.08459C3.21866 70.646 2.50326 69.969 2.44141 69.1181C2.48086 69.121 2.52078 69.1226 2.561 69.1226H10.131C11.0372 69.1226 11.7786 68.3811 11.7786 67.475V47.9712C11.7787 47.9309 11.7772 47.891 11.7743 47.8516Z" fill="#8192A5"/>
</g>
</g>
<path id="Vector_11" fill-rule="evenodd" clip-rule="evenodd" d="M74.344 15.7459C74.344 16.5716 73.6757 17.2434 72.8494 17.2434H49.3677V6.09781H72.8494C73.6758 6.09781 74.344 6.76964 74.344 7.59535V15.7459ZM67.4008 62.6009H59.3738C61.4987 62.4226 63.1746 60.6369 63.1746 58.4673C63.1746 56.3618 61.598 54.6176 59.5643 54.3525C59.8121 53.8207 59.9495 53.2301 59.9495 52.6056C59.9495 50.3176 58.0897 48.457 55.8009 48.457H49.3677V19.6811H71.3188V58.6858C71.3188 60.8438 69.558 62.6009 67.4008 62.6009ZM55.1152 66.0402C56.0588 66.0402 56.8262 65.2727 56.8262 64.3285C56.8262 63.3835 56.0587 62.616 55.1152 62.616H39.5003C38.8283 62.616 38.2815 62.0706 38.2815 61.3972C38.2815 60.7252 38.8284 60.1785 39.5003 60.1785H59.0245C59.9695 60.1785 60.737 59.411 60.737 58.4673C60.737 57.5231 59.9695 56.7556 59.0245 56.7556H40.3964C39.723 56.7556 39.1776 56.2101 39.1776 55.5369C39.1776 54.8627 39.723 54.3173 40.3964 54.3173H55.8007C56.7442 54.3173 57.5117 53.5498 57.5117 52.6056C57.5117 51.6628 56.7442 50.8946 55.8007 50.8946H39.7396C36.5785 50.8946 34.0575 49.5968 33.4646 47.6666C33.0621 46.3537 33.6291 45.0235 34.9801 44.1094C35.8122 43.546 36.6365 43.061 37.4349 42.5939C38.9124 41.7251 40.1901 40.9755 40.8944 40.0816C41.368 39.478 41.5325 38.3842 41.2048 37.9896C40.9311 37.659 39.7381 37.4779 37.011 38.9023C36.2068 39.3228 35.4249 39.7251 34.6696 40.1131C32.5828 41.1888 30.7783 42.1166 29.2297 43.043C28.2998 43.5992 27.1708 44.0526 25.9766 44.5341C24.2217 45.2427 22.4058 45.9758 21.5196 46.9415C21.304 47.1743 21.1051 47.4287 20.8944 47.6989C19.8129 49.0744 18.5955 50.6209 14.5231 51.3201V66.1612C17.5219 66.5499 18.7084 67.3706 19.7669 68.1035C20.0091 68.271 20.2376 68.4299 20.4791 68.5743C25.2744 71.4402 27.1271 71.9015 29.7062 71.9015H44.4258C45.3687 71.9015 46.1368 71.1332 46.1368 70.1905C46.1368 69.2463 45.3686 68.4788 44.4258 68.4788H36.4857C35.8123 68.4788 35.2669 67.9334 35.2669 67.2593C35.2669 66.5859 35.8123 66.0405 36.4857 66.0405H55.1152V66.0402ZM12.0863 68.9973C12.0863 69.2288 11.8893 69.4256 11.6566 69.4256H4.08659C3.85518 69.4256 3.65836 69.2286 3.65836 68.9973V49.4932C3.65836 49.2603 3.85534 49.065 4.08659 49.065H11.6566C11.8893 49.065 12.0863 49.2604 12.0863 49.4932V68.9973ZM9.30086 15.7459V7.59535C9.30086 6.76964 9.9727 6.09781 10.7984 6.09781H34.2795V17.2436H10.7984C9.97285 17.2436 9.30086 16.5716 9.30086 15.7459ZM14.4505 48.858C14.2098 47.8002 13.3841 46.9659 12.3313 46.7101V19.6812H34.2795V37.5736C34.0359 37.6986 33.7936 37.8237 33.5545 37.9473C31.5179 38.9951 29.5947 39.9853 27.9787 40.9512C27.2127 41.4082 26.1691 41.8287 25.066 42.2749C23.0583 43.084 20.9829 43.9205 19.723 45.2931C19.4456 45.5964 19.2078 45.8996 18.9764 46.1921C18.0917 47.3208 17.3114 48.3124 14.4505 48.858ZM46.9301 48.457H39.7396C37.3646 48.457 35.9811 47.558 35.7951 46.9514C35.6944 46.6258 36.0984 46.2952 36.3471 46.1264C37.1132 45.6083 37.9036 45.1434 38.6689 44.6956C40.2894 43.7435 41.8208 42.8445 42.8096 41.589C43.8739 40.2351 44.2807 37.8795 43.0807 36.433C42.2306 35.4089 40.4419 34.6105 36.7173 36.3301V6.09781H46.9304V48.457H46.9301ZM72.8494 3.66016H10.7984C8.62964 3.66016 6.86397 5.4243 6.86397 7.59535V15.746C6.86397 17.6043 8.15829 19.1645 9.89379 19.5741V46.6273H4.08659C2.50709 46.6273 1.2207 47.913 1.2207 49.4932V68.9973C1.2207 70.5776 2.50709 71.8632 4.08659 71.8632H11.6566C13.2376 71.8632 14.5231 70.5776 14.5231 68.9973V68.6194C16.6933 68.9399 17.5154 69.5097 18.3792 70.1084C18.6429 70.2909 18.9174 70.48 19.2279 70.666C23.9975 73.5146 26.3474 74.3388 29.7061 74.3388H44.4257C46.7137 74.3388 48.5736 72.4769 48.5736 70.1902C48.5736 69.5793 48.4427 69.0001 48.2049 68.4785H55.1152C57.1618 68.4785 58.865 66.9895 59.2027 65.0376H67.4008C70.902 65.0376 73.7549 62.1876 73.7549 58.6858V19.574C75.4868 19.1643 76.7803 17.6042 76.7803 15.7459V7.59535C76.7802 5.4243 75.0195 3.66016 72.8494 3.66016Z" fill="black"/>
</g>
</g>
</svg>
