<svg width="12" height="12" viewBox="0 0 12 12" fill="none" xmlns="http://www.w3.org/2000/svg">
<path opacity="0.32" d="M1.40732 6.02224C1.24107 5.90615 1.03587 5.86001 0.835936 5.89376C0.635997 5.92752 0.457318 6.03845 0.338386 6.20268C0.219454 6.3669 0.169791 6.57127 0.200092 6.77176C0.230393 6.97226 0.338232 7.15282 0.500384 7.27457C1.83395 8.33367 2.86816 9.72234 3.50085 11.3034C3.56176 11.4384 3.66016 11.5531 3.78435 11.6338C3.90853 11.7145 4.05329 11.7578 4.2014 11.7587C4.3495 11.7595 4.49473 11.7178 4.6198 11.6384C4.74488 11.5591 4.84454 11.4455 4.90694 11.3112C6.45545 7.87831 8.7044 4.80697 11.5095 2.29421C11.6528 2.15779 11.7384 1.97165 11.7486 1.77407C11.7588 1.57649 11.6929 1.38252 11.5644 1.23207C11.4359 1.08161 11.2547 0.986124 11.0579 0.965254C10.8612 0.944384 10.664 0.999718 10.5068 1.11987C7.91317 3.41646 5.77172 6.17763 4.19275 9.26114C3.50594 7.99517 2.55621 6.89082 1.40732 6.02224Z" fill="#707070"/>
</svg>
