<svg width="26" height="26" viewBox="0 0 26 26" fill="none" xmlns="http://www.w3.org/2000/svg">
<path d="M5.23918 21.1681V21.0649V20.1152C5.23918 19.6937 4.89816 19.3527 4.47668 19.3527H4.07837C3.59416 19.3527 3.2 18.9626 3.2 18.4822V11.9576C3.2 11.5869 3.44309 11.2583 3.80207 11.1367L3.8022 11.1366C3.95117 11.0866 4.06441 10.9858 4.15572 10.8642C4.3028 10.6684 4.3639 10.4166 4.28094 10.1709L4.28092 10.1709C4.14687 9.77243 3.715 9.55658 3.31524 9.69207L3.31515 9.6921C2.33388 10.0226 1.675 10.9336 1.675 11.9576V18.4822C1.675 19.6649 2.53998 20.6507 3.67257 20.8435L3.71418 20.8506V20.8928V22.0576C3.71418 22.4789 3.94851 22.8549 4.32719 23.0393L4.3273 23.0394C4.48074 23.1146 4.6446 23.1517 4.80756 23.1517C5.04704 23.1517 5.28454 23.0722 5.48525 22.9156C5.48529 22.9156 5.48532 22.9156 5.48535 22.9155L6.90466 21.7969L6.90481 21.7968C7.66267 21.2043 8.61298 20.8777 9.57941 20.8777H13.9672C14.8114 20.8777 15.6011 20.4291 16.0285 19.708C16.2429 19.3461 16.1237 18.8777 15.7612 18.6633C15.4244 18.4646 15.0054 18.5626 14.774 18.8681L14.7739 18.8681C14.7632 18.8822 14.7505 18.8942 14.7413 18.903C14.7399 18.9043 14.7386 18.9055 14.7374 18.9067L5.23918 21.1681ZM5.23918 21.1681L5.32015 21.1042L5.96268 20.5973C5.96269 20.5973 5.9627 20.5973 5.9627 20.5973C6.99014 19.7941 8.2742 19.3527 9.57941 19.3527H13.9672C14.2749 19.3527 14.562 19.1914 14.7164 18.9307L5.23918 21.1681ZM3.81811 11.184C3.97968 11.1298 4.10054 11.021 4.1957 10.8943C4.35102 10.6875 4.41737 10.4186 4.32831 10.1549C4.18549 9.73041 3.72528 9.50031 3.29919 9.64471C2.29785 9.98193 1.625 10.9119 1.625 11.9576V18.4822C1.625 19.6899 2.50812 20.696 3.66418 20.8928L3.81811 11.184Z" fill="black" stroke="white" stroke-width="0.1"/>
<path d="M19.6586 20.1986L19.6585 20.1985L17.7613 18.7116C16.7067 17.885 15.3866 17.4298 14.0433 17.4298H8.1947C6.56373 17.4298 5.2375 16.1102 5.2375 14.4893V5.78583C5.2375 4.16569 6.56294 2.84688 8.19312 2.84688H21.3669C22.9979 2.84688 24.3249 4.1665 24.3249 5.78741V14.4908C24.3249 16.0173 23.1477 17.2761 21.6479 17.4165L21.6025 17.4208V17.4663V19.2579C21.6025 19.7196 21.3445 20.1322 20.9277 20.3341L20.9277 20.3341C20.7583 20.4165 20.5785 20.4568 20.3997 20.4568C20.1362 20.4568 19.8758 20.3701 19.6586 20.1986ZM19.9967 18.526L20.0775 18.5894V18.4867V16.6673C20.0775 16.2458 20.4185 15.9048 20.84 15.9048H21.3685C22.1572 15.9048 22.7999 15.2713 22.7999 14.4908V5.78741C22.7999 5.00621 22.1564 4.37187 21.3669 4.37188H8.19312C7.40516 4.37188 6.7625 5.00543 6.7625 5.78583V14.4893C6.7625 15.2704 7.40514 15.9048 8.1947 15.9048H14.0433C15.7261 15.9048 17.3807 16.4755 18.7025 17.5112C18.7025 17.5112 18.7026 17.5112 18.7026 17.5112L19.9967 18.526Z" fill="black" stroke="white" stroke-width="0.1"/>
<path d="M10.0859 11.0969H14.7808C15.2023 11.0969 15.5433 11.4379 15.5433 11.8594C15.5433 12.2809 15.2023 12.6219 14.7808 12.6219H10.0859C9.66446 12.6219 9.32344 12.2809 9.32344 11.8594C9.32344 11.4379 9.66446 11.0969 10.0859 11.0969Z" fill="black" stroke="white" stroke-width="0.1"/>
<path d="M10.0859 7.68281H19.4749C19.8964 7.68281 20.2374 8.02383 20.2374 8.44531C20.2374 8.86679 19.8964 9.20781 19.4749 9.20781H10.0859C9.66446 9.20781 9.32344 8.86679 9.32344 8.44531C9.32344 8.02383 9.66446 7.68281 10.0859 7.68281Z" fill="black" stroke="white" stroke-width="0.1"/>
</svg>
