<svg width="31" height="31" viewBox="0 0 31 31" fill="none" xmlns="http://www.w3.org/2000/svg">
    <path d="M0.255859 15.2584C0.255859 7.01696 6.93688 0.335938 15.1783 0.335938C23.4198 0.335938 30.1008 7.01696 30.1008 15.2584C30.1008 23.4999 23.4198 30.1809 15.1783 30.1809C6.93688 30.1809 0.255859 23.4999 0.255859 15.2584Z" fill="#E63946"/>
    <path d="M18.8298 8.83691C17.468 8.5405 16.2471 8.17646 15.1775 7.79688C14.1078 8.17646 12.8869 8.5405 11.5251 8.83691C10.4033 9.08131 9.35459 9.2477 8.39453 9.35695V14.5468C8.39453 18.0414 10.4346 21.2135 13.6122 22.68L15.1775 23.3976L16.7428 22.68C19.9203 21.2135 21.9604 18.0414 21.9604 14.5468V9.35695C21.0004 9.24775 19.9517 9.08131 18.8298 8.83691Z" fill="white"/>
    <path d="M19.2482 12.0487C19.2116 12.0988 19.1823 12.1567 19.1374 12.1978C18.2943 12.9654 17.5743 13.8399 16.8918 14.7463C15.9832 15.953 15.1587 17.2152 14.3878 18.5124C14.356 18.5658 14.2988 18.6046 14.2534 18.6501H14.1704C14.128 18.6054 14.0766 18.5663 14.0449 18.515C13.4682 17.5852 12.8243 16.701 12.1847 15.814C12.0707 15.6557 11.9541 15.4992 11.8393 15.3411C11.7642 15.2377 11.7693 15.1696 11.86 15.0802C12.007 14.935 12.155 14.791 12.303 14.6468C12.4106 14.542 12.4664 14.5377 12.5925 14.625C13.1045 14.9794 13.6164 15.3341 14.1282 15.6886C14.144 15.6995 14.1601 15.7099 14.1816 15.724C14.2932 15.5866 14.4027 15.4497 14.5147 15.3144C15.4469 14.1867 16.4674 13.1477 17.6431 12.2659C17.8039 12.1453 17.9706 12.0322 18.1397 11.9234C18.1896 11.8914 18.2566 11.873 18.3164 11.8715C18.5486 11.8655 18.7811 11.8731 19.013 11.8673C19.1306 11.8644 19.2109 11.9018 19.2483 12.0155V12.0485L19.2482 12.0487Z" fill="#E63946"/>
</svg>
