<svg width="22" height="22" viewBox="0 0 22 22" fill="none" xmlns="http://www.w3.org/2000/svg">
    <path fill-rule="evenodd" clip-rule="evenodd" d="M8.35164 20.6797C8.08377 20.4514 7.94982 20.3373 7.80677 20.2414C7.47886 20.0216 7.11059 19.8691 6.72331 19.7926C6.55436 19.7592 6.37893 19.7453 6.02809 19.7173C5.14657 19.6469 4.7058 19.6117 4.33808 19.4818C3.48757 19.1814 2.81856 18.5124 2.51816 17.6619C2.38827 17.2942 2.3531 16.8534 2.28274 15.9719C2.25475 15.6211 2.24076 15.4456 2.20739 15.2767C2.13093 14.8894 1.9784 14.5211 1.75862 14.1932C1.66274 14.0502 1.54859 13.9162 1.3203 13.6484C0.746716 12.9753 0.459912 12.6388 0.291744 12.2869C-0.0972481 11.473 -0.0972481 10.527 0.291744 9.71311C0.459923 9.36122 0.746716 9.02473 1.3203 8.35164C1.54856 8.08379 1.66274 7.94981 1.75862 7.80681C1.9784 7.4789 2.13093 7.11062 2.20739 6.72331C2.24076 6.55435 2.25475 6.3789 2.28274 6.02811C2.3531 5.14657 2.38827 4.7058 2.51816 4.33807C2.81856 3.48755 3.48757 2.81853 4.33808 2.51812C4.7058 2.38832 5.14657 2.35312 6.02809 2.28272C6.37893 2.25478 6.55436 2.2407 6.72331 2.20737C7.11059 2.13092 7.47886 1.97835 7.80677 1.75857C7.94982 1.66276 8.08376 1.54858 8.35164 1.32033C9.02473 0.746681 9.36122 0.459909 9.71311 0.291719C10.527 -0.0972404 11.473 -0.0972404 12.2869 0.291719C12.6388 0.459909 12.9753 0.746681 13.6484 1.32033C13.9162 1.54858 14.0502 1.66276 14.1932 1.75857C14.5211 1.97835 14.8894 2.13092 15.2767 2.20737C15.4457 2.2407 15.6211 2.25478 15.9719 2.28272C16.8534 2.35312 17.2942 2.38832 17.6619 2.51812C18.5124 2.81853 19.1815 3.48755 19.4819 4.33807C19.6117 4.7058 19.6469 5.14657 19.7173 6.02811C19.7452 6.3789 19.7593 6.55435 19.7926 6.72331C19.8691 7.11062 20.0217 7.4789 20.2414 7.80681C20.3372 7.94981 20.4514 8.08379 20.6797 8.35164C21.2533 9.02473 21.5401 9.36122 21.7083 9.71311C22.0972 10.527 22.0972 11.473 21.7083 12.2869C21.5401 12.6388 21.2533 12.9753 20.6797 13.6484C20.4514 13.9162 20.3372 14.0502 20.2414 14.1932C20.0217 14.5211 19.8691 14.8894 19.7926 15.2767C19.7593 15.4456 19.7452 15.6211 19.7173 15.9719C19.6469 16.8534 19.6117 17.2942 19.4819 17.6619C19.1815 18.5124 18.5124 19.1814 17.6619 19.4818C17.2942 19.6117 16.8534 19.6469 15.9719 19.7173C15.6211 19.7453 15.4457 19.7592 15.2767 19.7926C14.8894 19.8691 14.5211 20.0216 14.1932 20.2414C14.0502 20.3373 13.9162 20.4514 13.6484 20.6797C12.9753 21.2533 12.6388 21.5401 12.2869 21.7083C11.473 22.0972 10.527 22.0972 9.71311 21.7083C9.36122 21.5401 9.02473 21.2533 8.35164 20.6797Z" fill="#026F62"/>
    <path d="M15.9998 7.21403C15.9458 7.27317 15.9027 7.34147 15.8365 7.38992C14.5935 8.29526 13.5319 9.32668 12.5258 10.3957C11.1862 11.8189 9.97071 13.3076 8.83414 14.8375C8.78731 14.9006 8.70297 14.9463 8.63604 15H8.51371C8.45119 14.9473 8.37544 14.9012 8.32861 14.8406C7.47838 13.744 6.52911 12.7011 5.58622 11.6549C5.41804 11.4683 5.24618 11.2837 5.07701 11.0973C4.9662 10.9753 4.9738 10.8949 5.10741 10.7895C5.32414 10.6182 5.54233 10.4484 5.76053 10.2783C5.91915 10.1548 6.00152 10.1497 6.18736 10.2526C6.94221 10.6706 7.69682 11.0889 8.45144 11.5071C8.47473 11.5199 8.49851 11.5322 8.53013 11.5489C8.69464 11.3868 8.8562 11.2253 9.02119 11.0658C10.3956 9.73567 11.9001 8.51026 13.6334 7.47028C13.8705 7.32804 14.1162 7.19457 14.3655 7.06635C14.439 7.0286 14.5378 7.00681 14.6261 7.00506C14.9684 6.99805 15.3111 7.007 15.6531 7.00019C15.8264 6.99669 15.9448 7.04086 16 7.17492V7.21383L15.9998 7.21403Z" fill="white"/>
</svg>
