<svg width="24" height="24" viewBox="0 0 24 24" fill="none" xmlns="http://www.w3.org/2000/svg">
<g id="Group 427321162">
<path id="Vector" fill-rule="evenodd" clip-rule="evenodd" d="M23.7203 16.0955C23.9416 15.6202 23.9653 15.077 23.7869 14.5836C23.6074 14.0913 23.2393 13.6905 22.7651 13.4692C22.0402 13.1316 21.0714 12.6788 20.3454 12.3412C19.8711 12.1199 19.328 12.0961 18.8346 12.2757C18.3423 12.4541 17.9415 12.8222 17.7201 13.2975C17.0156 14.8083 15.7295 17.5668 15.2553 18.583C15.0509 19.0211 15.0148 19.5202 15.1525 19.9831C15.4325 20.9191 16.0908 23.1255 16.0908 23.1255C16.1608 23.3569 16.3257 23.5477 16.5447 23.6505C16.7638 23.7521 17.0167 23.7555 17.238 23.6595C17.238 23.6595 19.3517 22.7472 20.2483 22.3599C20.6931 22.168 21.0511 21.8191 21.2554 21.381L23.7203 16.0955ZM22.1858 15.3796L19.721 20.6651C19.6916 20.7272 19.6408 20.778 19.5764 20.8051L17.4413 21.7276L16.7751 19.4987C16.7559 19.4321 16.7615 19.3609 16.7897 19.2988L19.2546 14.0123C19.2862 13.9445 19.3438 13.8926 19.4138 13.8666C19.485 13.8406 19.5618 13.844 19.6306 13.8768L22.0492 15.0037C22.117 15.0353 22.1689 15.0929 22.1949 15.1629C22.2208 15.234 22.2175 15.3119 22.1858 15.3796Z" fill="black"/>
<path id="Vector_2" fill-rule="evenodd" clip-rule="evenodd" d="M13.8318 21.4639H1.91951C1.85967 21.4639 1.80209 21.4402 1.76031 21.3973C1.7174 21.3555 1.69369 21.2979 1.69369 21.2381V19.6008C1.69369 18.6625 2.36326 17.8371 3.39528 17.1337C5.23802 15.877 8.22004 15.0843 11.5735 15.0843C12.5107 15.0843 13.4185 15.1464 14.2823 15.265C14.7453 15.3271 15.1721 15.003 15.2353 14.5401C15.2985 14.0771 14.9733 13.6492 14.5104 13.586C13.5744 13.4584 12.5898 13.3906 11.5735 13.3906C7.82259 13.3906 4.50183 14.3289 2.44004 15.7347C0.867169 16.8074 0 18.1702 0 19.6008V21.2381C0 21.7473 0.202114 22.2351 0.562305 22.5953C0.922496 22.9555 1.41028 23.1576 1.91951 23.1576H13.8318C14.2993 23.1576 14.6786 22.7782 14.6786 22.3107C14.6786 21.8433 14.2993 21.4639 13.8318 21.4639Z" fill="black"/>
<path id="Vector_3" fill-rule="evenodd" clip-rule="evenodd" d="M11.5735 0C8.14545 0 5.36328 2.7833 5.36328 6.21019C5.36328 9.63822 8.14545 12.4204 11.5735 12.4204C15.0015 12.4204 17.7837 9.63822 17.7837 6.21019C17.7837 2.7833 15.0015 0 11.5735 0ZM11.5735 1.69369C14.0666 1.69369 16.09 3.71821 16.09 6.21019C16.09 8.70331 14.0666 10.7267 11.5735 10.7267C9.08037 10.7267 7.05697 8.70331 7.05697 6.21019C7.05697 3.71821 9.08037 1.69369 11.5735 1.69369Z" fill="black"/>
</g>
</svg>
