<svg width="19" height="26" viewBox="0 0 19 26" fill="none" xmlns="http://www.w3.org/2000/svg">
<g id="Frame" clip-path="url(#clip0_735_815)">
<g id="Clip path group">
<mask id="mask0_735_815" style="mask-type:luminance" maskUnits="userSpaceOnUse" x="7" y="0" width="12" height="23">
<g id="clippath">
<path id="Vector" d="M10.4428 4.26229C12.334 4.47722 14.17 5.34056 15.62 6.85254C19 10.3775 19 16.0926 15.62 19.6175L13.1246 22.2197C12.3496 21.5435 11.6514 20.8053 11.0314 20.0174C9.09774 17.5594 7.92634 14.6183 7.56459 11.5718H7.56437L7.56134 11.5454L7.5516 11.4594C7.54792 11.4273 7.54424 11.395 7.54099 11.3629L7.53082 11.2645L7.52216 11.176C7.51913 11.1446 7.51631 11.1135 7.5135 11.0821L7.50506 10.9864L7.4977 10.8958L7.49034 10.8015L7.48384 10.7089L7.47735 10.6116L7.47194 10.5199L7.46674 10.4267L7.46219 10.3312L7.45786 10.2357L7.45462 10.1483L7.45115 10.0485L7.44877 9.96093L7.44639 9.85775L7.44509 9.77489L7.44379 9.67059L7.44336 9.58525V9.48275L7.44379 9.3965C7.44401 9.36241 7.44423 9.32855 7.44487 9.29445L7.44617 9.21137C7.44682 9.17457 7.44747 9.13755 7.44855 9.10075L7.4505 9.02805L7.45418 8.91313L7.45721 8.83411L7.46154 8.73094L7.46328 8.69233H7.46349C7.61113 5.66251 8.55782 2.64466 10.3497 0C9.64306 2.89955 9.63072 5.8867 10.2574 8.71897L10.2804 8.8217L10.2882 8.85556C10.3042 8.92577 10.3209 8.99599 10.3375 9.06598L10.3475 9.10774L10.3707 9.20189L10.385 9.25901L10.4114 9.36331L10.4194 9.39357C10.4503 9.513 10.4824 9.63198 10.5157 9.75073L10.5265 9.78934L10.5568 9.895L10.5692 9.93767C10.6027 10.0526 10.6374 10.1673 10.6729 10.2817L10.6852 10.3215L10.7168 10.4208L10.7339 10.4741L10.7664 10.5741L10.7668 10.5752C10.7813 10.6195 10.7961 10.6635 10.811 10.7075L10.8426 10.8001L10.8591 10.8477L10.8939 10.9473L10.9114 10.997L10.9472 11.0963L10.9645 11.1435C10.9853 11.2004 11.0063 11.2571 11.0277 11.314L11.0485 11.369L11.087 11.4693L11.1041 11.5133C11.8259 13.3696 12.841 15.1143 14.1312 16.669C15.7135 14.3546 15.5087 11.1218 13.5173 9.04521C12.7055 8.19857 11.7094 7.66169 10.664 7.43435C10.4999 6.38587 10.4257 5.32431 10.4425 4.26229" fill="white"/>
</g>
</mask>
<g mask="url(#mask0_735_815)">
<g id="Group">
<path id="Vector_2" d="M19.0005 0H7.44434V22.2199H19.0005V0Z" fill="#016F61"/>
</g>
</g>
</g>
<g id="Clip path group_2">
<mask id="mask1_735_815" style="mask-type:luminance" maskUnits="userSpaceOnUse" x="7" y="1" width="10" height="14">
<g id="clippath-1">
<path id="Vector_3" d="M16.1737 7.8098C15.962 7.52737 15.7318 7.25486 15.4825 6.99478C14.1671 5.62301 12.4744 4.74815 10.636 4.4901C10.6328 5.41846 10.6999 6.3466 10.8365 7.2639C11.9061 7.5233 12.8775 8.08795 13.6558 8.89959C14.0697 9.33126 14.4102 9.81395 14.6761 10.3294C15.2675 9.55996 15.7719 8.71469 16.1735 7.80958M9.92876 1.03583C8.57097 3.34929 7.77625 5.97408 7.65935 8.70001L7.65329 8.84089L7.65026 8.91855L7.64658 9.03234L7.64463 9.10504C7.64376 9.14116 7.64311 9.17729 7.64246 9.21341L7.64095 9.29649C7.64051 9.32968 7.6403 9.36287 7.64008 9.39606L7.63965 9.48095V9.58254L7.64008 9.6663L7.64138 9.76993L7.64246 9.85121L7.64484 9.95371L7.64701 10.0399L7.65026 10.1388L7.6535 10.2246L7.65762 10.3195L7.66216 10.4131L7.66736 10.5057L7.67255 10.5956L7.67905 10.692L7.68533 10.783L7.69269 10.8766L7.69983 10.9656L7.70827 11.0613C7.71087 11.0918 7.71369 11.1225 7.7165 11.153L7.72516 11.2408L7.73533 11.3392C7.73858 11.3706 7.74226 11.402 7.74573 11.4334L7.75525 11.5176L7.7585 11.544C7.88276 12.5686 8.0973 13.5744 8.39799 14.549C9.5445 14.2463 10.6239 13.7678 11.608 13.1427C11.3571 12.6361 11.1287 12.117 10.9237 11.5871L10.8674 11.4408L10.8467 11.3858C10.825 11.3284 10.8038 11.2711 10.7828 11.2137L10.7653 11.1654L10.7293 11.0654L10.7113 11.0148L10.6761 10.9141L10.628 10.7735C10.6128 10.7292 10.5983 10.6845 10.5834 10.64L10.5496 10.5366L10.5323 10.4827L10.5005 10.3822L10.4882 10.3425C10.4522 10.2269 10.4171 10.1108 10.3834 9.99457L10.3706 9.951L10.3401 9.84421L10.3293 9.8056C10.2957 9.68572 10.2632 9.56538 10.2318 9.44482L10.2236 9.41322L10.1968 9.30801L10.1823 9.25021L10.1587 9.15471L10.1487 9.11294C10.1316 9.04205 10.1149 8.97139 10.0987 8.90027L10.0907 8.8655L10.0677 8.76277C9.49925 6.22333 9.45812 3.58838 9.92833 1.03516L9.92876 1.03583Z" fill="white"/>
</g>
</mask>
<g mask="url(#mask1_735_815)">
<g id="Group_2">
<path id="Vector_4" d="M16.1739 1.03516H7.63965V14.5492H16.1739V1.03516Z" fill="#008070"/>
</g>
</g>
</g>
<g id="Clip path group_3">
<mask id="mask2_735_815" style="mask-type:luminance" maskUnits="userSpaceOnUse" x="0" y="2" width="13" height="24">
<g id="clippath-2">
<path id="Vector_5" d="M12.6723 22.693L9.49973 26.0014L3.37971 19.6189C-0.000267506 16.094 -0.000267506 10.3789 3.37971 6.85392C3.88498 6.32698 4.43724 5.87883 5.02239 5.50947C3.08724 8.85966 2.98073 13.0235 4.7414 16.4769C3.40482 12.5857 3.96184 8.26024 6.23514 4.87438C6.5787 4.45694 7.40026 3.46739 8.18632 2.64062C7.38554 4.53505 6.91707 6.57149 6.82723 8.66414L6.82095 8.80886L6.8177 8.89239L6.81381 9.01047L6.81186 9.08317C6.81078 9.12245 6.81013 9.16196 6.80926 9.20124L6.80796 9.28433C6.80731 9.3209 6.8071 9.35748 6.80688 9.39405L6.80645 9.48458V9.59002L6.80688 9.68055L6.80818 9.78711L6.80948 9.87516L6.81186 9.98082L6.81446 10.0736L6.81792 10.1759L6.82138 10.2685L6.82571 10.366L6.83048 10.4671L6.83589 10.5622L6.84152 10.6593L6.84823 10.7588L6.85515 10.8566L6.86273 10.9525L6.87053 11.0487L6.87897 11.1444C6.882 11.1781 6.88481 11.2119 6.88828 11.2456L6.89737 11.3363L6.90754 11.4348C6.91101 11.4693 6.91512 11.5041 6.91902 11.5386L6.92941 11.6301L6.93266 11.6565C7.32363 14.8793 8.56192 17.9268 10.5391 20.44C11.182 21.2575 11.8973 22.0114 12.6725 22.6925" fill="white"/>
</g>
</mask>
<g mask="url(#mask2_735_815)">
<g id="Group_3">
<path id="Vector_6" d="M12.6726 2.64062H0V26.0014H12.6726V2.64062Z" fill="#004E44"/>
</g>
</g>
</g>
<g id="Clip path group_4">
<mask id="mask3_735_815" style="mask-type:luminance" maskUnits="userSpaceOnUse" x="1" y="3" width="7" height="12">
<g id="clippath-3">
<path id="Vector_7" d="M3.84548 14.8055C2.94642 11.9642 3.15771 8.84274 4.4616 6.14706C4.12756 6.40579 3.81214 6.69026 3.51751 6.99753C1.67284 8.92153 0.858427 11.5127 1.07383 14.0259C1.94994 14.398 2.87888 14.6631 3.84548 14.8055ZM7.62401 3.54733C7.2023 4.02234 6.79184 4.51 6.38918 4.99902C5.28987 6.63901 4.58305 8.52937 4.32759 10.5127C4.13969 11.9723 4.20052 13.452 4.50338 14.8827C4.83309 14.9116 5.16647 14.9274 5.50332 14.9274C6.14412 14.9274 6.77257 14.8732 7.38566 14.7703C7.08323 13.7674 6.86631 12.7339 6.73859 11.682L6.73512 11.6538L6.72473 11.5623C6.72062 11.5271 6.7165 11.4917 6.71304 11.4562L6.70287 11.3571L6.69377 11.2664C6.69031 11.2318 6.68728 11.1973 6.68425 11.163L6.67559 11.0654L6.66779 10.9686L6.66022 10.8708L6.65329 10.7724L6.64658 10.671L6.64095 10.5735L6.63554 10.4769L6.63056 10.3748L6.62623 10.2757L6.62277 10.1824L6.6193 10.0786L6.61692 9.9849L6.61454 9.87766L6.61324 9.78893L6.61194 9.68079L6.61151 9.58935V9.48279L6.61194 9.39226C6.61194 9.35478 6.61237 9.31753 6.61302 9.28005L6.61454 9.19719C6.61519 9.15701 6.61584 9.11704 6.61692 9.07686L6.61887 9.00303L6.62277 8.8836L6.62601 8.79916L6.63229 8.65444C6.70741 6.90586 7.04491 5.18415 7.62401 3.54688V3.54733Z" fill="white"/>
</g>
</mask>
<g mask="url(#mask3_735_815)">
<g id="Group_4">
<path id="Vector_8" d="M7.62398 3.54688H0.858398V14.927H7.62398V3.54688Z" fill="#005B50"/>
</g>
</g>
</g>
</g>
<defs>
<clipPath id="clip0_735_815">
<rect width="19" height="26" fill="white"/>
</clipPath>
</defs>
</svg>
