<svg width="27" height="22" viewBox="0 0 27 22" fill="none" xmlns="http://www.w3.org/2000/svg">
<g id="Group">
<g id="Group_2">
<path id="Vector" d="M26.4394 20.3252H20.702V17.6045C21.9548 17.436 23.0653 16.6536 23.711 15.4673C24.5688 15.2712 25.3481 14.7745 25.9247 14.0518C26.5505 13.2671 26.8952 12.2643 26.8952 11.2281C26.8952 9.65173 26.088 8.19272 24.818 7.43488C24.6857 4.80614 22.6593 2.71011 20.1913 2.71011C19.4144 2.71011 18.6457 2.92154 17.9684 3.32155C17.7577 3.44599 17.6877 3.71767 17.8121 3.92837C17.9366 4.13917 18.2084 4.20909 18.419 4.08465C18.96 3.76516 19.5728 3.59633 20.1913 3.59633C22.2537 3.59633 23.9348 5.43765 23.9387 7.70094C23.939 7.86772 24.0329 8.02022 24.1817 8.09554C25.2917 8.65735 26.0089 9.8869 26.0089 11.228C26.0089 12.9206 24.8627 14.3861 23.3426 14.6368C23.2002 14.6604 23.0782 14.7516 23.0156 14.8816C22.5402 15.8675 21.6812 16.5339 20.702 16.7074V12.7864L22.8828 10.781C23.0629 10.6153 23.0747 10.335 22.909 10.1549C22.7433 9.97474 22.463 9.96292 22.2829 10.1286L20.702 11.5824V8.62436C20.702 8.37962 20.5036 8.18122 20.2588 8.18122C20.0141 8.18122 19.8157 8.37962 19.8157 8.62436V13.9876L18.2347 12.5339C18.0546 12.3681 17.7743 12.38 17.6086 12.5601C17.443 12.7402 17.4547 13.0205 17.6349 13.1862L19.8157 15.1916V16.7282C18.7708 16.5936 17.8493 15.9022 17.3548 14.856C17.2957 14.7309 17.1816 14.6406 17.0463 14.6119C15.5759 14.2995 14.5087 12.8765 14.5087 11.228C14.5087 9.92825 15.1642 8.75185 16.2193 8.1581C16.3605 8.07863 16.4471 7.92845 16.4451 7.7665C16.445 7.75421 16.4445 7.74202 16.4441 7.72988C16.4439 7.72284 16.4436 7.71586 16.4436 7.70887C16.4436 6.78577 16.716 5.91357 17.2314 5.18667C17.3729 4.987 17.3258 4.71038 17.1262 4.56892C16.9265 4.4273 16.6499 4.47452 16.5085 4.67408C15.9213 5.50216 15.5955 6.48315 15.5606 7.52181C14.3588 8.3055 13.6225 9.70137 13.6225 11.2281C13.6225 13.2139 14.8833 14.9437 16.6502 15.4274C17.3153 16.68 18.4917 17.4906 19.8158 17.6203V20.3252H19.5352C19.4699 19.1655 18.6772 18.1566 17.5732 17.8159C17.2269 17.079 16.5541 16.5447 15.7629 16.3714C15.5035 15.1924 14.4422 14.3132 13.2054 14.3132C12.2516 14.3132 11.3868 14.8258 10.9258 15.6417C10.018 15.6762 9.20171 16.1612 8.73283 16.9126C8.44061 16.1087 7.69206 15.5233 6.81566 15.4604V14.2953C8.01191 14.129 9.07117 13.3808 9.69008 12.2489C10.5122 12.059 11.2589 11.582 11.8116 10.889C12.4135 10.1345 12.745 9.17024 12.745 8.17386C12.745 6.66164 11.9723 5.26157 10.7558 4.53125C10.6238 2.00926 8.67752 0 6.3077 0C5.39867 0 4.52432 0.293167 3.77908 0.847932C3.58283 0.994017 3.54212 1.27169 3.68821 1.46799C3.83429 1.66424 4.11191 1.70495 4.30827 1.55887C4.89933 1.11877 5.59072 0.886226 6.3077 0.886226C8.27183 0.886226 9.87283 2.64061 9.87656 4.79705C9.87687 4.96383 9.97074 5.11633 10.1196 5.19166C11.176 5.72635 11.8586 6.89697 11.8586 8.17386C11.8586 9.78521 10.768 11.1802 9.32169 11.4188C9.17938 11.4423 9.05736 11.5336 8.99469 11.6636C8.54583 12.5944 7.73797 13.2262 6.81555 13.3975V9.67416L8.89741 7.75983C9.07753 7.59415 9.08924 7.31385 8.92362 7.13373C8.75799 6.95355 8.47764 6.94178 8.29752 7.10751L6.81555 8.47024V5.68123C6.81555 5.4365 6.61715 5.23809 6.37241 5.23809C6.12768 5.23809 5.92928 5.4365 5.92928 5.68123V10.773L4.44736 9.41025C4.26719 9.24452 3.98689 9.25634 3.82126 9.43646C3.65559 9.61659 3.66735 9.89694 3.84748 10.0626L5.92922 11.9769V13.4182C4.94398 13.2834 4.0764 12.6278 3.60915 11.6393C3.55005 11.5142 3.43591 11.4239 3.30064 11.3952C1.90162 11.0979 0.886174 9.74318 0.886174 8.17386C0.886174 6.93621 1.50996 5.81628 2.51417 5.25117C2.65526 5.17175 2.74183 5.02183 2.73994 4.85993C2.73984 4.84795 2.73947 4.83598 2.73905 4.82405C2.73889 4.81759 2.73858 4.81118 2.73858 4.80462C2.73858 4.25652 2.83959 3.7265 3.03878 3.22931C3.09804 3.08159 3.16627 2.93651 3.24176 2.79793C3.35879 2.58298 3.27947 2.31393 3.06452 2.19689C2.84957 2.07975 2.58046 2.15912 2.46348 2.37407C2.3715 2.54301 2.28829 2.71982 2.21622 2.89968C1.99791 3.44447 1.87693 4.02061 1.85576 4.61504C0.704789 5.36973 0 6.70923 0 8.17386C0 10.0805 1.20913 11.742 2.90468 12.2102C3.54228 13.4055 4.66478 14.1811 5.92928 14.3109V15.5784C5.44432 15.7478 5.02929 16.0829 4.76228 16.5329C3.68616 16.5941 2.81664 17.3889 2.64812 18.437C1.85445 18.7895 1.26439 19.4886 1.04712 20.3251H0.443139C0.198404 20.3251 0 20.5235 0 20.7682C0 21.0129 0.198404 21.2113 0.443139 21.2113H1.41389H11.4173H19.0785H26.4394C26.6841 21.2113 26.8825 21.0129 26.8825 20.7682C26.8825 20.5235 26.6841 20.3252 26.4394 20.3252ZM1.97653 20.3252C2.18791 19.7865 2.63257 19.3574 3.19905 19.1739C3.37728 19.1161 3.49994 18.9526 3.50546 18.7654C3.52778 18.0084 4.13865 17.4154 4.89618 17.4154C4.92654 17.4154 4.95974 17.4168 5.00055 17.4198C5.19039 17.4335 5.368 17.3251 5.4417 17.1495C5.64824 16.6582 6.126 16.3406 6.65886 16.3406C7.34311 16.3406 7.92072 16.8744 7.97388 17.5559C7.9909 17.7734 8.16367 17.9463 8.38125 17.9633C8.50207 17.9727 8.61889 17.9992 8.72952 18.0397C8.72999 18.0398 8.73041 18.0401 8.73089 18.0402C8.75143 18.0478 8.77165 18.0559 8.79172 18.0644C8.79602 18.0663 8.80038 18.0681 8.80469 18.07C8.82344 18.0782 8.84199 18.0867 8.86022 18.0957C8.86641 18.0988 8.87251 18.102 8.87865 18.1052C8.90392 18.1181 8.92866 18.1318 8.95293 18.1463C8.96617 18.1542 8.97951 18.1619 8.99243 18.1703C9.00226 18.1766 9.01171 18.1834 9.02127 18.1898C9.03582 18.1998 9.05027 18.2098 9.06445 18.2204C9.07249 18.2263 9.08042 18.2323 9.08825 18.2385C9.10537 18.2518 9.12229 18.2656 9.13873 18.2798C9.1433 18.2837 9.14787 18.2874 9.15238 18.2914C9.19604 18.33 9.23717 18.3717 9.27546 18.4159C9.27898 18.42 9.28245 18.4241 9.28591 18.4283C9.30204 18.4473 9.31759 18.4669 9.33267 18.4869C9.33556 18.4908 9.33855 18.4946 9.34139 18.4984C9.37579 18.5453 9.40715 18.5947 9.43531 18.6462C9.43904 18.653 9.44256 18.66 9.44623 18.667C9.45621 18.686 9.46572 18.7055 9.47481 18.7252C9.47844 18.7329 9.48206 18.7407 9.48553 18.7485C9.49672 18.7741 9.50733 18.8 9.51694 18.8263C9.51731 18.8272 9.51762 18.8281 9.51799 18.829C9.56994 18.9725 9.69213 19.0792 9.84131 19.1114C9.88092 19.1199 9.91974 19.1303 9.95792 19.142C9.97038 19.1458 9.98246 19.1505 9.9948 19.1546C10.0202 19.1632 10.0455 19.1718 10.0703 19.1817C10.0846 19.1874 10.0985 19.1939 10.1125 19.2C10.1346 19.2097 10.1566 19.2195 10.1782 19.2302C10.1927 19.2374 10.2068 19.2452 10.2209 19.2529C10.2413 19.2639 10.2615 19.2752 10.2812 19.2871C10.2952 19.2956 10.309 19.3044 10.3227 19.3133C10.3419 19.3257 10.3607 19.3387 10.3792 19.3521C10.3924 19.3616 10.4054 19.3711 10.4182 19.381C10.4366 19.3952 10.4543 19.4099 10.4719 19.4249C10.4839 19.435 10.4959 19.4451 10.5075 19.4556C10.5256 19.472 10.5428 19.4891 10.56 19.5063C10.5701 19.5164 10.5806 19.5263 10.5904 19.5368C10.6098 19.5574 10.628 19.5788 10.6462 19.6004C10.6529 19.6084 10.66 19.616 10.6666 19.6241C10.6908 19.6543 10.7138 19.6852 10.7356 19.7172C10.7401 19.7239 10.7441 19.7311 10.7485 19.7378C10.7653 19.7633 10.7816 19.7891 10.7968 19.8156C10.8036 19.8277 10.8097 19.8402 10.8163 19.8524C10.828 19.8744 10.8396 19.8964 10.8502 19.9189C10.8569 19.9329 10.8627 19.9473 10.8689 19.9614C10.8782 19.983 10.8873 20.0046 10.8956 20.0267C10.9013 20.0418 10.9065 20.0571 10.9117 20.0724C10.9191 20.0943 10.926 20.1163 10.9324 20.1386C10.9369 20.1543 10.9411 20.1702 10.9452 20.1861C10.9508 20.2087 10.9557 20.2314 10.9603 20.2544C10.9635 20.2703 10.9666 20.2863 10.9693 20.3025C10.9705 20.31 10.9712 20.3176 10.9723 20.3252H1.97653ZM11.8658 20.3252V20.3252C11.8654 20.321 11.8645 20.3168 11.8642 20.3127C11.8591 20.2598 11.8526 20.2072 11.8439 20.1552C11.8434 20.1522 11.8427 20.1491 11.8422 20.1461C11.8331 20.0931 11.8224 20.0406 11.8098 19.9887C11.8092 19.9865 11.8088 19.9842 11.8082 19.982C11.7956 19.9306 11.7809 19.8799 11.7649 19.8298C11.7632 19.8244 11.7616 19.8189 11.7598 19.8136C11.7441 19.7654 11.7265 19.7179 11.7077 19.6709C11.705 19.6641 11.7023 19.6573 11.6995 19.6506C11.6806 19.6046 11.6602 19.5594 11.6385 19.5149C11.635 19.5079 11.6316 19.5009 11.6281 19.4939C11.6059 19.4497 11.5825 19.4062 11.5577 19.3636C11.5539 19.3571 11.5501 19.3507 11.5463 19.3443C11.5208 19.3013 11.494 19.259 11.4658 19.2178C11.4624 19.2127 11.4589 19.2079 11.4554 19.2029C11.426 19.1606 11.3954 19.119 11.3634 19.0787C11.3614 19.0762 11.3593 19.0738 11.3573 19.0712C11.3237 19.0294 11.289 18.9887 11.2527 18.9492C11.2523 18.9488 11.2519 18.9483 11.2515 18.9479C11.2156 18.9089 11.1781 18.8712 11.1396 18.8347C11.1363 18.8315 11.133 18.8282 11.1297 18.825C11.0926 18.7903 11.0543 18.7569 11.015 18.7245C11.0097 18.7202 11.0045 18.7158 10.9992 18.7115C10.9606 18.6802 10.9208 18.6502 10.8801 18.6214C10.8738 18.6169 10.8675 18.6124 10.8612 18.608C10.8206 18.5798 10.7789 18.5528 10.7364 18.5271C10.7297 18.5231 10.723 18.5191 10.7163 18.5151C10.6732 18.4897 10.6293 18.4655 10.5844 18.4427C10.5783 18.4396 10.572 18.4367 10.5659 18.4336C10.5196 18.4108 10.4727 18.3891 10.4247 18.3692C10.4204 18.3674 10.4161 18.3659 10.4119 18.3642C10.3616 18.3437 10.3106 18.3247 10.2586 18.3077C10.2584 18.3077 10.2582 18.3076 10.258 18.3074C10.2558 18.3029 10.2532 18.2986 10.2509 18.2941C10.233 18.2582 10.2143 18.223 10.1945 18.1883C10.1844 18.1706 10.1737 18.1533 10.1632 18.1359C10.1504 18.1149 10.1375 18.094 10.1241 18.0735C10.1113 18.0537 10.098 18.0342 10.0845 18.0149C10.0727 17.9982 10.0606 17.9817 10.0484 17.9652C10.0331 17.9445 10.0177 17.9238 10.0016 17.9037C9.99217 17.8918 9.98225 17.8805 9.97258 17.8689C9.93523 17.824 9.8962 17.7807 9.85539 17.7389C9.84835 17.7317 9.84162 17.7242 9.83453 17.7171C9.81426 17.6969 9.7933 17.6776 9.77229 17.6582C9.76015 17.647 9.74807 17.6359 9.73567 17.625C9.71561 17.6073 9.69523 17.59 9.67442 17.573C9.6593 17.5606 9.6439 17.5487 9.62846 17.5366C9.60918 17.5218 9.59006 17.5067 9.57026 17.4925C9.54242 17.4723 9.51395 17.4531 9.48516 17.4342C9.47749 17.4292 9.47019 17.4236 9.46241 17.4186C9.78537 16.8731 10.3765 16.5262 11.0297 16.5262C11.0697 16.5262 11.1131 16.5281 11.1662 16.5319C11.3558 16.5461 11.5336 16.4372 11.6073 16.2617C11.8784 15.6165 12.5057 15.1996 13.2054 15.1996C14.1038 15.1996 14.8621 15.9006 14.9319 16.7954C14.9489 17.0129 15.1217 17.1857 15.3393 17.2027C16.0152 17.2554 16.6011 17.7016 16.832 18.3396C16.8839 18.4831 17.0061 18.5898 17.1553 18.6219C17.9729 18.7981 18.5794 19.5012 18.6475 20.3254H11.8658V20.3252Z" fill="black"/>
</g>
</g>
</svg>
