<svg width="160" height="127" viewBox="0 0 160 127" fill="none" xmlns="http://www.w3.org/2000/svg">
<path d="M8.60762 117.82H2.79219V96.7266H8.60762V105.94H16.3127V96.7266H22.1281V117.82H16.3127V108.621H8.60762V117.82ZM45.3301 109.324C45.3301 110.203 45.2129 111.028 44.9785 111.8C44.7441 112.571 44.417 113.284 43.9971 113.938C43.5869 114.593 43.0889 115.184 42.5029 115.711C41.917 116.229 41.2725 116.668 40.5693 117.029C39.876 117.391 39.1289 117.669 38.3281 117.864C37.5371 118.06 36.7217 118.157 35.8818 118.157C35.042 118.157 34.2266 118.06 33.4356 117.864C32.6445 117.669 31.8975 117.391 31.1943 117.029C30.501 116.668 29.8613 116.229 29.2754 115.711C28.6895 115.184 28.1865 114.593 27.7666 113.938C27.3564 113.284 27.0342 112.571 26.7998 111.8C26.5654 111.019 26.4482 110.193 26.4482 109.324C26.4482 108.455 26.5654 107.635 26.7998 106.863C27.0342 106.082 27.3564 105.364 27.7666 104.71C28.1865 104.056 28.6895 103.47 29.2754 102.952C29.8613 102.425 30.501 101.98 31.1943 101.619C31.8975 101.258 32.6445 100.979 33.4356 100.784C34.2266 100.589 35.042 100.491 35.8818 100.491C36.7217 100.491 37.5371 100.589 38.3281 100.784C39.1289 100.979 39.876 101.258 40.5693 101.619C41.2725 101.98 41.917 102.425 42.5029 102.952C43.0889 103.47 43.5869 104.056 43.9971 104.71C44.417 105.364 44.7441 106.082 44.9785 106.863C45.2129 107.635 45.3301 108.455 45.3301 109.324ZM40.291 109.324C40.291 108.855 40.2617 108.362 40.2031 107.845C40.1543 107.317 40.0664 106.805 39.9395 106.307C39.8125 105.799 39.6367 105.315 39.4121 104.856C39.1973 104.388 38.9287 103.982 38.6064 103.641C38.2842 103.289 37.8984 103.011 37.4492 102.806C37 102.591 36.4775 102.483 35.8818 102.483C35.3154 102.483 34.8125 102.591 34.3731 102.806C33.9336 103.021 33.5479 103.309 33.2158 103.67C32.8936 104.021 32.6201 104.432 32.3955 104.9C32.1807 105.369 32.0049 105.857 31.8682 106.365C31.7314 106.863 31.6338 107.371 31.5752 107.889C31.5166 108.396 31.4873 108.875 31.4873 109.324C31.4873 109.773 31.5166 110.257 31.5752 110.774C31.6338 111.282 31.7314 111.79 31.8682 112.298C32.0049 112.806 32.1807 113.294 32.3955 113.763C32.6201 114.222 32.8936 114.632 33.2158 114.993C33.5479 115.345 33.9336 115.628 34.3731 115.843C34.8125 116.058 35.3154 116.165 35.8818 116.165C36.4678 116.165 36.9854 116.062 37.4346 115.857C37.8838 115.643 38.2695 115.359 38.5918 115.008C38.9238 114.656 39.1973 114.251 39.4121 113.792C39.627 113.333 39.7979 112.85 39.9248 112.342C40.0615 111.834 40.1543 111.321 40.2031 110.804C40.2617 110.286 40.291 109.793 40.291 109.324ZM48.8006 110.584C48.8006 109.812 48.8641 109.012 48.991 108.182C49.1277 107.352 49.3182 106.521 49.5623 105.691C49.8162 104.861 50.1189 104.041 50.4705 103.23C50.8221 102.42 51.2176 101.644 51.657 100.901H55.2752C55.0311 101.634 54.8113 102.4 54.616 103.201C54.4305 103.992 54.2693 104.788 54.1326 105.589C54.0057 106.38 53.9031 107.156 53.825 107.918C53.7566 108.68 53.7225 109.388 53.7225 110.042C53.7225 110.423 53.7371 110.833 53.7664 111.272C53.8055 111.702 53.8689 112.137 53.9568 112.576C54.0447 113.006 54.1668 113.421 54.3231 113.821C54.4891 114.222 54.699 114.578 54.9529 114.891C55.2068 115.193 55.5145 115.438 55.8758 115.623C56.2469 115.799 56.6814 115.887 57.1795 115.887C57.6678 115.887 58.1023 115.779 58.4832 115.564C58.8738 115.34 59.2156 115.052 59.5086 114.7C59.8016 114.339 60.0506 113.929 60.2557 113.47C60.4607 113.011 60.6268 112.542 60.7537 112.063C60.8904 111.575 60.9881 111.102 61.0467 110.643C61.115 110.174 61.1492 109.754 61.1492 109.383V100.901H66.1004V117.82H64.1961L61.9256 113.88C61.6424 114.534 61.2957 115.13 60.8856 115.667C60.4852 116.194 60.0262 116.648 59.5086 117.029C58.991 117.41 58.4148 117.703 57.7801 117.908C57.1551 118.113 56.4764 118.216 55.7439 118.216C54.5721 118.216 53.5516 118.025 52.6824 117.645C51.8133 117.264 51.0906 116.736 50.5145 116.062C49.9383 115.389 49.5086 114.588 49.2254 113.66C48.9422 112.723 48.8006 111.697 48.8006 110.584ZM85.9918 112.415C85.9918 113.157 85.8844 113.816 85.6695 114.393C85.4547 114.969 85.1617 115.472 84.7906 115.901C84.4195 116.321 83.9801 116.678 83.4723 116.971C82.9645 117.254 82.4176 117.483 81.8316 117.659C81.2555 117.835 80.65 117.962 80.0152 118.04C79.3805 118.118 78.7506 118.157 78.1256 118.157C77.2857 118.157 76.5436 118.104 75.899 117.996C75.2545 117.889 74.6393 117.718 74.0533 117.483C73.4674 117.239 72.8814 116.927 72.2955 116.546C71.7193 116.165 71.0748 115.701 70.3619 115.154L73.2477 112.796C73.5113 113.294 73.858 113.748 74.2877 114.158C74.7271 114.559 75.1813 114.905 75.65 115.198C76.1188 115.491 76.5729 115.716 77.0123 115.872C77.4518 116.028 77.8082 116.106 78.0816 116.106C78.3063 116.106 78.5602 116.102 78.8434 116.092C79.1266 116.072 79.4146 116.043 79.7076 116.004C80.0006 115.955 80.2887 115.887 80.5719 115.799C80.8551 115.711 81.1041 115.594 81.3189 115.447C81.5436 115.291 81.7193 115.101 81.8463 114.876C81.983 114.642 82.0514 114.363 82.0514 114.041C82.0514 113.709 81.9635 113.421 81.7877 113.177C81.6217 112.923 81.402 112.703 81.1285 112.518C80.8551 112.332 80.5426 112.176 80.191 112.049C79.8395 111.922 79.483 111.81 79.1217 111.712C78.7701 111.614 78.4283 111.531 78.0963 111.463C77.7643 111.385 77.4762 111.312 77.232 111.243C76.7828 111.116 76.3092 110.989 75.8111 110.862C75.3131 110.726 74.8199 110.574 74.3316 110.408C73.8434 110.232 73.3746 110.027 72.9254 109.793C72.4859 109.559 72.0953 109.28 71.7535 108.958C71.4215 108.626 71.1529 108.24 70.9479 107.801C70.7525 107.352 70.6549 106.829 70.6549 106.233C70.6549 105.14 70.8697 104.227 71.2994 103.494C71.7389 102.752 72.315 102.161 73.0279 101.722C73.7408 101.272 74.5514 100.955 75.4596 100.77C76.3678 100.584 77.2906 100.491 78.2281 100.491C78.8727 100.491 79.5514 100.56 80.2643 100.696C80.9771 100.823 81.6705 101.019 82.3443 101.282C83.0182 101.536 83.648 101.849 84.234 102.22C84.8199 102.591 85.3082 103.016 85.6988 103.494L82.8131 105.867C82.5982 105.281 82.315 104.778 81.9635 104.358C81.6217 103.938 81.2457 103.597 80.8355 103.333C80.4352 103.06 80.0201 102.859 79.5904 102.732C79.1705 102.605 78.7799 102.542 78.4186 102.542C78.067 102.542 77.6715 102.557 77.232 102.586C76.7926 102.615 76.3775 102.698 75.9869 102.835C75.6061 102.972 75.2789 103.182 75.0055 103.465C74.7418 103.738 74.61 104.119 74.61 104.607C74.61 104.959 74.6881 105.262 74.8443 105.516C75.0104 105.76 75.2252 105.975 75.4889 106.16C75.7525 106.336 76.0504 106.487 76.3824 106.614C76.7242 106.731 77.0709 106.839 77.4225 106.937C77.774 107.024 78.1158 107.103 78.4479 107.171C78.7799 107.239 79.0777 107.312 79.3414 107.391C79.7906 107.518 80.2643 107.649 80.7623 107.786C81.2701 107.913 81.7682 108.064 82.2564 108.24C82.7447 108.406 83.2135 108.606 83.6627 108.841C84.1217 109.065 84.5221 109.344 84.8639 109.676C85.2057 110.008 85.4791 110.398 85.6842 110.848C85.8893 111.287 85.9918 111.81 85.9918 112.415ZM94.3988 109.793C95.0043 109.93 95.6098 110.037 96.2152 110.115C96.8207 110.193 97.4311 110.232 98.0463 110.232C98.6908 110.232 99.2865 110.174 99.8334 110.057C100.39 109.93 100.869 109.725 101.269 109.441C101.679 109.148 102.001 108.763 102.236 108.284C102.47 107.806 102.587 107.21 102.587 106.497C102.587 105.921 102.509 105.394 102.353 104.915C102.197 104.437 101.962 104.026 101.65 103.685C101.347 103.343 100.971 103.079 100.522 102.894C100.073 102.698 99.5502 102.601 98.9545 102.601C98.3979 102.601 97.8949 102.703 97.4457 102.908C97.0063 103.113 96.6156 103.392 96.2738 103.743C95.9418 104.085 95.6537 104.485 95.4096 104.944C95.1752 105.403 94.9799 105.882 94.8236 106.38C94.6674 106.878 94.5551 107.381 94.4867 107.889C94.4184 108.396 94.3842 108.875 94.3842 109.324C94.3842 109.402 94.3842 109.48 94.3842 109.559C94.3842 109.637 94.3891 109.715 94.3988 109.793ZM106.601 106.453C106.601 107.146 106.489 107.767 106.264 108.313C106.039 108.851 105.732 109.324 105.341 109.734C104.96 110.145 104.516 110.491 104.008 110.774C103.5 111.058 102.958 111.292 102.382 111.478C101.806 111.653 101.21 111.78 100.595 111.858C99.9897 111.937 99.3988 111.976 98.8227 111.976C98.0902 111.976 97.3676 111.927 96.6547 111.829C95.9418 111.722 95.2387 111.556 94.5453 111.331C94.6527 111.976 94.8236 112.591 95.058 113.177C95.2924 113.753 95.6049 114.261 95.9955 114.7C96.3861 115.13 96.8647 115.472 97.4311 115.726C98.0072 115.979 98.6859 116.106 99.4672 116.106C99.9848 116.106 100.478 116.028 100.947 115.872C101.415 115.716 101.845 115.496 102.236 115.213C102.626 114.93 102.968 114.593 103.261 114.202C103.564 113.812 103.808 113.377 103.994 112.898L106.132 113.689C105.81 114.461 105.366 115.13 104.799 115.696C104.243 116.253 103.608 116.717 102.895 117.088C102.192 117.449 101.44 117.718 100.639 117.894C99.8481 118.069 99.0619 118.157 98.2807 118.157C96.9916 118.157 95.8002 117.942 94.7065 117.513C93.6127 117.073 92.6703 116.463 91.8793 115.682C91.0883 114.9 90.4682 113.968 90.019 112.884C89.5697 111.8 89.3451 110.613 89.3451 109.324C89.3451 108.035 89.5697 106.849 90.019 105.765C90.4682 104.681 91.0883 103.748 91.8793 102.967C92.6703 102.186 93.6127 101.58 94.7065 101.15C95.8002 100.711 96.9916 100.491 98.2807 100.491C98.9057 100.491 99.5453 100.535 100.2 100.623C100.854 100.711 101.489 100.853 102.104 101.048C102.719 101.233 103.3 101.478 103.847 101.78C104.394 102.083 104.868 102.459 105.268 102.908C105.678 103.348 106 103.86 106.235 104.446C106.479 105.032 106.601 105.701 106.601 106.453ZM117.103 111.199C117.103 112.557 116.927 113.938 116.575 115.345C116.234 116.741 115.75 118.094 115.125 119.402C114.51 120.721 113.768 121.951 112.899 123.094C112.029 124.236 111.072 125.232 110.028 126.082L107.772 124.72C108.358 123.919 108.87 123.011 109.31 121.995C109.749 120.979 110.115 119.925 110.408 118.831C110.701 117.737 110.921 116.639 111.068 115.535C111.214 114.432 111.287 113.382 111.287 112.386V96.7266H117.103V111.199ZM140.539 109.324C140.539 110.203 140.422 111.028 140.188 111.8C139.953 112.571 139.626 113.284 139.206 113.938C138.796 114.593 138.298 115.184 137.712 115.711C137.126 116.229 136.481 116.668 135.778 117.029C135.085 117.391 134.338 117.669 133.537 117.864C132.746 118.06 131.931 118.157 131.091 118.157C130.251 118.157 129.436 118.06 128.645 117.864C127.854 117.669 127.106 117.391 126.403 117.029C125.71 116.668 125.07 116.229 124.484 115.711C123.898 115.184 123.396 114.593 122.976 113.938C122.565 113.284 122.243 112.571 122.009 111.8C121.774 111.019 121.657 110.193 121.657 109.324C121.657 108.455 121.774 107.635 122.009 106.863C122.243 106.082 122.565 105.364 122.976 104.71C123.396 104.056 123.898 103.47 124.484 102.952C125.07 102.425 125.71 101.98 126.403 101.619C127.106 101.258 127.854 100.979 128.645 100.784C129.436 100.589 130.251 100.491 131.091 100.491C131.931 100.491 132.746 100.589 133.537 100.784C134.338 100.979 135.085 101.258 135.778 101.619C136.481 101.98 137.126 102.425 137.712 102.952C138.298 103.47 138.796 104.056 139.206 104.71C139.626 105.364 139.953 106.082 140.188 106.863C140.422 107.635 140.539 108.455 140.539 109.324ZM135.5 109.324C135.5 108.855 135.471 108.362 135.412 107.845C135.363 107.317 135.275 106.805 135.148 106.307C135.021 105.799 134.846 105.315 134.621 104.856C134.406 104.388 134.138 103.982 133.815 103.641C133.493 103.289 133.107 103.011 132.658 102.806C132.209 102.591 131.687 102.483 131.091 102.483C130.524 102.483 130.021 102.591 129.582 102.806C129.143 103.021 128.757 103.309 128.425 103.67C128.103 104.021 127.829 104.432 127.604 104.9C127.39 105.369 127.214 105.857 127.077 106.365C126.94 106.863 126.843 107.371 126.784 107.889C126.726 108.396 126.696 108.875 126.696 109.324C126.696 109.773 126.726 110.257 126.784 110.774C126.843 111.282 126.94 111.79 127.077 112.298C127.214 112.806 127.39 113.294 127.604 113.763C127.829 114.222 128.103 114.632 128.425 114.993C128.757 115.345 129.143 115.628 129.582 115.843C130.021 116.058 130.524 116.165 131.091 116.165C131.677 116.165 132.194 116.062 132.644 115.857C133.093 115.643 133.479 115.359 133.801 115.008C134.133 114.656 134.406 114.251 134.621 113.792C134.836 113.333 135.007 112.85 135.134 112.342C135.271 111.834 135.363 111.321 135.412 110.804C135.471 110.286 135.5 109.793 135.5 109.324ZM159.581 100.901L153.429 115.784C152.725 117.483 151.939 119.163 151.07 120.823C150.211 122.493 149.278 124.095 148.272 125.628L146.339 124.456C146.583 124.017 146.871 123.509 147.203 122.933C147.535 122.356 147.862 121.761 148.184 121.146C148.507 120.53 148.804 119.92 149.078 119.314C149.351 118.719 149.561 118.172 149.708 117.674L142.31 100.901H147.262L152.286 112.342L156.153 100.901H159.581Z" fill="#01110F"/>
<g clip-path="url(#clip0_2142_235)">
<mask id="mask0_2142_235" style="mask-type:luminance" maskUnits="userSpaceOnUse" x="72" y="0" width="38" height="76">
<path d="M83.0238 14.4283C89.5476 15.1559 95.881 18.0784 100.883 23.1966C112.542 35.1288 112.542 54.4751 100.883 66.4074L92.2749 75.2161C89.6014 72.9272 87.193 70.4281 85.0543 67.7608C78.3841 59.4404 74.3433 49.4845 73.0954 39.1717H73.0947L73.0842 39.0823L73.0506 38.7911C73.0379 38.6826 73.0252 38.5733 73.014 38.4648L72.9789 38.1316L72.9491 37.832C72.9386 37.7258 72.9289 37.6203 72.9192 37.5141L72.8901 37.19L72.8647 36.8835L72.8393 36.5641L72.8169 36.2507L72.7945 35.9214L72.7758 35.6111L72.7579 35.2954L72.7422 34.9722L72.7273 34.6489L72.7161 34.3531L72.7041 34.0153L72.6959 33.7188L72.6877 33.3695L72.6832 33.089L72.6787 32.736L72.6772 32.4471V32.1001L72.6787 31.8082C72.6795 31.6928 72.6802 31.5781 72.6825 31.4627L72.687 31.1815C72.6892 31.0569 72.6914 30.9316 72.6952 30.807L72.7019 30.5609L72.7146 30.1719L72.725 29.9044L72.74 29.5551L72.746 29.4245H72.7467C73.256 19.1682 76.5216 8.95244 82.7027 0C80.2652 9.81528 80.2227 19.9271 82.3846 29.5146L82.4637 29.8624L82.4906 29.977C82.5459 30.2147 82.6034 30.4524 82.6609 30.6893L82.6952 30.8307L82.7751 31.1494L82.8244 31.3427L82.9155 31.6958L82.9432 31.7982C83.0499 32.2025 83.1605 32.6053 83.2755 33.0073L83.3128 33.138L83.4174 33.4956L83.4599 33.6401C83.5757 34.0291 83.6952 34.4173 83.8176 34.8048L83.8602 34.9393L83.9692 35.2756L84.0282 35.4559L84.1402 35.7945L84.1417 35.7983C84.1918 35.9481 84.2425 36.0971 84.2941 36.2462L84.4031 36.5595L84.4599 36.7208L84.5801 37.0578L84.6406 37.2259L84.7638 37.5622L84.8235 37.7219C84.8952 37.9145 84.9677 38.1064 85.0416 38.2989L85.1133 38.4854L85.2462 38.8247L85.3052 38.9738C87.795 45.2575 91.2966 51.1636 95.7474 56.4262C101.206 48.5919 100.499 37.6486 93.6295 30.619C90.8291 27.753 87.3932 25.9356 83.787 25.166C83.221 21.6169 82.9648 18.0233 83.0231 14.4283" fill="white"/>
</mask>
<g mask="url(#mask0_2142_235)">
<path d="M112.543 0H72.6792V75.2169H112.543V0Z" fill="#016F61"/>
</g>
<mask id="mask1_2142_235" style="mask-type:luminance" maskUnits="userSpaceOnUse" x="73" y="3" width="30" height="47">
<path d="M102.791 26.4407C102.06 25.4846 101.266 24.5622 100.406 23.6818C95.8688 19.0382 90.0298 16.0767 83.6882 15.2032C83.677 18.3458 83.9085 21.4876 84.3797 24.5927C88.0695 25.4709 91.4203 27.3823 94.1049 30.1298C95.5327 31.591 96.7074 33.225 97.6245 34.9698C99.6646 32.3652 101.405 29.5038 102.79 26.4399M81.2484 3.51011C76.5647 11.3414 73.8233 20.2266 73.42 29.4542L73.3991 29.931L73.3886 30.1939L73.3759 30.5791L73.3692 30.8252C73.3662 30.9475 73.364 31.0698 73.3618 31.1921L73.3565 31.4733C73.355 31.5856 73.3543 31.698 73.3535 31.8103L73.3521 32.0977V32.4416L73.3535 32.7251L73.358 33.0759L73.3618 33.3511L73.37 33.698L73.3774 33.99L73.3886 34.3247L73.3998 34.6151L73.414 34.9361L73.4297 35.2533L73.4476 35.5666L73.4656 35.8708L73.488 36.1971L73.5096 36.5051L73.535 36.8223L73.5597 37.1234L73.5888 37.4475C73.5977 37.5506 73.6074 37.6546 73.6172 37.7577L73.647 38.055L73.6821 38.3883C73.6933 38.4945 73.706 38.6007 73.718 38.7069L73.7508 38.992L73.762 39.0814C74.1907 42.5496 74.9307 45.9543 75.968 49.2536C79.9229 48.2288 83.6463 46.6093 87.0412 44.4931C86.1757 42.7781 85.3878 41.0211 84.6806 39.2274L84.4865 38.7322L84.4148 38.5457C84.3401 38.3516 84.2669 38.1574 84.1945 37.9633L84.134 37.7998L84.01 37.4612L83.948 37.29L83.8263 36.9492L83.6605 36.473C83.6083 36.3232 83.5582 36.1719 83.5067 36.0214L83.3902 35.6713L83.3305 35.4887L83.2207 35.1486L83.1781 35.0141C83.0541 34.6228 82.9332 34.23 82.8167 33.8364L82.7726 33.6889L82.6673 33.3274L82.63 33.1967C82.5142 32.7909 82.4022 32.3835 82.2939 31.9754L82.2655 31.8684L82.1729 31.5123L82.1229 31.3166L82.0415 30.9934L82.0072 30.852C81.9482 30.612 81.8907 30.3728 81.8347 30.132L81.807 30.0143L81.7279 29.6666C79.7668 21.0703 79.625 12.1507 81.2469 3.50781L81.2484 3.51011Z" fill="white"/>
</mask>
<g mask="url(#mask1_2142_235)">
<path d="M102.79 3.50781H73.3511V49.2544H102.79V3.50781Z" fill="#008070"/>
</g>
<mask id="mask2_2142_235" style="mask-type:luminance" maskUnits="userSpaceOnUse" x="49" y="8" width="42" height="81">
<path d="M90.7149 76.8168L79.7709 88.0161L58.6596 66.4107C47.0002 54.4785 47.0002 35.1322 58.6596 23.2C60.4026 21.4162 62.3076 19.8992 64.3261 18.6488C57.6507 29.9896 57.2833 44.0847 63.3568 55.7747C58.7462 42.6028 60.6677 27.9605 68.5095 16.499C69.6947 15.0859 72.5287 11.7362 75.2402 8.9375C72.4779 15.3503 70.8619 22.2439 70.552 29.3277L70.5303 29.8176L70.5191 30.1004L70.5057 30.5001L70.4989 30.7462C70.4952 30.8792 70.493 31.0129 70.49 31.1459L70.4855 31.4271C70.4833 31.5509 70.4825 31.6747 70.4818 31.7986L70.4803 32.105V32.4619L70.4818 32.7684L70.4862 33.1291L70.4907 33.4272L70.4989 33.7848L70.5079 34.099L70.5199 34.4452L70.5318 34.7585L70.5467 35.0887L70.5632 35.431L70.5818 35.7528L70.6012 36.0814L70.6244 36.4185L70.6483 36.7494L70.6744 37.0742L70.7013 37.3998L70.7304 37.7238C70.7409 37.8377 70.7506 37.9523 70.7626 38.0662L70.7939 38.3734L70.829 38.7066C70.841 38.8236 70.8552 38.9413 70.8686 39.0582L70.9044 39.3677L70.9156 39.4571C72.2643 50.3668 76.5359 60.6827 83.3562 69.1903C85.5741 71.9577 88.0414 74.5095 90.7156 76.8153" fill="white"/>
</mask>
<g mask="url(#mask2_2142_235)">
<path d="M90.7147 8.9375H47V88.0161H90.7147V8.9375Z" fill="#004E44"/>
</g>
<mask id="mask3_2142_235" style="mask-type:luminance" maskUnits="userSpaceOnUse" x="50" y="12" width="24" height="39">
<path d="M60.2664 50.1117C57.165 40.4936 57.8939 29.927 62.3917 20.8019C61.2394 21.6777 60.1514 22.6407 59.135 23.6808C52.7718 30.1938 49.9624 38.9651 50.7054 47.4727C53.7276 48.7322 56.932 49.6295 60.2664 50.1117ZM73.3006 12.0015C71.8459 13.6095 70.43 15.2603 69.041 16.9157C65.2489 22.4672 62.8106 28.8663 61.9294 35.5802C61.2812 40.5211 61.4911 45.53 62.5358 50.3731C63.6732 50.4709 64.8232 50.5244 65.9852 50.5244C68.1956 50.5244 70.3635 50.341 72.4784 49.9925C71.4351 46.5977 70.6869 43.0989 70.2463 39.5383L70.2343 39.4427L70.1985 39.1332C70.1843 39.014 70.1701 38.894 70.1582 38.774L70.1231 38.4385L70.0917 38.1313C70.0797 38.0144 70.0693 37.8974 70.0588 37.7813L70.029 37.4511L70.0021 37.1232L69.9759 36.7923L69.952 36.4591L69.9289 36.116L69.9095 35.7858L69.8908 35.4587L69.8736 35.1133L69.8587 34.7778L69.8468 34.4621L69.8348 34.1106L69.8266 33.7934L69.8184 33.4304L69.8139 33.13L69.8094 32.7639L69.8079 32.4544V32.0937L69.8094 31.7872C69.8094 31.6604 69.8109 31.5343 69.8131 31.4074L69.8184 31.1269C69.8206 30.9909 69.8229 30.8556 69.8266 30.7196L69.8333 30.4697L69.8468 30.0654L69.858 29.7795L69.8796 29.2897C70.1387 23.3705 71.303 17.5424 73.3006 12V12.0015Z" fill="white"/>
</mask>
<g mask="url(#mask3_2142_235)">
<path d="M73.3011 12H49.9629V50.5229H73.3011V12Z" fill="#005B50"/>
</g>
</g>
<defs>
<clipPath id="clip0_2142_235">
<rect width="65.5414" height="88.0127" fill="white" transform="translate(47)"/>
</clipPath>
</defs>
</svg>
