<svg width="156" height="124" viewBox="0 0 156 124" fill="none" xmlns="http://www.w3.org/2000/svg">
<path d="M32.9817 106.805H29.3146V93.5035H32.9817V99.3135H37.8403V93.5035H41.5074V106.805H37.8403V101.004H32.9817V106.805ZM56.138 101.447C56.138 102.001 56.0641 102.522 55.9163 103.008C55.7685 103.495 55.5622 103.944 55.2974 104.357C55.0388 104.769 54.7247 105.142 54.3553 105.475C53.9858 105.801 53.5794 106.078 53.136 106.306C52.6988 106.534 52.2277 106.709 51.7227 106.832C51.2239 106.956 50.7097 107.017 50.1802 107.017C49.6506 107.017 49.1364 106.956 48.6376 106.832C48.1388 106.709 47.6677 106.534 47.2243 106.306C46.7871 106.078 46.3838 105.801 46.0143 105.475C45.6448 105.142 45.3277 104.769 45.0629 104.357C44.8043 103.944 44.601 103.495 44.4533 103.008C44.3055 102.516 44.2316 101.995 44.2316 101.447C44.2316 100.899 44.3055 100.382 44.4533 99.8954C44.601 99.4028 44.8043 98.9502 45.0629 98.5376C45.3277 98.125 45.6448 97.7556 46.0143 97.4292C46.3838 97.0967 46.7871 96.8165 47.2243 96.5886C47.6677 96.3608 48.1388 96.1853 48.6376 96.0621C49.1364 95.939 49.6506 95.8774 50.1802 95.8774C50.7097 95.8774 51.2239 95.939 51.7227 96.0621C52.2277 96.1853 52.6988 96.3608 53.136 96.5886C53.5794 96.8165 53.9858 97.0967 54.3553 97.4292C54.7247 97.7556 55.0388 98.125 55.2974 98.5376C55.5622 98.9502 55.7685 99.4028 55.9163 99.8954C56.0641 100.382 56.138 100.899 56.138 101.447ZM52.9605 101.447C52.9605 101.152 52.942 100.841 52.9051 100.514C52.8743 100.182 52.8188 99.8585 52.7388 99.5444C52.6587 99.2242 52.5479 98.9194 52.4063 98.63C52.2708 98.3344 52.1014 98.0789 51.8982 97.8633C51.695 97.6416 51.4518 97.4661 51.1685 97.3368C50.8852 97.2013 50.5558 97.1336 50.1802 97.1336C49.823 97.1336 49.5059 97.2013 49.2288 97.3368C48.9516 97.4723 48.7084 97.654 48.499 97.8818C48.2958 98.1035 48.1234 98.3621 47.9818 98.6577C47.8463 98.9533 47.7354 99.2612 47.6492 99.5814C47.563 99.8954 47.5014 100.216 47.4645 100.542C47.4275 100.862 47.4091 101.164 47.4091 101.447C47.4091 101.731 47.4275 102.035 47.4645 102.362C47.5014 102.682 47.563 103.002 47.6492 103.322C47.7354 103.643 47.8463 103.95 47.9818 104.246C48.1234 104.535 48.2958 104.794 48.499 105.022C48.7084 105.244 48.9516 105.422 49.2288 105.558C49.5059 105.693 49.823 105.761 50.1802 105.761C50.5496 105.761 50.876 105.696 51.1593 105.567C51.4425 105.431 51.6858 105.253 51.889 105.031C52.0984 104.81 52.2708 104.554 52.4063 104.265C52.5417 103.975 52.6495 103.67 52.7296 103.35C52.8158 103.03 52.8743 102.707 52.9051 102.38C52.942 102.054 52.9605 101.743 52.9605 101.447ZM58.3264 102.242C58.3264 101.755 58.3664 101.25 58.4465 100.727C58.5327 100.203 58.6528 99.6799 58.8067 99.1565C58.9668 98.6331 59.1577 98.1158 59.3794 97.6047C59.6011 97.0936 59.8505 96.604 60.1276 96.136H62.4091C62.2552 96.5979 62.1166 97.0813 61.9935 97.5862C61.8765 98.085 61.7749 98.5869 61.6887 99.0918C61.6086 99.5906 61.5439 100.08 61.4947 100.561C61.4516 101.041 61.43 101.487 61.43 101.9C61.43 102.14 61.4393 102.399 61.4577 102.676C61.4824 102.947 61.5224 103.221 61.5778 103.498C61.6332 103.769 61.7102 104.031 61.8087 104.283C61.9134 104.535 62.0458 104.76 62.2059 104.957C62.366 105.148 62.56 105.302 62.7879 105.419C63.0219 105.53 63.2959 105.585 63.6099 105.585C63.9178 105.585 64.1919 105.518 64.432 105.382C64.6783 105.241 64.8939 105.059 65.0786 104.837C65.2634 104.609 65.4204 104.351 65.5497 104.061C65.679 103.772 65.7837 103.476 65.8638 103.175C65.95 102.867 66.0115 102.568 66.0485 102.279C66.0916 101.983 66.1132 101.718 66.1132 101.484V96.136H69.2352V106.805H68.0344L66.6027 104.32C66.4241 104.733 66.2055 105.108 65.9469 105.447C65.6944 105.779 65.405 106.066 65.0786 106.306C64.7522 106.546 64.3889 106.731 63.9887 106.86C63.5945 106.989 63.1666 107.054 62.7047 107.054C61.9658 107.054 61.3223 106.934 60.7742 106.694C60.2261 106.454 59.7705 106.121 59.4071 105.696C59.0438 105.271 58.7729 104.766 58.5943 104.181C58.4157 103.59 58.3264 102.944 58.3264 102.242ZM81.7783 103.396C81.7783 103.864 81.7105 104.28 81.5751 104.643C81.4396 105.007 81.2549 105.324 81.0208 105.595C80.7868 105.859 80.5097 106.084 80.1895 106.269C79.8693 106.448 79.5245 106.592 79.155 106.703C78.7917 106.814 78.4099 106.894 78.0096 106.943C77.6093 106.993 77.2121 107.017 76.818 107.017C76.2885 107.017 75.8204 106.983 75.414 106.916C75.0076 106.848 74.6196 106.74 74.2502 106.592C73.8807 106.438 73.5112 106.241 73.1417 106.001C72.7784 105.761 72.372 105.468 71.9225 105.124L73.7421 103.636C73.9084 103.95 74.127 104.237 74.398 104.495C74.6751 104.748 74.9614 104.967 75.257 105.151C75.5526 105.336 75.8389 105.478 76.116 105.576C76.3931 105.675 76.6179 105.724 76.7903 105.724C76.932 105.724 77.0921 105.721 77.2706 105.715C77.4492 105.702 77.6309 105.684 77.8156 105.659C78.0004 105.629 78.182 105.585 78.3606 105.53C78.5392 105.475 78.6962 105.401 78.8317 105.308C78.9733 105.21 79.0842 105.09 79.1642 104.948C79.2504 104.8 79.2935 104.625 79.2935 104.422C79.2935 104.212 79.2381 104.031 79.1273 103.877C79.0226 103.716 78.884 103.578 78.7116 103.461C78.5392 103.344 78.3421 103.245 78.1204 103.165C77.8988 103.085 77.674 103.014 77.4461 102.953C77.2245 102.891 77.0089 102.839 76.7996 102.796C76.5902 102.747 76.4085 102.7 76.2546 102.657C75.9713 102.577 75.6727 102.497 75.3586 102.417C75.0445 102.331 74.7336 102.235 74.4257 102.131C74.1178 102.02 73.8222 101.891 73.5389 101.743C73.2618 101.595 73.0155 101.42 72.8 101.216C72.5906 101.007 72.4212 100.764 72.2919 100.487C72.1688 100.203 72.1072 99.8739 72.1072 99.4983C72.1072 98.8086 72.2427 98.2328 72.5136 97.771C72.7907 97.3029 73.154 96.9304 73.6036 96.6533C74.0531 96.37 74.5642 96.1699 75.1369 96.0529C75.7096 95.9359 76.2915 95.8774 76.8827 95.8774C77.2891 95.8774 77.7171 95.9205 78.1666 96.0067C78.6162 96.0867 79.0534 96.2099 79.4783 96.3762C79.9032 96.5363 80.3004 96.7333 80.6698 96.9673C81.0393 97.2013 81.3472 97.4692 81.5935 97.771L79.7739 99.2673C79.6384 98.8979 79.4598 98.5807 79.2381 98.3159C79.0226 98.0511 78.7855 97.8356 78.5269 97.6693C78.2744 97.4969 78.0127 97.3707 77.7417 97.2906C77.4769 97.2106 77.2306 97.1706 77.0028 97.1706C76.7811 97.1706 76.5317 97.1798 76.2546 97.1983C75.9775 97.2167 75.7158 97.2691 75.4694 97.3553C75.2293 97.4415 75.023 97.5739 74.8506 97.7525C74.6843 97.9249 74.6012 98.1651 74.6012 98.473C74.6012 98.6946 74.6504 98.8855 74.749 99.0457C74.8536 99.1996 74.9891 99.3351 75.1554 99.4521C75.3217 99.5629 75.5095 99.6584 75.7188 99.7384C75.9344 99.8123 76.153 99.8801 76.3747 99.9416C76.5964 99.9971 76.8119 100.046 77.0213 100.089C77.2306 100.133 77.4184 100.179 77.5847 100.228C77.868 100.308 78.1666 100.391 78.4807 100.477C78.8009 100.557 79.115 100.653 79.4229 100.764C79.7308 100.868 80.0263 100.995 80.3096 101.142C80.599 101.284 80.8515 101.46 81.067 101.669C81.2826 101.878 81.455 102.125 81.5843 102.408C81.7136 102.685 81.7783 103.014 81.7783 103.396ZM87.0796 101.743C87.4613 101.829 87.8431 101.897 88.2249 101.946C88.6067 101.995 88.9916 102.02 89.3796 102.02C89.786 102.02 90.1616 101.983 90.5065 101.909C90.8575 101.829 91.1592 101.7 91.4117 101.521C91.6703 101.336 91.8735 101.093 92.0213 100.791C92.1691 100.49 92.243 100.114 92.243 99.6645C92.243 99.3012 92.1937 98.9687 92.0952 98.6669C91.9967 98.3652 91.8489 98.1066 91.6518 97.891C91.4609 97.6755 91.2239 97.5092 90.9406 97.3922C90.6573 97.2691 90.3279 97.2075 89.9522 97.2075C89.6012 97.2075 89.2841 97.2722 89.0008 97.4015C88.7237 97.5308 88.4774 97.7063 88.2619 97.928C88.0525 98.1435 87.8709 98.396 87.7169 98.6854C87.5691 98.9748 87.446 99.2766 87.3474 99.5906C87.2489 99.9047 87.1781 100.222 87.135 100.542C87.0919 100.862 87.0703 101.164 87.0703 101.447C87.0703 101.497 87.0703 101.546 87.0703 101.595C87.0703 101.644 87.0734 101.694 87.0796 101.743ZM94.7739 99.6368C94.7739 100.074 94.7031 100.465 94.5615 100.81C94.4199 101.149 94.2259 101.447 93.9796 101.706C93.7394 101.965 93.4592 102.183 93.139 102.362C92.8188 102.54 92.477 102.688 92.1137 102.805C91.7504 102.916 91.3747 102.996 90.9868 103.045C90.605 103.095 90.2324 103.119 89.8691 103.119C89.4073 103.119 88.9516 103.088 88.502 103.027C88.0525 102.959 87.6091 102.854 87.1719 102.713C87.2397 103.119 87.3474 103.507 87.4952 103.877C87.643 104.24 87.8401 104.56 88.0864 104.837C88.3327 105.108 88.6344 105.324 88.9916 105.484C89.3549 105.644 89.7829 105.724 90.2755 105.724C90.6019 105.724 90.9129 105.675 91.2085 105.576C91.5041 105.478 91.775 105.339 92.0213 105.161C92.2676 104.982 92.4832 104.769 92.6679 104.523C92.8588 104.277 93.0128 104.003 93.1298 103.701L94.4784 104.2C94.2751 104.686 93.995 105.108 93.6378 105.465C93.2868 105.816 92.8865 106.109 92.437 106.343C91.9936 106.571 91.5194 106.74 91.0145 106.851C90.5157 106.962 90.02 107.017 89.5273 107.017C88.7145 107.017 87.9632 106.882 87.2735 106.611C86.5838 106.334 85.9896 105.949 85.4908 105.456C84.992 104.963 84.601 104.375 84.3177 103.692C84.0344 103.008 83.8928 102.26 83.8928 101.447C83.8928 100.634 84.0344 99.8862 84.3177 99.2027C84.601 98.5191 84.992 97.9311 85.4908 97.4384C85.9896 96.9458 86.5838 96.564 87.2735 96.293C87.9632 96.0159 88.7145 95.8774 89.5273 95.8774C89.9215 95.8774 90.3248 95.9051 90.7374 95.9605C91.15 96.0159 91.5502 96.1052 91.9382 96.2284C92.3261 96.3454 92.6925 96.4993 93.0374 96.6902C93.3822 96.8811 93.6809 97.1182 93.9334 97.4015C94.192 97.6786 94.3952 98.0019 94.543 98.3714C94.697 98.7408 94.7739 99.1627 94.7739 99.6368ZM101.396 102.63C101.396 103.486 101.285 104.357 101.064 105.244C100.848 106.124 100.543 106.977 100.149 107.802C99.7611 108.634 99.2931 109.41 98.7451 110.13C98.197 110.85 97.5935 111.479 96.9346 112.014L95.5121 111.155C95.8816 110.65 96.2049 110.078 96.482 109.437C96.7591 108.797 96.9901 108.132 97.1748 107.442C97.3595 106.752 97.4981 106.06 97.5905 105.364C97.6828 104.668 97.729 104.006 97.729 103.378V93.5035H101.396V102.63ZM116.174 101.447C116.174 102.001 116.101 102.522 115.953 103.008C115.805 103.495 115.599 103.944 115.334 104.357C115.075 104.769 114.761 105.142 114.392 105.475C114.022 105.801 113.616 106.078 113.172 106.306C112.735 106.534 112.264 106.709 111.759 106.832C111.26 106.956 110.746 107.017 110.217 107.017C109.687 107.017 109.173 106.956 108.674 106.832C108.175 106.709 107.704 106.534 107.261 106.306C106.824 106.078 106.42 105.801 106.051 105.475C105.681 105.142 105.364 104.769 105.099 104.357C104.841 103.944 104.638 103.495 104.49 103.008C104.342 102.516 104.268 101.995 104.268 101.447C104.268 100.899 104.342 100.382 104.49 99.8954C104.638 99.4028 104.841 98.9502 105.099 98.5376C105.364 98.125 105.681 97.7556 106.051 97.4292C106.42 97.0967 106.824 96.8165 107.261 96.5886C107.704 96.3608 108.175 96.1853 108.674 96.0621C109.173 95.939 109.687 95.8774 110.217 95.8774C110.746 95.8774 111.26 95.939 111.759 96.0621C112.264 96.1853 112.735 96.3608 113.172 96.5886C113.616 96.8165 114.022 97.0967 114.392 97.4292C114.761 97.7556 115.075 98.125 115.334 98.5376C115.599 98.9502 115.805 99.4028 115.953 99.8954C116.101 100.382 116.174 100.899 116.174 101.447ZM112.997 101.447C112.997 101.152 112.978 100.841 112.942 100.514C112.911 100.182 112.855 99.8585 112.775 99.5444C112.695 99.2242 112.584 98.9194 112.443 98.63C112.307 98.3344 112.138 98.0789 111.935 97.8633C111.731 97.6416 111.488 97.4661 111.205 97.3368C110.922 97.2013 110.592 97.1336 110.217 97.1336C109.859 97.1336 109.542 97.2013 109.265 97.3368C108.988 97.4723 108.745 97.654 108.536 97.8818C108.332 98.1035 108.16 98.3621 108.018 98.6577C107.883 98.9533 107.772 99.2612 107.686 99.5814C107.6 99.8954 107.538 100.216 107.501 100.542C107.464 100.862 107.446 101.164 107.446 101.447C107.446 101.731 107.464 102.035 107.501 102.362C107.538 102.682 107.6 103.002 107.686 103.322C107.772 103.643 107.883 103.95 108.018 104.246C108.16 104.535 108.332 104.794 108.536 105.022C108.745 105.244 108.988 105.422 109.265 105.558C109.542 105.693 109.859 105.761 110.217 105.761C110.586 105.761 110.912 105.696 111.196 105.567C111.479 105.431 111.722 105.253 111.925 105.031C112.135 104.81 112.307 104.554 112.443 104.265C112.578 103.975 112.686 103.67 112.766 103.35C112.852 103.03 112.911 102.707 112.942 102.38C112.978 102.054 112.997 101.743 112.997 101.447ZM128.182 96.136L124.302 105.521C123.859 106.592 123.363 107.651 122.815 108.698C122.273 109.751 121.685 110.761 121.051 111.728L119.832 110.989C119.986 110.712 120.167 110.392 120.377 110.028C120.586 109.665 120.792 109.289 120.995 108.901C121.199 108.514 121.386 108.129 121.559 107.747C121.731 107.371 121.864 107.026 121.956 106.712L117.291 96.136H120.413L123.582 103.35L126.02 96.136H128.182Z" fill="white"/>
<g clip-path="url(#clip0_1996_5985)">
<mask id="mask0_1996_5985" style="mask-type:luminance" maskUnits="userSpaceOnUse" x="70" y="0" width="37" height="74">
<path d="M80.9531 14.0676C87.3139 14.777 93.4889 17.6264 98.3658 22.6166C109.734 34.2506 109.734 53.1132 98.3658 64.7472L89.9729 73.3357C87.3663 71.104 85.0181 68.6674 82.9328 66.0668C76.4294 57.9544 72.4896 48.2474 71.273 38.1924H71.2722L71.2621 38.1052L71.2293 37.8213C71.2169 37.7155 71.2045 37.609 71.1936 37.5032L71.1594 37.1783L71.1303 36.8862C71.1201 36.7826 71.1106 36.6798 71.1011 36.5762L71.0727 36.2603L71.048 35.9615L71.0232 35.65L71.0014 35.3445L70.9795 35.0233L70.9613 34.7208L70.9439 34.413L70.9286 34.0979L70.914 33.7827L70.9031 33.4943L70.8914 33.1649L70.8834 32.8758L70.8754 32.5353L70.8711 32.2618L70.8667 31.9176L70.8652 31.6359V31.2976L70.8667 31.0129C70.8674 30.9004 70.8681 30.7887 70.8703 30.6761L70.8747 30.4019C70.8769 30.2805 70.8791 30.1583 70.8827 30.0368L70.8893 29.7969L70.9016 29.4176L70.9118 29.1568L70.9264 28.8163L70.9322 28.6888H70.9329C71.4295 18.689 74.6135 8.72863 80.64 0C78.2635 9.5699 78.222 19.4289 80.3299 28.7768L80.4071 29.1158L80.4333 29.2276C80.4871 29.4593 80.5432 29.6911 80.5993 29.9221L80.6328 30.0599L80.7107 30.3706L80.7587 30.5592L80.8476 30.9034L80.8745 31.0033C80.9786 31.3974 81.0864 31.7901 81.1985 32.1821L81.2349 32.3095L81.3368 32.6582L81.3783 32.7991C81.4912 33.1783 81.6077 33.5569 81.7271 33.9347L81.7686 34.0658L81.8749 34.3937L81.9324 34.5695L82.0416 34.8996L82.0431 34.9034C82.0919 35.0494 82.1414 35.1947 82.1916 35.34L82.2979 35.6455L82.3533 35.8027L82.4705 36.1314L82.5295 36.2953L82.6496 36.6231L82.7079 36.7789C82.7778 36.9667 82.8484 37.1537 82.9205 37.3415L82.9904 37.5233L83.12 37.8541L83.1775 37.9994C85.605 44.126 89.0191 49.8845 93.3586 55.0156C98.6803 47.3771 97.9915 36.7073 91.2937 29.8535C88.5633 27.0592 85.2133 25.2873 81.6973 24.5369C81.1454 21.0764 80.8956 17.5728 80.9524 14.0676" fill="white"/>
</mask>
<g mask="url(#mask0_1996_5985)">
<path d="M109.733 0H70.8662V73.3364H109.733V0Z" fill="#F7EEEE"/>
</g>
<mask id="mask1_1996_5985" style="mask-type:luminance" maskUnits="userSpaceOnUse" x="71" y="3" width="30" height="46">
<path d="M100.22 25.7814C99.5081 24.8493 98.7341 23.9499 97.8954 23.0915C93.4714 18.564 87.7783 15.6765 81.5953 14.8248C81.5844 17.8889 81.8101 20.9522 82.2695 23.9797C85.8671 24.8359 89.1341 26.6995 91.7516 29.3783C93.1438 30.803 94.2891 32.3961 95.1832 34.0973C97.1724 31.5578 98.8688 28.768 100.219 25.7807M79.2166 3.42411C74.6499 11.0596 71.977 19.7227 71.5838 28.7196L71.5634 29.1845L71.5533 29.4409L71.5409 29.8164L71.5343 30.0563C71.5314 30.1756 71.5292 30.2948 71.527 30.414L71.5219 30.6882C71.5205 30.7978 71.5198 30.9073 71.519 31.0168L71.5176 31.297V31.6323L71.519 31.9088L71.5234 32.2508L71.527 32.5191L71.5351 32.8573L71.5423 33.142L71.5533 33.4684L71.5642 33.7515L71.578 34.0645L71.5933 34.3737L71.6108 34.6792L71.6282 34.9758L71.6501 35.294L71.6712 35.5943L71.696 35.9035L71.72 36.1971L71.7484 36.513C71.7571 36.6136 71.7666 36.715 71.7761 36.8156L71.8052 37.1054L71.8394 37.4303C71.8503 37.5339 71.8627 37.6375 71.8743 37.741L71.9064 38.019L71.9173 38.1062C72.3352 41.4876 73.0568 44.8072 74.0681 48.024C77.9242 47.0248 81.5545 45.4458 84.8645 43.3825C84.0206 41.7104 83.2524 39.9973 82.5629 38.2485L82.3736 37.7656L82.3037 37.5838C82.2309 37.3945 82.1596 37.2053 82.0889 37.016L82.03 36.8565L81.9091 36.5264L81.8487 36.3595L81.73 36.0272L81.5683 35.563C81.5174 35.4169 81.4686 35.2694 81.4183 35.1226L81.3048 34.7813L81.2465 34.6032L81.1395 34.2716L81.098 34.1405C80.9771 33.759 80.8592 33.376 80.7456 32.9922L80.7026 32.8484L80.6 32.496L80.5636 32.3685C80.4507 31.9729 80.3415 31.5757 80.2359 31.1778L80.2082 31.0735L80.118 30.7262L80.0692 30.5355L79.9898 30.2203L79.9563 30.0824C79.8988 29.8484 79.8427 29.6152 79.7881 29.3805L79.7612 29.2657L79.684 28.9267C77.772 20.5453 77.6337 11.8487 79.2151 3.42188L79.2166 3.42411Z" fill="white"/>
</mask>
<g mask="url(#mask1_1996_5985)">
<path d="M100.221 3.42578H71.5176V48.0287H100.221V3.42578Z" fill="white"/>
</g>
<mask id="mask2_1996_5985" style="mask-type:luminance" maskUnits="userSpaceOnUse" x="48" y="8" width="41" height="78">
<path d="M88.4478 74.8932L77.7774 85.8126L57.1939 64.7474C45.826 53.1134 45.826 34.2508 57.1939 22.6168C58.8933 20.8777 60.7507 19.3986 62.7188 18.1795C56.2102 29.2367 55.852 42.9794 61.7737 54.3772C57.2784 41.5346 59.1518 27.2583 66.7976 16.0834C67.9531 14.7056 70.7163 11.4397 73.36 8.71094C70.6668 14.9635 69.0911 21.6847 68.789 28.5914L68.7679 29.0691L68.7569 29.3448L68.7438 29.7345L68.7373 29.9744C68.7336 30.1041 68.7314 30.2345 68.7285 30.3641L68.7242 30.6383C68.722 30.759 68.7213 30.8798 68.7205 31.0005L68.7191 31.2993V31.6473L68.7205 31.9461L68.7249 32.2978L68.7293 32.5884L68.7373 32.9371L68.746 33.2434L68.7577 33.5809L68.7693 33.8864L68.7839 34.2083L68.7999 34.5421L68.8181 34.8559L68.837 35.1763L68.8596 35.5049L68.8829 35.8275L68.9084 36.1442L68.9346 36.4616L68.963 36.7776C68.9732 36.8886 68.9826 37.0004 68.9943 37.1114L69.0249 37.411L69.0591 37.7358C69.0707 37.8498 69.0846 37.9646 69.0977 38.0786L69.1326 38.3804L69.1436 38.4676C70.4585 49.1045 74.6233 59.1625 81.2731 67.4574C83.4355 70.1556 85.8412 72.6437 88.4485 74.8918" fill="white"/>
</mask>
<g mask="url(#mask2_1996_5985)">
<path d="M88.4485 8.71094H45.8267V85.8126H88.4485V8.71094Z" fill="#F7EEEE"/>
</g>
<mask id="mask3_1996_5985" style="mask-type:luminance" maskUnits="userSpaceOnUse" x="49" y="11" width="23" height="39">
<path d="M58.7642 48.862C55.7404 39.4844 56.451 29.182 60.8364 20.285C59.7129 21.1389 58.6521 22.0778 57.6611 23.0919C51.4569 29.4421 48.7178 37.9941 49.4423 46.289C52.3889 47.517 55.5132 48.3918 58.7642 48.862ZM71.4725 11.7046C70.0542 13.2724 68.6737 14.8819 67.3194 16.4959C63.6221 21.9086 61.2448 28.1477 60.3857 34.6938C59.7537 39.5112 59.9583 44.3949 60.9769 49.1169C62.0858 49.2122 63.2071 49.2644 64.34 49.2644C66.4952 49.2644 68.6089 49.0856 70.6709 48.7458C69.6537 45.4358 68.9242 42.0246 68.4946 38.5529L68.4829 38.4598L68.448 38.158C68.4342 38.0418 68.4203 37.9248 68.4087 37.8078L68.3745 37.4807L68.3439 37.1811C68.3322 37.0671 68.322 36.9531 68.3118 36.8399L68.2827 36.518L68.2565 36.1983L68.231 35.8756L68.2077 35.5507L68.1851 35.2162L68.1662 34.8943L68.148 34.5754L68.1313 34.2386L68.1167 33.9114L68.105 33.6037L68.0934 33.2609L68.0854 32.9517L68.0774 32.5977L68.073 32.3049L68.0686 31.948L68.0672 31.6462V31.2945L68.0686 30.9957C68.0686 30.872 68.0701 30.749 68.0723 30.6253L68.0774 30.3519C68.0796 30.2192 68.0818 30.0873 68.0854 29.9547L68.0919 29.711L68.105 29.3169L68.116 29.0382L68.1371 28.5605C68.3897 22.7894 69.5249 17.1069 71.4725 11.7031V11.7046Z" fill="white"/>
</mask>
<g mask="url(#mask3_1996_5985)">
<path d="M71.471 11.7031H48.7163V49.2629H71.471V11.7031Z" fill="white"/>
</g>
</g>
<defs>
<clipPath id="clip0_1996_5985">
<rect width="63.9029" height="85.8124" fill="white" transform="translate(45.8252)"/>
</clipPath>
</defs>
</svg>
