<svg width="19" height="23" viewBox="0 0 19 23" fill="none" xmlns="http://www.w3.org/2000/svg">
<path d="M15.3824 11.669C15.3726 9.85974 16.184 8.49416 17.8263 7.48847C16.9074 6.16234 15.5192 5.43272 13.6862 5.28975C11.951 5.15171 10.0545 6.31023 9.36042 6.31023C8.62722 6.31023 6.94577 5.33905 5.62603 5.33905C2.89855 5.38342 0 7.53284 0 11.9056C0 13.1973 0.234621 14.5316 0.703864 15.9087C1.32952 17.7179 3.58775 22.1548 5.94374 22.0809C7.17551 22.0513 8.04556 21.1984 9.64881 21.1984C11.2032 21.1984 12.0097 22.0809 13.3832 22.0809C15.7587 22.0464 17.8019 18.0137 18.3982 16.1995C15.2113 14.6861 15.3824 11.7627 15.3824 11.669ZM12.6158 3.57415C13.9502 1.97688 13.828 0.522566 13.7889 0C12.6109 0.0690182 11.2472 0.808499 10.47 1.72052C9.61459 2.69664 9.11113 3.90446 9.21867 5.2651C10.4944 5.3637 11.6578 4.70309 12.6158 3.57415Z" fill="black"/>
</svg>
