<svg width="16" height="11" viewBox="0 0 16 11" fill="none" xmlns="http://www.w3.org/2000/svg">
<path id="Path 2420" d="M0.750835 6.26831L13.4294 6.26831L10.0715 9.69003C10.0016 9.76129 9.94611 9.84589 9.90827 9.93899C9.87042 10.0321 9.85095 10.1319 9.85095 10.2326C9.85095 10.3334 9.87042 10.4332 9.90827 10.5263C9.94611 10.6194 10.0016 10.704 10.0715 10.7752C10.1414 10.8465 10.2244 10.903 10.3158 10.9416C10.4072 10.9802 10.5051 11 10.604 11C10.7029 11 10.8008 10.9802 10.8922 10.9416C10.9835 10.903 11.0665 10.8465 11.1365 10.7752L15.7794 6.0419C15.8493 5.97065 15.9048 5.88606 15.9427 5.79296C15.9805 5.69986 16 5.60007 16 5.49929C16 5.39852 15.9805 5.29873 15.9427 5.20563C15.9048 5.11253 15.8493 5.02793 15.7794 4.95668L11.1365 0.224755C10.9952 0.0808473 10.8037 4.994e-07 10.604 4.8194e-07C10.4043 4.6448e-07 10.2127 0.0808472 10.0715 0.224755C9.93028 0.368663 9.85095 0.563847 9.85095 0.767364C9.85095 0.970881 9.93028 1.16606 10.0715 1.30997L13.4294 4.73382L0.752923 4.73382C0.553235 4.73382 0.361726 4.81465 0.220525 4.95854C0.0793243 5.10243 -1.40883e-06 5.29758 -1.42662e-06 5.50106C-1.44441e-06 5.70455 0.0793242 5.8997 0.220525 6.04359C0.361726 6.18747 0.553235 6.26831 0.752922 6.26831L0.750835 6.26831Z" fill="#232837"/>
</svg>
