<svg width="35" height="35" viewBox="0 0 35 35" fill="none" xmlns="http://www.w3.org/2000/svg">
<path fill-rule="evenodd" clip-rule="evenodd" d="M7.58339 4C5.84333 4 4.31982 5.28971 4.15208 7.07136C3.94875 9.23101 3.94949 11.0084 4.1532 13.176C4.3207 14.9582 5.84412 16.25 7.58579 16.25H12.6584C14.3918 16.25 15.9122 14.9699 16.0874 13.1952C16.3036 11.0056 16.3041 9.21868 16.0893 7.05049C15.9136 5.27684 14.393 4 12.6621 4H7.58339ZM5.89438 7.2354C5.97288 6.40155 6.69639 5.75 7.58339 5.75H12.6621C13.5452 5.75 14.2658 6.39541 14.3478 7.22304C14.5512 9.27559 14.5509 10.9471 14.3459 13.0233C14.264 13.8532 13.5423 14.5 12.6584 14.5H7.58579C6.69831 14.5 5.97403 13.8475 5.89552 13.0122C5.70199 10.9529 5.70138 9.28531 5.89438 7.2354Z" fill="#98999A"/>
<path fill-rule="evenodd" clip-rule="evenodd" d="M7.58339 18C5.84333 18 4.31982 19.2897 4.15208 21.0714C3.94875 23.231 3.94949 25.0084 4.1532 27.1759C4.3207 28.9582 5.84412 30.25 7.58579 30.25H12.6584C14.3918 30.25 15.9122 28.9699 16.0874 27.1952C16.3036 25.0056 16.3041 23.2187 16.0893 21.0505C15.9136 19.2768 14.393 18 12.6621 18H7.58339ZM5.89438 21.2354C5.97288 20.4016 6.69639 19.75 7.58339 19.75H12.6621C13.5452 19.75 14.2658 20.3954 14.3478 21.2231C14.5512 23.2756 14.5509 24.9471 14.3459 27.0233C14.264 27.8532 13.5423 28.5 12.6584 28.5H7.58579C6.69831 28.5 5.97403 27.8475 5.89552 27.0122C5.70199 24.9529 5.70138 23.2853 5.89438 21.2354Z" fill="#98999A"/>
<path d="M17.5625 6.625C17.5625 6.14175 17.9542 5.75 18.4375 5.75H24.5625C25.0458 5.75 25.4375 6.14175 25.4375 6.625C25.4375 7.10825 25.0458 7.5 24.5625 7.5H18.4375C17.9542 7.5 17.5625 7.10825 17.5625 6.625Z" fill="#98999A"/>
<path d="M18.4375 20.1875C17.9542 20.1875 17.5625 20.5792 17.5625 21.0625C17.5625 21.5458 17.9542 21.9375 18.4375 21.9375H24.5625C25.0458 21.9375 25.4375 21.5458 25.4375 21.0625C25.4375 20.5792 25.0458 20.1875 24.5625 20.1875H18.4375Z" fill="#98999A"/>
<path d="M17.5625 12.75C17.5625 12.2667 17.9542 11.875 18.4375 11.875H29.375C29.8583 11.875 30.25 12.2667 30.25 12.75C30.25 13.2333 29.8583 13.625 29.375 13.625H18.4375C17.9542 13.625 17.5625 13.2333 17.5625 12.75Z" fill="#98999A"/>
<path d="M18.4375 26.3125C17.9542 26.3125 17.5625 26.7042 17.5625 27.1875C17.5625 27.6708 17.9542 28.0625 18.4375 28.0625H29.375C29.8583 28.0625 30.25 27.6708 30.25 27.1875C30.25 26.7042 29.8583 26.3125 29.375 26.3125H18.4375Z" fill="#98999A"/>
</svg>
