<svg width="35" height="35" viewBox="0 0 35 35" fill="none" xmlns="http://www.w3.org/2000/svg">
<path d="M31.0703 20.4062H4.82031C4.36695 20.4062 4 20.0388 4 19.5859C4 19.1331 4.36695 18.7656 4.82031 18.7656H31.0703C31.5237 18.7656 31.8906 19.1331 31.8906 19.5859C31.8906 20.0388 31.5237 20.4062 31.0703 20.4062Z" fill="#98999A"/>
<path d="M4.82031 28.6094C4.36695 28.6094 4 28.2419 4 27.7891V19.5859C4 19.1331 4.36695 18.7656 4.82031 18.7656C5.27367 18.7656 5.64062 19.1331 5.64062 19.5859V27.7891C5.64062 28.2419 5.27367 28.6094 4.82031 28.6094Z" fill="#98999A"/>
<path d="M16.3047 31.8906C15.8513 31.8906 15.4844 31.5231 15.4844 31.0703V22.3203C15.4844 21.8675 15.8513 21.5 16.3047 21.5C16.758 21.5 17.125 21.8675 17.125 22.3203V31.0703C17.125 31.5231 16.758 31.8906 16.3047 31.8906Z" fill="#98999A"/>
<path d="M27.7891 31.8906H19.5859C19.1326 31.8906 18.7656 31.5231 18.7656 31.0703C18.7656 30.6175 19.1326 30.25 19.5859 30.25H27.7891C28.2424 30.25 28.6094 30.6175 28.6094 31.0703C28.6094 31.5231 28.2424 31.8906 27.7891 31.8906Z" fill="#98999A"/>
<path d="M19.5859 31.8906C19.1326 31.8906 18.7656 31.5231 18.7656 31.0703V4.82031C18.7656 4.3675 19.1326 4 19.5859 4C20.0393 4 20.4062 4.3675 20.4062 4.82031V31.0703C20.4062 31.5231 20.0393 31.8906 19.5859 31.8906Z" fill="#98999A"/>
<path d="M31.0703 17.125H4.82031C4.36695 17.125 4 16.7575 4 16.3047C4 15.8519 4.36695 15.4844 4.82031 15.4844H31.0703C31.5237 15.4844 31.8906 15.8519 31.8906 16.3047C31.8906 16.7575 31.5237 17.125 31.0703 17.125Z" fill="#98999A"/>
<path d="M31.0703 17.125C30.617 17.125 30.25 16.7575 30.25 16.3047V8.10156C30.25 7.64875 30.617 7.28125 31.0703 7.28125C31.5237 7.28125 31.8906 7.64875 31.8906 8.10156V16.3047C31.8906 16.7575 31.5237 17.125 31.0703 17.125Z" fill="#98999A"/>
<path d="M16.3047 14.3906C15.8513 14.3906 15.4844 14.0231 15.4844 13.5703V4.82031C15.4844 4.3675 15.8513 4 16.3047 4C16.758 4 17.125 4.3675 17.125 4.82031V13.5703C17.125 14.0231 16.758 14.3906 16.3047 14.3906Z" fill="#98999A"/>
<path d="M16.3047 31.8906H8.10156C7.6482 31.8906 7.28125 31.5231 7.28125 31.0703C7.28125 30.6175 7.6482 30.25 8.10156 30.25H16.3047C16.758 30.25 17.125 30.6175 17.125 31.0703C17.125 31.5231 16.758 31.8906 16.3047 31.8906Z" fill="#98999A"/>
<path d="M16.3047 5.64062H8.10156C7.6482 5.64062 7.28125 5.27313 7.28125 4.82031C7.28125 4.3675 7.6482 4 8.10156 4H16.3047C16.758 4 17.125 4.3675 17.125 4.82031C17.125 5.27313 16.758 5.64062 16.3047 5.64062Z" fill="#98999A"/>
<path d="M27.7891 5.64062H19.5859C19.1326 5.64062 18.7656 5.27313 18.7656 4.82031C18.7656 4.3675 19.1326 4 19.5859 4H27.7891C28.2424 4 28.6094 4.3675 28.6094 4.82031C28.6094 5.27313 28.2424 5.64062 27.7891 5.64062Z" fill="#98999A"/>
<path d="M4.82031 17.125C4.36695 17.125 4 16.7575 4 16.3047V8.10156C4 7.64875 4.36695 7.28125 4.82031 7.28125C5.27367 7.28125 5.64062 7.64875 5.64062 8.10156V16.3047C5.64062 16.7575 5.27367 17.125 4.82031 17.125Z" fill="#98999A"/>
<path d="M31.0703 28.6094C30.617 28.6094 30.25 28.2419 30.25 27.7891V19.5859C30.25 19.1331 30.617 18.7656 31.0703 18.7656C31.5237 18.7656 31.8906 19.1331 31.8906 19.5859V27.7891C31.8906 28.2419 31.5237 28.6094 31.0703 28.6094Z" fill="#98999A"/>
<path d="M31.0703 8.92188C30.617 8.92188 30.25 8.55438 30.25 8.10156C30.25 6.74477 29.1459 5.64062 27.7891 5.64062C27.3357 5.64062 26.9688 5.27313 26.9688 4.82031C26.9688 4.3675 27.3357 4 27.7891 4C30.0509 4 31.8906 5.83969 31.8906 8.10156C31.8906 8.55438 31.5237 8.92188 31.0703 8.92188Z" fill="#98999A"/>
<path d="M27.7891 31.8906C27.3357 31.8906 26.9688 31.5231 26.9688 31.0703C26.9688 30.6175 27.3357 30.25 27.7891 30.25C29.1459 30.25 30.25 29.1459 30.25 27.7891C30.25 27.3363 30.617 26.9688 31.0703 26.9688C31.5237 26.9688 31.8906 27.3363 31.8906 27.7891C31.8906 30.0509 30.0509 31.8906 27.7891 31.8906Z" fill="#98999A"/>
<path d="M8.10156 31.8906C5.83969 31.8906 4 30.0509 4 27.7891C4 27.3363 4.36695 26.9688 4.82031 26.9688C5.27367 26.9688 5.64062 27.3363 5.64062 27.7891C5.64062 29.1459 6.74477 30.25 8.10156 30.25C8.55492 30.25 8.92188 30.6175 8.92188 31.0703C8.92188 31.5231 8.55492 31.8906 8.10156 31.8906Z" fill="#98999A"/>
<path d="M4.82031 8.92188C4.36695 8.92188 4 8.55438 4 8.10156C4 5.83969 5.83969 4 8.10156 4C8.55492 4 8.92188 4.3675 8.92188 4.82031C8.92188 5.27313 8.55492 5.64062 8.10156 5.64062C6.74477 5.64062 5.64062 6.74477 5.64062 8.10156C5.64062 8.55438 5.27367 8.92188 4.82031 8.92188Z" fill="#98999A"/>
</svg>
