<svg width="24" height="24" viewBox="0 0 24 24" fill="none" xmlns="http://www.w3.org/2000/svg">
<g id="Group 427321167">
<path id="Vector" d="M17.3602 1V11.6633C17.3602 12.7233 17.3602 13.2533 17.2145 13.5694C16.8825 14.2898 16.0634 14.6782 15.2686 14.4922C14.9198 14.4106 14.484 14.0872 13.6125 13.4405C13.1205 13.0754 12.8744 12.8929 12.6183 12.7856C12.0448 12.5455 11.3936 12.5455 10.82 12.7856C10.5639 12.8929 10.3178 13.0754 9.8258 13.4405C8.95426 14.0872 8.51851 14.4106 8.16972 14.4922C7.37491 14.6782 6.55583 14.2898 6.22382 13.5694C6.07812 13.2533 6.07812 12.7233 6.07812 11.6633V1" stroke="#1C274D" stroke-width="1.8"/>
<path id="Vector_2" d="M17.3602 18.4844H6.07812" stroke="#1C274D" stroke-width="1.8" stroke-linecap="round"/>
<path id="Vector_3" d="M23 12C23 17.1854 23 19.7782 21.389 21.389C19.7782 23 17.1854 23 12 23C6.81455 23 4.22182 23 2.61092 21.389C1 19.7782 1 17.1854 1 12C1 6.81455 1 4.22182 2.61092 2.61092C4.22182 1 6.81455 1 12 1C17.1854 1 19.7782 1 21.389 2.61092C22.4602 3.68203 22.8192 5.18721 22.9394 7.6" stroke="#1C274D" stroke-width="1.8" stroke-linecap="round"/>
</g>
</svg>
