<svg width="30" height="20" viewBox="0 0 30 20" fill="none" xmlns="http://www.w3.org/2000/svg">
<g id="ic_brand_logo">
<path id="Vector" fill-rule="evenodd" clip-rule="evenodd" d="M17.8994 7.03633C17.8994 7.39428 17.8039 7.80994 17.5254 8.17694H18.3113V2.4375H15.7974V4.78292C17.1563 5.18133 17.8994 6.00479 17.8994 7.03633Z" fill="#2F489A"/>
<path id="ic_brand_logo_2" fill-rule="evenodd" clip-rule="evenodd" d="M13.5539 4.57578C14.1215 4.57578 14.6493 4.70108 15.0532 4.80298C14.1969 4.66062 12.8708 4.86563 12.1868 5.37722V8.17499H14.7007V4.99109C15.1298 5.06418 15.5403 5.22126 15.9086 5.45335V8.17516H16.4543C15.9401 8.72413 14.9789 9.05853 14.1488 8.93546V9.05034C16.5403 9.22872 17.5529 8.15724 17.5529 6.95141C17.5529 5.53153 16.1429 4.70022 14.7008 4.53174V2.43555H12.1866V4.55479C10.5578 4.86375 8.96482 5.77922 8.96482 7.29332C8.96482 9.62423 12.4101 11.0677 15.4125 11.0677C19.97 11.0677 23.4781 8.98581 23.4781 6.06326C23.4781 2.52414 18.412 0 14.4344 0C9.87721 0 6.52125 2.73683 6.52125 5.66058C6.52125 7.17383 7.42033 8.44265 8.5548 9.32619L8.64015 9.27293C7.74227 8.56794 6.93264 7.46897 6.93264 5.95879C7.1694 2.75902 11.3415 0.957456 15.0542 0.957456C17.6794 0.957456 22.3984 1.52998 22.3984 5.67884C22.3984 7.84417 19.9516 10.66 14.8104 10.66C12.1786 10.66 10.1346 9.32636 10.1346 7.41196C10.1346 5.75481 11.5077 4.57578 13.5539 4.57578ZM3.81583 19.3944V19.0675H4.69698V16.2431H2.34286V19.0675H3.24671V19.3944H0V19.0675H0.825846V13.3117H0V12.9845H3.24671V13.3117H2.34286V15.8635H4.69698V13.3117H3.81583V12.9845H7.02908V13.3117H6.20409V19.0675H7.02908V19.3944H3.81583ZM8.27485 12.9845H9.74645V13.7446H8.27485V12.9845ZM7.54955 19.3944V19.0677H8.34159V15.1238H7.54955V14.799H9.80364V19.0677H10.5397V19.3944H7.54955ZM10.8572 19.3944V19.0675H11.6714V12.4676H10.8572V12.1415H13.1444V19.0675H13.9143V19.3944H10.8572ZM16.2068 19.3944C15.4026 19.3944 14.9683 19.0054 14.9683 18.4035V15.1238H14.1765V14.799H14.9683V12.9737C15.4144 12.9737 15.8831 12.9845 16.3409 12.9737V14.799H17.4785V15.1238H16.3409V19.0677H17.5008V19.3944H16.2068ZM23.0225 18.014C22.8557 18.4448 22.1637 19.5101 20.479 19.5101C18.6049 19.5101 17.6451 18.2975 17.6451 17.0645C17.6451 15.3565 19.2514 14.6503 20.4459 14.6503C21.5055 14.6503 23.0452 15.2505 23.1674 16.9906C23.1898 17.3286 23.1551 17.6973 23.0225 18.014ZM21.4275 15.5351C21.2378 15.1358 20.8906 14.9543 20.4343 14.9543C19.2852 14.9543 19.2631 16.0741 19.2631 17.0439C19.2631 18.3496 19.3855 18.5834 19.4738 18.741C19.6201 19.0052 19.9323 19.2469 20.4459 19.2469C21.5947 19.2469 21.5947 18.0758 21.5838 17.0014C21.5715 15.83 21.4949 15.6825 21.4275 15.5351ZM27.0996 19.3944V19.0677H27.7461V16.3577C27.7461 15.7467 27.7461 15.146 27.0319 15.146C26.6307 15.146 25.9723 15.5257 25.8163 16.1465C25.761 16.336 25.7716 16.5367 25.7716 17.0439V19.0675H26.5077V19.3942H23.518V19.0675H24.3099V15.1238H23.518V14.799H25.7714V15.4932C26.0165 15.1981 26.2188 14.9871 26.6976 14.8084C26.9777 14.6965 27.2765 14.639 27.5781 14.6389C27.6681 14.6389 27.9359 14.6389 28.2479 14.7246C29.1861 14.9871 29.2298 15.6621 29.2298 16.1465V19.0675H30V19.3942L27.0996 19.3944ZM22.1983 10.0105H21.9605V9.92637H22.5503V10.0105H22.311V10.8241H22.1983V10.0105ZM23.2208 10.66H23.2254L23.5182 9.92637H23.6689V10.8241H23.5549V10.1493H23.5492L23.2708 10.8241H23.1665L22.8794 10.1493H22.8748V10.8241H22.7604V9.92637H22.9202L23.2208 10.66Z" fill="#2F489A"/>
</g>
</svg>
