<svg width="141" height="36" viewBox="0 0 141 36" fill="none" xmlns="http://www.w3.org/2000/svg">
<path d="M0.192531 10.2082L7.92991 17.3717C7.95317 17.3933 7.96695 17.4233 7.96821 17.4551C7.96947 17.4869 7.95811 17.5179 7.93663 17.5413L7.92991 17.548L0.0393899 24.793C0.0161076 24.8139 0.00202018 24.8433 0.000200862 24.8746C-0.00161846 24.9059 0.00897798 24.9367 0.0296785 24.9602C0.0410915 24.9727 0.0549441 24.9827 0.0703692 24.9895C0.0857944 24.9964 0.10246 24.9999 0.119322 25H5.31873C5.34876 24.9999 5.37766 24.9885 5.39979 24.9681L10.5991 20.1299C10.6213 20.1089 10.6506 20.0972 10.6811 20.0972C10.7116 20.0972 10.7409 20.1089 10.7631 20.1299L15.652 24.9625C15.6631 24.9734 15.6763 24.982 15.6907 24.9878C15.7051 24.9936 15.7205 24.9965 15.7361 24.9962H21.8804C21.8959 24.9965 21.9113 24.9937 21.9258 24.9879C21.9402 24.9822 21.9533 24.9736 21.9644 24.9627C21.9755 24.9518 21.9844 24.9389 21.9905 24.9245C21.9966 24.9102 21.9998 24.8948 21.9999 24.8792C22.0005 24.8626 21.9974 24.846 21.991 24.8307C21.9845 24.8153 21.9748 24.8016 21.9626 24.7903L13.9072 17.3136C13.8838 17.2923 13.8696 17.2626 13.8678 17.2308C13.866 17.1991 13.8767 17.168 13.8975 17.1441L13.9072 17.1355L16.4598 14.9189C16.4848 14.9002 16.5014 14.8723 16.5059 14.8414C16.5105 14.8105 16.5026 14.779 16.4841 14.7539C16.473 14.7388 16.4585 14.7266 16.4417 14.7184C16.4249 14.7101 16.4064 14.7061 16.3877 14.7066H11.2048C11.1741 14.7062 11.1447 14.6936 11.123 14.6717L6.49859 10.0338C6.48722 10.0227 6.47376 10.014 6.45901 10.0083C6.44427 10.0025 6.42852 9.99966 6.41269 10H0.272464C0.248766 10.0005 0.225743 10.008 0.206321 10.0217C0.186898 10.0353 0.171954 10.0545 0.163386 10.0766C0.154819 10.0988 0.153015 10.1231 0.158205 10.1463C0.163394 10.1695 0.175343 10.1907 0.192531 10.2071" fill="url(#paint0_radial_1008_74)"/>
<path d="M26.4871 10H16.0013C15.9774 10.0006 15.9546 10.0101 15.9372 10.0265L12.0251 13.7963C12.0089 13.8142 12 13.8375 12 13.8617C12 13.8859 12.0089 13.9092 12.0251 13.9271C12.034 13.9371 12.0449 13.945 12.0572 13.9502C12.0694 13.9554 12.0827 13.9579 12.096 13.9574L26.1516 13.8795C27.5703 13.9173 28.2413 14.651 28.3028 15.4947C28.3028 16.5215 27.7705 17.4462 25.7565 17.4462H18.7421C18.7172 17.4474 18.6937 17.4583 18.6765 17.4764C18.6593 17.4946 18.6497 17.5187 18.6497 17.5437V20.657C18.6496 20.6694 18.6521 20.6817 18.6569 20.6931C18.6618 20.7045 18.669 20.7147 18.678 20.7232L22.9897 24.9786C23.0034 24.9895 23.0197 24.9966 23.037 24.9991C23.0543 25.0015 23.072 24.9992 23.0881 24.9924C23.1043 24.9857 23.1183 24.9746 23.1287 24.9606C23.1391 24.9465 23.1455 24.9298 23.1473 24.9124V21.4175C23.1473 21.4047 23.1498 21.392 23.1547 21.3802C23.1596 21.3684 23.1668 21.3576 23.1758 21.3485C23.1848 21.3395 23.1956 21.3323 23.2074 21.3274C23.2192 21.3225 23.2318 21.32 23.2446 21.32H25.0504C28.9976 21.5582 32 19.5905 32 15.6029C31.9461 13.2392 30.5414 10.2383 26.4871 10Z" fill="url(#paint1_radial_1008_74)"/>
<path d="M50.4898 17.6508C50.4898 21.7668 47.1088 25.0008 42.8668 25.0008H37.0498V10.3008H42.8668C47.1088 10.3008 50.4898 13.5348 50.4898 17.6508ZM42.5728 12.7788H39.8848V22.5228H42.5728C45.3658 22.5228 47.5918 20.3808 47.5918 17.6508C47.5918 14.8998 45.3658 12.7788 42.5728 12.7788Z" fill="#F2CB3C"/>
<path d="M53.7366 25.0008V10.3008H62.9976V12.7788H56.5716V16.4118H62.7876V18.8268H56.5716V22.5228H62.9976V25.0008H53.7366Z" fill="#F2CB3C"/>
<path d="M75.7469 22.5228V25.0008H66.4859V10.3008H69.3209V22.5228H75.7469Z" fill="#F2CB3C"/>
<path d="M81.7626 25.0008H78.9276V10.3008H81.7626V25.0008Z" fill="#F2CB3C"/>
<path d="M90.3595 25.0008L84.1645 10.3008H87.2935L91.8505 21.6408L96.4075 10.3008H99.4105L93.2155 25.0008H90.3595Z" fill="#F2CB3C"/>
<path d="M101.822 25.0008V10.3008H111.083V12.7788H104.657V16.4118H110.873V18.8268H104.657V22.5228H111.083V25.0008H101.822Z" fill="#F2CB3C"/>
<path d="M125.68 25.0008H122.551L119.59 19.8978H117.385V25.0008H114.487V10.3008H120.367C121.732 10.3008 122.887 10.7838 123.832 11.7288C124.777 12.6738 125.26 13.8288 125.26 15.1728C125.26 16.9998 124.126 18.6798 122.425 19.4568L125.68 25.0008ZM120.367 13.0098H117.385V17.3568H120.367C121.459 17.3568 122.362 16.3698 122.362 15.1728C122.362 13.9758 121.459 13.0098 120.367 13.0098Z" fill="#F2CB3C"/>
<path d="M134.836 25.0008H132.001V18.8688L126.247 10.3008H129.691L133.471 16.2018L137.251 10.3008H140.611L134.836 18.9108V25.0008Z" fill="#F2CB3C"/>
<defs>
<radialGradient id="paint0_radial_1008_74" cx="0" cy="0" r="1" gradientUnits="userSpaceOnUse" gradientTransform="translate(11 17.5) scale(11 7.5)">
<stop stop-color="#1877F2"/>
<stop offset="1" stop-color="#005ACE"/>
</radialGradient>
<radialGradient id="paint1_radial_1008_74" cx="0" cy="0" r="1" gradientUnits="userSpaceOnUse" gradientTransform="translate(22 17.5) scale(10 7.5)">
<stop stop-color="#1877F2"/>
<stop offset="1" stop-color="#005ACE"/>
</radialGradient>
</defs>
</svg>
