<svg width="35" height="35" viewBox="0 0 35 35" fill="none" xmlns="http://www.w3.org/2000/svg">
<path d="M29.4724 22.6774C29.3298 21.25 28.0047 20.129 26.4614 20.129C26.2769 20.129 26.1301 19.9879 26.1301 19.8104V15.0604C26.1301 11.5322 23.7817 8.4556 20.5485 7.30642C20.5862 7.12494 20.6071 6.93949 20.6071 6.75398C20.6072 5.2339 19.324 4 17.743 4C16.162 4 14.8788 5.2339 14.8788 6.75404C14.8788 6.93552 14.8997 7.11693 14.9333 7.29032C13.822 7.66937 12.7946 8.27015 11.9182 9.08467C10.2659 10.6169 9.35593 12.6774 9.35593 14.8871V19.8105C9.35593 19.9839 9.20914 20.1291 9.02461 20.1291C7.4772 20.1291 6.1562 21.25 6.01362 22.6775C5.93392 23.4718 6.20656 24.2621 6.76428 24.8509C7.31781 25.4355 8.11042 25.7743 8.93651 25.7743H13.994C14.2036 27.5848 15.8056 29.0001 17.743 29.0001C19.6804 29.0001 21.2824 27.5848 21.4921 25.7743H26.5495C27.3757 25.7743 28.1682 25.4355 28.7217 24.8509C29.2753 24.2621 29.5521 23.4718 29.4724 22.6774ZM17.743 5.61287C18.3972 5.61287 18.9298 6.12498 18.9298 6.75398C18.9298 6.80637 18.9214 6.85478 18.9129 6.90717C18.6278 6.86684 18.3384 6.83862 18.049 6.83054C17.55 6.81438 17.0594 6.8467 16.5729 6.91121C16.5645 6.85882 16.5561 6.81041 16.5561 6.75802C16.5563 6.12498 17.0888 5.61287 17.743 5.61287ZM17.743 27.3871C16.7324 27.3871 15.8853 26.6935 15.6882 25.7742H19.7978C19.6008 26.6935 18.7537 27.3871 17.743 27.3871ZM27.4804 23.7661C27.2372 24.0202 26.9101 24.1612 26.5494 24.1612H8.93658C8.57592 24.1612 8.24888 24.0201 8.00559 23.7661C7.76237 23.5121 7.64913 23.1774 7.68687 22.8307C7.74556 22.2218 8.3369 21.7419 9.02881 21.7419C10.1359 21.7419 11.0375 20.875 11.0375 19.8105V14.8871C11.0375 13.121 11.7672 11.4718 13.0882 10.246C14.3462 9.07262 15.9901 8.43547 17.743 8.43547C17.8269 8.43547 17.9065 8.43547 17.9904 8.43951C21.5507 8.56045 24.4527 11.5323 24.4527 15.0605V19.8105C24.4527 20.875 25.3543 21.7419 26.4614 21.7419C27.1533 21.7419 27.7447 22.2218 27.8033 22.8307C27.8369 23.1774 27.7236 23.5081 27.4804 23.7661Z" fill="#98999A"/>
<path d="M6.88213 13.6773C7.26793 13.6773 7.61598 13.4193 7.69988 13.0443C8.10662 11.2741 9.02501 9.66121 10.3669 8.37896C10.6941 8.06443 10.6941 7.55232 10.3669 7.23786C10.0398 6.92332 9.50725 6.92332 9.1802 7.23786C7.61185 8.73774 6.53407 10.6289 6.06024 12.7015C5.9596 13.1369 6.24477 13.5684 6.69766 13.6612C6.76475 13.6733 6.82344 13.6773 6.88213 13.6773Z" fill="#98999A"/>
<path d="M28.6045 13.6775C28.6631 13.6775 28.7261 13.6695 28.7848 13.6574C29.2377 13.5606 29.5228 13.1332 29.4222 12.6977C28.9483 10.6251 27.8706 8.738 26.3022 7.23395C25.9751 6.91941 25.4425 6.91941 25.1154 7.23395C24.7884 7.54848 24.7883 8.06058 25.1154 8.37505C26.4532 9.6573 27.3758 11.2703 27.7825 13.0404C27.8706 13.4194 28.2187 13.6775 28.6045 13.6775Z" fill="#98999A"/>
</svg>
