<svg width="28" height="27" viewBox="0 0 28 27" fill="none" xmlns="http://www.w3.org/2000/svg">
<g id="fi_12631500">
<g id="SVGRepo_iconCarrier">
<path id="primary" d="M9.73375 20H15V5.33333C15 4.97971 14.8551 4.64057 14.5973 4.39052C14.3394 4.14048 13.9897 4 13.625 4H4" stroke="#98999A" stroke-width="1.6" stroke-linecap="round" stroke-linejoin="round"/>
<path id="primary_2" d="M1 16V19C1 19.2652 1.16902 19.5196 1.46988 19.7071C1.77074 19.8946 2.1788 20 2.60428 20H4" stroke="#98999A" stroke-width="1.6" stroke-linecap="round" stroke-linejoin="round"/>
<path id="primary_3" d="M17.8049 20H15V7.00089H21.3747C21.7113 6.9901 22.0424 7.07785 22.3145 7.24999C22.5865 7.42213 22.7839 7.66865 22.8746 7.94982L23.9995 11.5506L25.8594 11.9536C26.1922 12.0247 26.4869 12.1925 26.6943 12.4291C26.9017 12.6656 27.0093 12.9565 26.9994 13.2535V18.7001C26.9994 19.0448 26.8413 19.3755 26.56 19.6193C26.2788 19.863 25.8972 20 25.4994 20H24.1645" stroke="#98999A" stroke-width="1.6" stroke-linecap="round" stroke-linejoin="round"/>
<path id="secondary" d="M1 10H9.625M6.75 17.8C6.18138 17.8 5.62553 17.9525 5.15274 18.2382C4.67994 18.5239 4.31145 18.9299 4.09385 19.405C3.87624 19.8801 3.81931 20.4029 3.93024 20.9072C4.04117 21.4116 4.31499 21.8749 4.71707 22.2385C5.11914 22.6021 5.63142 22.8497 6.18912 22.95C6.74681 23.0504 7.32488 22.9989 7.85022 22.8021C8.37555 22.6053 8.82457 22.272 9.14047 21.8445C9.45638 21.4169 9.625 20.9142 9.625 20.4C9.625 19.7104 9.3221 19.0491 8.78293 18.5615C8.24376 18.0739 7.5125 17.8 6.75 17.8ZM21.125 17.8C20.5564 17.8 20.0005 17.9525 19.5277 18.2382C19.0549 18.5239 18.6864 18.9299 18.4688 19.405C18.2512 19.8801 18.1943 20.4029 18.3052 20.9072C18.4162 21.4116 18.69 21.8749 19.0921 22.2385C19.4941 22.6021 20.0064 22.8497 20.5641 22.95C21.1218 23.0504 21.6999 22.9989 22.2252 22.8021C22.7506 22.6053 23.1996 22.272 23.5155 21.8445C23.8314 21.4169 24 20.9142 24 20.4C24 19.7104 23.6971 19.0491 23.1579 18.5615C22.6188 18.0739 21.8875 17.8 21.125 17.8Z" stroke="#98999A" stroke-width="1.6" stroke-linecap="round" stroke-linejoin="round"/>
</g>
</g>
</svg>
