<svg width="36" height="35" viewBox="0 0 36 35" fill="none" xmlns="http://www.w3.org/2000/svg">
<path d="M11.0276 29.9951C10.8722 29.9655 10.7168 29.9326 10.5614 29.9053C9.59229 29.7734 8.70406 29.3147 8.05651 28.6116C7.40896 27.9084 7.04457 27.0071 7.02889 26.0697C6.89935 24.148 7.20652 22.2222 7.92923 20.4252C8.35671 19.2458 9.21374 18.2535 10.3432 17.6303C11.0708 17.2535 11.8887 17.0655 12.7156 17.0849C12.9922 17.1127 13.2584 17.2009 13.4938 17.3428C13.8793 17.5439 14.2375 17.7973 14.6124 18.0166C15.5746 18.6483 16.7138 18.9863 17.8804 18.9863C19.0469 18.9863 20.1862 18.6483 21.1484 18.0166C21.4509 17.8371 21.7593 17.6632 22.044 17.4599C22.2896 17.2931 22.5687 17.1773 22.8637 17.1198C23.1586 17.0623 23.4628 17.0643 23.7569 17.1258C24.5424 17.227 25.2897 17.5119 25.9329 17.9554C26.5761 18.3989 27.0954 18.9872 27.4449 19.6686C28.1226 20.9286 28.5262 22.3074 28.6311 23.7212C28.706 24.4491 28.7392 25.1804 28.7307 25.9117C28.7466 26.928 28.3574 27.9118 27.6425 28.6628C26.9275 29.4139 25.9406 29.8757 24.8826 29.9542C24.8264 29.9646 24.7712 29.9798 24.7177 29.9996H11.0276V29.9951ZM17.8792 28.5306C20.0322 28.5306 22.1864 28.5488 24.3393 28.5306C24.7279 28.5535 25.117 28.4959 25.4802 28.3618C25.8434 28.2277 26.1722 28.0203 26.4441 27.7535C26.7161 27.4868 26.9248 27.1671 27.0562 26.8161C27.1875 26.4651 27.2384 26.0912 27.2052 25.7197C27.2056 25.0609 27.1696 24.4025 27.0973 23.7473C27.0012 22.5859 26.6705 21.4534 26.1234 20.4127C25.8757 19.8875 25.482 19.4376 24.9854 19.1122C24.4887 18.7867 23.9082 18.5984 23.3073 18.5676C23.1919 18.5623 23.0772 18.5883 22.9764 18.6426C22.592 18.8698 22.2196 19.1073 21.8388 19.3345C20.8032 19.9649 19.6221 20.3425 18.3988 20.4343C16.7619 20.5393 15.1349 20.1213 13.7725 19.2459C13.4356 19.0414 13.1035 18.8312 12.7654 18.6301C12.6958 18.583 12.6134 18.5562 12.5282 18.5528C11.7217 18.562 10.9504 18.8703 10.3764 19.4129C9.89938 19.89 9.531 20.4568 9.29456 21.0774C8.70652 22.651 8.45166 24.3211 8.54487 25.9901C8.53956 26.4207 8.654 26.8448 8.87643 27.219C9.09887 27.5932 9.42128 27.9039 9.81057 28.1193C10.3773 28.4196 11.0199 28.5636 11.667 28.5351H17.8792V28.5306Z" fill="#98999A"/>
<path d="M18.3024 5C18.6405 5.06476 18.9821 5.12043 19.3178 5.19656C20.4934 5.50191 21.5518 6.12593 22.366 6.9936C23.1802 7.86128 23.7154 8.93569 23.9073 10.0877C24.1602 11.5303 23.8403 13.0112 23.0105 14.2392C22.4895 15.0473 21.7719 15.7225 20.9192 16.2072C20.0665 16.6919 19.104 16.9718 18.1138 17.0228C16.8366 17.1007 15.5649 16.8038 14.4683 16.1717C13.3718 15.5395 12.5025 14.6023 11.9764 13.4848C11.5009 12.4447 11.3378 11.2982 11.5054 10.1742C11.6731 9.05022 12.1648 7.9933 12.9253 7.12234C13.8218 6.10223 15.0492 5.39906 16.4116 5.12498C16.6489 5.07726 16.8932 5.0409 17.134 5H18.3048H18.3024ZM22.4542 11.0557C22.4577 10.1576 22.1832 9.27856 21.6655 8.52969C21.1478 7.78083 20.41 7.19569 19.5453 6.84816C18.6806 6.50063 17.7278 6.4063 16.8072 6.57707C15.8866 6.74784 15.0394 7.17606 14.3727 7.80766C13.706 8.43926 13.2496 9.24591 13.0612 10.1258C12.8729 11.0056 12.9609 11.9192 13.3142 12.7511C13.6675 13.5831 14.2703 14.2961 15.0464 14.8002C15.8226 15.3043 16.7372 15.5768 17.6749 15.5833C18.2998 15.5882 18.9196 15.4749 19.4986 15.2498C20.0777 15.0247 20.6046 14.6922 21.0491 14.2715C21.4936 13.8508 21.847 13.3502 22.0889 12.7983C22.3309 12.2465 22.4566 11.6543 22.4589 11.0557H22.4542Z" fill="#98999A"/>
</svg>
