<svg width="35" height="35" viewBox="0 0 35 35" fill="none" xmlns="http://www.w3.org/2000/svg">
<path d="M29.3145 15.5546C29.0226 16.1207 28.6706 16.1993 28.1659 15.816C24.5553 13.0772 20.9457 10.3372 17.3373 7.5961C17.3128 7.57183 17.2839 7.55286 17.2522 7.54029C17.2205 7.52773 17.1867 7.52182 17.1528 7.52291C17.1189 7.524 17.0855 7.53207 17.0546 7.54665C17.0238 7.56122 16.996 7.58202 16.973 7.60782C13.3706 10.3427 9.76673 13.0776 6.16134 15.8125C5.73359 16.1371 5.36015 16.1231 5.12364 15.7761C4.88713 15.4292 4.9935 15.0787 5.4122 14.7588C9.15036 11.9223 12.8885 9.08739 16.6267 6.25405C17.0725 5.91532 17.2491 5.91532 17.6882 6.25405C21.4391 9.09833 25.1897 11.9442 28.94 14.7916C29.0781 14.9202 29.2036 15.0627 29.3145 15.217V15.5546Z" fill="#98999A" stroke="#98999A" stroke-width="0.33949"/>
<path d="M14.0007 27.1239V26.8262C14.0007 25.0563 13.995 23.2853 14.0007 21.5154C13.9845 20.6657 14.2886 19.8428 14.8486 19.2216C15.4086 18.6004 16.1804 18.2296 17 18.1882C17.8196 18.1467 18.6225 18.4377 19.2383 18.9994C19.8541 19.5611 20.2343 20.3493 20.2982 21.1966C20.322 21.54 20.3152 21.8846 20.3163 22.2292C20.3163 23.7623 20.3163 25.295 20.3163 26.8273V27.1321H25.3702V16.8294C25.3577 16.7376 25.3641 16.644 25.3891 16.555C25.4141 16.4659 25.4571 16.3834 25.5152 16.3128C25.5732 16.2422 25.6451 16.1852 25.7261 16.1456C25.807 16.1059 25.8951 16.0845 25.9847 16.0828C26.1365 16.0752 26.2856 16.1268 26.4025 16.2275C26.5194 16.3282 26.5956 16.4706 26.6161 16.6266C26.6297 16.7323 26.6354 16.8389 26.6331 16.9454C26.6331 20.4937 26.6331 24.0421 26.6331 27.5904C26.6331 28.2315 26.4249 28.4472 25.8104 28.4472H19.8297C19.2786 28.4472 19.0557 28.2128 19.0557 27.6431C19.0557 25.5943 19.0557 23.5408 19.0557 21.4967C19.0557 20.976 18.856 20.4766 18.5005 20.1084C18.145 19.7403 17.6629 19.5334 17.1602 19.5334C16.6575 19.5334 16.1754 19.7403 15.8199 20.1084C15.4644 20.4766 15.2647 20.976 15.2647 21.4967C15.2591 23.5373 15.2647 25.5779 15.2647 27.6185C15.2689 27.7167 15.2651 27.8151 15.2534 27.9127C15.227 28.0721 15.1437 28.2155 15.02 28.3143C14.8964 28.4131 14.7413 28.4601 14.5857 28.446C13.5175 28.446 12.4492 28.446 11.3809 28.446H8.46134C7.9091 28.446 7.68617 28.2116 7.68617 27.6384C7.68617 24.3519 7.68617 21.0657 7.68617 17.78C7.68617 17.4283 7.67712 17.0767 7.69296 16.7251C7.6916 16.6385 7.70745 16.5526 7.73951 16.4726C7.77157 16.3926 7.81917 16.3203 7.87934 16.2602C7.93951 16.2001 8.01097 16.1534 8.08929 16.1231C8.1676 16.0928 8.2511 16.0794 8.3346 16.0839C8.4179 16.085 8.50015 16.1033 8.57649 16.1379C8.65283 16.1724 8.72168 16.2225 8.77899 16.2851C8.83629 16.3478 8.88087 16.4217 8.91009 16.5025C8.9393 16.5833 8.95256 16.6693 8.94907 16.7556C8.94907 16.8294 8.94907 16.9032 8.94907 16.9771V27.1262H14.0029L14.0007 27.1239Z" fill="#98999A" stroke="#98999A" stroke-width="0.33949"/>
</svg>
