<svg width="26" height="26" viewBox="0 0 26 26" fill="none" xmlns="http://www.w3.org/2000/svg">
<g id="ic_booked">
<path id="Vector" d="M19.9656 25.898C19.587 25.802 19.2 25.7313 18.8309 25.6066C16.5197 24.8269 15.0316 22.5466 15.233 20.1154C15.4394 17.6303 17.4056 15.5761 19.8657 15.2763C22.8231 14.9156 25.4341 16.9189 25.8463 19.8631C25.8518 19.9007 25.877 19.9353 25.8929 19.9715V21.1569C25.877 21.193 25.8518 21.2276 25.8463 21.2652C25.5336 23.4945 23.9539 25.2361 21.767 25.7585C21.5621 25.8075 21.3562 25.8515 21.1504 25.898H19.9646H19.9656ZM20.555 24.7131C22.829 24.7151 24.7061 22.841 24.7081 20.5666C24.7101 18.2918 22.8369 16.4162 20.5615 16.4142C18.2865 16.4122 16.4109 18.2849 16.4084 20.5597C16.4064 22.8336 18.2805 24.7106 20.5545 24.7126L20.555 24.7131Z" fill="black" stroke="black" stroke-width="0.226327"/>
<path id="Vector_2" d="M2.18371 8.52611C2.18371 8.63347 2.18371 8.72302 2.18371 8.81257C2.18371 13.1663 2.18371 17.5201 2.18371 21.8739C2.18371 22.7254 2.58704 23.1301 3.43528 23.1301C6.99102 23.1301 10.5473 23.1301 14.103 23.1301C14.5291 23.1301 14.7869 23.3636 14.7795 23.7371C14.7736 24.0404 14.5459 24.2858 14.2441 24.311C14.1866 24.316 14.1287 24.3135 14.0713 24.3135C10.4745 24.3135 6.8772 24.3145 3.28038 24.3135C2.13521 24.3135 1.25135 23.5828 1.03211 22.4562C1.00589 22.3202 1.00094 22.1787 1.00094 22.0396C0.999947 16.311 0.999452 10.5828 1.00094 4.85459C1.00094 3.5539 1.97685 2.58766 3.28434 2.5842C3.56395 2.5837 3.84306 2.5842 4.16127 2.5842C4.16127 2.27498 4.16028 1.97467 4.16127 1.67386C4.16276 1.26471 4.39387 1.00398 4.75266 1.00398C5.11244 1.00398 5.34256 1.26322 5.34454 1.67288C5.34603 1.96725 5.34454 2.26162 5.34454 2.56985H12.0646C12.0646 2.24431 12.0591 1.91085 12.0661 1.57788C12.072 1.28895 12.2823 1.05147 12.554 1.00794C12.8445 0.961429 13.1221 1.12272 13.2142 1.40324C13.2414 1.48685 13.2454 1.58036 13.2464 1.66941C13.2503 1.96428 13.2479 2.25915 13.2479 2.56837H19.9674C19.9674 2.2918 19.9674 2.02266 19.9674 1.75352C19.9674 1.27114 20.1738 1.00695 20.5528 1.00348C20.9428 1.00002 21.1507 1.26471 21.1512 1.7649C21.1512 2.02711 21.1512 2.28933 21.1512 2.58321C21.4516 2.58321 21.7366 2.58272 22.0212 2.58321C23.3435 2.58618 24.3115 3.54995 24.312 4.87092C24.3135 7.95715 24.3115 11.0434 24.314 14.1296C24.314 14.4037 24.2165 14.6125 23.9656 14.7283C23.7453 14.8302 23.5053 14.8193 23.3499 14.6377C23.2331 14.5012 23.1396 14.2949 23.1376 14.1182C23.1223 12.349 23.1282 10.5793 23.1282 8.8101C23.1282 8.72055 23.1282 8.631 23.1282 8.52463H2.18371V8.52611ZM12.0651 3.78545H5.34504C5.34504 4.09813 5.34652 4.39349 5.34504 4.68885C5.34256 5.09356 5.10452 5.3528 4.74276 5.34786C4.39436 5.34291 4.16424 5.08465 4.16177 4.69232C4.16028 4.39052 4.16177 4.08922 4.16177 3.76862C3.83861 3.76862 3.54415 3.76219 3.24969 3.77011C2.64 3.78594 2.19856 4.22874 2.18619 4.83975C2.17827 5.23456 2.1847 5.62986 2.18421 6.02467C2.18421 6.45015 2.18421 6.87613 2.18421 7.31299H23.1223C23.1223 6.43828 23.1436 5.57544 23.1134 4.71508C23.098 4.2891 22.8407 3.94228 22.4225 3.8463C22.0167 3.75279 21.5852 3.77308 21.1526 3.7429C21.1526 4.10357 21.1541 4.39943 21.1526 4.69529C21.1502 5.08663 20.9191 5.34439 20.5697 5.34885C20.2089 5.3533 19.9718 5.09257 19.9694 4.68737C19.9679 4.38607 19.9694 4.08477 19.9694 3.78742H13.2498C13.2498 3.96158 13.2498 4.11742 13.2498 4.27277C13.2498 4.42911 13.2523 4.58545 13.2488 4.74179C13.2409 5.09306 13.0009 5.3434 12.6688 5.34835C12.3259 5.35379 12.072 5.10048 12.0666 4.73932C12.0621 4.42763 12.0656 4.11544 12.0656 3.78594L12.0651 3.78545Z" fill="black" stroke="black" stroke-width="0.226327"/>
<path id="Vector_3" d="M4.16091 12.6316C4.16091 12.1299 4.15893 11.6282 4.1614 11.1271C4.16338 10.7199 4.39647 10.4864 4.80426 10.4859C5.82421 10.4839 6.84368 10.4839 7.86363 10.4859C8.27092 10.4868 8.50401 10.7204 8.505 11.128C8.50698 12.1477 8.50698 13.1674 8.505 14.1871C8.50401 14.5942 8.26993 14.8278 7.86264 14.8288C6.84269 14.8307 5.82322 14.8307 4.80327 14.8288C4.39845 14.8278 4.16338 14.5913 4.1614 14.1861C4.15893 13.6681 4.16091 13.1501 4.16091 12.6321V12.6316ZM5.35556 13.628H7.30243V11.6817H5.35556V13.628Z" fill="black" stroke="black" stroke-width="0.226327"/>
<path id="Vector_4" d="M14.8303 12.6715C14.8303 13.1811 14.8328 13.6912 14.8293 14.2008C14.8269 14.5902 14.5888 14.8281 14.1984 14.8291C13.1705 14.8316 12.1426 14.8316 11.1142 14.8291C10.7253 14.8281 10.4867 14.5882 10.4862 14.1978C10.4838 13.1697 10.4838 12.1421 10.4862 11.1141C10.4872 10.7252 10.7267 10.4872 11.1177 10.4862C12.1456 10.4838 13.1735 10.4838 14.2018 10.4862C14.5918 10.4872 14.8274 10.7252 14.8298 11.117C14.8328 11.635 14.8308 12.153 14.8308 12.671L14.8303 12.6715ZM11.6843 11.6741V13.6294H13.6273V11.6741H11.6843Z" fill="black" stroke="black" stroke-width="0.226327"/>
<path id="Vector_5" d="M4.16091 18.9519C4.16091 18.4502 4.15893 17.9485 4.1614 17.4474C4.16338 17.0402 4.39647 16.8072 4.80426 16.8062C5.82421 16.8042 6.84368 16.8042 7.86363 16.8062C8.27092 16.8072 8.50401 17.0407 8.505 17.4484C8.50698 18.468 8.50698 19.4877 8.505 20.5074C8.50401 20.9146 8.26993 21.1481 7.86264 21.1491C6.84269 21.151 5.82322 21.151 4.80327 21.1491C4.39895 21.1481 4.16338 20.9111 4.1614 20.5064C4.15893 19.9884 4.16091 19.4704 4.16091 18.9524V18.9519ZM7.30441 19.9552V18.0089H5.35803V19.9552H7.30441Z" fill="black" stroke="black" stroke-width="0.226327"/>
<path id="Vector_6" d="M21.1517 19.9719C21.4778 19.9719 21.7797 19.9704 22.0821 19.9719C22.4715 19.9744 22.7294 20.2079 22.7318 20.5577C22.7343 20.9095 22.4775 21.1524 22.0925 21.1544C21.5906 21.1568 21.0883 21.1578 20.5865 21.1544C20.2119 21.1514 19.9709 20.9109 19.9694 20.5364C19.9659 19.7631 19.9659 18.9893 19.9694 18.2161C19.9709 17.8529 20.2233 17.5991 20.5652 17.6016C20.9072 17.6041 21.1487 17.8579 21.1507 18.2264C21.1541 18.8004 21.1517 19.3738 21.1517 19.9719Z" fill="black" stroke="black" stroke-width="0.226327"/>
</g>
</svg>
