<svg width="30" height="30" viewBox="0 0 30 30" fill="none" xmlns="http://www.w3.org/2000/svg">
<g clip-path="url(#clip0_675_632)">
<path d="M21.2192 1.95239H25.5015V8.40515H21.2192V1.95239Z" fill="#EFEDFF"/>
<path d="M21.2192 1.95239H22.3104V8.40515H21.2192V1.95239Z" fill="#DEDEF9"/>
<path d="M25.9971 12.1066V29.5605H4.00259V12.1066L4.52414 11.5815L5.6731 10.4237L12.3564 3.69043L15.0001 1.02734L17.6444 3.69102L25.472 11.5774L25.9971 12.1066Z" fill="#EFEDFF"/>
<path d="M5.6731 10.4238V29.5606H4.00259V12.1067L4.52414 11.5816L5.6731 10.4238Z" fill="#DEDEF9"/>
<path d="M25.9971 12.1067V15.3019C21.3019 9.71465 15.0002 6.23307 15.0002 6.23307C15.0002 6.23307 8.69783 9.71465 4.00259 15.3025V12.1067L4.52414 11.5816L12.3564 3.69051C13.9517 2.75793 15.0001 2.31689 15.0001 2.31689C15.0001 2.31689 16.0491 2.75852 17.6444 3.69109L25.472 11.5775L25.9971 12.1067Z" fill="#DEDEF9"/>
<path d="M15 0.439453C15 0.439453 24.0327 4.24025 29.4033 13.1122L27.4611 15.3196C22.7464 8.63549 15 4.35557 15 4.35557C15 4.35557 7.25355 8.63549 2.53892 15.3196L0.59671 13.1122C5.9673 4.24025 15 0.439453 15 0.439453Z" fill="#008070"/>
<path d="M10 16.6667H20V25.5556H10V16.6667Z" fill="#008070"/>
<path d="M4.88947 24.6348H25.1104V27.6852H4.88947V24.6348Z" fill="#D8AA8B"/>
<path d="M5.92699 23.3834L4.12805 22.2102L2.3291 23.3834V29.5606H5.92699V23.3834Z" fill="#CE9875"/>
<path d="M11.363 23.3834L9.56402 22.2102L7.76508 23.3834V29.5606H11.363V23.3834Z" fill="#CE9875"/>
<path d="M16.7989 23.3834L14.9999 22.2102L13.201 23.3834V29.5606H16.7989V23.3834Z" fill="#CE9875"/>
<path d="M27.6708 23.3834L25.8718 22.2102L24.0729 23.3834V29.5606H27.6708V23.3834Z" fill="#CE9875"/>
<path d="M22.2348 23.3834L20.4359 22.2102L18.637 23.3834V29.5606H22.2348V23.3834Z" fill="#CE9875"/>
<path d="M27.102 15.5727C27.1796 15.6826 27.3032 15.751 27.4376 15.7583C27.4455 15.7587 27.4533 15.7589 27.4612 15.7589C27.587 15.7589 27.7074 15.7048 27.7911 15.6098L29.7334 13.4026C29.8602 13.2585 29.8788 13.0488 29.7795 12.8847C28.621 10.971 27.2922 9.29583 25.9409 7.85372V1.95234C25.9409 1.70964 25.7441 1.51288 25.5014 1.51288H21.2196C20.9769 1.51288 20.7801 1.70964 20.7801 1.95234V3.33146C20.6654 3.24878 20.5517 3.16757 20.4405 3.08941C17.506 1.02673 15.2645 0.0739966 15.1705 0.0343872C15.0615 -0.0114331 14.9386 -0.0114917 14.8296 0.0343872C14.6996 0.0891138 11.6024 1.40794 7.92708 4.30423C7.73647 4.45441 7.70366 4.73073 7.85389 4.9214C8.00413 5.11206 8.2804 5.14482 8.47106 4.99458C11.1891 2.85269 13.8272 1.44058 14.9981 0.919329C15.5717 1.18007 17.5439 2.12525 19.9554 3.82271C22.5337 5.63771 26.1469 8.70222 28.8593 13.0654L27.4953 14.6155C25.0687 11.3241 21.9562 8.66173 19.7274 6.98038C17.2055 5.07814 15.2928 4.01554 15.2126 3.97124C15.0803 3.89818 14.9199 3.89818 14.7876 3.97124C14.7074 4.01554 12.7946 5.07814 10.2728 6.98038C8.39014 8.40052 5.87712 10.5207 3.6795 13.1286C3.66977 13.1392 3.66057 13.1502 3.65184 13.1617C3.25745 13.6311 2.87319 14.1159 2.50487 14.6154L1.14081 13.0653C2.70626 10.5466 4.72159 8.20523 7.13489 6.10224C7.31788 5.94281 7.33692 5.66519 7.17749 5.4822C7.01805 5.29915 6.74044 5.28017 6.55745 5.4396C3.98805 7.67859 1.85606 10.1834 0.220652 12.8845C0.121218 13.0487 0.13991 13.2584 0.266648 13.4024L2.20903 15.6097C2.29792 15.7107 2.4287 15.7656 2.56253 15.7582C2.69688 15.751 2.82051 15.6826 2.89809 15.5726C3.11337 15.2674 3.33567 14.9674 3.56319 14.6722V22.0539L2.08915 23.0152C1.96475 23.0964 1.88975 23.2348 1.88975 23.3833V29.5606C1.88975 29.8033 2.08651 30 2.32921 30H27.671C27.9137 30 28.1105 29.8033 28.1105 29.5606V28.1778C28.1105 27.9351 27.9137 27.7383 27.671 27.7383C27.4283 27.7383 27.2315 27.9351 27.2315 28.1778V29.1211H25.997H24.5122V23.6217L25.8721 22.7347L27.2315 23.6217V26.4271C27.2315 26.6698 27.4283 26.8665 27.671 26.8665C27.9137 26.8665 28.1105 26.6698 28.1105 26.4271V23.3837C28.1105 23.2352 28.0355 23.0968 27.9111 23.0157L26.4364 22.0535V14.6715C26.664 14.9669 26.8865 15.2671 27.102 15.5727ZM21.6589 3.98507V2.39179H25.0619V6.94968C23.8884 5.78741 22.7225 4.80075 21.6589 3.98507ZM4.00253 29.1211H2.76854V23.6215L4.12803 22.7348L5.48753 23.6214V29.1211H4.00253ZM6.36643 28.1249H7.32561V29.1211H6.36643V28.1249ZM7.32561 27.246H6.36661V25.0743H7.32561V27.246ZM8.20452 29.1211V23.6214L9.56401 22.7348L10.9235 23.6214V29.1211H8.20452ZM18.3968 23.0153C18.2724 23.0964 18.1974 23.2349 18.1974 23.3834V24.1953H17.2383V23.3834C17.2383 23.2348 17.1633 23.0964 17.0389 23.0153L15.4394 21.9721V21.5051H19.3118V22.4185L18.3968 23.0153ZM18.1974 27.246H17.2383V25.0743H18.1974V27.246ZM17.2383 28.1249H18.1974V29.1211H17.2383V28.1249ZM19.3118 20.6263H15.4394V17.0467H19.3118V20.6263ZM14.5605 20.6263H10.6878V17.0467H14.5605V20.6263ZM10.6878 21.5052H14.5605V21.9721L12.9609 23.0153C12.8365 23.0964 12.7615 23.2349 12.7615 23.3834V24.1953H11.8024V23.3834C11.8024 23.2348 11.7274 23.0964 11.603 23.0153L10.6878 22.4184L10.6878 21.5052ZM12.7615 27.246H11.8024V25.0743H12.7615V27.246ZM11.8024 28.1249H12.7616V29.1211H11.8024V28.1249ZM13.6404 29.1211V23.6214L14.9999 22.7348L16.3594 23.6214V29.1211H13.6404ZM19.0764 29.1211V23.6214L20.4358 22.7348L21.7953 23.6214V29.1211H19.0764ZM23.6332 27.246H22.6743V25.0743H23.6332V27.246ZM22.6743 29.1211V28.1249H23.6332V29.1211H22.6743ZM25.5574 21.8906L23.8325 23.0156C23.7081 23.0967 23.6331 23.2352 23.6331 23.3836V24.1954H22.6742V23.3834C22.6742 23.2349 22.5992 23.0965 22.4748 23.0153L20.676 21.842C20.5301 21.7469 20.3417 21.7469 20.1958 21.842L20.1907 21.8454V21.0708L20.191 21.0657L20.1907 21.0606V16.6072C20.1907 16.3645 19.994 16.1678 19.7513 16.1678H10.2484C10.0057 16.1678 9.80893 16.3645 9.80893 16.6072V21.0651V21.0663V21.8453L9.80407 21.8421C9.65817 21.7469 9.46985 21.7469 9.32395 21.8421L7.52501 23.0153C7.40061 23.0965 7.32561 23.2349 7.32561 23.3834V24.1954H6.36643V23.3834C6.36643 23.2349 6.29143 23.0965 6.16704 23.0153L4.44198 21.8902V13.5879C8.54366 8.7645 13.8773 5.51747 15 4.8624C16.1229 5.51706 21.4541 8.76093 25.5574 13.587V21.8906Z" fill="black"/>
<path d="M14.9583 14.9291C15.529 14.9291 16.0716 14.682 16.4471 14.2512C16.648 14.0205 16.624 13.6706 16.3933 13.4696C16.1625 13.2686 15.8126 13.2926 15.6117 13.5233C15.4467 13.7127 15.2086 13.8212 14.9583 13.8212C14.7081 13.8212 14.4699 13.7127 14.305 13.5233C14.104 13.2927 13.7541 13.2687 13.5234 13.4696C13.2927 13.6706 13.2687 14.0205 13.4696 14.2512C13.8451 14.682 14.3877 14.9291 14.9583 14.9291Z" fill="black"/>
<path d="M20.2958 11.1111C19.52 11.1111 18.8889 11.7422 18.8889 12.518C18.8889 12.824 19.1368 13.072 19.4429 13.072C19.7489 13.072 19.9968 12.824 19.9968 12.518C19.9968 12.3532 20.1309 12.219 20.2958 12.219C20.4608 12.219 20.5949 12.3532 20.5949 12.518C20.5949 12.824 20.8429 13.072 21.1489 13.072C21.4549 13.072 21.7029 12.824 21.7029 12.518C21.7029 11.7422 21.0717 11.1111 20.2958 11.1111Z" fill="black"/>
<path d="M9.18472 11.1111C8.40893 11.1111 7.77777 11.7422 7.77777 12.518C7.77777 12.824 8.02573 13.072 8.33175 13.072C8.63776 13.072 8.88572 12.824 8.88572 12.518C8.88572 12.3532 9.01978 12.219 9.18472 12.219C9.34966 12.219 9.48379 12.3532 9.48379 12.518C9.48379 12.824 9.73175 13.072 10.0378 13.072C10.3438 13.072 10.5917 12.824 10.5917 12.518C10.5917 11.7422 9.96058 11.1111 9.18472 11.1111Z" fill="black"/>
</g>
<defs>
<clipPath id="clip0_675_632">
<rect width="30" height="30" fill="white"/>
</clipPath>
</defs>
</svg>
