<svg width="23" height="23" viewBox="0 0 23 23" fill="none" xmlns="http://www.w3.org/2000/svg">
<g id="Group 427321213">
<path id="Vector" d="M16.75 11.5C19.6495 11.5 22 9.14949 22 6.25C22 3.35051 19.6495 1 16.75 1C13.8505 1 11.5 3.35051 11.5 6.25C11.5 7.08983 11.6972 7.88361 12.0478 8.58755C12.141 8.77462 12.172 8.98843 12.118 9.19033L11.8053 10.359C11.6696 10.8663 12.1337 11.3304 12.641 11.1947L13.8097 10.882C14.0116 10.828 14.2254 10.859 14.4125 10.9522C15.1164 11.3028 15.9102 11.5 16.75 11.5Z" stroke="black" stroke-width="1.6"/>
<g id="Vector_2">
<path d="M2.53371 6.8311C2.51099 6.40795 2.1495 6.08333 1.72628 6.10604C1.30307 6.12875 0.978408 6.4902 1.00112 6.91334L2.53371 6.8311ZM3.52196 2.90917C3.23008 3.21642 3.24258 3.70207 3.54987 3.99391C3.85717 4.28574 4.34289 4.27325 4.63478 3.966L3.52196 2.90917ZM9.60629 20.0145C9.96512 20.24 10.4389 20.132 10.6644 19.7732C10.8899 19.4144 10.7817 18.9407 10.4229 18.7153L9.60629 20.0145ZM14.1584 20.2663C13.7436 20.1794 13.3369 20.4453 13.25 20.8601C13.1631 21.2748 13.4289 21.6815 13.8439 21.7683L14.1584 20.2663ZM14.7023 15.6476L15.1683 15.157L14.0554 14.1002L13.5895 14.5908L14.7023 15.6476ZM16.7017 14.9505L18.6566 16.0755L19.4222 14.7456L17.4674 13.6205L16.7017 14.9505ZM19.0338 18.4079L17.5804 19.938L18.6932 20.9948L20.1466 19.4648L19.0338 18.4079ZM7.24793 16.0721C3.28189 11.8972 2.61663 8.3757 2.53371 6.8311L1.00112 6.91334C1.10267 8.80517 1.90607 12.6773 6.13511 17.1289L7.24793 16.0721ZM8.65517 9.28215L8.94863 8.97319L7.83582 7.9164L7.54235 8.22531L8.65517 9.28215ZM9.17919 5.12711L7.88895 3.30253L6.63575 4.18845L7.92599 6.01302L9.17919 5.12711ZM8.09876 8.75372C7.54235 8.22531 7.54164 8.22606 7.54093 8.22681C7.54069 8.22707 7.53998 8.22783 7.53948 8.22834C7.53851 8.22938 7.53752 8.23044 7.53652 8.23152C7.5345 8.23369 7.53241 8.23595 7.53028 8.23832C7.52598 8.24303 7.52143 8.24814 7.51664 8.25364C7.50707 8.26465 7.49655 8.27723 7.48531 8.29144C7.46282 8.31986 7.43737 8.35478 7.41067 8.39649C7.35715 8.48013 7.2991 8.59028 7.24994 8.72841C7.14996 9.00931 7.09549 9.38128 7.16356 9.84584C7.2973 10.7585 7.89542 11.9858 9.4582 13.6309L10.5711 12.5741C9.11024 11.0364 8.75044 10.0893 8.68214 9.62333C8.6492 9.39857 8.68267 9.28011 8.69591 9.24287C8.70335 9.222 8.70822 9.21616 8.70346 9.22363C8.70115 9.22721 8.69654 9.23397 8.68881 9.24379C8.68493 9.24859 8.68028 9.25432 8.67471 9.26067C8.67193 9.26394 8.66892 9.26732 8.66566 9.2709C8.66404 9.27264 8.66235 9.27448 8.6606 9.27632C8.65973 9.27734 8.65884 9.27826 8.65793 9.27918C8.65748 9.2797 8.65678 9.28041 8.65656 9.28072C8.65586 9.28144 8.65517 9.28215 8.09876 8.75372ZM9.4582 13.6309C11.0164 15.2711 12.1932 15.9159 13.0911 16.0617C13.5517 16.1365 13.9247 16.0768 14.2071 15.9654C14.3451 15.911 14.4544 15.8471 14.5364 15.789C14.5772 15.7599 14.6112 15.7324 14.6388 15.7084C14.6525 15.6963 14.6647 15.685 14.6752 15.6748C14.6805 15.6698 14.6853 15.6649 14.6898 15.6604C14.6921 15.6581 14.6943 15.6559 14.6964 15.6537C14.6974 15.6527 14.6984 15.6517 14.6993 15.6507C14.6999 15.6501 14.7006 15.6493 14.7009 15.6491C14.7016 15.6483 14.7023 15.6476 14.1459 15.1192C13.5895 14.5908 13.5902 14.5901 13.5908 14.5894C13.5911 14.5891 13.5917 14.5883 13.5922 14.5878C13.5932 14.5869 13.5941 14.586 13.5949 14.5851C13.5968 14.5832 13.5985 14.5814 13.6002 14.5796C13.6036 14.5763 13.6069 14.573 13.6099 14.57C13.6162 14.5641 13.6217 14.559 13.6266 14.5547C13.6364 14.5461 13.6437 14.5406 13.6484 14.5373C13.6579 14.5304 13.657 14.5328 13.6439 14.5379C13.6242 14.5457 13.5313 14.5785 13.3371 14.547C12.9252 14.4801 12.0364 14.1166 10.5711 12.5741L9.4582 13.6309ZM7.88895 3.30253C6.85185 1.83593 4.77658 1.58849 3.52196 2.90917L4.63478 3.966C5.16973 3.40287 6.11151 3.44711 6.63575 4.18845L7.88895 3.30253ZM17.5804 19.938C17.2948 20.2386 16.9961 20.3996 16.7057 20.4282L16.8565 21.9554C17.6209 21.8799 18.2395 21.4724 18.6932 20.9948L17.5804 19.938ZM8.94863 8.97319C9.93865 7.93108 10.0087 6.30018 9.17919 5.12711L7.92599 6.01302C8.35793 6.62384 8.29169 7.43652 7.83582 7.9164L8.94863 8.97319ZM18.6566 16.0755C19.4965 16.5589 19.6608 17.748 19.0338 18.4079L20.1466 19.4648C21.4819 18.0593 21.093 15.7071 19.4222 14.7456L18.6566 16.0755ZM15.1683 15.157C15.5626 14.7419 16.1771 14.6486 16.7017 14.9505L17.4674 13.6205C16.3434 12.9737 14.9495 13.1592 14.0554 14.1002L15.1683 15.157ZM10.4229 18.7153C9.41634 18.0828 8.34509 17.2271 7.24793 16.0721L6.13511 17.1289C7.31591 18.3719 8.48576 19.3105 9.60629 20.0145L10.4229 18.7153ZM16.7057 20.4282C16.1466 20.4835 15.2616 20.4973 14.1584 20.2663L13.8439 21.7683C15.1213 22.0357 16.1651 22.0237 16.8565 21.9554L16.7057 20.4282Z" fill="black"/>
<path d="M14.1459 15.1192L14.7023 15.6476M14.1459 15.1192C14.7023 15.6476 14.7016 15.6483 14.7009 15.6491C14.7006 15.6493 14.6999 15.6501 14.6993 15.6507C14.6984 15.6517 14.6974 15.6527 14.6964 15.6537C14.6943 15.6559 14.6921 15.6581 14.6898 15.6604C14.6853 15.6649 14.6805 15.6698 14.6752 15.6748C14.6647 15.685 14.6525 15.6963 14.6388 15.7084C14.6112 15.7324 14.5772 15.7599 14.5364 15.789C14.4544 15.8471 14.3451 15.911 14.2071 15.9654C13.9247 16.0768 13.5517 16.1365 13.0911 16.0617C12.1932 15.9159 11.0164 15.2711 9.4582 13.6309M14.1459 15.1192C13.5895 14.5908 13.5902 14.5901 13.5908 14.5894C13.5911 14.5891 13.5917 14.5883 13.5922 14.5878C13.5932 14.5869 13.5941 14.586 13.5949 14.5851C13.5967 14.5832 13.5985 14.5814 13.6002 14.5796C13.6036 14.5763 13.6069 14.573 13.6099 14.57C13.6162 14.5641 13.6217 14.559 13.6266 14.5547C13.6365 14.5461 13.6437 14.5406 13.6484 14.5373C13.6579 14.5304 13.657 14.5328 13.6439 14.5379C13.6242 14.5457 13.5313 14.5785 13.3371 14.547C12.9252 14.4801 12.0364 14.1166 10.5711 12.5741M14.7023 15.6476L15.1683 15.157M14.7023 15.6476L13.5895 14.5908L14.0554 14.1002M14.6119 14.6286L14.0554 14.1002M14.0554 14.1002L15.1683 15.157M14.0554 14.1002C14.9495 13.1592 16.3434 12.9737 17.4674 13.6205M17.0846 14.2855L16.7017 14.9505M16.7017 14.9505L18.6566 16.0755M16.7017 14.9505L17.4674 13.6205M16.7017 14.9505C16.1771 14.6486 15.5626 14.7419 15.1683 15.157M19.0394 15.4106L18.6566 16.0755M18.6566 16.0755L19.4222 14.7456M18.6566 16.0755C19.4965 16.5589 19.6608 17.748 19.0338 18.4079M19.5902 18.9363L20.1466 19.4648M20.1466 19.4648L18.6932 20.9948M20.1466 19.4648L19.0338 18.4079M20.1466 19.4648C21.4819 18.0593 21.093 15.7071 19.4222 14.7456M18.1368 20.4664L17.5804 19.938M17.5804 19.938L19.0338 18.4079M17.5804 19.938L18.6932 20.9948M17.5804 19.938C17.2948 20.2386 16.9961 20.3996 16.7057 20.4282M16.7811 21.1918L16.8565 21.9554M16.8565 21.9554L16.7057 20.4282M16.8565 21.9554C17.6209 21.8799 18.2395 21.4724 18.6932 20.9948M16.8565 21.9554C16.1651 22.0237 15.1213 22.0357 13.8439 21.7683M6.69151 16.6005L7.24793 16.0721M7.24793 16.0721C3.28189 11.8972 2.61663 8.3757 2.53371 6.8311M7.24793 16.0721L6.13511 17.1289M7.24793 16.0721C8.34509 17.2271 9.41634 18.0828 10.4229 18.7153M2.53371 6.8311C2.51099 6.40795 2.1495 6.08333 1.72628 6.10604C1.30307 6.12875 0.978408 6.4902 1.00112 6.91334M2.53371 6.8311L1.00112 6.91334M1.00112 6.91334C1.10268 8.80517 1.90607 12.6773 6.13511 17.1289M8.09876 8.75372L8.65517 9.28215M8.09876 8.75372C7.54235 8.22531 7.54164 8.22606 7.54093 8.22681C7.54069 8.22707 7.53998 8.22783 7.53948 8.22834C7.53851 8.22938 7.53752 8.23044 7.53652 8.23152C7.5345 8.23369 7.53241 8.23595 7.53028 8.23832C7.52598 8.24303 7.52143 8.24814 7.51664 8.25364C7.50707 8.26465 7.49655 8.27723 7.48531 8.29144C7.46282 8.31986 7.43737 8.35478 7.41067 8.39649C7.35715 8.48013 7.29909 8.59028 7.24994 8.72841C7.14996 9.00931 7.09549 9.38128 7.16356 9.84584C7.2973 10.7585 7.89542 11.9858 9.4582 13.6309M8.09876 8.75372C8.65517 9.28215 8.65586 9.28143 8.65656 9.28072C8.65678 9.28041 8.65748 9.2797 8.65793 9.27918C8.65884 9.27826 8.65973 9.27734 8.6606 9.27632C8.66235 9.27448 8.66404 9.27264 8.66566 9.2709C8.66892 9.26732 8.67193 9.26394 8.67471 9.26067C8.68028 9.25432 8.68493 9.24859 8.68881 9.24379C8.69654 9.23397 8.70115 9.22721 8.70346 9.22363C8.70822 9.21616 8.70335 9.222 8.69591 9.24287C8.68267 9.28011 8.6492 9.39857 8.68214 9.62333C8.75044 10.0893 9.11024 11.0364 10.5711 12.5741M8.65517 9.28215L8.94863 8.97319M8.65517 9.28215L7.54235 8.22531L7.83582 7.9164M8.39223 8.44481L8.94863 8.97319M8.94863 8.97319L7.83582 7.9164M8.94863 8.97319C9.93865 7.93108 10.0087 6.30018 9.17919 5.12711M8.55258 5.57006L9.17919 5.12711M9.17919 5.12711L7.88895 3.30253M9.17919 5.12711L7.92599 6.01302M7.26235 3.74549L6.63575 4.18845M6.63575 4.18845L7.88895 3.30253M6.63575 4.18845L7.92599 6.01302M6.63575 4.18845C6.11151 3.44711 5.16973 3.40287 4.63478 3.966M3.52196 2.90917C3.23008 3.21642 3.24258 3.70207 3.54987 3.99391C3.85717 4.28574 4.34289 4.27325 4.63478 3.966M3.52196 2.90917L4.63478 3.966M3.52196 2.90917C4.77658 1.58849 6.85185 1.83593 7.88895 3.30253M10.0146 13.1025L10.5711 12.5741M10.5711 12.5741L9.4582 13.6309M9.60629 20.0145C9.96512 20.24 10.4389 20.132 10.6644 19.7732C10.8899 19.4144 10.7817 18.9407 10.4229 18.7153M9.60629 20.0145L10.4229 18.7153M9.60629 20.0145C8.48576 19.3105 7.31591 18.3719 6.13511 17.1289M14.1584 20.2663C13.7436 20.1794 13.3369 20.4453 13.25 20.8601C13.1631 21.2748 13.4289 21.6815 13.8439 21.7683M14.1584 20.2663L13.8439 21.7683M14.1584 20.2663C15.2616 20.4973 16.1466 20.4835 16.7057 20.4282M19.4222 14.7456L17.4674 13.6205M7.83582 7.9164C8.29169 7.43652 8.35793 6.62384 7.92599 6.01302" stroke="black" stroke-width="0.3"/>
</g>
</g>
</svg>
