<svg width="15" height="12" viewBox="0 0 15 12" fill="none" xmlns="http://www.w3.org/2000/svg">
<path id="Vector" d="M14 6.71429V9.57143C14 10.3604 13.3533 11 12.5556 11H5.33333M2.44444 11C1.6467 11 1 10.3604 1 9.57143V3.85714C1 3.06816 1.6467 2.42857 2.44444 2.42857H4.25C4.64887 2.42857 4.97222 2.10877 4.97222 1.71429C4.97222 1.3198 5.29558 1 5.69444 1H9.30556C9.70444 1 10.0278 1.3198 10.0278 1.71429C10.0278 2.10877 10.3511 2.42857 10.75 2.42857H12.5556C13.3533 2.42857 14 3.06816 14 3.85714M5.33333 6.71429C5.33333 7.89779 6.30335 8.85714 7.5 8.85714C8.69665 8.85714 9.66667 7.89779 9.66667 6.71429C9.66667 5.53079 8.69665 4.57143 7.5 4.57143" stroke="white" stroke-width="1.4" stroke-linecap="round"/>
</svg>
