<svg width="20" height="21" viewBox="0 0 20 21" fill="none" xmlns="http://www.w3.org/2000/svg">
<path d="M15.3363 20.1092C15.0469 20.0351 14.7511 19.9805 14.4689 19.8843C12.7025 19.2828 11.565 17.5237 11.719 15.6482C11.8767 13.7311 13.3795 12.1464 15.2599 11.9152C17.5203 11.6369 19.516 13.1823 19.8311 15.4536C19.8353 15.4826 19.8546 15.5093 19.8667 15.5372V16.4516C19.8546 16.4795 19.8353 16.5062 19.8311 16.5352C19.5921 18.255 18.3847 19.5985 16.7131 20.0015C16.5565 20.0393 16.3992 20.0733 16.2418 20.1092H15.3355H15.3363ZM15.7868 19.1951C17.5249 19.1966 18.9596 17.7508 18.9611 15.9963C18.9626 14.2414 17.5309 12.7945 15.7917 12.793C14.0528 12.7915 12.6192 14.2361 12.6174 15.991C12.6158 17.7451 14.0483 19.1932 15.7864 19.1947L15.7868 19.1951Z" fill="#061229" stroke="#061229" stroke-width="0.222987"/>
<path d="M1.7446 6.71217C1.7446 6.79499 1.7446 6.86408 1.7446 6.93316C1.7446 10.2918 1.7446 13.6505 1.7446 17.0091C1.7446 17.666 2.05288 17.9782 2.70121 17.9782C5.419 17.9782 8.13716 17.9782 10.8549 17.9782C11.1806 17.9782 11.3777 18.1583 11.372 18.4465C11.3675 18.6805 11.1935 18.8698 10.9628 18.8892C10.9189 18.8931 10.8746 18.8911 10.8307 18.8911C8.08156 18.8911 5.332 18.8919 2.58282 18.8911C1.70753 18.8911 1.03196 18.3274 0.86439 17.4584C0.844343 17.3534 0.84056 17.2443 0.84056 17.137C0.839803 12.7177 0.839425 8.29876 0.84056 3.87983C0.84056 2.87643 1.58649 2.13103 2.58584 2.12836C2.79956 2.12798 3.0129 2.12836 3.25612 2.12836C3.25612 1.88982 3.25536 1.65815 3.25612 1.42609C3.25725 1.11046 3.4339 0.909318 3.70814 0.909318C3.98313 0.909318 4.15902 1.10931 4.16053 1.42533C4.16167 1.65242 4.16053 1.87951 4.16053 2.11729H9.2969C9.2969 1.86616 9.29274 1.60891 9.29804 1.35205C9.30258 1.12916 9.46334 0.945958 9.671 0.912371C9.89304 0.876495 10.1052 1.00092 10.1756 1.21732C10.1964 1.28182 10.1994 1.35396 10.2002 1.42266C10.2032 1.65013 10.2013 1.87761 10.2013 2.11615H15.3373C15.3373 1.9028 15.3373 1.69517 15.3373 1.48754C15.3373 1.11542 15.495 0.911608 15.7848 0.908936C16.0829 0.906265 16.2417 1.11046 16.2421 1.49632C16.2421 1.6986 16.2421 1.90089 16.2421 2.1276C16.4717 2.1276 16.6896 2.12722 16.9071 2.1276C17.9178 2.12989 18.6577 2.87337 18.658 3.89242C18.6592 6.27326 18.6577 8.65409 18.6596 11.0349C18.6596 11.2464 18.585 11.4074 18.3933 11.4967C18.2249 11.5754 18.0415 11.567 17.9227 11.4269C17.8334 11.3216 17.7619 11.1624 17.7604 11.0261C17.7487 9.66131 17.7532 8.29609 17.7532 6.93125C17.7532 6.86217 17.7532 6.79309 17.7532 6.71103H1.7446V6.71217ZM9.29728 3.05505H4.16091C4.16091 3.29626 4.16205 3.52411 4.16091 3.75197C4.15902 4.06417 3.97708 4.26417 3.70057 4.26035C3.43428 4.25653 3.25839 4.0573 3.2565 3.75464C3.25536 3.52182 3.2565 3.28939 3.2565 3.04207C3.00949 3.04207 2.78443 3.03711 2.55937 3.04321C2.09335 3.05543 1.75595 3.39702 1.74649 3.86838C1.74044 4.17295 1.74535 4.4779 1.74498 4.78247C1.74498 5.1107 1.74498 5.43932 1.74498 5.77633H17.7487C17.7487 5.10154 17.765 4.43592 17.7419 3.7722C17.7302 3.44358 17.5335 3.17603 17.2139 3.10199C16.9037 3.02986 16.5738 3.0455 16.2432 3.02222C16.2432 3.30046 16.2444 3.52869 16.2432 3.75693C16.2413 4.05883 16.0647 4.25768 15.7977 4.26111C15.5219 4.26455 15.3407 4.06341 15.3388 3.75082C15.3377 3.51839 15.3388 3.28595 15.3388 3.05657H10.2028C10.2028 3.19092 10.2028 3.31114 10.2028 3.43099C10.2028 3.55159 10.2047 3.6722 10.2021 3.79281C10.196 4.06379 10.0126 4.25691 9.75876 4.26073C9.49662 4.26493 9.30258 4.06952 9.29842 3.7909C9.29501 3.55045 9.29766 3.30962 9.29766 3.05543L9.29728 3.05505Z" fill="#061229" stroke="#061229" stroke-width="0.222987"/>
<path d="M3.25643 9.883C3.25643 9.49599 3.25492 9.10898 3.25681 8.72235C3.25832 8.40824 3.43648 8.22809 3.74817 8.22771C4.52776 8.22618 5.30697 8.22618 6.08656 8.22771C6.39787 8.22847 6.57603 8.40862 6.57678 8.72311C6.5783 9.50973 6.5783 10.2963 6.57678 11.083C6.57603 11.3971 6.39711 11.5772 6.0858 11.578C5.30621 11.5795 4.527 11.5795 3.74741 11.578C3.438 11.5772 3.25832 11.3948 3.25681 11.0822C3.25492 10.6826 3.25643 10.283 3.25643 9.88338V9.883ZM4.16955 10.6517H5.65762V9.1502H4.16955V10.6517Z" fill="#061229" stroke="#061229" stroke-width="0.222987"/>
<path d="M11.4097 9.91381C11.4097 10.3069 11.4116 10.7004 11.4089 11.0935C11.407 11.3939 11.2251 11.5775 10.9266 11.5783C10.141 11.5802 9.35534 11.5802 8.56932 11.5783C8.27201 11.5775 8.08969 11.3924 8.08931 11.0913C8.08742 10.2982 8.08742 9.50543 8.08931 8.71233C8.09007 8.41234 8.27314 8.22876 8.57197 8.22799C9.35761 8.22609 10.1433 8.22609 10.9293 8.22799C11.2273 8.22876 11.4074 8.41234 11.4093 8.71462C11.4116 9.11422 11.41 9.51383 11.41 9.91343L11.4097 9.91381ZM9.00507 9.14437V10.6527H10.4901V9.14437H9.00507Z" fill="#061229" stroke="#061229" stroke-width="0.222987"/>
<path d="M3.25643 14.758C3.25643 14.371 3.25492 13.984 3.25681 13.5973C3.25832 13.2832 3.43648 13.1035 3.74817 13.1027C4.52776 13.1012 5.30697 13.1012 6.08656 13.1027C6.39787 13.1035 6.57603 13.2836 6.57678 13.5981C6.5783 14.3847 6.5783 15.1713 6.57678 15.958C6.57603 16.2721 6.39711 16.4522 6.0858 16.453C5.30621 16.4545 4.527 16.4545 3.74741 16.453C3.43837 16.4522 3.25832 16.2694 3.25681 15.9572C3.25492 15.5576 3.25643 15.158 3.25643 14.7584V14.758ZM5.65913 15.532V14.0305H4.17144V15.532H5.65913Z" fill="#061229" stroke="#061229" stroke-width="0.222987"/>
<path d="M16.2435 15.5395C16.4928 15.5395 16.7235 15.5384 16.9547 15.5395C17.2524 15.5414 17.4494 15.7216 17.4513 15.9914C17.4532 16.2628 17.2569 16.4502 16.9626 16.4517C16.5791 16.4536 16.1951 16.4544 15.8116 16.4517C15.5252 16.4494 15.341 16.2639 15.3399 15.975C15.3372 15.3785 15.3372 14.7815 15.3399 14.185C15.341 13.9048 15.5339 13.709 15.7953 13.711C16.0567 13.7129 16.2413 13.9087 16.2428 14.193C16.2454 14.6357 16.2435 15.0781 16.2435 15.5395Z" fill="#061229" stroke="#061229" stroke-width="0.222987"/>
</svg>
