<svg width="18" height="18" viewBox="0 0 18 18" fill="none" xmlns="http://www.w3.org/2000/svg">
<path fill-rule="evenodd" clip-rule="evenodd" d="M4 0C1.79086 0 0 1.79086 0 4V13.732C0 15.9411 1.79086 17.732 4 17.732H13.732C15.9411 17.732 17.732 15.9411 17.732 13.732V4C17.732 1.79086 15.9411 0 13.732 0H4ZM12.8261 5.27149C12.8391 5.25185 12.852 5.2322 12.8658 5.21347L12.866 5.21328V5.17447C12.8215 5.04075 12.7261 4.9967 12.5864 5.00019C12.4494 5.00357 12.3123 5.00306 12.1751 5.00255C12.0363 5.00204 11.8974 5.00153 11.7586 5.00504C11.6875 5.00679 11.6079 5.02852 11.5486 5.06617C11.3476 5.19407 11.1496 5.3272 10.9585 5.46906C9.5615 6.50637 8.34883 7.72862 7.24108 9.05528C7.14846 9.16612 7.05718 9.27789 6.96551 9.39015C6.92555 9.43908 6.88553 9.48809 6.84528 9.53716C6.83779 9.53226 6.83084 9.52774 6.82429 9.52347C6.80856 9.51323 6.79511 9.50448 6.78185 9.49544C6.61766 9.38285 6.45346 9.27024 6.28926 9.15764C5.84523 8.85312 5.40117 8.54859 4.95701 8.24427C4.80723 8.1416 4.74083 8.14665 4.61298 8.26988L4.57524 8.30628C4.41196 8.46375 4.24876 8.62114 4.08658 8.77971C3.97888 8.88489 3.97276 8.96504 4.06207 9.08672C4.12215 9.16865 4.18265 9.25023 4.24314 9.33179C4.31992 9.43533 4.39667 9.53883 4.47249 9.64293C4.51783 9.70518 4.56319 9.76743 4.60854 9.82967C5.32347 10.8107 6.03846 11.7919 6.68285 12.8204C6.70873 12.8618 6.74558 12.8965 6.78243 12.9311C6.79932 12.947 6.81621 12.9629 6.83204 12.9794H6.93064C6.94771 12.9624 6.96618 12.9463 6.98465 12.9301C7.02457 12.8952 7.0645 12.8603 7.09031 12.8173C8.00638 11.2914 8.98609 9.80653 10.0658 8.38691C10.8767 7.32069 11.7323 6.29192 12.7342 5.38891C12.7706 5.35593 12.7984 5.31372 12.8261 5.27149Z" fill="#008070"/>
</svg>
