<svg width="25" height="25" viewBox="0 0 25 25" fill="none" xmlns="http://www.w3.org/2000/svg">
<g id="fi_2838794" clip-path="url(#clip0_1752_6827)">
<g id="Group">
<path id="Vector" d="M12.5 0C5.61724 0 0 5.61763 0 12.5C0 19.3828 5.61763 25 12.5 25C19.3828 25 25 19.3823 25 12.5C25 5.61724 19.3824 0 12.5 0ZM12.5 23.5352C6.41519 23.5352 1.46484 18.5848 1.46484 12.5C1.46484 6.41519 6.41519 1.46484 12.5 1.46484C18.5848 1.46484 23.5352 6.41519 23.5352 12.5C23.5352 18.5848 18.5848 23.5352 12.5 23.5352Z" fill="black"/>
<path id="Vector_2" d="M6.28516 19.4453C6.68966 19.4453 7.01758 19.1174 7.01758 18.7129C7.01758 18.3084 6.68966 17.9805 6.28516 17.9805C5.88065 17.9805 5.55273 18.3084 5.55273 18.7129C5.55273 19.1174 5.88065 19.4453 6.28516 19.4453Z" fill="black"/>
<path id="Vector_3" d="M18.7148 7.01953C19.1193 7.01953 19.4473 6.69161 19.4473 6.28711C19.4473 5.8826 19.1193 5.55469 18.7148 5.55469C18.3103 5.55469 17.9824 5.8826 17.9824 6.28711C17.9824 6.69161 18.3103 7.01953 18.7148 7.01953Z" fill="black"/>
<path id="Vector_4" d="M5.76726 5.76921C5.48123 6.05525 5.48123 6.51897 5.76726 6.805C6.0533 7.09104 6.51702 7.09104 6.80305 6.805C7.08909 6.51897 7.08909 6.05525 6.80305 5.76921C6.51707 5.48318 6.0533 5.48318 5.76726 5.76921Z" fill="black"/>
<path id="Vector_5" d="M18.1969 18.195C17.9109 18.481 17.9109 18.9448 18.1969 19.2308C18.483 19.5168 18.9467 19.5168 19.2327 19.2308C19.5188 18.9448 19.5188 18.481 19.2327 18.195C18.9467 17.909 18.4829 17.909 18.1969 18.195Z" fill="black"/>
<path id="Vector_6" d="M12.5 5.90625C12.9045 5.90625 13.2324 5.57832 13.2324 5.17383V3.70898C13.2324 3.30449 12.9045 2.97656 12.5 2.97656C12.0955 2.97656 11.7676 3.30449 11.7676 3.70898V5.17383C11.7676 5.57832 12.0955 5.90625 12.5 5.90625Z" fill="black"/>
<path id="Vector_7" d="M12.5 19.0938C12.0955 19.0938 11.7676 19.4217 11.7676 19.8262V21.291C11.7676 21.6955 12.0955 22.0234 12.5 22.0234C12.9045 22.0234 13.2324 21.6955 13.2324 21.291V19.8262C13.2324 19.4217 12.9045 19.0938 12.5 19.0938Z" fill="black"/>
<path id="Vector_8" d="M5.9082 12.498C5.9082 12.0936 5.58027 11.7656 5.17578 11.7656H3.71094C3.30645 11.7656 2.97852 12.0936 2.97852 12.498C2.97852 12.9025 3.30645 13.2305 3.71094 13.2305H5.17578C5.58027 13.2305 5.9082 12.9025 5.9082 12.498Z" fill="black"/>
<path id="Vector_9" d="M19.0918 12.498C19.0918 12.9025 19.4197 13.2305 19.8242 13.2305H21.2891C21.6936 13.2305 22.0215 12.9025 22.0215 12.498C22.0215 12.0936 21.6936 11.7656 21.2891 11.7656H19.8242C19.4197 11.7656 19.0918 12.0936 19.0918 12.498Z" fill="black"/>
<path id="Vector_10" d="M13.2324 12.1986V8.10742C13.2324 7.70293 12.9045 7.375 12.5 7.375C12.0955 7.375 11.7676 7.70293 11.7676 8.10742V12.502C11.7676 12.6962 11.8448 12.8825 11.9821 13.0199L16.3767 17.4144C16.6626 17.7004 17.1264 17.7004 17.4125 17.4144C17.6985 17.1284 17.6985 16.6646 17.4125 16.3786L13.2324 12.1986Z" fill="black"/>
</g>
</g>
<defs>
<clipPath id="clip0_1752_6827">
<rect width="25" height="25" fill="white"/>
</clipPath>
</defs>
</svg>
