<svg width="12" height="11" viewBox="0 0 12 11" fill="none" xmlns="http://www.w3.org/2000/svg">
<path id="Vector" d="M11.9997 0.294284C11.9409 0.375615 11.8938 0.46952 11.8216 0.536137C10.4656 1.78098 9.30758 3.19919 8.20996 4.66903C6.74861 6.62606 5.42259 8.67297 4.18269 10.7766C4.13161 10.8633 4.03961 10.9262 3.96659 11H3.83314C3.76494 10.9275 3.68229 10.8641 3.63121 10.7809C2.70369 9.27306 1.66812 7.83906 0.63951 6.40052C0.456039 6.14396 0.268557 5.89007 0.0840158 5.63377C-0.0368718 5.46602 -0.0285808 5.35553 0.11718 5.21052C0.353606 4.97509 0.591637 4.74153 0.829667 4.50771C1.00271 4.33782 1.09257 4.33087 1.2953 4.47239C2.11878 5.04706 2.94199 5.62226 3.7652 6.1972C3.79061 6.21485 3.81655 6.23171 3.85105 6.25472C4.03051 6.03186 4.20676 5.8098 4.38676 5.59042C5.88608 3.76155 7.52743 2.07661 9.4183 0.646629C9.67693 0.451061 9.94491 0.267531 10.2169 0.0912247C10.2971 0.0393228 10.4049 0.00935876 10.5012 0.00695094C10.8746 -0.00268035 11.2485 0.0096263 11.6216 0.000262542C11.8106 -0.0045531 11.9398 0.0561775 12 0.24051V0.294017L11.9997 0.294284Z" fill="white"/>
</svg>
