<svg width="22" height="21" viewBox="0 0 22 21" fill="none" xmlns="http://www.w3.org/2000/svg">
<path d="M2.83961 20.5443C2.70725 20.5202 2.57372 20.5015 2.44291 20.4708C1.57244 20.2653 0.980697 19.5252 0.975636 18.6383C0.974469 18.4378 0.974079 18.2377 0.975636 18.0372C0.977972 17.8096 1.07452 17.7054 1.30226 17.6942C1.44981 17.6868 1.59852 17.6926 1.78149 17.6926C1.78149 17.5955 1.78149 17.5155 1.78149 17.435C1.78149 14.0818 1.7846 10.7286 1.77838 7.3754C1.77721 6.79691 1.97342 6.32992 2.48807 6.05253C2.70102 5.93753 2.96302 5.89946 3.20789 5.86216C3.40332 5.83224 3.60731 5.85594 3.82298 5.85594C3.79301 5.70792 3.74746 5.5735 3.74162 5.43791C3.72021 4.93401 3.93004 4.54278 4.37618 4.30579C6.25884 3.305 8.14228 2.30653 10.0312 1.31855C10.612 1.01474 11.2135 1.02445 11.8033 1.31389C12.0758 1.44754 12.3424 1.59323 12.6087 1.73814C12.7866 1.83488 12.8454 2.00699 12.7621 2.15773C12.6827 2.30109 12.5141 2.34577 12.3417 2.25836C12.0937 2.13287 11.85 1.99961 11.6039 1.87024C11.1457 1.62975 10.6887 1.63208 10.2309 1.87412C8.38092 2.85239 6.53096 3.83026 4.68023 4.80736C4.46144 4.92275 4.33063 5.09874 4.32869 5.34583C4.32674 5.59992 4.45404 5.78135 4.68217 5.9014C6.54459 6.88355 8.40506 7.86958 10.2675 8.85173C10.6836 9.07124 11.113 9.08134 11.5343 8.87038C12.0073 8.633 12.4721 8.37969 12.9603 8.12289C12.6177 7.73205 12.2872 7.35442 11.9555 6.97757C11.5584 6.52573 11.1605 6.07545 10.7638 5.62323C10.5925 5.42781 10.5824 5.25803 10.7304 5.13215C10.8697 5.01327 11.0472 5.05328 11.2146 5.24132C11.2318 5.26075 11.2485 5.28056 11.2656 5.29999C11.9613 6.09177 12.6566 6.88355 13.3523 7.67533C13.3947 7.72389 13.4391 7.77051 13.4979 7.83461C13.7568 7.69941 14.0184 7.56421 14.2784 7.42668C15.2206 6.92822 16.1607 6.42627 17.1055 5.93248C17.3492 5.80505 17.5139 5.63216 17.5128 5.34933C17.5116 5.06455 17.3372 4.89594 17.0966 4.77006C15.8839 4.13369 14.674 3.49187 13.4621 2.85394C13.3274 2.78284 13.2207 2.69543 13.2328 2.52915C13.2491 2.3042 13.4734 2.19891 13.6992 2.31586C14.2383 2.59519 14.774 2.88036 15.3109 3.16397C15.9505 3.50197 16.5893 3.84114 17.229 4.17914C18.0313 4.603 18.2007 4.95771 18.0196 5.84157C18.3155 5.85672 18.6145 5.84934 18.9061 5.8913C19.5469 5.98337 20.0202 6.52223 20.0545 7.16599C20.0596 7.26273 20.0607 7.35986 20.0607 7.4566C20.0607 10.7776 20.0607 14.0985 20.0607 17.4195V17.6678C20.3414 17.7447 20.6626 17.585 20.8678 17.8698V18.9168C20.8553 18.9456 20.8386 18.9731 20.8315 19.0031C20.6427 19.8061 20.1402 20.2964 19.3413 20.4891C19.2304 20.5159 19.1155 20.5272 19.0026 20.5454H2.83961V20.5443ZM3.74006 7.82102V16.3352C3.8187 16.3352 3.888 16.3352 3.95729 16.3352C4.27457 16.3352 4.59185 16.334 4.90913 16.3363C5.06096 16.3375 5.19371 16.3783 5.24627 16.5419C5.31323 16.7513 5.17036 16.9273 4.92081 16.93C4.45482 16.935 3.98844 16.9327 3.52205 16.9311C3.23981 16.93 3.14171 16.8305 3.14171 16.5415C3.14093 13.5628 3.14093 10.5841 3.14171 7.60539C3.14171 7.30935 3.23942 7.21494 3.53996 7.21456C4.23915 7.21378 4.93872 7.21456 5.63791 7.21378C5.69903 7.21378 5.76015 7.20873 5.87927 7.20329C5.71771 7.11626 5.59937 7.06692 5.49659 6.99505C4.82154 6.52146 4.07447 6.38121 3.25928 6.44531C2.68778 6.49038 2.36972 6.76932 2.36972 7.33771C2.36972 10.717 2.36972 14.0966 2.36972 17.4758C2.36972 17.5442 2.36972 17.6126 2.36972 17.6759H19.4655C19.4682 17.6277 19.4721 17.5963 19.4721 17.5644C19.4721 14.1269 19.4733 10.6894 19.4709 7.25185C19.4709 6.81051 19.1505 6.47911 18.7091 6.45774C18.4829 6.44648 18.2544 6.47134 18.0297 6.44958C17.5805 6.40607 17.1791 6.50864 16.7996 6.7534C16.5496 6.91463 16.2748 7.03778 16.0112 7.17804C16.0151 7.19008 16.019 7.20212 16.0233 7.21417C16.0867 7.21417 16.1502 7.21417 16.2137 7.21417C16.9 7.21417 17.5863 7.21417 18.2727 7.21417C18.6125 7.21417 18.7009 7.29964 18.7009 7.63414C18.7013 10.5934 18.7013 13.5527 18.7009 16.5123C18.7009 16.8453 18.6118 16.9315 18.2715 16.9315C14.2699 16.9315 10.2686 16.9315 6.26702 16.9315C6.20901 16.9315 6.14867 16.9358 6.093 16.923C5.93611 16.8865 5.83723 16.7843 5.84424 16.6223C5.85046 16.4727 5.94 16.3694 6.0965 16.3476C6.17942 16.336 6.26429 16.336 6.34799 16.336C10.1748 16.3356 14.0013 16.3356 17.8281 16.3356H18.1018V7.82529H15.5067C15.5067 7.92902 15.5075 8.01838 15.5067 8.10774C15.5024 8.48226 15.5351 8.86183 15.4857 9.23052C15.3486 10.2484 14.7989 10.9773 13.8568 11.4046C13.8074 11.4271 13.7272 11.4703 13.7287 11.5006C13.7381 11.7022 13.7194 11.9233 13.7977 12.0993C13.9433 12.4279 14.1581 12.7252 14.3263 13.0449C14.5992 13.5636 14.3244 14.1793 13.7618 14.3161C13.6326 14.3476 13.4921 14.3417 13.357 14.341C12.5955 14.3359 12.1922 13.6358 12.5679 12.9707C12.7236 12.6952 12.896 12.4287 13.0381 12.1471C13.1074 12.0095 13.1253 11.846 13.1748 11.6649C13.0615 11.6894 13.0105 11.6979 12.961 11.7115C11.4116 12.1319 9.88168 12.0678 8.36301 11.5519C7.4209 11.2317 6.75286 10.6494 6.44648 9.68391C6.31023 9.255 6.33982 8.81599 6.33592 8.37775C6.33437 8.19282 6.33592 8.00789 6.33592 7.8214H3.74045L3.74006 7.82102ZM20.2729 18.2995C20.2375 18.2952 20.2126 18.2894 20.1876 18.2894C17.9476 18.2886 15.7076 18.2894 13.4675 18.2859C13.3511 18.2859 13.3192 18.3356 13.2849 18.4335C13.0942 18.9829 12.7127 19.35 12.1287 19.3795C11.3225 19.4207 10.5104 19.4211 9.70416 19.3776C9.1202 19.3461 8.74414 18.9747 8.55182 18.4253C8.53703 18.383 8.52029 18.3418 8.50433 18.2991H1.57633C1.42294 19.3259 2.16456 19.9825 2.97236 19.9355C3.40449 19.9102 3.83972 19.9312 4.27341 19.9312C9.12254 19.9312 13.9717 19.932 18.8212 19.9285C19.0127 19.9285 19.2136 19.9164 19.3939 19.8593C20.0241 19.6596 20.3418 19.0878 20.2733 18.2995H20.2729ZM6.92104 7.7507C6.92104 8.20059 6.89379 8.6159 6.92688 9.02617C6.9954 9.88011 7.41507 10.5215 8.21625 10.856C9.76995 11.5049 11.361 11.5701 12.9774 11.0969C13.1133 11.0573 13.1409 10.9955 13.1397 10.8677C13.1339 10.2088 13.137 9.54988 13.1366 8.89097C13.1366 8.83658 13.1312 8.7818 13.1269 8.70138C12.7053 8.92283 12.3055 9.12951 11.9088 9.3428C11.2473 9.69868 10.5898 9.69635 9.92878 9.34008C9.38298 9.04598 8.8329 8.75965 8.28476 8.47021C7.84057 8.23555 7.39599 8.00128 6.92143 7.7507H6.92104ZM14.9589 7.78877C14.9348 7.78217 14.9111 7.77595 14.8869 7.76935C14.5451 7.95039 14.206 8.13571 13.8607 8.30937C13.7544 8.36299 13.714 8.42243 13.7151 8.54403C13.7217 9.2484 13.7178 9.95237 13.719 10.6567C13.719 10.7034 13.7284 10.75 13.735 10.8133C14.3123 10.511 14.7187 10.072 14.8332 9.45936C14.9348 8.9135 14.9216 8.34628 14.9593 7.78838L14.9589 7.78877ZM12.7119 18.3022H9.14707C9.26736 18.613 9.51067 18.8014 9.82445 18.8045C10.5544 18.8115 11.2847 18.8127 12.015 18.8045C12.344 18.8006 12.5616 18.6146 12.7119 18.3026V18.3022ZM13.4282 12.6603C13.2947 12.8918 13.1693 13.0954 13.058 13.306C12.94 13.529 13.0673 13.743 13.3192 13.759C13.3901 13.7636 13.4617 13.7633 13.5325 13.759C13.7852 13.7438 13.9144 13.5317 13.798 13.3083C13.6879 13.097 13.5621 12.8942 13.4278 12.6599L13.4282 12.6603Z" fill="#061229" stroke="#061229" stroke-width="0.334481"/>
<path d="M7.79447 15.5746C6.86949 15.5746 5.94451 15.575 5.01953 15.5734C4.94284 15.5734 4.86303 15.5703 4.79062 15.5482C4.65008 15.5051 4.55977 15.3905 4.59909 15.2556C4.62789 15.1562 4.73067 15.068 4.82021 15.0008C4.86809 14.965 4.95763 14.9794 5.0281 14.9794C6.87806 14.9786 8.72801 14.9786 10.578 14.9794C10.6484 14.9794 10.7212 14.9829 10.7894 14.9985C10.9256 15.0299 10.9973 15.1232 11.0035 15.2615C11.0097 15.399 10.9498 15.5024 10.8166 15.5447C10.7446 15.5676 10.6648 15.5731 10.5885 15.5731C9.65689 15.575 8.72607 15.5746 7.79447 15.5746Z" fill="#061229" stroke="#061229" stroke-width="0.334481"/>
<path d="M6.81958 14.3396C6.19864 14.3396 5.5781 14.3404 4.95716 14.3396C4.71969 14.3392 4.58382 14.2265 4.59005 14.0408C4.59589 13.8621 4.72786 13.7584 4.95599 13.7584C6.21032 13.7576 7.46504 13.7576 8.71937 13.7584C8.94166 13.7584 9.07947 13.8726 9.07986 14.0494C9.08025 14.2277 8.94555 14.3388 8.72053 14.3392C8.08675 14.3404 7.45297 14.3396 6.81958 14.3396Z" fill="#061229" stroke="#061229" stroke-width="0.334481"/>
</svg>
