<svg width="22" height="22" viewBox="0 0 22 22" fill="none" xmlns="http://www.w3.org/2000/svg">
<path d="M11.3536 0.5C5.63873 0.5 0.974609 5.16444 0.974609 10.879C0.974609 16.5939 5.63905 21.2581 11.3536 21.2581C17.0686 21.2581 21.7327 16.5936 21.7327 10.879C21.7327 5.16412 17.0682 0.5 11.3536 0.5ZM11.3536 20.0418C6.30128 20.0418 2.1909 15.9314 2.1909 10.879C2.1909 5.82667 6.30128 1.71629 11.3536 1.71629C16.406 1.71629 20.5164 5.82667 20.5164 10.879C20.5164 15.9314 16.406 20.0418 11.3536 20.0418Z" fill="#061229"/>
<path d="M6.19213 16.646C6.528 16.646 6.80028 16.3737 6.80028 16.0378C6.80028 15.702 6.528 15.4297 6.19213 15.4297C5.85626 15.4297 5.58398 15.702 5.58398 16.0378C5.58398 16.3737 5.85626 16.646 6.19213 16.646Z" fill="#061229"/>
<path d="M16.5144 6.32957C16.8503 6.32957 17.1225 6.0573 17.1225 5.72143C17.1225 5.38556 16.8503 5.11328 16.5144 5.11328C16.1785 5.11328 15.9062 5.38556 15.9062 5.72143C15.9062 6.0573 16.1785 6.32957 16.5144 6.32957Z" fill="#061229"/>
<path d="M5.76211 5.29141C5.52461 5.52891 5.52461 5.91395 5.76211 6.15145C5.99961 6.38895 6.38465 6.38895 6.62215 6.15145C6.85965 5.91395 6.85965 5.52891 6.62215 5.29141C6.38469 5.05391 5.99961 5.05391 5.76211 5.29141Z" fill="#061229"/>
<path d="M16.0844 15.6078C15.8469 15.8453 15.8469 16.2304 16.0844 16.4679C16.3219 16.7054 16.7069 16.7054 16.9444 16.4679C17.1819 16.2304 17.1819 15.8453 16.9444 15.6078C16.7069 15.3703 16.3218 15.3703 16.0844 15.6078Z" fill="#061229"/>
<path d="M11.3542 5.40524C11.6901 5.40524 11.9624 5.13295 11.9624 4.7971V3.5808C11.9624 3.24494 11.6901 2.97266 11.3542 2.97266C11.0184 2.97266 10.7461 3.24494 10.7461 3.5808V4.7971C10.7461 5.13295 11.0184 5.40524 11.3542 5.40524Z" fill="#061229"/>
<path d="M11.3542 16.3516C11.0184 16.3516 10.7461 16.6238 10.7461 16.9597V18.176C10.7461 18.5119 11.0184 18.7841 11.3542 18.7841C11.6901 18.7841 11.9624 18.5119 11.9624 18.176V16.9597C11.9624 16.6238 11.6901 16.3516 11.3542 16.3516Z" fill="#061229"/>
<path d="M5.87985 10.8777C5.87985 10.5418 5.60756 10.2695 5.2717 10.2695H4.05541C3.71955 10.2695 3.44727 10.5418 3.44727 10.8777C3.44727 11.2135 3.71955 11.4858 4.05541 11.4858H5.2717C5.60756 11.4858 5.87985 11.2135 5.87985 10.8777Z" fill="#061229"/>
<path d="M16.8262 10.8777C16.8262 11.2135 17.0985 11.4858 17.4343 11.4858H18.6506C18.9865 11.4858 19.2588 11.2135 19.2588 10.8777C19.2588 10.5418 18.9865 10.2695 18.6506 10.2695H17.4343C17.0985 10.2695 16.8262 10.5418 16.8262 10.8777Z" fill="#061229"/>
<path d="M11.9624 10.6262V7.22924C11.9624 6.89338 11.6901 6.62109 11.3542 6.62109C11.0184 6.62109 10.7461 6.89338 10.7461 7.22924V10.8781C10.7461 11.0394 10.8102 11.1941 10.9242 11.3082L14.5731 14.957C14.8106 15.1945 15.1957 15.1945 15.4332 14.957C15.6707 14.7195 15.6707 14.3345 15.4332 14.097L11.9624 10.6262Z" fill="#061229"/>
</svg>
