<svg width="24" height="24" viewBox="0 0 24 24" fill="none" xmlns="http://www.w3.org/2000/svg">
<g id="Group 427321193">
<path id="Vector" d="M12 1V3" stroke="white" stroke-width="1.8" stroke-linecap="round"/>
<path id="Vector_2" d="M5 1V3" stroke="white" stroke-width="1.8" stroke-linecap="round"/>
<path id="Vector_3" d="M9 15V17.8485C9 19.9609 10.3787 21.7764 12.3514 22.5713M15.5715 23C17.6792 23 19.4559 21.6925 20 19.9091" stroke="white" stroke-width="1.8" stroke-linecap="round"/>
<path id="Vector_4" d="M12.25 2H12.3503C12.6924 2 12.8636 2 13.0077 2.01349C14.5917 2.16167 15.8472 3.48987 15.9872 5.16544C16 5.31802 16 5.49902 16 5.86102V6.90052C16 8.03665 15.7788 9.11815 15.3796 10.0995M4.74999 2H4.64973C4.30754 2 4.13645 2 3.99221 2.01349C2.40834 2.16167 1.15282 3.48987 1.01275 5.16544C1 5.31802 1 5.49902 1 5.86102V7.2311C1 11.5217 4.28791 15 8.34375 15C9.51798 15 10.6305 14.7203 11.625 14.2206" stroke="white" stroke-width="1.8" stroke-linecap="round"/>
<path id="Vector_5" d="M19.5 20C21.433 20 23 18.433 23 16.5C23 14.567 21.433 13 19.5 13C17.567 13 16 14.567 16 16.5C16 18.433 17.567 20 19.5 20Z" stroke="white" stroke-width="1.8"/>
</g>
</svg>
