<svg width="23" height="18" viewBox="0 0 23 18" fill="none" xmlns="http://www.w3.org/2000/svg">
<path d="M19.2958 1.47676C17.8213 0.786871 16.2446 0.285491 14.5963 0C14.3939 0.365989 14.1574 0.858252 13.9944 1.24985C12.2422 0.986337 10.5061 0.986337 8.78611 1.24985C8.62308 0.858252 8.38121 0.365989 8.17697 0C6.52688 0.285491 4.94845 0.788714 3.47394 1.48041C0.499845 5.97467 -0.306385 10.3573 0.0967306 14.6777C2.06931 16.1508 3.98098 17.0456 5.86038 17.6312C6.32442 16.9925 6.73827 16.3136 7.0948 15.5981C6.41578 15.3401 5.76543 15.0217 5.15092 14.6521C5.31394 14.5313 5.47341 14.405 5.62747 14.2751C9.37554 16.0282 13.4479 16.0282 17.1512 14.2751C17.3071 14.405 17.4665 14.5313 17.6278 14.6521C17.0114 15.0235 16.3593 15.3419 15.6803 15.6C16.0368 16.3136 16.4489 16.9944 16.9147 17.633C18.7959 17.0474 20.7094 16.1526 22.6819 14.6777C23.1549 9.66924 21.8739 5.32687 19.2958 1.47676ZM7.60543 12.0207C6.48029 12.0207 5.55759 10.9703 5.55759 9.6912C5.55759 8.41209 6.46059 7.3599 7.60543 7.3599C8.75029 7.3599 9.67296 8.41025 9.65326 9.6912C9.65504 10.9703 8.75029 12.0207 7.60543 12.0207ZM15.1733 12.0207C14.0481 12.0207 13.1254 10.9703 13.1254 9.6912C13.1254 8.41209 14.0284 7.3599 15.1733 7.3599C16.3181 7.3599 17.2408 8.41025 17.2211 9.6912C17.2211 10.9703 16.3181 12.0207 15.1733 12.0207Z" fill="#5865F2"/>
</svg>
