<svg width="29" height="29" viewBox="0 0 29 29" fill="none" xmlns="http://www.w3.org/2000/svg">
<path d="M18.9777 1.27271C17.8539 1.27271 16.7761 1.71913 15.9814 2.51383L13.1608 5.33443C13.5848 5.21957 14.0306 5.15786 14.4909 5.15786C15.7935 5.15786 16.9812 5.64894 17.8796 6.45576C17.8795 6.45588 17.8794 6.45599 17.8794 6.4561C17.1389 7.2015 17.1404 8.4059 17.8838 9.14938C18.1446 9.4101 18.5672 9.4101 18.828 9.14938L19.7657 8.21159H21.3984C22.5047 8.21159 23.4766 7.63897 24.0358 6.77452V1.27271H18.9777Z" fill="#FFF2DE"/>
<path d="M28.0832 16.1238L26.3337 13.1672C26.0512 12.6896 25.5375 12.3967 24.9826 12.3967H19.0801C18.6776 13.2475 18.0455 13.9685 17.2637 14.4798H11.7183C10.9365 13.9685 10.3043 13.2475 9.90188 12.3967H3.99938C3.4445 12.3967 2.93086 12.6896 2.64832 13.1672L0.898838 16.1238C0.588642 16.6481 0.424988 17.2461 0.424988 17.8552V27.6467C0.424988 28.1669 0.846704 28.5886 1.36691 28.5886H27.6152C28.1354 28.5886 28.5572 28.1669 28.5572 27.6467V17.8552C28.5571 17.2461 28.3934 16.6481 28.0832 16.1238Z" fill="#D8AA8B"/>
<path d="M26.152 17.3544H27.6151C28.1353 17.3544 28.5569 17.776 28.557 18.2962V17.8553C28.557 17.2461 28.3933 16.6481 28.0831 16.1238L26.3336 13.1672C26.051 12.6896 25.5374 12.3967 24.9825 12.3967H23.6663L25.7157 16.1238C25.9402 16.5032 26.0875 16.9214 26.152 17.3544Z" fill="#CF9671"/>
<path d="M0.424866 18.2962V27.6466C0.424866 28.1668 0.846582 28.5885 1.36679 28.5885H27.6151C28.1353 28.5885 28.557 28.1668 28.557 27.6466V18.2962C28.557 17.776 28.1353 17.3542 27.6151 17.3542H1.36679C0.846582 17.3542 0.424866 17.776 0.424866 18.2962Z" fill="#EFEDFF"/>
<path d="M27.6151 17.3542H26.1521C26.1767 17.5195 26.1896 17.6869 26.1896 17.8551V25.401C26.1896 26.0269 25.6823 26.5343 25.0563 26.5343H0.424866V27.6466C0.424866 28.1668 0.846582 28.5885 1.36679 28.5885H27.6151C28.1353 28.5885 28.557 28.1668 28.557 27.6466V18.2961C28.557 17.7759 28.1353 17.3542 27.6151 17.3542Z" fill="#DEDEF9"/>
<path d="M21.6627 1.27271V5.40901C21.6627 5.52563 21.6526 5.64117 21.6334 5.75456C21.7986 5.64401 22.024 5.66157 22.17 5.80744C22.3359 5.97341 22.3359 6.24253 22.17 6.40845L20.3669 8.21154H21.3985C22.5047 8.21154 23.4766 7.63892 24.0359 6.77446V1.27271H21.6627Z" fill="#FFE4C2"/>
<path d="M18.8279 9.14948C18.5672 9.4102 18.1445 9.4102 17.8838 9.14948C17.1402 8.40589 17.1389 7.20126 17.8796 6.45586C16.9812 5.64904 15.7934 5.15796 14.4909 5.15796C11.6888 5.15796 9.41724 7.42952 9.41724 10.2316C9.41724 12.0101 10.3331 13.5739 11.7181 14.4798H17.2636C18.6486 13.5739 19.5645 12.0101 19.5645 10.2316C19.5645 9.68334 19.4772 9.15554 19.3163 8.66095L18.8279 9.14948Z" fill="#EFEDFF"/>
<path d="M18.8279 9.14943C18.5672 9.41016 18.1445 9.41016 17.8838 9.14943C17.8151 9.08081 17.753 9.00822 17.697 8.93245C17.5883 10.0719 17.1032 11.1013 16.3667 11.8946C15.892 12.4059 15.2237 12.6935 14.526 12.6935H10.0544C10.4562 13.4154 11.0291 14.029 11.7182 14.4798H17.2637C18.6487 13.5739 19.5646 12.0101 19.5646 10.2316C19.5646 9.68335 19.4771 9.15567 19.3163 8.66113L18.8279 9.14943Z" fill="#DEDEF9"/>
<path d="M27.929 8.52561H24.6009C24.2541 8.52561 23.9729 8.24449 23.9729 7.89769V1.05298C23.9729 0.706174 24.2541 0.425049 24.6009 0.425049H27.929C28.2758 0.425049 28.5569 0.706174 28.5569 1.05298V7.89763C28.557 8.24449 28.2758 8.52561 27.929 8.52561Z" fill="#008070"/>
<path d="M27.929 0.425049H26.7877V6.1155C26.7877 6.46231 26.5065 6.74343 26.1597 6.74343H23.9729V7.89763C23.9729 8.24443 24.2541 8.52556 24.6009 8.52556H27.929C28.2758 8.52556 28.5569 8.24443 28.5569 7.89763V1.05298C28.557 0.706174 28.2758 0.425049 27.929 0.425049Z" fill="#005B50"/>
</svg>
