<svg width="13" height="11" viewBox="0 0 13 11" fill="none" xmlns="http://www.w3.org/2000/svg">
<path id="Path 29540" opacity="0.32" d="M2.09597 5.09862C1.9285 4.98168 1.72179 4.9352 1.52038 4.9692C1.31896 5.0032 1.13897 5.11496 1.01916 5.2804C0.899349 5.44583 0.849319 5.65171 0.879843 5.85368C0.910368 6.05565 1.019 6.23755 1.18235 6.36019C2.52575 7.4271 3.56759 8.82601 4.20495 10.4187C4.2663 10.5547 4.36542 10.6703 4.49053 10.7516C4.61563 10.8329 4.76146 10.8765 4.91065 10.8774C5.05985 10.8782 5.20615 10.8361 5.33214 10.7562C5.45814 10.6763 5.55854 10.5619 5.6214 10.4266C7.18133 6.96838 9.44686 3.87439 12.2727 1.3431C12.417 1.20568 12.5032 1.01816 12.5135 0.819128C12.5238 0.620095 12.4574 0.424691 12.328 0.273129C12.1985 0.121566 12.0159 0.0253727 11.8178 0.00434838C11.6196 -0.0166759 11.4209 0.0390669 11.2625 0.160104C8.6498 2.47363 6.49256 5.25516 4.90195 8.36141C4.21007 7.08611 3.25333 5.97361 2.09597 5.09862Z" fill="#707070"/>
</svg>
