<svg width="29" height="29" viewBox="0 0 29 29" fill="none" xmlns="http://www.w3.org/2000/svg">
<path d="M26.876 27.3008H2.12402C1.18554 27.3008 0.424805 26.54 0.424805 25.6016V8.26953H28.5752V25.6016C28.5752 26.54 27.8145 27.3008 26.876 27.3008Z" fill="#EFEDFF"/>
<path d="M26.876 8.26953V25.6016C26.876 26.54 26.1152 27.3008 25.1768 27.3008H26.876C27.8145 27.3008 28.5752 26.54 28.5752 25.6016V8.26953H26.876Z" fill="#DEDEF9"/>
<path d="M28.5752 8.26956H0.424805V5.22632C0.424805 4.28784 1.18554 3.5271 2.12402 3.5271H26.876C27.8145 3.5271 28.5752 4.28784 28.5752 5.22632V8.26956Z" fill="#008070"/>
<path d="M26.876 3.5271H25.1768C26.1152 3.5271 26.876 4.28784 26.876 5.22632V8.26956H28.5752V5.22632C28.5752 4.2879 27.8145 3.5271 26.876 3.5271Z" fill="#005B50"/>
<path d="M6.61182 6.00391C6.14261 6.00391 5.76221 5.62351 5.76221 5.1543V2.54883C5.76221 2.07962 6.14261 1.69922 6.61182 1.69922C7.08103 1.69922 7.46143 2.07962 7.46143 2.54883V5.1543C7.46143 5.62351 7.08103 6.00391 6.61182 6.00391Z" fill="#868086"/>
<path d="M11.8706 6.00391C11.4014 6.00391 11.021 5.62351 11.021 5.1543V2.54883C11.021 2.07962 11.4014 1.69922 11.8706 1.69922C12.3398 1.69922 12.7202 2.07962 12.7202 2.54883V5.1543C12.7202 5.62351 12.3398 6.00391 11.8706 6.00391Z" fill="#868086"/>
<path d="M17.1294 6.00391C16.6602 6.00391 16.2798 5.62351 16.2798 5.1543V2.54883C16.2798 2.07962 16.6602 1.69922 17.1294 1.69922C17.5986 1.69922 17.979 2.07962 17.979 2.54883V5.1543C17.979 5.62351 17.5986 6.00391 17.1294 6.00391Z" fill="#868086"/>
<path d="M22.3882 6.00391C21.9189 6.00391 21.5385 5.62351 21.5385 5.1543V2.54883C21.5385 2.07962 21.9189 1.69922 22.3882 1.69922C22.8574 1.69922 23.2378 2.07962 23.2378 2.54883V5.1543C23.2378 5.62351 22.8574 6.00391 22.3882 6.00391Z" fill="#868086"/>
<path d="M26.876 3.10226H23.6626V2.54883C23.6626 1.84609 23.0909 1.27441 22.3882 1.27441C21.6854 1.27441 21.1138 1.84609 21.1138 2.54883V3.10226H18.4038V2.54883C18.4038 1.84609 17.8321 1.27441 17.1294 1.27441C16.4266 1.27441 15.855 1.84609 15.855 2.54883V3.10226H13.145V2.54883C13.145 1.84609 12.5733 1.27441 11.8706 1.27441C11.1678 1.27441 10.5962 1.84609 10.5962 2.54883V3.10226H7.88619V2.54883C7.88619 1.84609 7.31451 1.27441 6.61177 1.27441C5.90903 1.27441 5.33736 1.84609 5.33736 2.54883V3.10226H2.12402C0.952809 3.10226 0 4.05507 0 5.22629V21.2025C0 21.4371 0.190199 21.6273 0.424805 21.6273C0.65941 21.6273 0.849609 21.4371 0.849609 21.2025V8.69434H22.5304C22.765 8.69434 22.9552 8.50414 22.9552 8.26953C22.9552 8.03493 22.765 7.84473 22.5304 7.84473H0.849609V5.22629C0.849609 4.52355 1.42128 3.95187 2.12402 3.95187H5.33742V5.1543C5.33742 5.85704 5.90915 6.42871 6.61183 6.42871C7.31451 6.42871 7.88624 5.85704 7.88624 5.1543V3.95187H10.5962V5.1543C10.5962 5.85704 11.1679 6.42871 11.8706 6.42871C12.5734 6.42871 13.145 5.85704 13.145 5.1543V3.95187H15.855V5.1543C15.855 5.85704 16.4267 6.42871 17.1294 6.42871C17.8322 6.42871 18.4038 5.85704 18.4038 5.1543V3.95187H21.1138V5.1543C21.1138 5.85704 21.6855 6.42871 22.3882 6.42871C23.091 6.42871 23.6626 5.85704 23.6626 5.1543V3.95187H26.876C27.5787 3.95187 28.1504 4.52355 28.1504 5.22629V7.84473H24.5443C24.3096 7.84473 24.1194 8.03493 24.1194 8.26953C24.1194 8.50414 24.3096 8.69434 24.5443 8.69434H28.1504V25.6016C28.1504 26.3043 27.5787 26.876 26.876 26.876H2.12402C1.42128 26.876 0.849609 26.3043 0.849609 25.6016V23.3171C0.849609 23.0825 0.65941 22.8923 0.424805 22.8923C0.190199 22.8923 0 23.0825 0 23.3171V25.6016C0 26.7728 0.952809 27.7256 2.12402 27.7256H26.876C28.0472 27.7256 29 26.7728 29 25.6016V5.22629C29 4.05507 28.0472 3.10226 26.876 3.10226ZM7.03663 5.1543C7.03663 5.38856 6.8461 5.5791 6.61183 5.5791C6.37756 5.5791 6.18703 5.38856 6.18703 5.1543V2.54883C6.18703 2.31456 6.37762 2.12402 6.61183 2.12402C6.84604 2.12402 7.03663 2.31456 7.03663 2.54883V5.1543ZM12.2954 5.1543C12.2954 5.38856 12.1049 5.5791 11.8706 5.5791C11.6364 5.5791 11.4458 5.38856 11.4458 5.1543V2.54883C11.4458 2.31456 11.6364 2.12402 11.8706 2.12402C12.1049 2.12402 12.2954 2.31456 12.2954 2.54883V5.1543ZM17.5542 5.1543C17.5542 5.38856 17.3636 5.5791 17.1294 5.5791C16.8951 5.5791 16.7046 5.38856 16.7046 5.1543V2.54883C16.7046 2.31456 16.8951 2.12402 17.1294 2.12402C17.3636 2.12402 17.5542 2.31456 17.5542 2.54883V5.1543ZM22.813 5.1543C22.813 5.38856 22.6224 5.5791 22.3882 5.5791C22.1539 5.5791 21.9634 5.38856 21.9634 5.1543V2.54883C21.9634 2.31456 22.1539 2.12402 22.3882 2.12402C22.6224 2.12402 22.813 2.31456 22.813 2.54883V5.1543Z" fill="black"/>
<path d="M14.4625 17.4363C14.9761 17.4363 15.4644 17.2139 15.8023 16.8262C15.9832 16.6185 15.9615 16.3036 15.7539 16.1227C15.5463 15.9418 15.2314 15.9634 15.0505 16.1711C14.902 16.3415 14.6877 16.4392 14.4625 16.4392C14.2373 16.4392 14.0229 16.3415 13.8745 16.1711C13.6935 15.9635 13.3786 15.9419 13.171 16.1227C12.9634 16.3036 12.9418 16.6185 13.1226 16.8262C13.4605 17.2139 13.9489 17.4363 14.4625 17.4363Z" fill="black"/>
<path d="M19.2663 13C18.568 13 18 13.568 18 14.2663C18 14.5416 18.2232 14.7648 18.4986 14.7648C18.774 14.7648 18.9972 14.5416 18.9972 14.2663C18.9972 14.1179 19.1178 13.9972 19.2663 13.9972C19.4147 13.9972 19.5354 14.1179 19.5354 14.2663C19.5354 14.5416 19.7586 14.7648 20.034 14.7648C20.3094 14.7648 20.5326 14.5416 20.5326 14.2663C20.5326 13.568 19.9645 13 19.2663 13Z" fill="black"/>
<path d="M9.26625 13C8.56805 13 8 13.568 8 14.2663C8 14.5416 8.22316 14.7648 8.49858 14.7648C8.77399 14.7648 8.99716 14.5416 8.99716 14.2663C8.99716 14.1179 9.11781 13.9972 9.26625 13.9972C9.4147 13.9972 9.53542 14.1179 9.53542 14.2663C9.53542 14.5416 9.75859 14.7648 10.034 14.7648C10.3094 14.7648 10.5326 14.5416 10.5326 14.2663C10.5326 13.568 9.96453 13 9.26625 13Z" fill="black"/>
<path d="M7.43312 23.9641C7.16765 23.9363 6.97488 23.6986 7.00266 23.4331C7.0305 23.1675 7.26877 22.9752 7.53385 23.0026C8.68781 23.1234 9.71056 23.2054 10.7525 23.2609C11.88 23.3208 13.0455 23.35 14.3153 23.35C15.5852 23.35 16.7505 23.3209 17.8781 23.2609C18.9201 23.2054 19.9429 23.1233 21.0968 23.0026C21.3623 22.9753 21.6 23.1675 21.6278 23.4331C21.6556 23.6986 21.4629 23.9363 21.1973 23.9641C20.0267 24.0866 18.9883 24.1698 17.9294 24.2262C16.7846 24.2871 15.6024 24.3168 14.3153 24.3168C13.0281 24.3168 11.8459 24.2871 10.701 24.2262C9.64224 24.1699 8.60384 24.0866 7.43312 23.9641Z" fill="black"/>
</svg>
