<svg width="22" height="19" viewBox="0 0 22 19" fill="none" xmlns="http://www.w3.org/2000/svg">
<path id="Path 21706" d="M12.1588 3.73067L10.7412 5.14952C10.6657 5.22319 10.5644 5.26443 10.4589 5.26443C10.3535 5.26443 10.2522 5.22319 10.1767 5.14952C10.1391 5.11287 10.1091 5.06903 10.0886 5.02064C10.0682 4.97226 10.0574 4.92027 10.0574 4.86774C10.0563 4.81557 10.0657 4.76372 10.0848 4.71517C10.1039 4.66662 10.1325 4.62233 10.1688 4.58487L13.2872 1.46657C13.5875 1.16775 13.9938 1 14.4175 1C14.8411 1 15.2477 1.16775 15.548 1.46657L17.8232 3.74182C18.1217 4.04209 18.2892 4.44826 18.2892 4.87165C18.2892 5.29503 18.1217 5.70121 17.8232 6.00147L8.00727 15.8175L4.56916 16.3086C4.3524 16.3475 4.12945 16.3334 3.91933 16.2675C3.70921 16.2015 3.5181 16.0857 3.36249 15.9298C3.20688 15.774 3.09155 15.5828 3.02588 15.3726C2.96022 15.1624 2.9464 14.9394 2.98564 14.7227L3.47669 11.287L8.48145 6.28213C8.55682 6.2082 8.65837 6.16678 8.76395 6.16678C8.86953 6.16678 8.97081 6.2082 9.04618 6.28213C9.08366 6.3189 9.11355 6.36272 9.134 6.41108C9.15445 6.45944 9.165 6.51138 9.16527 6.56389C9.16556 6.61644 9.15544 6.66853 9.13536 6.7171C9.11528 6.76567 9.08567 6.80975 9.04835 6.84676L4.79864 11.0966L6.21412 12.5121L13.5768 5.15061L12.1588 3.73067ZM12.7246 3.16493L16.1225 6.56276L17.2563 5.43015C17.4049 5.28002 17.4882 5.07731 17.4882 4.86607C17.4882 4.65483 17.4049 4.45213 17.2563 4.30199L14.9811 2.02562C14.831 1.87702 14.6282 1.79369 14.4169 1.79369C14.2057 1.79369 14.0029 1.87702 13.8527 2.02562L12.7246 3.16493ZM15.5556 7.12963L14.1401 5.71415L6.77776 13.0767L8.19325 14.4922L15.5556 7.12963ZM4.22956 11.6601L3.77631 14.8319C3.75467 14.9254 3.75701 15.023 3.78338 15.1153C3.80976 15.2077 3.85915 15.2918 3.92694 15.3598C3.99474 15.4278 4.07885 15.4775 4.17111 15.5042C4.26336 15.5308 4.36078 15.5337 4.45442 15.5123L7.62743 15.059L4.22956 11.6601ZM0.813748 18.2598C0.707609 18.2595 0.605925 18.2171 0.530977 18.1419C0.45603 18.0668 0.414062 17.965 0.414063 17.8588C0.414062 17.7527 0.45603 17.6509 0.530977 17.5757C0.605925 17.5006 0.707609 17.4582 0.813748 17.4579H20.8412C20.9476 17.4579 21.0496 17.5002 21.1248 17.5754C21.2 17.6505 21.242 17.7525 21.242 17.8588C21.242 17.9652 21.2 18.0671 21.1248 18.1423C21.0496 18.2175 20.9476 18.2598 20.8412 18.2598H0.813748Z" fill="#026F62" stroke="#026F62" stroke-width="0.485617"/>
</svg>
