<svg width="41" height="41" viewBox="0 0 41 41" fill="none" xmlns="http://www.w3.org/2000/svg">
<path fill-rule="evenodd" clip-rule="evenodd" d="M20.5 0C9.17816 0 0 9.17816 0 20.5C0 31.8218 9.17816 41 20.5 41C31.8218 41 41 31.8218 41 20.5C41 9.17816 31.8218 0 20.5 0ZM9.14631 14.9441C8.69462 15.4281 8.71936 16.1862 9.20297 16.6383C11.5428 18.8269 14.154 17.59 15.2169 16.6383C15.7101 16.1966 15.752 15.4389 15.3107 14.9457C15.264 14.8934 15.2138 14.8459 15.1607 14.8044C14.7114 14.4481 14.0586 14.4569 13.6177 14.8519C13.47 14.9836 12.1381 16.1052 10.8409 14.887C10.3505 14.4289 9.598 14.4601 9.14631 14.9441ZM31.7785 16.6239C32.2717 16.1822 32.3136 15.4245 31.8723 14.9313C31.8248 14.8794 31.7749 14.8316 31.7222 14.7901C31.273 14.4337 30.6202 14.4425 30.1793 14.8375C30.0316 14.9692 28.6997 16.0908 27.4025 14.8727C26.9125 14.4146 26.1592 14.4457 25.7079 14.9297C25.2566 15.4137 25.2813 16.1718 25.7649 16.6239C28.1044 18.8121 30.7159 17.5756 31.7785 16.6239ZM29.459 28.9934C30.0659 28.7309 30.3448 28.0262 30.0823 27.4193C28.5497 23.8733 24.9585 21.5821 20.9344 21.5821C16.8246 21.5821 13.2123 23.8848 11.7319 27.4492C11.4786 28.0593 11.7678 28.76 12.3783 29.0142C12.5284 29.0764 12.684 29.106 12.8368 29.106C13.3057 29.106 13.7514 28.827 13.9425 28.3678C15.0502 25.6996 17.795 23.9758 20.934 23.9758C24.0033 23.9758 26.731 25.7012 27.8857 28.3702C28.1483 28.9771 28.8521 29.2568 29.459 28.9934Z" fill="#E43535"/>
</svg>
