<svg width="17" height="16" viewBox="0 0 17 16" fill="none" xmlns="http://www.w3.org/2000/svg">
<path d="M13.8035 3.13736C12.3969 1.76883 10.4893 1 8.50011 1C6.51096 1 4.60328 1.76883 3.19673 3.13736C1.79019 4.50589 1 6.36201 1 8.2974C1 10.2328 1.79019 12.0889 3.19673 13.4574C3.8916 14.1371 4.71811 14.676 5.62843 15.0428C6.53875 15.4097 7.51481 15.5972 8.50011 15.5946C8.61669 15.5946 8.72849 15.5495 8.81092 15.4693C8.89336 15.3891 8.93967 15.2803 8.93967 15.1669C8.93967 15.0535 8.89336 14.9447 8.81092 14.8645C8.72849 14.7843 8.61669 14.7392 8.50011 14.7392C7.19065 14.7392 5.9106 14.3614 4.82182 13.6536C3.73305 12.9457 2.88445 11.9397 2.38334 10.7626C1.88223 9.58549 1.75112 8.29026 2.00658 7.04067C2.26204 5.79108 2.89261 4.64326 3.81854 3.74236C4.74446 2.84146 5.92417 2.22793 7.20847 1.97938C8.49277 1.73082 9.82398 1.85839 11.0338 2.34595C12.2435 2.83352 13.2776 3.65918 14.0051 4.71853C14.7326 5.77788 15.1209 7.02334 15.1209 8.2974V10.0107C15.1209 10.3528 14.9812 10.6809 14.7325 10.9228C14.4839 11.1648 14.1466 11.3007 13.795 11.3007C13.4434 11.3007 13.1061 11.1648 12.8575 10.9228C12.6089 10.6809 12.4692 10.3528 12.4692 10.0107V8.2974C12.47 7.37917 12.1348 6.49064 11.5237 5.79092C10.9126 5.09119 10.0655 4.62597 9.13399 4.47857C8.20249 4.33116 7.24748 4.51119 6.43997 4.98643C5.63246 5.46166 5.02519 6.20106 4.7269 7.07222C4.42861 7.94338 4.45879 8.8894 4.81202 9.74089C5.16526 10.5924 5.81848 11.2937 6.65473 11.7193C7.49097 12.1449 8.45562 12.267 9.37593 12.0637C10.2962 11.8603 11.1121 11.3449 11.6774 10.6097C11.8246 11.1068 12.1515 11.5355 12.5979 11.8166C13.0443 12.0978 13.5801 12.2124 14.1065 12.1395C14.6329 12.0665 15.1145 11.8109 15.4625 11.4197C15.8104 11.0284 16.0013 10.528 16 10.0107V8.2974C16.0027 7.33872 15.81 6.38902 15.433 5.5033C15.056 4.61757 14.5021 3.81341 13.8035 3.13736ZM8.50011 11.3051C7.88872 11.3051 7.29106 11.1287 6.78271 10.7982C6.27435 10.4677 5.87814 9.99799 5.64417 9.4484C5.4102 8.89882 5.34898 8.29407 5.46826 7.71063C5.58754 7.12719 5.88195 6.59127 6.31427 6.17064C6.74659 5.75001 7.29739 5.46355 7.89704 5.3475C8.49668 5.23144 9.11823 5.29101 9.68308 5.51865C10.2479 5.7463 10.7307 6.1318 11.0704 6.62642C11.4101 7.12103 11.5914 7.70254 11.5914 8.2974C11.5907 9.09489 11.2648 9.85952 10.6852 10.4234C10.1056 10.9873 9.31975 11.3044 8.50011 11.3051Z" fill="#061229" stroke="#061229" stroke-width="0.5"/>
</svg>
