<svg width="20" height="20" viewBox="0 0 20 20" fill="none" xmlns="http://www.w3.org/2000/svg">
<path fill-rule="evenodd" clip-rule="evenodd" d="M2.89115 0H16.3832C17.9799 0 19.2743 1.30551 19.2743 2.91595V16.5237C19.2743 18.1341 17.9799 19.4396 16.3832 19.4396L11.1431 19.4397V12.5295H13.3868L13.8159 9.71983H11.1431V7.89736C11.1431 7.13041 11.5158 6.37864 12.7129 6.37864H13.9289V3.98665C13.9289 3.98665 12.8259 3.79681 11.7718 3.79681C9.56955 3.79681 8.13151 5.14088 8.13151 7.57843V9.71983H5.68457V12.5295H8.13151V19.4397L2.89115 19.4396C1.29441 19.4396 0 18.1341 0 16.5237V2.91595C0 1.30551 1.29441 0 2.89115 0Z" fill="#1877F2"/>
</svg>
