<svg width="27" height="27" viewBox="0 0 27 27" fill="none" xmlns="http://www.w3.org/2000/svg">
<g id="Group 427321151">
<path id="Vector" d="M26 26H1" stroke="#606060" stroke-width="2" stroke-linecap="round"/>
<path id="Vector_2" d="M24.7484 26V14.75M12.2539 4.75C12.2763 3.20028 12.3913 2.32166 12.9807 1.73224C13.7129 1 14.8914 1 17.2484 1H19.7484C22.1055 1 23.284 1 24.0163 1.73224C24.7484 2.46446 24.7484 3.64298 24.7484 6V9.75" stroke="#606060" stroke-width="2" stroke-linecap="round"/>
<path id="Vector_3" d="M17.25 26V18.5M2.25 26V14.75M2.25 9.75C2.25 7.39297 2.25 6.21446 2.98224 5.48224C3.71446 4.75 4.89298 4.75 7.25 4.75H12.25C14.607 4.75 15.7855 4.75 16.5178 5.48224C17.25 6.21446 17.25 7.39297 17.25 9.75V13.5" stroke="#606060" stroke-width="2" stroke-linecap="round"/>
<path id="Vector_4" d="M9.75195 26V22.25" stroke="#606060" stroke-width="2" stroke-linecap="round"/>
<path id="Vector_5" d="M6 8.5H13.5" stroke="#606060" stroke-width="2" stroke-linecap="round"/>
<path id="Vector_6" d="M6 12.25H7.25M13.5 12.25H10.375" stroke="#606060" stroke-width="2" stroke-linecap="round"/>
<path id="Vector_7" d="M6 16H13.5" stroke="#606060" stroke-width="2" stroke-linecap="round"/>
</g>
</svg>
