<svg width="24" height="21" viewBox="0 0 24 21" fill="none" xmlns="http://www.w3.org/2000/svg">
<path id="Vector" d="M12 3.32841L11.3968 3.91199C11.4006 3.91589 11.4044 3.91975 11.4081 3.92358L12 3.32841ZM6.41929 15.5815C6.06227 15.2862 5.53466 15.3377 5.24083 15.6965C4.947 16.0553 4.99823 16.5857 5.35525 16.8811L6.41929 15.5815ZM1.21897 12.2048C1.44083 12.6126 1.94955 12.7624 2.35522 12.5393C2.76089 12.3162 2.90988 11.8049 2.68801 11.3972L1.21897 12.2048ZM13.6407 6.16687C13.9677 6.49545 14.4978 6.49535 14.8246 6.16665C15.1516 5.83795 15.1515 5.30511 14.8244 4.97653L13.6407 6.16687ZM1.67442 7.40871C1.67442 4.99533 3.03111 2.97147 4.88301 2.12059C6.68213 1.29396 9.09953 1.51287 11.3968 3.91199L12.6032 2.74483C9.8774 -0.101824 6.7134 -0.570988 4.1869 0.589852C1.71316 1.72644 0 4.36563 0 7.40871H1.67442ZM8.09014 19.0363C8.66194 19.4894 9.27578 19.9725 9.89782 20.3379C10.5197 20.7031 11.2293 21 12 21V19.3169C11.6544 19.3169 11.2477 19.1815 10.7426 18.8847C10.2377 18.5882 9.71395 18.1798 9.12675 17.7145L8.09014 19.0363ZM15.9099 19.0363C17.5024 17.7743 19.538 16.3285 21.1348 14.5211C22.7604 12.6812 24 10.3995 24 7.40871H22.3256C22.3256 9.87431 21.3218 11.7747 19.8828 13.4035C18.4151 15.0647 16.5651 16.3739 14.8733 17.7145L15.9099 19.0363ZM24 7.40871C24 4.36563 22.2868 1.72644 19.8131 0.589852C17.2866 -0.570988 14.1226 -0.101824 11.3968 2.74483L12.6032 3.91199C14.9004 1.51287 17.3178 1.29396 19.117 2.12059C20.9689 2.97147 22.3256 4.99533 22.3256 7.40871H24ZM14.8733 17.7145C14.286 18.1798 13.7623 18.5882 13.2574 18.8847C12.7523 19.1815 12.3456 19.3169 12 19.3169V21C12.7707 21 13.4803 20.7031 14.1022 20.3379C14.7243 19.9725 15.338 19.4894 15.9099 19.0363L14.8733 17.7145ZM9.12675 17.7145C8.2383 17.0105 7.33539 16.3393 6.41929 15.5815L5.35525 16.8811C6.28206 17.6478 7.26108 18.3793 8.09014 19.0363L9.12675 17.7145ZM2.68801 11.3972C2.06154 10.2458 1.67442 8.94166 1.67442 7.40871H0C0 9.24607 0.468781 10.826 1.21897 12.2048L2.68801 11.3972ZM11.4081 3.92358L13.6407 6.16687L14.8244 4.97653L12.5919 2.73325L11.4081 3.92358Z" fill="black"/>
</svg>
