<svg width="29" height="29" viewBox="0 0 29 29" fill="none" xmlns="http://www.w3.org/2000/svg">
<g id="city-svgrepo-com 1" clip-path="url(#clip0_941_2034)">
<path id="Vector" d="M3.6727 22.9327C3.6727 22.3983 3.25628 21.965 2.7426 21.965C2.22893 21.965 1.8125 22.3983 1.8125 22.9327H3.6727ZM1.8125 17.7717C1.8125 18.3061 2.22893 18.7394 2.7426 18.7394C3.25628 18.7394 3.6727 18.3061 3.6727 17.7717H1.8125ZM7.70312 10.9979C8.89862 10.9979 9.70168 10.9999 10.3007 11.0837C10.873 11.1638 11.1179 11.3021 11.2795 11.4703L12.5948 10.1018C12.0301 9.51408 11.3271 9.27452 10.5486 9.16561C9.79679 9.06045 8.84604 9.0625 7.70312 9.0625V10.9979ZM13.5937 15.1912C13.5937 14.0021 13.5957 13.0129 13.4947 12.2307C13.39 11.4207 13.1597 10.6894 12.5948 10.1018L11.2795 11.4703C11.4411 11.6384 11.5741 11.8932 11.6511 12.4886C11.7316 13.1118 11.7335 13.9474 11.7335 15.1912H13.5937ZM7.70312 9.0625C6.56021 9.0625 5.60946 9.06045 4.85767 9.16561C4.07913 9.27452 3.37622 9.51408 2.81138 10.1018L4.12674 11.4703C4.28834 11.3021 4.53326 11.1638 5.10553 11.0837C5.70457 10.9999 6.50763 10.9979 7.70312 10.9979V9.0625ZM3.6727 15.1912C3.6727 13.9474 3.67467 13.1118 3.75522 12.4886C3.83216 11.8932 3.96512 11.6384 4.12674 11.4703L2.81138 10.1018C2.24654 10.6894 2.01628 11.4207 1.9116 12.2307C1.81053 13.0129 1.8125 14.0021 1.8125 15.1912H3.6727ZM3.6727 28.0938V22.9327H1.8125V28.0938H3.6727ZM3.6727 17.7717V15.1912H1.8125V17.7717H3.6727Z" fill="#606060"/>
<path id="Vector_2" d="M8.15625 28.0938V19.9375C8.15625 17.3743 8.15625 16.0926 8.89947 15.2963C9.64268 14.5 10.8389 14.5 13.2312 14.5H15.7687C18.1611 14.5 19.3573 14.5 20.1005 15.2963C20.6989 15.9373 20.8155 16.8928 20.8383 18.5781M20.8437 28.0938V24.3555" stroke="#606060" stroke-width="2" stroke-linecap="round"/>
<path id="Vector_3" d="M26.2812 9.79529C26.2812 8.07084 26.2812 7.20862 25.8375 6.54767C25.3937 5.88671 24.6115 5.58396 23.047 4.97847C19.9875 3.79434 18.4578 3.20227 17.3851 3.96949C16.3125 4.7367 16.3125 6.42289 16.3125 9.79529V15.2328M26.2812 28.0937V15.2328" stroke="#606060" stroke-width="2" stroke-linecap="round"/>
<path id="Vector_4" d="M4.53125 9.96875V8.02679C4.53125 6.80618 4.53125 6.19589 4.88516 5.81669C5.23908 5.4375 5.80869 5.4375 6.94792 5.4375H9.36458C10.5038 5.4375 11.0734 5.4375 11.4273 5.81669C11.7813 6.19589 11.7813 6.80618 11.7813 8.02679V9.96875" stroke="#606060" stroke-width="2" stroke-linecap="round"/>
<path id="Vector_5" d="M8.15625 4.53125V2.71875" stroke="#606060" stroke-width="2" stroke-linecap="round"/>
<path id="Vector_6" d="M27.1875 28.0938H1.8125" stroke="#606060" stroke-width="2" stroke-linecap="round"/>
<path id="Vector_7" d="M11.7812 19.0312H12.4609M17.2188 19.0312H15.1797" stroke="#606060" stroke-width="2" stroke-linecap="round"/>
<path id="Vector_8" d="M11.7812 23.5625H17.2188" stroke="#606060" stroke-width="2" stroke-linecap="round"/>
</g>
<defs>
<clipPath id="clip0_941_2034">
<rect width="29" height="29" fill="white"/>
</clipPath>
</defs>
</svg>
