<svg width="27" height="33" viewBox="0 0 27 33" fill="none" xmlns="http://www.w3.org/2000/svg">
<path d="M9.64134 1.39836C9.88193 2.00702 10.0489 2.51856 10.1007 2.96029L5.94679 5.30308L1.25876 6.17849C1.0145 5.80675 0.813678 5.30759 0.606667 4.68669C0.360149 3.94701 0.744266 3.14461 1.47686 2.87799L7.81202 0.572191C8.54474 0.305501 9.35474 0.673312 9.64134 1.39836Z" fill="#EFEDFF"/>
<path d="M5.67601 1.34985L1.47702 2.87814C0.744363 3.14476 0.360246 3.94715 0.606828 4.68684C0.813775 5.30774 1.01466 5.8069 1.25892 6.17864L5.74542 5.34087C5.54905 4.06935 5.51605 2.72359 5.67601 1.34985Z" fill="#DEDEF9"/>
<path d="M10.1008 2.96021C10.6134 3.76008 11.1908 4.81827 11.7385 5.99054C12.3997 7.40604 13.0177 8.98788 13.4259 10.4822C13.7169 11.5471 13.9014 12.5676 13.9194 13.4518L5.07746 16.67C4.52281 15.9811 4.00825 15.0808 3.54666 14.0779C2.89888 12.6708 2.35545 11.0618 1.95219 9.55245C1.61821 8.30239 1.38033 7.12065 1.25891 6.17841L10.1008 2.96021Z" fill="#008070"/>
<path d="M12.4807 13.9756C8.92314 13.2916 6.13294 9.38092 5.64886 4.58081L1.25878 6.17863C1.3802 7.12088 1.61809 8.30268 1.95206 9.55268C2.35532 11.062 2.89875 12.671 3.54653 14.0782C4.00812 15.0809 4.52274 15.9813 5.07733 16.6702L12.4807 13.9756Z" fill="#005B50"/>
<path d="M8.12166 12.03C9.34428 11.8318 10.1747 10.6801 9.97654 9.45744C9.77834 8.23482 8.62655 7.40437 7.40394 7.60256C6.18132 7.80076 5.35087 8.95255 5.54906 10.1752C5.74726 11.3978 6.89905 12.2282 8.12166 12.03Z" fill="#EEECFF"/>
<path d="M7.76554 12.0581C8.11872 12.0581 8.4527 11.9762 8.74993 11.8308C7.78068 10.8156 6.98474 9.50778 6.43228 8.01172C5.88053 8.42033 5.52264 9.0759 5.52264 9.8152C5.52258 11.0539 6.52676 12.0581 7.76554 12.0581Z" fill="#D3D3FF"/>
<path d="M23.7037 6.35681C23.4501 6.06595 23.3022 5.70078 23.2821 5.31544C23.1732 3.2238 21.4399 1.53833 19.2968 1.53833C17.4408 1.53833 15.8817 2.80559 15.4355 4.52194C15.325 4.94705 15.0563 5.31486 14.6781 5.53817C13.4524 6.26174 12.6471 7.62175 12.7175 9.1637C12.8108 11.2089 14.4691 12.8678 16.5142 12.963C17.3125 13.0002 18.0613 12.8014 18.6992 12.4322C19.3366 12.8011 20.0848 12.9998 20.8824 12.9631C22.9088 12.8697 24.5609 11.2394 24.6783 9.21422C24.7417 8.11878 24.3627 7.11267 23.7037 6.35681Z" fill="#D8AA8B"/>
<path d="M24.0316 11.1586C18.651 10.9351 16.6094 6.3978 17.55 1.94043C16.5151 2.44545 15.731 3.3848 15.4355 4.52162C15.325 4.94672 15.0563 5.31454 14.6781 5.53785C13.4524 6.26142 12.6471 7.62143 12.7175 9.16337C12.8108 11.2085 14.4691 12.8675 16.5142 12.9627C17.3125 12.9998 18.0613 12.801 18.6992 12.4318C19.3366 12.8007 20.0848 12.9995 20.8824 12.9627C22.1941 12.9023 23.3484 12.1973 24.0316 11.1586Z" fill="#CF9671"/>
<path d="M14.2056 9.71334L18.3552 11.2028C18.9273 11.4081 19.553 11.4081 20.125 11.2028L23.7129 9.91519C24.532 9.62124 25.4233 10.1298 25.5789 10.986C25.8303 12.3701 26.0141 14.3252 26.101 16.5011C26.1953 18.8625 26.1756 21.484 26.0047 23.9179C25.8432 26.2188 25.5466 28.3521 25.0836 29.9396C24.803 30.9018 23.9933 31.6153 23.0062 31.7882C20.2136 32.2773 15.2745 32.5167 13.3207 32.5167C11.3668 32.5167 6.4267 32.2773 3.6338 31.7882C2.64656 31.6153 1.83689 30.9018 1.55628 29.9396C1.09328 28.3521 0.796681 26.2188 0.635172 23.9179C0.464317 21.484 0.44466 18.8625 0.538949 16.5011C0.625891 14.3252 0.809571 12.3701 1.06105 10.986C1.21663 10.1298 2.1079 9.62124 2.92698 9.91519L6.515 11.2028C7.08705 11.4081 7.71265 11.4081 8.28464 11.2028L12.4357 9.71327C13.0079 9.508 13.6336 9.508 14.2056 9.71334Z" fill="#EFEDFF"/>
<path d="M7.06246 11.3348C6.87697 11.3107 6.69349 11.2667 6.51515 11.2027L2.92714 9.91509C2.10806 9.62114 1.21679 10.1297 1.06121 10.9859C0.809729 12.37 0.626049 14.3251 0.539107 16.501C0.444753 18.8624 0.464475 21.4839 0.63533 23.9178C0.796839 26.2187 1.09343 28.352 1.55644 29.9395C1.83705 30.9017 2.64672 31.6152 3.63396 31.7881C6.42686 32.2772 11.367 32.5166 13.3209 32.5166C13.559 32.5166 13.8417 32.513 14.1593 32.5059C7.57695 29.6897 5.41005 18.7237 7.06246 11.3348Z" fill="#DEDEF9"/>
<path d="M9.95261 21.2903C9.95306 22.1564 9.07178 22.8589 7.98427 22.8594C6.89675 22.8599 6.01476 22.1583 6.01431 21.2923C6.01386 20.4262 6.89514 19.7237 7.98265 19.7231C9.07017 19.7226 9.95216 20.4243 9.95261 21.2903Z" fill="#FAEAD4"/>
<path d="M16.6877 21.2869C16.6882 22.153 17.5701 22.8546 18.6577 22.854C19.7452 22.8534 20.6265 22.1509 20.626 21.2849C20.6256 20.4189 19.7436 19.7172 18.6561 19.7178C17.5685 19.7184 16.6873 20.4208 16.6877 21.2869Z" fill="#FAEAD4"/>
<path d="M16.5713 20.0638C16.8382 20.0637 17.0545 19.8472 17.0544 19.5803C17.0543 19.33 17.2578 19.1262 17.5081 19.1261C17.7583 19.1261 17.962 19.3296 17.9622 19.5798C17.9623 19.8467 18.1787 20.0629 18.4455 20.0629C18.7125 20.0628 18.929 19.8463 18.9289 19.5794C18.9285 18.7962 18.2913 18.1594 17.5083 18.1594C16.7249 18.1599 16.0873 18.7975 16.0877 19.5808C16.0878 19.8477 16.3044 20.0638 16.5713 20.0638ZM26.5841 16.4817C26.496 14.2764 26.308 12.294 26.0545 10.8995C25.9575 10.3657 25.6314 9.88022 25.1248 9.59439C25.3 8.35832 24.9518 7.05271 24.068 6.03893C23.8842 5.82805 23.7793 5.56916 23.7648 5.29009C23.6411 2.91508 21.6785 1.05469 19.2967 1.05469C17.2599 1.05469 15.4796 2.43035 14.9677 4.40005C14.8874 4.70895 14.6972 4.96527 14.4322 5.12162C13.6738 5.56935 13.0809 6.21713 12.7022 6.97434C12.535 6.57643 12.3602 6.17936 12.1764 5.78596C11.6587 4.67763 11.0891 3.61925 10.5654 2.7905C10.503 2.37486 10.3578 1.89601 10.0909 1.22064C9.70489 0.243982 8.63149 -0.240418 7.64677 0.117855L4.78568 1.15922C4.53484 1.25055 4.40549 1.52794 4.49682 1.77877C4.58814 2.02961 4.86547 2.15889 5.11637 2.06763L7.97746 1.02627C8.4663 0.848257 8.99975 1.08975 9.19187 1.57589C9.36518 2.0144 9.48164 2.35965 9.55157 2.64568L1.47744 5.58456C1.34712 5.32051 1.21442 4.98112 1.06535 4.53385C0.90004 4.03797 1.15352 3.51013 1.6423 3.33226L2.96261 2.85172C3.21351 2.7604 3.34279 2.48301 3.25153 2.23217C3.16021 1.98127 2.88269 1.85186 2.63198 1.94325L1.31168 2.42378C0.327152 2.78218 -0.183866 3.84327 0.148176 4.83959C0.377873 5.52868 0.574572 5.98878 0.793892 6.34732C0.923306 7.30329 1.16183 8.45822 1.47029 9.62094C1.00464 9.90104 0.682782 10.3648 0.585592 10.8995C0.332243 12.2941 0.14418 14.2765 0.0560783 16.4817C-0.0438823 18.9836 -0.00940196 21.6365 0.153074 23.9517C0.331147 26.4883 0.647142 28.5485 1.09229 30.0748C1.42072 31.2008 2.38559 32.0602 3.55051 32.2642C6.34767 32.7541 11.322 33 13.3208 33C14.2076 33 15.5634 32.9534 16.9475 32.8753C17.214 32.8603 17.4179 32.632 17.4028 32.3654C17.3878 32.0989 17.1606 31.8959 16.893 31.91C15.5259 31.9872 14.1905 32.0332 13.3208 32.0332C11.3521 32.0332 6.45936 31.7922 3.71731 31.3119C2.91253 31.1711 2.24645 30.5792 2.02042 29.8041C1.60047 28.3644 1.28828 26.3172 1.11749 23.8839C0.9574 21.6029 0.923499 18.9879 1.02211 16.5202C1.10847 14.3587 1.29125 12.4239 1.5368 11.0723C1.63882 10.5108 2.22505 10.1768 2.76384 10.37L6.35186 11.6577C7.02774 11.9003 7.77219 11.9003 8.44807 11.6577L12.5992 10.1682C13.0644 10.0013 13.577 10.0012 14.0424 10.1682L18.192 11.6577C18.868 11.9003 19.6125 11.9003 20.2884 11.6577L23.8763 10.3701C24.4151 10.1767 25.0014 10.5113 25.1034 11.0723C25.349 12.4239 25.5317 14.3587 25.6181 16.5203C25.7166 18.988 25.6827 21.6032 25.5227 23.884C25.3519 26.3173 25.0397 28.3645 24.6197 29.8042C24.3937 30.5792 23.7277 31.1711 22.9229 31.312C21.9765 31.4778 20.7203 31.6258 19.1891 31.7519C18.923 31.7739 18.7252 32.0073 18.7471 32.2733C18.7691 32.5394 19.0025 32.737 19.2686 32.7154C20.8289 32.5869 22.1145 32.4351 23.0897 32.2642C24.2545 32.0602 25.2195 31.2008 25.5478 30.0749C25.993 28.5486 26.309 26.4884 26.4871 23.9517C26.6495 21.6366 26.684 18.9838 26.5841 16.4817ZM9.46611 10.2654L8.12157 10.7478C7.65624 10.9148 7.14374 10.9148 6.67842 10.7478L6.17585 10.5674C6.06493 10.3332 6.00596 10.0764 6.00596 9.81513C6.00596 8.84491 6.79527 8.0556 7.76548 8.0556C8.7357 8.0556 9.52501 8.84491 9.52501 9.81513C9.52508 9.96826 9.50497 10.1189 9.46611 10.2654ZM12.2345 9.18553C12.2358 9.21343 12.2378 9.24179 12.2397 9.27008L10.4889 9.89833C10.5365 8.34743 9.28784 7.089 7.76548 7.089C6.26221 7.089 5.03922 8.31198 5.03922 9.81526C5.03922 9.93372 5.04779 10.0515 5.06307 10.1682L3.09041 9.46021C2.86567 9.37952 2.63127 9.34317 2.39868 9.34936C2.13308 8.34517 1.92156 7.35098 1.79208 6.4989L9.8983 3.54848C10.3585 4.30363 10.8489 5.22854 11.3006 6.19528C11.652 6.94759 11.974 7.71299 12.2589 8.4724C12.2324 8.70673 12.2236 8.945 12.2345 9.18553ZM24.181 9.34878C23.9684 9.35 23.7551 9.38648 23.5498 9.46014L19.9619 10.7478C19.6357 10.8648 19.2864 10.8995 18.9463 10.8524C19.1788 10.2613 19.3898 9.61411 19.5751 8.92013C19.945 7.53537 20.1096 6.36575 20.106 5.86498C20.1041 5.59919 19.888 5.38509 19.6227 5.38509H19.6192C19.3522 5.38702 19.1373 5.60499 19.1393 5.87194C19.1424 6.31271 18.9689 7.4434 18.6411 8.67071C18.4606 9.34704 18.2475 9.9932 18.0181 10.5681L14.369 9.25835C13.9922 9.12314 13.5942 9.06346 13.1985 9.07893C13.1627 7.79922 13.8193 6.60627 14.9238 5.95424C15.4104 5.66699 15.7583 5.20147 15.9034 4.64334C16.3047 3.09966 17.7001 2.02149 19.2968 2.02149C21.164 2.02149 22.7025 3.47933 22.7994 5.34036C22.8249 5.83043 23.0167 6.3042 23.3394 6.67427C24.003 7.4356 24.2842 8.41252 24.181 9.34878ZM8.19317 20.068C8.46012 20.0678 8.67647 19.8513 8.67628 19.5844C8.67615 19.3336 8.87904 19.1304 9.12994 19.1303C9.38077 19.1302 9.58392 19.3331 9.58405 19.5839C9.58418 19.8508 9.80053 20.0671 10.0674 20.0671C10.3344 20.067 10.5509 19.8505 10.5508 19.5836C10.5504 18.7986 9.91506 18.1636 9.1302 18.1636C8.34501 18.164 7.70909 18.7997 7.70954 19.585C7.70967 19.8519 7.92629 20.068 8.19317 20.068ZM6.00751 28.4845C5.97973 28.75 6.1725 28.9878 6.43796 29.0156C7.60868 29.138 8.64709 29.2213 9.70586 29.2777C10.8507 29.3386 12.0329 29.3682 13.3201 29.3682C14.6073 29.3682 15.7894 29.3386 16.9343 29.2777C17.9932 29.2213 19.0315 29.138 20.2022 29.0156C20.4677 28.9878 20.6604 28.75 20.6326 28.4845C20.6049 28.219 20.3671 28.0267 20.1016 28.054C18.9477 28.1748 17.925 28.2569 16.883 28.3124C15.7554 28.3724 14.59 28.4015 13.3202 28.4015C12.0503 28.4015 10.8849 28.3723 9.75735 28.3124C8.7154 28.2569 7.69266 28.1748 6.5387 28.054C6.27362 28.0267 6.03535 28.219 6.00751 28.4845Z" fill="black"/>
<path d="M13.4625 24.4363C13.9761 24.4363 14.4644 24.2139 14.8023 23.8262C14.9832 23.6185 14.9615 23.3036 14.7539 23.1227C14.5463 22.9418 14.2314 22.9634 14.0505 23.1711C13.902 23.3415 13.6877 23.4392 13.4625 23.4392C13.2373 23.4392 13.0229 23.3415 12.8745 23.1711C12.6935 22.9635 12.3786 22.9419 12.171 23.1227C11.9634 23.3036 11.9418 23.6185 12.1226 23.8262C12.4605 24.2139 12.9489 24.4363 13.4625 24.4363Z" fill="black"/>
</svg>
