<svg width="22" height="21" viewBox="0 0 22 21" fill="none" xmlns="http://www.w3.org/2000/svg">
<path id="Vector" d="M15.2857 10.5C15.2857 12.7487 13.3669 14.5715 11 14.5715C8.63302 14.5715 6.71425 12.7487 6.71425 10.5C6.71425 8.25145 8.63302 6.4286 11 6.4286C13.3669 6.4286 15.2857 8.25145 15.2857 10.5ZM15.2857 10.5V11.8571C15.2857 13.3562 16.5649 14.5714 18.1429 14.5714C19.1564 14.5714 20.0469 14.07 20.554 13.3139C20.8364 12.8931 21 12.3932 21 11.8571V10.5C21 7.68642 19.7124 5.15851 17.6667 3.419M11 1C5.47716 1 1 5.2533 1 10.5C1 15.7467 5.47716 20 11 20C13.1247 20 15.0946 19.3706 16.7143 18.2972" stroke="black" stroke-width="1.8" stroke-linecap="round" stroke-linejoin="round"/>
</svg>
