<svg width="19" height="19" viewBox="0 0 19 19" fill="none" xmlns="http://www.w3.org/2000/svg">
<path d="M18.2193 7.46091H17.4783V7.42241H9.19911V11.1336H14.398C13.6395 13.294 11.6015 14.8448 9.19911 14.8448C6.15099 14.8448 3.67965 12.3523 3.67965 9.27801C3.67965 6.20374 6.15099 3.71121 9.19911 3.71121C10.6061 3.71121 11.8862 4.24655 12.8608 5.121L15.4628 2.49671C13.8198 0.952388 11.6222 0 9.19911 0C4.1189 0 0 4.15423 0 9.27801C0 14.4018 4.1189 18.556 9.19911 18.556C14.2793 18.556 18.3982 14.4018 18.3982 9.27801C18.3982 8.65592 18.3348 8.04868 18.2193 7.46091Z" fill="#FFC107"/>
<path d="M1.06067 4.95956L4.08304 7.1951C4.90084 5.15301 6.88141 3.71121 9.19913 3.71121C10.6061 3.71121 11.8862 4.24655 12.8608 5.121L15.4628 2.49671C13.8198 0.952388 11.6222 0 9.19913 0C5.66575 0 2.60152 2.01194 1.06067 4.95956Z" fill="#FF3D00"/>
<path d="M9.19903 18.5561C11.5752 18.5561 13.7342 17.6389 15.3666 16.1475L12.5195 13.7176C11.5959 14.4232 10.4478 14.8448 9.19903 14.8448C6.80634 14.8448 4.77472 13.3061 4.00935 11.1587L1.00952 13.4898C2.53197 16.4945 5.6238 18.5561 9.19903 18.5561Z" fill="#4CAF50"/>
<path d="M18.2194 7.46013H17.4784V7.42163H9.19922V11.1328H14.3981C14.0338 12.1706 13.3719 13.0654 12.5183 13.7172C12.5187 13.7168 12.5192 13.7168 12.5196 13.7163L15.3668 16.1462C15.1653 16.3308 18.3983 13.9162 18.3983 9.27723C18.3983 8.65514 18.3349 8.0479 18.2194 7.46013Z" fill="#1976D2"/>
</svg>
