<svg width="28" height="30" viewBox="0 0 28 30" fill="none" xmlns="http://www.w3.org/2000/svg">
<path d="M21.4408 0.439453H6.55923C5.24861 0.439453 4.18619 1.50193 4.18619 2.8125V9.78146H23.8139V2.8125C23.8138 1.50193 22.7514 0.439453 21.4408 0.439453Z" fill="#008070"/>
<path d="M22.3455 7.55151H5.6545C3.91977 7.55151 2.51352 8.95776 2.51352 10.6925V27.4368H25.4864V10.6925C25.4864 8.95776 24.0802 7.55151 22.3455 7.55151Z" fill="#EFEDFF"/>
<path d="M15.4678 18.603H12.5322C11.7219 18.603 11.065 19.2599 11.065 20.0702V27.4369H16.935V20.0702C16.935 19.2599 16.2781 18.603 15.4678 18.603Z" fill="#6A647F"/>
<path d="M7.42824 18.603H6.15037C5.5618 18.603 5.08467 19.0802 5.08467 19.6687V22.2323C5.08467 22.8209 5.5618 23.298 6.15037 23.298H7.42824C8.01682 23.298 8.49395 22.8209 8.49395 22.2323V19.6687C8.49395 19.0802 8.01682 18.603 7.42824 18.603Z" fill="#008070"/>
<path d="M20.5718 18.603H21.8496C22.4382 18.603 22.9153 19.0802 22.9153 19.6687V22.2323C22.9153 22.8209 22.4382 23.298 21.8496 23.298H20.5718C19.9832 23.298 19.506 22.8209 19.506 22.2323V19.6687C19.5061 19.0802 19.9832 18.603 20.5718 18.603Z" fill="#008070"/>
<path d="M25.2791 25.6672H2.72088C1.73117 25.6672 0.928848 26.4696 0.928848 27.4593V28.5646C0.928848 29.1147 1.37475 29.5606 1.92477 29.5606H26.0752C26.6253 29.5606 27.0712 29.1147 27.0712 28.5646V27.4593C27.0712 26.4696 26.2688 25.6672 25.2791 25.6672Z" fill="#D8AA8B"/>
<path d="M3.772 16.7356C3.772 13.411 4.61252 10.2829 6.09243 7.55176H5.6545C3.91977 7.55176 2.51352 8.95801 2.51352 10.6927V27.437H7.00819C4.96432 24.374 3.772 20.6942 3.772 16.7356Z" fill="#DEDEF9"/>
<path d="M5.95936 25.6672H2.72088C1.73117 25.6672 0.928848 26.4696 0.928848 27.4593V28.5646C0.928848 29.1147 1.37475 29.5606 1.92477 29.5606H8.64922C7.60162 28.3829 6.69611 27.0763 5.95936 25.6672Z" fill="#CF9671"/>
<path d="M6.22356 20.3386C6.22356 19.7625 6.19426 19.1521 6.29604 18.603H6.15031C5.56174 18.603 5.08461 19.0802 5.08461 19.6687V22.2323C5.08461 22.8209 5.56174 23.298 6.15031 23.298H7.42818C7.66982 23.298 7.89195 23.2166 8.07072 23.0811C6.98768 22.6415 6.22356 21.5796 6.22356 20.3386Z" fill="#005B50"/>
<path d="M20.645 20.3386C20.645 19.7625 20.6157 19.1521 20.7175 18.603H20.5718C19.9832 18.603 19.5061 19.0802 19.5061 19.6687V22.2323C19.5061 22.8209 19.9832 23.298 20.5718 23.298H21.8496C22.0913 23.298 22.3134 23.2166 22.4922 23.0811C21.4091 22.6415 20.645 21.5796 20.645 20.3386Z" fill="#005B50"/>
<path d="M7.42824 18.1636H6.15037C5.32039 18.1636 4.64522 18.8388 4.64522 19.6687V22.2323C4.64522 23.0623 5.32045 23.7375 6.15037 23.7375H7.42824C8.25823 23.7375 8.9334 23.0623 8.9334 22.2323V19.6687C8.9334 18.8388 8.25817 18.1636 7.42824 18.1636ZM8.05449 22.2323C8.05449 22.5777 7.77354 22.8586 7.42824 22.8586H6.15037C5.80502 22.8586 5.52412 22.5776 5.52412 22.2323V19.6687C5.52412 19.3234 5.80508 19.0425 6.15037 19.0425H7.42824C7.7736 19.0425 8.05449 19.3234 8.05449 19.6687V22.2323Z" fill="black"/>
<path d="M13.4624 15.4363C13.976 15.4363 14.4644 15.2139 14.8023 14.8262C14.9832 14.6185 14.9615 14.3036 14.7539 14.1227C14.5462 13.9418 14.2313 13.9634 14.0504 14.1711C13.902 14.3415 13.6877 14.4392 13.4624 14.4392C13.2372 14.4392 13.0229 14.3415 12.8745 14.1711C12.6935 13.9635 12.3786 13.9419 12.171 14.1227C11.9634 14.3036 11.9418 14.6185 12.1226 14.8262C12.4605 15.2139 12.9488 15.4363 13.4624 15.4363Z" fill="black"/>
<path d="M19.2662 11C18.568 11 18 11.568 18 12.2663C18 12.5416 18.2231 12.7648 18.4985 12.7648C18.7739 12.7648 18.9971 12.5416 18.9971 12.2663C18.9971 12.1179 19.1178 11.9972 19.2662 11.9972C19.4147 11.9972 19.5354 12.1179 19.5354 12.2663C19.5354 12.5416 19.7585 12.7648 20.034 12.7648C20.3094 12.7648 20.5325 12.5416 20.5325 12.2663C20.5325 11.568 19.9645 11 19.2662 11Z" fill="black"/>
<path d="M8.26621 11C7.568 11 6.99995 11.568 6.99995 12.2663C6.99995 12.5416 7.22312 12.7648 7.49853 12.7648C7.77395 12.7648 7.99711 12.5416 7.99711 12.2663C7.99711 12.1179 8.11777 11.9972 8.26621 11.9972C8.41465 11.9972 8.53538 12.1179 8.53538 12.2663C8.53538 12.5416 8.75854 12.7648 9.03395 12.7648C9.30937 12.7648 9.53253 12.5416 9.53253 12.2663C9.53253 11.568 8.96448 11 8.26621 11Z" fill="black"/>
<path d="M21.8496 18.1636H20.5718C19.7418 18.1636 19.0666 18.8388 19.0666 19.6687V22.2323C19.0666 23.0623 19.7418 23.7375 20.5718 23.7375H21.8496C22.6796 23.7375 23.3548 23.0623 23.3548 22.2323V19.6687C23.3548 18.8388 22.6796 18.1636 21.8496 18.1636ZM22.4759 22.2323C22.4759 22.5777 22.195 22.8586 21.8497 22.8586H20.5718C20.2265 22.8586 19.9456 22.5776 19.9456 22.2323V19.6687C19.9456 19.3234 20.2265 19.0425 20.5718 19.0425H21.8497C22.195 19.0425 22.4759 19.3234 22.4759 19.6687V22.2323Z" fill="black"/>
<path d="M21.7407 5.23342C21.5194 5.23465 21.242 5.23576 21.0159 5.23611V2.34375C21.0159 2.10105 20.8191 1.9043 20.5764 1.9043C20.3338 1.9043 20.137 2.10105 20.137 2.34375V5.67281C20.137 5.8868 20.2912 6.06973 20.502 6.10594C20.596 6.12205 21.5493 6.11338 21.7456 6.11227C21.9883 6.11092 22.184 5.91311 22.1826 5.67035C22.1813 5.42771 21.9826 5.22996 21.7407 5.23342Z" fill="#DEDEF9"/>
<path d="M8.5625 1.9043C8.3198 1.9043 8.12304 2.10105 8.12304 2.34375V3.51311H6.69623V2.34375C6.69623 2.10105 6.49947 1.9043 6.25677 1.9043C6.01408 1.9043 5.81732 2.10105 5.81732 2.34375V5.67562C5.81732 5.91838 6.01408 6.11508 6.25677 6.11508C6.49947 6.11508 6.69623 5.91838 6.69623 5.67562V4.39207H8.12304V5.67568C8.12304 5.91844 8.3198 6.11514 8.5625 6.11514C8.80519 6.11514 9.00195 5.91844 9.00195 5.67568V2.34375C9.00195 2.10105 8.80519 1.9043 8.5625 1.9043Z" fill="#DEDEF9"/>
<path d="M19.0077 2.81372C19.2504 2.81372 19.4472 2.61696 19.4472 2.37427C19.4472 2.13151 19.2504 1.93481 19.0077 1.93481H17.6166C17.3739 1.93481 17.1772 2.13151 17.1772 2.37427V5.67573C17.1772 5.91849 17.3739 6.11519 17.6166 6.11519H19.0077C19.2504 6.11519 19.4472 5.91849 19.4472 5.67573C19.4472 5.43304 19.2504 5.23628 19.0077 5.23628H18.0561V4.46442H18.9052C19.1479 4.46442 19.3446 4.26767 19.3446 4.02497C19.3446 3.78228 19.1479 3.58552 18.9052 3.58552H18.0561V2.81372H19.0077Z" fill="#EFEDFF"/>
<path d="M16.0896 1.9043H14.2495C14.0068 1.9043 13.8101 2.10105 13.8101 2.34375C13.8101 2.58645 14.0068 2.7832 14.2495 2.7832H14.7264V5.67562C14.7264 5.91838 14.9232 6.11508 15.1659 6.11508C15.4086 6.11508 15.6053 5.91838 15.6053 5.67562V2.7832H16.0896C16.3323 2.7832 16.5291 2.58645 16.5291 2.34375C16.5291 2.10105 16.3323 1.9043 16.0896 1.9043Z" fill="#EFEDFF"/>
<path d="M11.6141 1.9043C10.4531 1.9043 9.50867 2.84877 9.50867 4.00975C9.50867 5.17066 10.4531 6.11514 11.6141 6.11514C12.775 6.11514 13.7194 5.17066 13.7194 4.00975C13.7194 2.84883 12.775 1.9043 11.6141 1.9043ZM11.6141 5.23623C10.9378 5.23623 10.3876 4.68604 10.3876 4.00975C10.3876 3.33346 10.9378 2.7832 11.6141 2.7832C12.2903 2.7832 12.8405 3.3334 12.8405 4.00975C12.8405 4.68604 12.2903 5.23623 11.6141 5.23623Z" fill="#EFEDFF"/>
<path d="M21.4408 0H6.55923C5.00837 0 3.74673 1.2617 3.74673 2.8125V7.665C2.74273 8.29992 2.07411 9.4193 2.07411 10.6925V19.6485C2.07411 19.8912 2.27087 20.088 2.51357 20.088C2.75626 20.088 2.95302 19.8912 2.95302 19.6485V10.6926C2.95302 9.19787 4.17241 7.99113 5.65454 7.99113H22.3455C23.834 7.99113 25.047 9.20361 25.047 10.6926V13.3868C25.047 13.6295 25.2438 13.8263 25.4865 13.8263C25.7292 13.8263 25.9259 13.6295 25.9259 13.3868V10.6926C25.9259 9.41936 25.2573 8.29998 24.2533 7.66506V2.8125C24.2533 1.2617 22.9916 0 21.4408 0ZM5.65448 7.11217C5.31733 7.11217 4.96185 7.16297 4.62558 7.26334V2.8125C4.62558 1.74633 5.493 0.878906 6.55917 0.878906H21.4407C22.5069 0.878906 23.3743 1.74633 23.3743 2.8125V7.26334C23.0356 7.16227 22.6811 7.11217 22.3454 7.11217H5.65448Z" fill="black"/>
<path d="M2.07406 25.3235C1.15806 25.6015 0.489334 26.4535 0.489334 27.4591V28.5645C0.489334 29.356 1.13328 29.9999 1.92476 29.9999H26.0752C26.8667 29.9999 27.5107 29.3559 27.5107 28.5645V27.4591C27.5107 26.4535 26.8419 25.6015 25.9259 25.3235V15.1445C25.9259 14.9018 25.7292 14.7051 25.4865 14.7051C25.2438 14.7051 25.047 14.9018 25.047 15.1445V25.2276H17.3744V20.0701C17.3744 19.0188 16.5191 18.1635 15.4678 18.1635H12.5322C11.4809 18.1635 10.6256 19.0188 10.6256 20.0701V25.2276H2.95297V21.4063C2.95297 21.1636 2.75621 20.9669 2.51351 20.9669C2.27082 20.9669 2.07406 21.1636 2.07406 21.4063V25.3235ZM26.6317 27.4591V28.5645C26.6317 28.8713 26.382 29.121 26.0752 29.121H1.92476C1.61791 29.121 1.36824 28.8713 1.36824 28.5645V27.4591C1.36824 26.7665 1.8916 26.1941 2.56355 26.1159H2.56379C2.61881 26.1096 2.67019 26.1065 2.72088 26.1065H25.2791C25.3297 26.1065 25.3811 26.1095 25.4362 26.1159H25.4366C26.1085 26.1943 26.6317 26.7666 26.6317 27.4591ZM11.5045 20.0702C11.5045 19.5034 11.9656 19.0424 12.5322 19.0424H15.4678C16.0345 19.0424 16.4956 19.5034 16.4956 20.0702V25.2276H11.5045V20.0702Z" fill="black"/>
</svg>
