<svg width="35" height="31" viewBox="0 0 35 31" fill="none" xmlns="http://www.w3.org/2000/svg">
<path d="M26.8007 22.0962L25.7021 23.8735C25.4901 24.2164 25.1156 24.4251 24.7125 24.4251H21.7647C21.3615 24.4251 20.9871 24.2164 20.7751 23.8735L19.6765 22.0962C19.5753 21.9326 19.4352 21.7966 19.2686 21.7004L17.2288 20.5227C17.0622 20.4266 16.8743 20.3732 16.682 20.3674L14.5936 20.3046C14.1906 20.2925 13.8226 20.0726 13.6211 19.7234L12.1472 17.1706C11.9456 16.8215 11.9391 16.3929 12.1301 16.0378L13.1199 14.1977C13.2111 14.0284 13.2588 13.8389 13.2588 13.6466V11.2912C13.2588 11.0989 13.2111 10.9095 13.1199 10.7401L12.1301 8.9C11.9391 8.54496 11.9456 8.11629 12.1472 7.7672L13.6211 5.21437C13.8226 4.86521 14.1906 4.6453 14.5936 4.63321L16.682 4.57039C16.8743 4.56458 17.0622 4.51126 17.2288 4.41508L19.2686 3.23737C19.4352 3.1412 19.5753 3.00523 19.6765 2.84159L20.7751 1.06433C20.987 0.721387 21.3615 0.512695 21.7647 0.512695H24.7124C25.1156 0.512695 25.4899 0.721455 25.702 1.06433L26.8006 2.84159C26.9018 3.00523 27.0419 3.1412 27.2085 3.23737L29.2483 4.41508C29.4149 4.51126 29.6027 4.56464 29.795 4.57039L31.8835 4.63321C32.2865 4.6453 32.6545 4.86521 32.856 5.21437L34.3299 7.7672C34.5315 8.11636 34.5379 8.54496 34.3469 8.9L33.3571 10.7401C33.266 10.9095 33.2183 11.0989 33.2183 11.2912V13.6466C33.2183 13.8389 33.266 14.0283 33.3571 14.1977L34.3469 16.0378C34.5379 16.3929 34.5315 16.8215 34.3299 17.1706L32.856 19.7234C32.6544 20.0726 32.2865 20.2925 31.8835 20.3046L29.795 20.3674C29.6027 20.3732 29.4149 20.4266 29.2483 20.5227L27.2085 21.7004C27.0419 21.7966 26.9018 21.9326 26.8007 22.0962ZM30.6811 12.4689C30.6811 8.35848 27.349 5.02632 23.2386 5.02632C19.1282 5.02632 15.796 8.35848 15.796 12.4689C15.796 16.5793 19.1282 19.9114 23.2386 19.9114C27.349 19.9114 30.6811 16.5793 30.6811 12.4689Z" fill="#008070"/>
<path d="M10.3286 13.2497H7.83017V9.63308C7.83017 9.53478 7.90987 9.45508 8.00817 9.45508H10.1506C10.2489 9.45508 10.3286 9.53478 10.3286 9.63308V13.2497Z" fill="#EFEDFF"/>
<path d="M10.3286 10.4954L7.83017 11.603V13.2496H10.3286V10.4954Z" fill="#DEDEF9"/>
<path d="M24.8951 30.3796H6.00415V14.9309L15.4497 11.1501L24.8951 14.9309V30.3796Z" fill="#EFEDFF"/>
<path d="M6.00415 14.9306V17.5364L15.0661 13.5189C15.3103 13.4106 15.589 13.4106 15.8332 13.5189L24.8951 17.5363V14.9305L15.4497 11.1499L6.00415 14.9306Z" fill="#DEDEF9"/>
<path d="M26.3583 17.0171L15.4496 12.181L4.54115 17.0171C4.38325 17.0871 4.19855 17.0159 4.12855 16.858L3.3266 15.0491C3.2566 14.8912 3.32783 14.7065 3.48573 14.6365L14.922 9.56655C15.258 9.4176 15.6414 9.4176 15.9773 9.56655L27.4137 14.6365C27.5716 14.7065 27.6428 14.8913 27.5728 15.0491L26.7709 16.858C26.7009 17.0159 26.5162 17.0871 26.3583 17.0171Z" fill="#D8AA8B"/>
<path d="M27.4137 14.6365L15.9773 9.56655C15.6414 9.4176 15.258 9.4176 14.922 9.56655L14.0918 9.93457C14.2347 9.94667 14.3761 9.98126 14.5099 10.0406L25.9463 15.1106C26.1042 15.1806 26.1754 15.3653 26.1054 15.5232L25.5934 16.678L26.3583 17.0171C26.5162 17.0871 26.7009 17.0159 26.7709 16.858L27.5729 15.0491C27.6428 14.8913 27.5716 14.7065 27.4137 14.6365Z" fill="#CF9671"/>
<path d="M17.6925 30.3794H13.2068V26.1908C13.2068 25.8324 13.4972 25.542 13.8556 25.542H17.0438C17.4021 25.542 17.6925 25.8324 17.6925 26.1908V30.3794Z" fill="#008070"/>
<path d="M17.0438 25.542H15.619C15.9773 25.542 16.2678 25.8324 16.2678 26.1908V30.3794H17.6926V26.1908C17.6925 25.8324 17.4021 25.542 17.0438 25.542Z" fill="#004E44"/>
<path d="M8.06854 25.9431C8.12076 25.7667 8.14482 25.5781 8.13518 25.3826C8.09349 24.5369 7.40863 23.8436 6.56354 23.7927C5.59001 23.734 4.78218 24.5063 4.78218 25.4671C4.78218 25.6266 4.80453 25.7808 4.84616 25.9268C4.90296 26.1262 4.85908 26.3394 4.72093 26.494C4.31913 26.9434 4.08898 27.5493 4.13341 28.2091C4.21099 29.3606 5.14317 30.2944 6.29449 30.3737C7.65703 30.4676 8.79154 29.3901 8.79154 28.0476C8.79154 27.45 8.56672 26.9049 8.19705 26.4923C8.06334 26.343 8.01166 26.1353 8.06854 25.9431Z" fill="#D8AA8B"/>
<path d="M8.19706 26.4923C8.06329 26.343 8.01168 26.1353 8.06862 25.9431C8.12084 25.7667 8.14491 25.5781 8.13527 25.3826C8.09357 24.5369 7.40871 23.8436 6.56362 23.7927C6.26573 23.7748 5.98355 23.8349 5.73508 23.9541C6.27536 24.2142 6.65953 24.7563 6.69042 25.3826C6.70006 25.5781 6.67607 25.7667 6.62378 25.9431C6.56683 26.1353 6.61851 26.343 6.75222 26.4923C7.12189 26.9048 7.34671 27.4499 7.34671 28.0476C7.34671 29.083 6.67162 29.96 5.73788 30.2644C5.9154 30.3227 6.10181 30.3604 6.29457 30.3737C7.65712 30.4676 8.79162 29.3901 8.79162 28.0476C8.79156 27.4499 8.56673 26.9048 8.19706 26.4923Z" fill="#CF9671"/>
<path d="M33.8317 13.998C33.6975 13.7486 33.3867 13.6551 33.1374 13.7894C32.888 13.9235 32.7946 14.2344 32.9287 14.4836L33.8954 16.2807C34.003 16.4807 33.9995 16.7176 33.8859 16.9143L32.412 19.4672C32.2984 19.664 32.0951 19.7854 31.868 19.7923L29.7794 19.8551C29.5033 19.8634 29.231 19.9409 28.9919 20.0789L26.9522 21.2566C26.7129 21.3947 26.5096 21.5919 26.3644 21.8268L25.4079 23.3743V20.1246C26.9919 19.6754 28.4194 18.7285 29.4548 17.4336C30.5761 16.0313 31.1937 14.2681 31.1937 12.4691C31.1937 8.0825 27.625 4.51383 23.2384 4.51383C20.148 4.51383 17.3717 6.27961 16.055 9.04646C15.6201 8.8928 15.1388 8.90988 14.7141 9.09821L13.1837 9.77671L12.5816 8.65738C12.474 8.4573 12.4775 8.22044 12.5911 8.02372L14.065 5.47082C14.1785 5.27409 14.3819 5.15262 14.6089 5.14578L16.6973 5.08296C16.9733 5.07469 17.2457 4.99731 17.485 4.85917L19.5248 3.68146C19.764 3.54331 19.9673 3.34617 20.1125 3.11123L21.2111 1.33397C21.3305 1.1408 21.5374 1.02541 21.7646 1.02541H24.7123C24.9395 1.02541 25.1464 1.1408 25.2658 1.33397L26.3644 3.11123C26.5096 3.34617 26.7129 3.54331 26.9522 3.68146L28.9919 4.85917C29.2312 4.99731 29.5036 5.07469 29.7795 5.08296L31.868 5.14578C32.095 5.15262 32.2984 5.27409 32.412 5.47089L33.8859 8.02372C33.9995 8.22044 34.003 8.4573 33.8954 8.65738L32.9057 10.4973C32.7748 10.7405 32.7056 11.0151 32.7056 11.2914V12.2586C32.7056 12.5418 32.9351 12.7713 33.2183 12.7713C33.5015 12.7713 33.731 12.5418 33.731 12.2586V11.2913C33.731 11.1841 33.7578 11.0775 33.8087 10.9831L34.7985 9.14298C35.0756 8.62771 35.0664 8.01763 34.7739 7.51098L33.3 4.95822C33.0076 4.45149 32.4838 4.13849 31.8989 4.12078L29.8103 4.05796C29.7032 4.05482 29.5975 4.02474 29.5046 3.97108L27.4648 2.79338C27.3719 2.73972 27.293 2.66322 27.2367 2.57204L26.138 0.794777C25.8304 0.297144 25.2975 0 24.7124 0H21.7646C21.1795 0 20.6466 0.297144 20.339 0.794777L19.2403 2.57204C19.184 2.66322 19.1051 2.73972 19.0122 2.79338L16.9724 3.97108C16.8795 4.02467 16.7739 4.05482 16.6666 4.05796L14.5781 4.12085C13.9932 4.13849 13.4694 4.45149 13.177 4.95815L11.7031 7.51098C11.4106 8.01763 11.4014 8.62771 11.6786 9.14298L12.2436 10.1933L10.8412 10.815V9.63303C10.8412 9.25221 10.5314 8.94235 10.1505 8.94235H8.00813C7.62732 8.94235 7.31746 9.25221 7.31746 9.63303V12.3772L3.27802 14.168C3.07644 14.2574 2.92168 14.4199 2.84232 14.6256C2.76296 14.8312 2.76849 15.0556 2.8579 15.2571L3.65986 17.066C3.7492 17.2675 3.91168 17.4221 4.1173 17.5015C4.21375 17.5387 4.3143 17.5572 4.41465 17.5572C4.52832 17.5572 4.64179 17.5334 4.74891 17.4859L5.49153 17.1567V19.9602C5.49153 20.2434 5.721 20.4729 6.0042 20.4729C6.2874 20.4729 6.51687 20.2434 6.51687 19.9602V16.7021L15.4497 12.742L24.3825 16.7021V29.8668H18.2052V26.1909C18.2052 25.5505 17.6842 25.0295 17.0439 25.0295H13.8556C13.2152 25.0295 12.6942 25.5505 12.6942 26.1909V29.8668H8.6461C9.06772 29.359 9.30423 28.7132 9.30423 28.0477C9.30423 27.3462 9.0466 26.6723 8.57897 26.1503C8.56243 26.1318 8.55484 26.1071 8.56024 26.0889C8.63031 25.8523 8.65963 25.6063 8.6474 25.3575C8.59319 24.2593 7.6915 23.3472 6.59452 23.2811C6.56862 23.2796 6.54278 23.2785 6.51701 23.2779V21.9426C6.51701 21.6594 6.28754 21.4299 6.00434 21.4299C5.72114 21.4299 5.49167 21.6594 5.49167 21.9426V23.5013C5.29931 23.5963 5.11988 23.7206 4.95856 23.8724C4.52074 24.2848 4.26959 24.866 4.26959 25.4673C4.26959 25.6708 4.29769 25.8726 4.35326 26.0676C4.35771 26.0832 4.36529 26.1229 4.33884 26.1523C3.82446 26.7276 3.5699 27.4703 3.62199 28.2436C3.66334 28.8577 3.90211 29.4199 4.27499 29.8668H0.512671C0.229472 29.8668 0 30.0963 0 30.3795C0 30.6627 0.229472 30.8921 0.512671 30.8921H30.3867C30.6699 30.8921 30.8994 30.6627 30.8994 30.3795C30.8994 30.0963 30.6699 29.8668 30.3867 29.8668H25.4079V24.7862C25.7068 24.6491 25.9637 24.4251 26.138 24.1431L27.2367 22.3659C27.293 22.2747 27.3719 22.1982 27.4648 22.1445L29.5046 20.9668C29.5974 20.9132 29.7031 20.8832 29.8104 20.8799L31.8989 20.8171C32.4838 20.7994 33.0076 20.4864 33.3 19.9798L34.7739 17.4269C35.0664 16.9203 35.0756 16.3102 34.7984 15.7949L33.8317 13.998ZM4.64494 28.1748C4.61151 27.6791 4.77427 27.2036 5.10299 26.8359C5.35728 26.5517 5.44559 26.1593 5.33916 25.7865C5.30977 25.6831 5.29487 25.5757 5.29487 25.4673C5.29487 25.1428 5.42502 24.8415 5.66139 24.619C6.38652 23.9361 7.57496 24.4295 7.62315 25.4079C7.62971 25.541 7.61413 25.6721 7.57694 25.7976V25.7978C7.47119 26.1552 7.56245 26.5523 7.81516 26.8345C8.11415 27.1682 8.27875 27.5991 8.27875 28.0477C8.27875 28.5574 8.07341 29.0298 7.7006 29.3778C6.58906 30.4156 4.74781 29.7025 4.64494 28.1748ZM13.7195 29.8669V26.1909C13.7195 26.1159 13.7806 26.0548 13.8556 26.0548H17.0439C17.1189 26.0548 17.1799 26.116 17.1799 26.1909V29.8668H13.7195V29.8669ZM8.34287 9.9677H9.81595V11.2696L8.34287 11.9226V9.9677ZM26.1505 17.486C26.3521 17.5755 26.5765 17.5809 26.7821 17.5016C26.9878 17.4223 27.1503 17.2675 27.2396 17.0661L28.0414 15.2573C28.1309 15.0557 28.1364 14.8314 28.0571 14.6257C27.9778 14.4199 27.8229 14.2574 27.6215 14.1682L22.2185 11.7729C21.9596 11.658 21.6567 11.775 21.542 12.0338C21.4273 12.2926 21.5441 12.5955 21.8029 12.7102L27.0231 15.0244L26.3833 16.4676L15.6575 11.7126C15.5252 11.654 15.3742 11.654 15.2419 11.7126L4.51616 16.4676L3.87634 15.0244L15.1298 10.0355C15.3331 9.94528 15.5662 9.94541 15.7696 10.0355L19.8206 11.8314C20.0794 11.9462 20.3823 11.8292 20.497 11.5705C20.6118 11.3116 20.495 11.0088 20.2362 10.8941L16.9951 9.45721C18.1481 7.06447 20.5576 5.53917 23.2385 5.53917C27.0596 5.53917 30.1684 8.64794 30.1684 12.4691C30.1684 15.4973 28.2379 18.1279 25.4079 19.0535V17.1569L26.1505 17.486Z" fill="black"/>
</svg>
