<svg width="33" height="33" viewBox="0 0 33 33" fill="none" xmlns="http://www.w3.org/2000/svg">
<g id="home-1-svgrepo-com 2">
<path id="Vector" d="M30.25 30.25H2.75" stroke="#E63946" stroke-width="1.8" stroke-linecap="round"/>
<path id="Vector_2" d="M2.75 15.1236L8.33657 10.6544M30.25 15.1236L19.0769 6.18516C17.5703 4.97995 15.4297 4.97995 13.9231 6.18516L12.848 7.04529" stroke="#E63946" stroke-width="1.8" stroke-linecap="round"/>
<path id="Vector_3" d="M21.3125 7.5625V4.8125C21.3125 4.43281 21.6204 4.125 22 4.125H25.4375C25.8171 4.125 26.125 4.43281 26.125 4.8125V11.6875" stroke="#E63946" stroke-width="1.8" stroke-linecap="round"/>
<path id="Vector_4" d="M5.5 30.25V13.0625" stroke="#E63946" stroke-width="1.8" stroke-linecap="round"/>
<path id="Vector_5" d="M27.5 13.0625V18.5625M27.5 30.25V24.0625" stroke="#E63946" stroke-width="1.8" stroke-linecap="round"/>
<path id="Vector_6" d="M20.625 30.25V23.375C20.625 21.4305 20.625 20.4582 20.021 19.854C19.4168 19.25 18.4445 19.25 16.5 19.25C14.5555 19.25 13.5832 19.25 12.9791 19.854M12.375 30.25V23.375" stroke="#E63946" stroke-width="1.8" stroke-linecap="round" stroke-linejoin="round"/>
<path id="Vector_7" d="M19.25 13.0625C19.25 14.5813 18.0188 15.8125 16.5 15.8125C14.9812 15.8125 13.75 14.5813 13.75 13.0625C13.75 11.5437 14.9812 10.3125 16.5 10.3125C18.0188 10.3125 19.25 11.5437 19.25 13.0625Z" stroke="#E63946" stroke-width="1.8"/>
</g>
</svg>
