<svg width="34" height="34" viewBox="0 0 34 34" fill="none" xmlns="http://www.w3.org/2000/svg">
<path d="M31.1668 31.168H2.8335" stroke="#061229" stroke-width="1.8" stroke-linecap="round"/>
<path d="M2.8335 15.582L8.58936 10.9774M31.1668 15.582L19.6551 6.37271C18.1029 5.13097 15.8974 5.13097 14.3452 6.37271L13.2375 7.2589" stroke="#061229" stroke-width="1.8" stroke-linecap="round"/>
<path d="M21.9585 7.79167V4.95833C21.9585 4.56713 22.2757 4.25 22.6668 4.25H26.2085C26.5996 4.25 26.9168 4.56713 26.9168 4.95833V12.0417" stroke="#061229" stroke-width="1.8" stroke-linecap="round"/>
<path d="M5.6665 31.1654V13.457" stroke="#061229" stroke-width="1.8" stroke-linecap="round"/>
<path d="M28.3335 13.457V19.1237M28.3335 31.1654V24.7904" stroke="#061229" stroke-width="1.8" stroke-linecap="round"/>
<path d="M21.25 31.1654V24.082C21.25 22.0786 21.25 21.0769 20.6277 20.4544C20.0052 19.832 19.0034 19.832 17 19.832C14.9966 19.832 13.9948 19.832 13.3724 20.4544M12.75 31.1654V24.082" stroke="#061229" stroke-width="1.8" stroke-linecap="round" stroke-linejoin="round"/>
<path d="M19.8332 13.4583C19.8332 15.0232 18.5647 16.2917 16.9998 16.2917C15.435 16.2917 14.1665 15.0232 14.1665 13.4583C14.1665 11.8935 15.435 10.625 16.9998 10.625C18.5647 10.625 19.8332 11.8935 19.8332 13.4583Z" stroke="#061229" stroke-width="1.8"/>
</svg>
