<svg width="19" height="19" viewBox="0 0 19 19" fill="none" xmlns="http://www.w3.org/2000/svg">
<g id="ic_item_add_green">
<path id="Rectangle 3479" d="M18.9326 9.46629C18.9326 4.2382 14.6944 0 9.46629 0C4.2382 0 0 4.2382 0 9.46629C0 14.6944 4.2382 18.9326 9.46629 18.9326C14.6944 18.9326 18.9326 14.6944 18.9326 9.46629Z" fill="#34C759"/>
<path id="Path 29484" d="M13.6728 9.16686H9.87071V5.36364C9.87071 5.27031 9.83363 5.18079 9.76763 5.11479C9.70164 5.0488 9.61212 5.01172 9.51879 5.01172C9.42545 5.01172 9.33594 5.0488 9.26994 5.11479C9.20394 5.18079 9.16686 5.27031 9.16686 5.36364V9.16686H5.36364C5.27031 9.16686 5.18079 9.20394 5.11479 9.26994C5.0488 9.33594 5.01172 9.42545 5.01172 9.51879C5.01172 9.61212 5.0488 9.70164 5.11479 9.76763C5.18079 9.83363 5.27031 9.87071 5.36364 9.87071H9.16686V13.6728C9.16686 13.719 9.17597 13.7648 9.19365 13.8075C9.21134 13.8502 9.23726 13.889 9.26994 13.9217C9.30262 13.9543 9.34141 13.9803 9.38411 13.998C9.42681 14.0156 9.47257 14.0247 9.51879 14.0247C9.565 14.0247 9.61076 14.0156 9.65346 13.998C9.69616 13.9803 9.73495 13.9543 9.76763 13.9217C9.80031 13.889 9.82624 13.8502 9.84392 13.8075C9.86161 13.7648 9.87071 13.719 9.87071 13.6728V9.87071H13.6728C13.7662 9.87071 13.8557 9.83363 13.9217 9.76763C13.9877 9.70164 14.0247 9.61212 14.0247 9.51879C14.0247 9.42545 13.9877 9.33594 13.9217 9.26994C13.8557 9.20394 13.7662 9.16686 13.6728 9.16686Z" fill="white" stroke="white" stroke-width="0.29137"/>
</g>
</svg>
