<svg width="19" height="20" viewBox="0 0 19 20" fill="none" xmlns="http://www.w3.org/2000/svg">
<g id="ic_item_deletes_red">
<path id="Rectangle 3480" d="M18.9326 9.91942C18.9326 4.69133 14.6944 0.453125 9.46629 0.453125C4.2382 0.453125 0 4.69133 0 9.91942C0 15.1475 4.2382 19.3857 9.46629 19.3857C14.6944 19.3857 18.9326 15.1475 18.9326 9.91942Z" fill="#D63229"/>
<path id="Path 29485" d="M14.0325 9.91797H5.37812C5.28094 9.91797 5.18775 9.95657 5.11904 10.0253C5.05032 10.094 5.01172 10.1872 5.01172 10.2844C5.01172 10.3815 5.05032 10.4747 5.11904 10.5435C5.18775 10.6122 5.28094 10.6508 5.37812 10.6508H14.0325C14.1297 10.6508 14.2229 10.6122 14.2916 10.5435C14.3603 10.4747 14.3989 10.3815 14.3989 10.2844C14.3989 10.1872 14.3603 10.094 14.2916 10.0253C14.2229 9.95657 14.1297 9.91797 14.0325 9.91797Z" fill="white" stroke="white" stroke-width="0.29137"/>
</g>
</svg>
