<svg width="15" height="22" viewBox="0 0 15 22" fill="none" xmlns="http://www.w3.org/2000/svg">
<path d="M0.212845 19.2894V21.3518C0.212845 21.5446 0.367732 21.7009 0.558767 21.7009C0.749803 21.7009 0.904689 21.5446 0.904689 21.3518V19.2894C0.904689 17.6836 2.19217 16.384 3.78333 16.3841C4.53618 16.3841 5.21925 15.997 5.61062 15.3486C5.70998 15.1839 5.65831 14.969 5.49512 14.8688C5.33198 14.7684 5.11915 14.8206 5.01974 14.9853C4.75502 15.424 4.29283 15.6858 3.78333 15.6858C1.80997 15.6857 0.212845 17.2975 0.212845 19.2894ZM6.24945 15.7896C6.20876 15.978 6.32711 16.164 6.51378 16.2051C7.42416 16.4053 8.35006 16.2049 9.08727 15.697C9.81708 16.4863 10.7812 16.3841 10.6522 16.3841C12.2432 16.384 13.5308 17.6834 13.5308 19.2894V21.3518C13.5308 21.5446 13.6857 21.7009 13.8767 21.7009C14.0678 21.7009 14.2227 21.5446 14.2227 21.3518V19.2894C14.2227 17.2977 12.6258 15.6858 10.6523 15.6858C9.85396 15.6858 9.20678 15.0366 9.20678 14.2307V14.1388C10.7167 13.4101 11.7765 11.8788 11.8411 10.0956C12.4625 9.94484 12.9254 9.38352 12.9254 8.71567V6.9057C12.9443 6.01977 12.814 3.80088 11.2111 2.24137C9.23173 0.315627 6.05755 0.437955 3.72352 1.57199C3.49604 1.68263 3.46149 1.99283 3.65041 2.15348C2.468 2.44457 1.44839 3.17819 0.793346 4.22813C0.759533 4.28221 0.697613 4.36709 0.713785 4.50251C0.723817 4.58678 0.748678 4.65809 0.81302 4.72399C1.23461 5.15553 1.46677 5.72737 1.46677 6.33421V8.71575C1.46677 8.90856 1.62166 9.06489 1.81269 9.06489C2.00373 9.06489 2.15862 8.90856 2.15862 8.71575V6.33421C2.15862 5.63432 1.9217 4.97 1.48657 4.43635C2.14979 3.47902 3.18453 2.86332 4.35479 2.73684L4.96279 2.67112C5.31831 2.63271 5.38806 2.13838 5.05766 2.00112L4.78114 1.88622C8.38245 0.619069 12.2336 2.027 12.2336 6.9019V8.71567C12.2336 8.99271 12.0756 9.23348 11.8445 9.35441V7.09101C11.8445 5.74343 10.7582 4.64705 9.42303 4.64705H5.01252C3.67734 4.64705 2.59106 5.74334 2.59106 7.09087V9.94956C2.59106 12.9859 5.53088 15.2922 8.52233 14.4034C8.54179 14.6525 8.60323 14.8928 8.70334 15.1163C8.12141 15.5196 7.38654 15.6823 6.6611 15.5228C6.47443 15.4818 6.29014 15.6012 6.24945 15.7896ZM7.21777 13.8944C5.04806 13.8944 3.28291 12.1129 3.28291 9.92302V7.09087C3.28291 6.12839 4.05881 5.34533 5.01252 5.34533H9.42303C10.3767 5.34533 11.1526 6.12844 11.1526 7.09101V9.92302C11.1526 12.1129 9.38748 13.8944 7.21777 13.8944Z" fill="#061229" stroke="#061229" stroke-width="0.445974"/>
</svg>
