<svg width="248" height="197" viewBox="0 0 248 197" fill="none" xmlns="http://www.w3.org/2000/svg">
<path d="M52.3041 169H46.4887V147.906H52.3041V157.12H60.0092V147.906H65.8246V169H60.0092V159.801H52.3041V169ZM89.0266 160.504C89.0266 161.383 88.9094 162.208 88.675 162.979C88.4406 163.751 88.1135 164.464 87.6936 165.118C87.2834 165.772 86.7854 166.363 86.1994 166.891C85.6135 167.408 84.9689 167.848 84.2658 168.209C83.5725 168.57 82.8254 168.849 82.0246 169.044C81.2336 169.239 80.4182 169.337 79.5783 169.337C78.7385 169.337 77.923 169.239 77.132 169.044C76.341 168.849 75.5939 168.57 74.8908 168.209C74.1975 167.848 73.5578 167.408 72.9719 166.891C72.3859 166.363 71.883 165.772 71.4631 165.118C71.0529 164.464 70.7307 163.751 70.4963 162.979C70.2619 162.198 70.1447 161.373 70.1447 160.504C70.1447 159.635 70.2619 158.814 70.4963 158.043C70.7307 157.262 71.0529 156.544 71.4631 155.89C71.883 155.235 72.3859 154.649 72.9719 154.132C73.5578 153.604 74.1975 153.16 74.8908 152.799C75.5939 152.438 76.341 152.159 77.132 151.964C77.923 151.769 78.7385 151.671 79.5783 151.671C80.4182 151.671 81.2336 151.769 82.0246 151.964C82.8254 152.159 83.5725 152.438 84.2658 152.799C84.9689 153.16 85.6135 153.604 86.1994 154.132C86.7854 154.649 87.2834 155.235 87.6936 155.89C88.1135 156.544 88.4406 157.262 88.675 158.043C88.9094 158.814 89.0266 159.635 89.0266 160.504ZM83.9875 160.504C83.9875 160.035 83.9582 159.542 83.8996 159.024C83.8508 158.497 83.7629 157.984 83.6359 157.486C83.509 156.979 83.3332 156.495 83.1086 156.036C82.8938 155.567 82.6252 155.162 82.3029 154.82C81.9807 154.469 81.5949 154.19 81.1457 153.985C80.6965 153.771 80.174 153.663 79.5783 153.663C79.0119 153.663 78.509 153.771 78.0695 153.985C77.6301 154.2 77.2443 154.488 76.9123 154.85C76.59 155.201 76.3166 155.611 76.092 156.08C75.8772 156.549 75.7014 157.037 75.5647 157.545C75.4279 158.043 75.3303 158.551 75.2717 159.068C75.2131 159.576 75.1838 160.055 75.1838 160.504C75.1838 160.953 75.2131 161.437 75.2717 161.954C75.3303 162.462 75.4279 162.97 75.5647 163.478C75.7014 163.985 75.8772 164.474 76.092 164.942C76.3166 165.401 76.59 165.812 76.9123 166.173C77.2443 166.524 77.6301 166.808 78.0695 167.022C78.509 167.237 79.0119 167.345 79.5783 167.345C80.1643 167.345 80.6818 167.242 81.1311 167.037C81.5803 166.822 81.966 166.539 82.2883 166.188C82.6203 165.836 82.8938 165.431 83.1086 164.972C83.3234 164.513 83.4943 164.029 83.6213 163.521C83.758 163.014 83.8508 162.501 83.8996 161.983C83.9582 161.466 83.9875 160.973 83.9875 160.504ZM92.4971 161.764C92.4971 160.992 92.5606 160.191 92.6875 159.361C92.8242 158.531 93.0147 157.701 93.2588 156.871C93.5127 156.041 93.8154 155.221 94.167 154.41C94.5186 153.6 94.9141 152.823 95.3535 152.081H98.9717C98.7275 152.813 98.5078 153.58 98.3125 154.381C98.127 155.172 97.9658 155.968 97.8291 156.769C97.7022 157.56 97.5996 158.336 97.5215 159.098C97.4531 159.859 97.419 160.567 97.419 161.222C97.419 161.603 97.4336 162.013 97.4629 162.452C97.502 162.882 97.5654 163.316 97.6533 163.756C97.7412 164.186 97.8633 164.601 98.0195 165.001C98.1856 165.401 98.3955 165.758 98.6494 166.07C98.9033 166.373 99.2109 166.617 99.5723 166.803C99.9434 166.979 100.378 167.066 100.876 167.066C101.364 167.066 101.799 166.959 102.18 166.744C102.57 166.52 102.912 166.231 103.205 165.88C103.498 165.519 103.747 165.108 103.952 164.649C104.157 164.19 104.323 163.722 104.45 163.243C104.587 162.755 104.685 162.281 104.743 161.822C104.812 161.354 104.846 160.934 104.846 160.562V152.081H109.797V169H107.893L105.622 165.06C105.339 165.714 104.992 166.31 104.582 166.847C104.182 167.374 103.723 167.828 103.205 168.209C102.688 168.59 102.111 168.883 101.477 169.088C100.852 169.293 100.173 169.396 99.4404 169.396C98.2686 169.396 97.2481 169.205 96.3789 168.824C95.5098 168.443 94.7871 167.916 94.2109 167.242C93.6348 166.568 93.2051 165.768 92.9219 164.84C92.6387 163.902 92.4971 162.877 92.4971 161.764ZM129.688 163.595C129.688 164.337 129.581 164.996 129.366 165.572C129.151 166.148 128.858 166.651 128.487 167.081C128.116 167.501 127.677 167.857 127.169 168.15C126.661 168.434 126.114 168.663 125.528 168.839C124.952 169.015 124.346 169.142 123.712 169.22C123.077 169.298 122.447 169.337 121.822 169.337C120.982 169.337 120.24 169.283 119.596 169.176C118.951 169.068 118.336 168.897 117.75 168.663C117.164 168.419 116.578 168.106 115.992 167.726C115.416 167.345 114.771 166.881 114.058 166.334L116.944 163.976C117.208 164.474 117.554 164.928 117.984 165.338C118.424 165.738 118.878 166.085 119.346 166.378C119.815 166.671 120.269 166.896 120.709 167.052C121.148 167.208 121.505 167.286 121.778 167.286C122.003 167.286 122.257 167.281 122.54 167.271C122.823 167.252 123.111 167.223 123.404 167.184C123.697 167.135 123.985 167.066 124.268 166.979C124.552 166.891 124.801 166.773 125.015 166.627C125.24 166.471 125.416 166.28 125.543 166.056C125.679 165.821 125.748 165.543 125.748 165.221C125.748 164.889 125.66 164.601 125.484 164.356C125.318 164.103 125.098 163.883 124.825 163.697C124.552 163.512 124.239 163.355 123.888 163.229C123.536 163.102 123.179 162.989 122.818 162.892C122.467 162.794 122.125 162.711 121.793 162.643C121.461 162.564 121.173 162.491 120.929 162.423C120.479 162.296 120.006 162.169 119.508 162.042C119.01 161.905 118.516 161.754 118.028 161.588C117.54 161.412 117.071 161.207 116.622 160.973C116.182 160.738 115.792 160.46 115.45 160.138C115.118 159.806 114.849 159.42 114.644 158.98C114.449 158.531 114.351 158.009 114.351 157.413C114.351 156.319 114.566 155.406 114.996 154.674C115.435 153.932 116.012 153.341 116.724 152.901C117.437 152.452 118.248 152.135 119.156 151.949C120.064 151.764 120.987 151.671 121.925 151.671C122.569 151.671 123.248 151.739 123.961 151.876C124.674 152.003 125.367 152.198 126.041 152.462C126.715 152.716 127.345 153.028 127.93 153.399C128.516 153.771 129.005 154.195 129.395 154.674L126.51 157.047C126.295 156.461 126.012 155.958 125.66 155.538C125.318 155.118 124.942 154.776 124.532 154.513C124.132 154.239 123.717 154.039 123.287 153.912C122.867 153.785 122.476 153.722 122.115 153.722C121.763 153.722 121.368 153.736 120.929 153.766C120.489 153.795 120.074 153.878 119.683 154.015C119.303 154.151 118.975 154.361 118.702 154.645C118.438 154.918 118.306 155.299 118.306 155.787C118.306 156.139 118.385 156.441 118.541 156.695C118.707 156.939 118.922 157.154 119.185 157.34C119.449 157.516 119.747 157.667 120.079 157.794C120.421 157.911 120.767 158.019 121.119 158.116C121.471 158.204 121.812 158.282 122.144 158.351C122.476 158.419 122.774 158.492 123.038 158.57C123.487 158.697 123.961 158.829 124.459 158.966C124.967 159.093 125.465 159.244 125.953 159.42C126.441 159.586 126.91 159.786 127.359 160.021C127.818 160.245 128.219 160.523 128.56 160.855C128.902 161.188 129.176 161.578 129.381 162.027C129.586 162.467 129.688 162.989 129.688 163.595ZM138.095 160.973C138.701 161.109 139.306 161.217 139.912 161.295C140.517 161.373 141.128 161.412 141.743 161.412C142.387 161.412 142.983 161.354 143.53 161.236C144.087 161.109 144.565 160.904 144.965 160.621C145.376 160.328 145.698 159.942 145.932 159.464C146.167 158.985 146.284 158.39 146.284 157.677C146.284 157.101 146.206 156.573 146.049 156.095C145.893 155.616 145.659 155.206 145.346 154.864C145.044 154.522 144.668 154.259 144.218 154.073C143.769 153.878 143.247 153.78 142.651 153.78C142.094 153.78 141.591 153.883 141.142 154.088C140.703 154.293 140.312 154.571 139.97 154.923C139.638 155.265 139.35 155.665 139.106 156.124C138.872 156.583 138.676 157.062 138.52 157.56C138.364 158.058 138.252 158.561 138.183 159.068C138.115 159.576 138.081 160.055 138.081 160.504C138.081 160.582 138.081 160.66 138.081 160.738C138.081 160.816 138.086 160.895 138.095 160.973ZM150.297 157.633C150.297 158.326 150.185 158.946 149.961 159.493C149.736 160.03 149.428 160.504 149.038 160.914C148.657 161.324 148.213 161.671 147.705 161.954C147.197 162.237 146.655 162.472 146.079 162.657C145.503 162.833 144.907 162.96 144.292 163.038C143.686 163.116 143.095 163.155 142.519 163.155C141.787 163.155 141.064 163.106 140.351 163.009C139.638 162.901 138.935 162.735 138.242 162.511C138.349 163.155 138.52 163.771 138.755 164.356C138.989 164.933 139.301 165.44 139.692 165.88C140.083 166.31 140.561 166.651 141.128 166.905C141.704 167.159 142.382 167.286 143.164 167.286C143.681 167.286 144.174 167.208 144.643 167.052C145.112 166.896 145.542 166.676 145.932 166.393C146.323 166.109 146.665 165.772 146.958 165.382C147.26 164.991 147.505 164.557 147.69 164.078L149.829 164.869C149.506 165.641 149.062 166.31 148.496 166.876C147.939 167.433 147.304 167.896 146.591 168.268C145.888 168.629 145.136 168.897 144.336 169.073C143.545 169.249 142.758 169.337 141.977 169.337C140.688 169.337 139.497 169.122 138.403 168.692C137.309 168.253 136.367 167.643 135.576 166.861C134.785 166.08 134.165 165.147 133.715 164.063C133.266 162.979 133.042 161.793 133.042 160.504C133.042 159.215 133.266 158.028 133.715 156.944C134.165 155.86 134.785 154.928 135.576 154.146C136.367 153.365 137.309 152.76 138.403 152.33C139.497 151.891 140.688 151.671 141.977 151.671C142.602 151.671 143.242 151.715 143.896 151.803C144.55 151.891 145.185 152.032 145.8 152.228C146.416 152.413 146.997 152.657 147.544 152.96C148.09 153.263 148.564 153.639 148.964 154.088C149.375 154.527 149.697 155.04 149.931 155.626C150.175 156.212 150.297 156.881 150.297 157.633ZM160.799 162.379C160.799 163.736 160.623 165.118 160.272 166.524C159.93 167.921 159.447 169.273 158.822 170.582C158.206 171.9 157.464 173.131 156.595 174.273C155.726 175.416 154.769 176.412 153.724 177.262L151.468 175.899C152.054 175.099 152.567 174.19 153.006 173.175C153.446 172.159 153.812 171.104 154.105 170.011C154.398 168.917 154.618 167.818 154.764 166.715C154.911 165.611 154.984 164.562 154.984 163.565V147.906H160.799V162.379ZM184.236 160.504C184.236 161.383 184.118 162.208 183.884 162.979C183.65 163.751 183.322 164.464 182.903 165.118C182.492 165.772 181.994 166.363 181.408 166.891C180.822 167.408 180.178 167.848 179.475 168.209C178.781 168.57 178.034 168.849 177.234 169.044C176.443 169.239 175.627 169.337 174.787 169.337C173.947 169.337 173.132 169.239 172.341 169.044C171.55 168.849 170.803 168.57 170.1 168.209C169.406 167.848 168.767 167.408 168.181 166.891C167.595 166.363 167.092 165.772 166.672 165.118C166.262 164.464 165.94 163.751 165.705 162.979C165.471 162.198 165.354 161.373 165.354 160.504C165.354 159.635 165.471 158.814 165.705 158.043C165.94 157.262 166.262 156.544 166.672 155.89C167.092 155.235 167.595 154.649 168.181 154.132C168.767 153.604 169.406 153.16 170.1 152.799C170.803 152.438 171.55 152.159 172.341 151.964C173.132 151.769 173.947 151.671 174.787 151.671C175.627 151.671 176.443 151.769 177.234 151.964C178.034 152.159 178.781 152.438 179.475 152.799C180.178 153.16 180.822 153.604 181.408 154.132C181.994 154.649 182.492 155.235 182.903 155.89C183.322 156.544 183.65 157.262 183.884 158.043C184.118 158.814 184.236 159.635 184.236 160.504ZM179.196 160.504C179.196 160.035 179.167 159.542 179.109 159.024C179.06 158.497 178.972 157.984 178.845 157.486C178.718 156.979 178.542 156.495 178.318 156.036C178.103 155.567 177.834 155.162 177.512 154.82C177.19 154.469 176.804 154.19 176.355 153.985C175.905 153.771 175.383 153.663 174.787 153.663C174.221 153.663 173.718 153.771 173.279 153.985C172.839 154.2 172.453 154.488 172.121 154.85C171.799 155.201 171.526 155.611 171.301 156.08C171.086 156.549 170.91 157.037 170.774 157.545C170.637 158.043 170.539 158.551 170.481 159.068C170.422 159.576 170.393 160.055 170.393 160.504C170.393 160.953 170.422 161.437 170.481 161.954C170.539 162.462 170.637 162.97 170.774 163.478C170.91 163.985 171.086 164.474 171.301 164.942C171.526 165.401 171.799 165.812 172.121 166.173C172.453 166.524 172.839 166.808 173.279 167.022C173.718 167.237 174.221 167.345 174.787 167.345C175.373 167.345 175.891 167.242 176.34 167.037C176.789 166.822 177.175 166.539 177.497 166.188C177.829 165.836 178.103 165.431 178.318 164.972C178.532 164.513 178.703 164.029 178.83 163.521C178.967 163.014 179.06 162.501 179.109 161.983C179.167 161.466 179.196 160.973 179.196 160.504ZM203.277 152.081L197.125 166.964C196.422 168.663 195.636 170.343 194.767 172.003C193.907 173.673 192.975 175.274 191.969 176.808L190.035 175.636C190.279 175.196 190.567 174.688 190.899 174.112C191.231 173.536 191.559 172.94 191.881 172.325C192.203 171.71 192.501 171.1 192.774 170.494C193.048 169.898 193.258 169.352 193.404 168.854L186.007 152.081H190.958L195.982 163.521L199.85 152.081H203.277Z" fill="white"/>
<g clip-path="url(#clip0_697_7406)">
<mask id="mask0_697_7406" style="mask-type:luminance" maskUnits="userSpaceOnUse" x="112" y="0" width="58" height="117">
<path d="M128.372 22.3091C138.459 23.4341 148.252 27.9529 155.986 35.8667C174.014 54.3164 174.014 84.2297 155.986 102.679L142.676 116.3C138.542 112.76 134.818 108.896 131.511 104.772C121.198 91.9072 114.95 76.5133 113.021 60.5675H113.019L113.003 60.4293L112.951 59.9791C112.932 59.8113 112.912 59.6423 112.895 59.4745L112.841 58.9593L112.794 58.496C112.778 58.3318 112.763 58.1687 112.748 58.0045L112.703 57.5034L112.664 57.0296L112.625 56.5356L112.59 56.0511L112.555 55.5418L112.526 55.062L112.499 54.574L112.474 54.0742L112.451 53.5743L112.434 53.117L112.416 52.5947L112.403 52.1362L112.39 51.5962L112.383 51.1625L112.376 50.6165L112.374 50.1698V49.6334L112.376 49.182C112.377 49.0035 112.379 48.8263 112.382 48.6478L112.389 48.213C112.392 48.0204 112.396 47.8266 112.402 47.6339L112.412 47.2534L112.432 46.652L112.448 46.2384L112.471 45.6983L112.48 45.4963H112.481C113.269 29.638 118.318 13.8423 127.875 0C124.107 15.1764 124.041 30.8114 127.384 45.6357L127.506 46.1734L127.548 46.3506C127.633 46.7181 127.722 47.0856 127.811 47.452L127.864 47.6706L127.987 48.1633L128.064 48.4623L128.205 49.0083L128.247 49.1666C128.412 49.7917 128.583 50.4145 128.761 51.036L128.819 51.2381L128.98 51.7911L129.046 52.0145C129.225 52.616 129.41 53.2162 129.599 53.8154L129.665 54.0233L129.834 54.5433L129.925 54.8222L130.098 55.3457L130.1 55.3516C130.178 55.5832 130.256 55.8136 130.336 56.044L130.505 56.5285L130.592 56.7779L130.778 57.299L130.872 57.559L131.062 58.0789L131.155 58.3259C131.266 58.6237 131.378 58.9203 131.492 59.2181L131.603 59.5064L131.808 60.0311L131.899 60.2615C135.749 69.9773 141.163 79.1095 148.045 87.2466C156.485 75.1331 155.392 58.2124 144.771 47.3433C140.441 42.9119 135.128 40.1018 129.552 38.9119C128.677 33.4241 128.281 27.8678 128.371 22.3091" fill="white"/>
</mask>
<g mask="url(#mask0_697_7406)">
<path d="M174.014 0H112.377V116.301H174.014V0Z" fill="#F7EEEE"/>
</g>
<mask id="mask1_697_7406" style="mask-type:luminance" maskUnits="userSpaceOnUse" x="113" y="5" width="46" height="72">
<path d="M158.936 40.8848C157.807 39.4065 156.579 37.9802 155.249 36.6189C148.233 29.4389 139.205 24.8599 129.4 23.5092C129.382 28.3683 129.74 33.2262 130.469 38.0274C136.174 39.3852 141.355 42.3406 145.506 46.5888C147.714 48.8482 149.53 51.3746 150.948 54.0724C154.103 50.0452 156.793 45.621 158.935 40.8836M125.627 5.42933C118.385 17.5381 114.147 31.2764 113.523 45.5442L113.491 46.2815L113.475 46.688L113.455 47.2836L113.445 47.6641C113.44 47.8532 113.436 48.0423 113.433 48.2313L113.425 48.6662C113.423 48.8399 113.421 49.0136 113.42 49.1873L113.418 49.6316V50.1634L113.42 50.6018L113.427 51.1442L113.433 51.5696L113.446 52.1061L113.457 52.5575L113.475 53.0751L113.492 53.5241L113.514 54.0204L113.538 54.5108L113.566 54.9953L113.593 55.4656L113.628 55.9702L113.662 56.4464L113.701 56.9368L113.739 57.4024L113.784 57.9035C113.798 58.063 113.813 58.2237 113.828 58.3832L113.874 58.8429L113.928 59.3581C113.946 59.5224 113.965 59.6866 113.984 59.8509L114.035 60.2917L114.052 60.4299C114.715 65.7924 115.859 71.0569 117.463 76.1582C123.578 74.5736 129.335 72.0696 134.584 68.7975C133.246 66.1458 132.028 63.4291 130.934 60.6556L130.634 59.8899L130.523 59.6016C130.408 59.3014 130.295 59.0013 130.183 58.7011L130.089 58.4482L129.897 57.9247L129.802 57.66L129.613 57.133L129.357 56.3968C129.276 56.1652 129.199 55.9312 129.119 55.6984L128.939 55.1572L128.847 54.8748L128.677 54.3489L128.611 54.141C128.419 53.5359 128.232 52.9286 128.052 52.32L127.984 52.0919L127.821 51.533L127.764 51.3309C127.585 50.7034 127.411 50.0736 127.244 49.4426L127.2 49.2771L127.057 48.7265L126.98 48.4239L126.854 47.9241L126.801 47.7055C126.709 47.3344 126.62 46.9646 126.534 46.5923L126.491 46.4103L126.369 45.8727C123.337 32.581 123.117 18.7895 125.625 5.42578L125.627 5.42933Z" fill="white"/>
</mask>
<g mask="url(#mask1_697_7406)">
<path d="M158.936 5.42969H113.417V76.1633H158.936V5.42969Z" fill="white"/>
</g>
<mask id="mask2_697_7406" style="mask-type:luminance" maskUnits="userSpaceOnUse" x="77" y="13" width="64" height="124">
<path d="M140.264 118.768L123.342 136.084L90.6996 102.678C72.6718 84.2282 72.6718 54.3149 90.6996 35.8652C93.3946 33.1071 96.3401 30.7615 99.4612 28.8282C89.1396 46.3633 88.5715 68.1573 97.9624 86.2324C90.8335 65.866 93.8045 43.226 105.93 25.5041C107.762 23.3192 112.144 18.1399 116.337 13.8125C112.066 23.7281 109.567 34.3869 109.088 45.34L109.054 46.0975L109.037 46.5347L109.016 47.1527L109.006 47.5332C109 47.7388 108.996 47.9456 108.992 48.1512L108.985 48.5861C108.981 48.7775 108.98 48.969 108.979 49.1604L108.977 49.6343V50.1861L108.979 50.66L108.986 51.2177L108.993 51.6786L109.006 52.2316L109.02 52.7173L109.038 53.2526L109.056 53.7371L109.08 54.2476L109.105 54.777L109.134 55.2745L109.164 55.7826L109.2 56.3037L109.237 56.8154L109.277 57.3176L109.319 57.821L109.364 58.3221C109.38 58.4981 109.395 58.6754 109.413 58.8514L109.462 59.3265L109.516 59.8417C109.535 60.0225 109.556 60.2045 109.577 60.3853L109.633 60.8639L109.65 61.0021C111.735 77.8708 118.34 93.8212 128.886 106.976C132.315 111.255 136.13 115.2 140.265 118.766" fill="white"/>
</mask>
<g mask="url(#mask2_697_7406)">
<path d="M140.264 13.8125H72.6719V136.084H140.264V13.8125Z" fill="#F7EEEE"/>
</g>
<mask id="mask3_697_7406" style="mask-type:luminance" maskUnits="userSpaceOnUse" x="78" y="18" width="36" height="61">
<path d="M93.1846 77.4871C88.3893 62.6156 89.5162 46.2775 96.4708 32.1681C94.6892 33.5223 93.0068 35.0113 91.4353 36.6196C81.5964 46.6899 77.2525 60.2522 78.4014 73.4068C83.0744 75.3542 88.029 76.7415 93.1846 77.4871ZM113.338 18.561C111.089 21.0472 108.9 23.5997 106.752 26.1592C100.889 34.743 97.1186 44.6373 95.7561 55.0185C94.7538 62.6581 95.0783 70.4029 96.6937 77.8913C98.4522 78.0425 100.23 78.1252 102.027 78.1252C105.445 78.1252 108.797 77.8416 112.067 77.3028C110.454 72.0537 109.297 66.6439 108.616 61.1384L108.597 60.9907L108.542 60.5121C108.52 60.3278 108.498 60.1423 108.479 59.9568L108.425 59.438L108.377 58.9629C108.358 58.7822 108.342 58.6014 108.326 58.4217L108.28 57.9112L108.238 57.4043L108.198 56.8926L108.161 56.3774L108.125 55.8468L108.095 55.3363L108.066 54.8306L108.039 54.2965L108.016 53.7777L107.998 53.2896L107.979 52.7461L107.967 52.2557L107.954 51.6944L107.947 51.23L107.94 50.6639L107.938 50.1854V49.6276L107.94 49.1537C107.94 48.9576 107.942 48.7626 107.946 48.5664L107.954 48.1328C107.957 47.9224 107.961 47.7133 107.967 47.5029L107.977 47.1165L107.998 46.4914L108.015 46.0494L108.049 45.292C108.449 36.1398 110.249 27.1282 113.338 18.5586V18.561Z" fill="white"/>
</mask>
<g mask="url(#mask3_697_7406)">
<path d="M113.34 18.5625H77.2539V78.1268H113.34V18.5625Z" fill="white"/>
</g>
</g>
<defs>
<clipPath id="clip0_697_7406">
<rect width="101.341" height="136.086" fill="white" transform="translate(72.6719)"/>
</clipPath>
</defs>
</svg>
