<svg width="34" height="34" viewBox="0 0 34 34" fill="none" xmlns="http://www.w3.org/2000/svg">
<g clip-path="url(#clip0_675_770)">
<path d="M2.66455 27.2261C1.79816 27.2261 1.0957 27.9285 1.0957 28.7949C1.0957 29.6616 1.79816 30.364 2.66455 30.364C1.79816 30.364 1.0957 31.0665 1.0957 31.9329C1.0957 32.7995 1.79816 33.502 2.66455 33.502H18.236V27.2261H2.66455Z" fill="#D8AA8B"/>
<path d="M9.85925 33.502H18.236V27.2261H9.06627C9.11296 29.362 9.32878 31.5788 9.85925 33.502Z" fill="#CF9671"/>
<path d="M16.6669 20.9502C17.5336 20.9502 18.236 21.6526 18.236 22.519C18.236 23.3857 17.5336 24.0882 16.6669 24.0882C17.5336 24.0882 18.236 24.7906 18.236 25.657C18.236 26.5237 17.5336 27.2261 16.6669 27.2261H4.23366C2.50061 27.2261 1.0957 25.8212 1.0957 24.0882C1.0957 22.3551 2.50061 20.9502 4.23366 20.9502H16.6669Z" fill="#D8AA8B"/>
<path d="M18.236 25.657C18.236 24.7906 17.5336 24.0882 16.6669 24.0882C17.5336 24.0882 18.236 23.3857 18.236 22.519C18.236 21.6526 17.5336 20.9502 16.6669 20.9502H9.33448C9.16925 22.6059 9.01465 24.8666 9.06627 27.2261H16.6669C17.5336 27.2261 18.236 26.5237 18.236 25.657Z" fill="#CF9671"/>
<path d="M26.9067 7.49829H19.0474C19.0474 7.49829 12.4628 12.9345 13.025 22.7263C13.2042 25.8438 13.3331 28.0684 13.4263 29.6528C13.5528 31.8147 15.343 33.502 17.5084 33.502H28.4457C30.6112 33.502 32.4013 31.8147 32.5282 29.6528C32.621 28.0684 32.7502 25.8438 32.9292 22.7263C33.4916 12.9345 26.9067 7.49829 26.9067 7.49829ZM27.3244 21.0737C25.8759 20.0859 24.9662 18.8247 24.4492 17.9166C24.0666 17.2437 24.0943 16.4133 24.5158 15.7641L25.9197 13.6014C26.4281 12.8181 27.5934 12.8839 28.0146 13.7177C29.206 16.0759 29.5093 18.3127 29.5337 19.8818C29.5518 21.0286 28.2719 21.7199 27.3244 21.0737Z" fill="#008070"/>
<path d="M21.5281 12.05C25.3708 12.1099 27.7526 10.7307 28.9632 9.7382C27.8343 8.26404 26.9067 7.49829 26.9067 7.49829H19.0474C19.0474 7.49829 16.7686 9.38023 15.0065 12.9223C16.4763 12.45 18.6433 12.0048 21.5281 12.05Z" fill="#005B50"/>
<path d="M26.977 6.79626H19.1177V2.27312C19.1177 1.29285 19.9125 0.498047 20.8928 0.498047H25.2022C26.1825 0.498047 26.9773 1.29285 26.9773 2.27312V6.79626H26.977Z" fill="#CF9671"/>
<path d="M27.1298 8.1998H18.9652C18.1899 8.1998 17.5613 7.57153 17.5613 6.79619C17.5613 6.0211 18.1899 5.39258 18.9652 5.39258H27.1298C27.9049 5.39258 28.5334 6.0211 28.5334 6.79619C28.5334 7.57153 27.9049 8.1998 27.1298 8.1998Z" fill="#D8AA8B"/>
<path d="M19.2604 14.6494C18.021 14.6494 16.9564 15.5244 16.7103 16.7389C16.4451 18.0447 16.1821 19.8929 16.1821 22.083C16.1821 24.0137 16.2843 25.6991 16.3992 26.9839C16.5331 28.478 17.7883 29.6214 19.2887 29.6214H24.802C26.4043 29.6214 27.7031 28.3226 27.7031 26.7203V25.1442C27.7031 24.4342 27.3114 23.7847 26.6873 23.4467C25.0865 22.5806 22.2189 20.5196 21.8554 17.0789C21.5992 14.6494 19.2604 14.6494 19.2604 14.6494Z" fill="#DEDEF9"/>
<path d="M25.0907 24.8726C24.8157 24.8726 24.5926 25.0956 24.5926 25.3706V26.1976C24.5926 26.4725 24.8157 26.6956 25.0907 26.6956C25.3659 26.6956 25.5887 26.4725 25.5887 26.1976V25.3706C25.5887 25.0956 25.3659 24.8726 25.0907 24.8726Z" fill="black"/>
<path d="M18.7945 24.8726C18.5193 24.8726 18.2965 25.0956 18.2965 25.3706V26.1976C18.2965 26.4725 18.5193 26.6956 18.7945 26.6956C19.0695 26.6956 19.2926 26.4725 19.2926 26.1976V25.3706C19.2926 25.0956 19.0695 24.8726 18.7945 24.8726Z" fill="black"/>
<path d="M22.9724 25.5571C22.8884 25.5019 22.5156 25.3584 22.2829 25.7C22.1711 25.8637 22.0087 25.8834 21.9426 25.8834C21.8767 25.8834 21.7112 25.8655 21.6025 25.7C21.4513 25.4702 21.1426 25.4061 20.9128 25.5571C20.683 25.7081 20.6189 26.017 20.7699 26.2468C21.03 26.6432 21.4684 26.8795 21.9426 26.8795C22.4168 26.8795 22.8552 26.6432 23.1153 26.2468C23.2663 26.017 23.2025 25.7081 22.9724 25.5571Z" fill="black"/>
<path d="M26.9244 23.0088C23.1511 20.9668 22.4689 18.1448 22.3509 17.0266C22.1107 14.7524 20.2243 14.1514 19.2604 14.1514C17.7922 14.1514 16.5144 15.198 16.2221 16.64C15.9767 17.8496 15.6841 19.7759 15.6841 22.083C15.6841 23.739 15.7577 25.4028 15.9033 27.0282C16.061 28.7906 17.5165 30.1195 19.2887 30.1195H24.802C26.6764 30.1195 28.2011 28.5945 28.2011 26.72V25.1442C28.2011 24.2534 27.7119 23.435 26.9244 23.0088ZM27.205 26.72C27.205 28.0453 26.127 29.1234 24.802 29.1234H19.2887C18.0358 29.1234 17.007 28.1846 16.8955 26.9395C16.7525 25.3437 16.6802 23.7095 16.6802 22.083C16.6802 19.8587 16.9619 18.0029 17.1982 16.838C17.3969 15.8585 18.2643 15.1475 19.2604 15.1475C19.3377 15.1475 21.1532 15.17 21.3602 17.1311C21.7646 20.9593 25.0546 23.1294 26.4502 23.8848C26.9158 24.1369 27.2053 24.6194 27.2053 25.1442V26.72H27.205Z" fill="black"/>
<path d="M30.0317 19.8738C30.0078 18.3351 29.7152 15.9789 28.4592 13.4929C28.1796 12.9393 27.6432 12.5888 27.0247 12.5554C26.4074 12.5217 25.8385 12.8117 25.5021 13.3299L24.0982 15.4928C23.5719 16.3032 23.5405 17.3263 24.0162 18.1626C24.5498 19.1003 25.508 20.4378 27.0437 21.4849C27.3685 21.7065 28.2014 22.0146 29.0263 21.589C29.6636 21.26 30.0431 20.5918 30.0317 19.8738ZM28.5539 20.7119C28.2476 20.8769 27.8927 20.8582 27.605 20.6621C26.2268 19.7221 25.3636 18.5161 24.8821 17.67C24.5911 17.1587 24.6108 16.532 24.9335 16.0352L26.3373 13.8724C26.6678 13.3484 27.334 13.4594 27.57 13.9419C28.7114 16.2739 29.0133 18.4552 29.0359 19.8894C29.0413 20.2391 28.861 20.5464 28.5539 20.7119Z" fill="black"/>
<path d="M28.3643 8.24086C28.7723 7.89197 29.0315 7.37395 29.0315 6.79626C29.0315 5.8658 28.3594 5.08968 27.4751 4.92677V2.27312C27.4751 1.0197 26.4556 0 25.2022 0H20.8928C19.6394 0 18.6197 1.0197 18.6197 2.27312V4.92677C17.7357 5.08968 17.0636 5.8658 17.0636 6.79626C17.0636 7.33685 17.2905 7.82504 17.6537 8.1716C16.8073 9.09532 15.5562 10.6655 14.5043 12.8151C12.9915 15.9059 12.3267 19.25 12.528 22.7548C12.5443 23.0406 12.5604 23.319 12.5759 23.59H5.28604C5.01108 23.59 4.78799 23.8129 4.78799 24.0881C4.78799 24.3633 5.01108 24.5861 5.28604 24.5861H12.6333C12.6781 25.3654 12.7191 26.0774 12.757 26.728H4.23366C2.77817 26.728 1.59375 25.5436 1.59375 24.0881C1.59375 22.6323 2.77817 21.4482 4.23366 21.4482H10.7345C11.0097 21.4482 11.2325 21.2251 11.2325 20.9501C11.2325 20.6749 11.0097 20.4521 10.7345 20.4521H4.23366C2.22876 20.4521 0.597656 22.0832 0.597656 24.0881C0.597656 25.2058 1.10504 26.2071 1.9014 26.8746C1.1385 27.1791 0.597656 27.9249 0.597656 28.7952C0.597656 29.4219 0.878326 29.9848 1.32034 30.364C0.878326 30.7435 0.597656 31.3061 0.597656 31.9331C0.597656 33.0726 1.52501 34 2.66455 34H28.4457C30.8719 34 32.8833 32.1033 33.0252 29.6818L33.0706 28.909C33.0864 28.6343 32.8771 28.3988 32.6024 28.3827C32.3277 28.3664 32.0921 28.5762 32.076 28.8509L32.0309 29.6237C31.9199 31.5191 30.3451 33.0039 28.4457 33.0039H17.5084C15.6094 33.0039 14.0345 31.5191 13.9235 29.6237C13.8846 28.9612 13.6218 24.4318 13.5222 22.6977C13.3308 19.366 13.9624 16.1881 15.399 13.2527C16.476 11.0517 17.7691 9.49428 18.5644 8.65512C18.6936 8.68288 27.3189 8.69066 27.4107 8.67691C29.2009 10.5705 32.8527 15.3743 32.4319 22.6977C32.3443 24.2251 32.2685 25.5381 32.2031 26.6668C32.1871 26.9412 32.3793 27.2074 32.7007 27.1936C32.9624 27.1825 33.1821 26.9892 33.1974 26.7244C33.2628 25.5957 33.3385 24.2824 33.4265 22.7548C33.8516 15.352 30.3163 10.3895 28.3643 8.24086ZM14.6576 33.0039H2.66455C2.07416 33.0039 1.59375 32.5235 1.59375 31.9328C1.59375 31.3425 2.07416 30.862 2.66455 30.862C2.93977 30.862 3.1626 30.6392 3.1626 30.364C3.1626 30.0888 2.93977 29.866 2.66455 29.866C2.07416 29.866 1.59375 29.3855 1.59375 28.7949C1.59375 28.2045 2.07416 27.7241 2.66455 27.7241H12.8148C12.8579 28.466 12.9383 29.8047 12.9443 29.866H5.28604C5.01108 29.866 4.78799 30.0888 4.78799 30.364C4.78799 30.6392 5.01108 30.862 5.28604 30.862H13.1567C13.4416 31.7165 13.9697 32.4571 14.6576 33.0039ZM20.8928 0.996094H25.2022C25.9062 0.996094 26.479 1.56885 26.479 2.27312V4.89461H19.6158V2.27312C19.6158 1.56885 20.1885 0.996094 20.8928 0.996094ZM18.9652 7.70183C18.4659 7.70183 18.0596 7.29561 18.0596 6.79626C18.0596 6.29692 18.4659 5.8907 18.9652 5.8907H27.1298C27.6292 5.8907 28.0354 6.29692 28.0354 6.79626C28.0354 7.29561 27.6292 7.70183 27.1298 7.70183H18.9652Z" fill="black"/>
</g>
<defs>
<clipPath id="clip0_675_770">
<rect width="34" height="34" fill="white"/>
</clipPath>
</defs>
</svg>
