<svg width="28" height="28" viewBox="0 0 28 28" fill="none" xmlns="http://www.w3.org/2000/svg">
<g id="Group 427321152">
<path id="Vector" d="M26.0811 26.0781H1" stroke="#606060" stroke-width="2" stroke-linecap="round"/>
<path id="Vector_2" d="M19.8101 26.0811V6.01622C19.8101 3.65155 19.8101 2.46921 19.0754 1.73461C18.3408 1 17.1585 1 14.7939 1H12.2857C9.92108 1 8.73874 1 8.00414 1.73461C7.26953 2.46921 7.26953 3.65155 7.26953 6.01622V26.0811" stroke="#606060" stroke-width="2"/>
<path id="Vector_3" d="M23.8678 12.6935C23.8678 13.2217 24.3632 13.65 24.9743 13.65C25.5854 13.65 26.0808 13.2217 26.0808 12.6935H23.8678ZM26.0808 17.7947C26.0808 17.2665 25.5854 16.8383 24.9743 16.8383C24.3632 16.8383 23.8678 17.2665 23.8678 17.7947H26.0808ZM19.8105 9.1864C20.8696 9.1864 21.5807 9.18756 22.1227 9.23522C22.6462 9.28126 22.8881 9.36265 23.0482 9.45506L24.2776 7.86449C23.6934 7.52705 23.0453 7.39351 22.3467 7.33208C21.6665 7.27228 20.8235 7.27344 19.8105 7.27344V9.1864ZM26.0808 12.6935C26.0808 11.8179 26.0821 11.0892 26.0129 10.5013C25.942 9.89745 25.7874 9.33712 25.397 8.8321L23.5569 9.89489C23.6639 10.0332 23.758 10.2423 23.8113 10.6949C23.8665 11.1634 23.8678 11.7781 23.8678 12.6935H26.0808ZM23.0482 9.45506C23.2496 9.57137 23.4224 9.72082 23.5569 9.89489L25.397 8.8321C25.101 8.44916 24.7207 8.12036 24.2776 7.86449L23.0482 9.45506ZM23.8678 17.7947V26.0842H26.0808V17.7947H23.8678Z" fill="#606060"/>
<path id="Vector_4" d="M4.16301 24.2289C4.16301 23.7007 3.76668 23.2725 3.27779 23.2725C2.78891 23.2725 2.39258 23.7007 2.39258 24.2289H4.16301ZM2.39258 19.1277C2.39258 19.6559 2.78891 20.0842 3.27779 20.0842C3.76668 20.0842 4.16301 19.6559 4.16301 19.1277H2.39258ZM7.40879 7.96875C6.59839 7.96875 5.92395 7.96759 5.37991 8.02739C4.82108 8.08882 4.30249 8.22236 3.8351 8.55981L4.8187 10.1504C4.94671 10.058 5.14024 9.97657 5.55909 9.93053C5.99272 9.88288 6.56154 9.88172 7.40879 9.88172V7.96875ZM4.16301 13.3888C4.16301 12.4734 4.16408 11.8587 4.20819 11.3902C4.2508 10.9376 4.32612 10.7285 4.41165 10.5902L2.93959 9.52741C2.62729 10.0324 2.5037 10.5928 2.44685 11.1966C2.39151 11.7845 2.39258 12.5132 2.39258 13.3888H4.16301ZM3.8351 8.55981C3.4807 8.81567 3.1764 9.14447 2.93959 9.52741L4.41165 10.5902C4.51929 10.4161 4.65761 10.2667 4.8187 10.1504L3.8351 8.55981ZM2.39258 24.2289V26.7796H4.16301V24.2289H2.39258ZM2.39258 13.3888V19.1277H4.16301V13.3888H2.39258Z" fill="#606060"/>
<path id="Vector_5" d="M13.541 26.0825V22.3203" stroke="#606060" stroke-width="2" stroke-linecap="round"/>
<path id="Vector_6" d="M11.0312 4.76562H16.0475" stroke="#606060" stroke-width="2" stroke-linecap="round"/>
<path id="Vector_7" d="M11.0312 16.0469H11.6583M16.0475 16.0469H14.1664" stroke="#606060" stroke-width="2" stroke-linecap="round"/>
<path id="Vector_8" d="M16.0475 8.52344H15.4204M11.0312 8.52344H12.9123" stroke="#606060" stroke-width="2" stroke-linecap="round"/>
<path id="Vector_9" d="M11.0312 12.2891H16.0475" stroke="#606060" stroke-width="2" stroke-linecap="round"/>
</g>
</svg>
