<svg width="160" height="130" viewBox="0 0 160 130" fill="none" xmlns="http://www.w3.org/2000/svg">
<path d="M23.6841 26.7384L51.1769 52.1451C51.2596 52.2217 51.3085 52.3281 51.313 52.4408C51.3175 52.5535 51.2771 52.6635 51.2008 52.7464L51.1769 52.7703L23.14 78.4657C23.0572 78.54 23.0072 78.6441 23.0007 78.7552C22.9942 78.8664 23.0319 78.9756 23.1055 79.059C23.146 79.1032 23.1952 79.1386 23.25 79.1628C23.3048 79.1871 23.3641 79.1997 23.424 79.2H41.8988C42.0055 79.1995 42.1082 79.1592 42.1868 79.0869L60.6613 61.9274C60.7401 61.8529 60.8443 61.8115 60.9526 61.8115C61.0609 61.8115 61.1651 61.8529 61.2439 61.9274L78.6156 79.067C78.655 79.1057 78.7017 79.1362 78.7529 79.1568C78.8042 79.1773 78.859 79.1875 78.9142 79.1867H100.747C100.802 79.1876 100.856 79.1775 100.908 79.1571C100.959 79.1367 101.006 79.1063 101.045 79.0678C101.084 79.0292 101.116 78.9832 101.138 78.9323C101.159 78.8815 101.171 78.8269 101.171 78.7717C101.173 78.7126 101.162 78.6539 101.139 78.5994C101.116 78.545 101.082 78.4962 101.038 78.4564L72.4157 51.9389C72.3325 51.8633 72.2822 51.7579 72.2758 51.6454C72.2693 51.5329 72.3072 51.4224 72.3812 51.3377L72.4157 51.3071L81.4858 43.4456C81.5745 43.3794 81.6334 43.2806 81.6496 43.1709C81.6657 43.0612 81.6378 42.9495 81.572 42.8604C81.5327 42.8068 81.481 42.7636 81.4213 42.7344C81.3617 42.7052 81.2959 42.6909 81.2296 42.6928H62.8135C62.7042 42.6912 62.5998 42.6468 62.5228 42.569L46.0911 26.1198C46.0507 26.0806 46.0029 26.0498 45.9505 26.0293C45.8981 26.0087 45.8421 25.9988 45.7859 26.0001H23.9681C23.8839 26.0018 23.8021 26.0285 23.7331 26.0769C23.6641 26.1253 23.611 26.1931 23.5806 26.2718C23.5501 26.3505 23.5437 26.4365 23.5621 26.5189C23.5806 26.6013 23.623 26.6763 23.6841 26.7344" fill="url(#paint0_radial_1008_88)"/>
<path d="M117.548 26H80.5475C80.4632 26.0022 80.3827 26.0349 80.3213 26.092L66.5172 39.1893C66.4601 39.2516 66.4286 39.3326 66.4286 39.4166C66.4286 39.5006 66.4601 39.5816 66.5172 39.6439C66.5485 39.6785 66.5871 39.7059 66.6303 39.7241C66.6736 39.7423 66.7203 39.7508 66.7673 39.749L116.364 39.4784C121.369 39.6098 123.737 42.1588 123.954 45.0902C123.954 48.6575 122.076 51.8701 114.969 51.8701H90.2185C90.1305 51.8745 90.0476 51.9121 89.9869 51.9753C89.9263 52.0384 89.8925 52.1221 89.8926 52.2091V63.0254C89.8922 63.0685 89.9009 63.1112 89.9181 63.1507C89.9353 63.1903 89.9606 63.226 89.9924 63.2554L105.207 78.0398C105.255 78.0779 105.312 78.1025 105.374 78.111C105.435 78.1195 105.497 78.1115 105.554 78.088C105.611 78.0644 105.66 78.0262 105.697 77.9773C105.734 77.9283 105.756 77.8705 105.763 77.8099V65.6678C105.763 65.6233 105.772 65.5792 105.789 65.538C105.806 65.4969 105.831 65.4596 105.863 65.4281C105.895 65.3966 105.933 65.3716 105.975 65.3546C106.016 65.3375 106.061 65.3288 106.106 65.3288H112.478C126.406 66.1566 137 59.3201 137 45.466C136.81 37.2539 131.853 26.8278 117.548 26Z" fill="url(#paint1_radial_1008_88)"/>
<path d="M38.7318 95.1065C38.7318 99.5753 35.061 103.086 30.4554 103.086H24.1398V87.1265H30.4554C35.061 87.1265 38.7318 90.6377 38.7318 95.1065ZM30.1362 89.8169H27.2178V100.396H30.1362C33.1686 100.396 35.5854 98.0705 35.5854 95.1065C35.5854 92.1197 33.1686 89.8169 30.1362 89.8169Z" fill="#F2CB3C"/>
<path d="M42.2569 103.086V87.1265H52.3117V89.8169H45.3349V93.7613H52.0837V96.3833H45.3349V100.396H52.3117V103.086H42.2569Z" fill="#F2CB3C"/>
<path d="M66.1538 100.396V103.086H56.099V87.1265H59.177V100.396H66.1538Z" fill="#F2CB3C"/>
<path d="M72.6851 103.086H69.6071V87.1265H72.6851V103.086Z" fill="#F2CB3C"/>
<path d="M82.0188 103.086L75.2928 87.1265H78.69L83.6376 99.4385L88.5852 87.1265H91.8456L85.1196 103.086H82.0188Z" fill="#F2CB3C"/>
<path d="M94.4635 103.086V87.1265H104.518V89.8169H97.5415V93.7613H104.29V96.3833H97.5415V100.396H104.518V103.086H94.4635Z" fill="#F2CB3C"/>
<path d="M120.367 103.086H116.97L113.755 97.5461H111.361V103.086H108.214V87.1265H114.598C116.08 87.1265 117.334 87.6509 118.36 88.6769C119.386 89.7029 119.911 90.9569 119.911 92.4161C119.911 94.3997 118.68 96.2237 116.833 97.0673L120.367 103.086ZM114.598 90.0677H111.361V94.7873H114.598C115.784 94.7873 116.764 93.7157 116.764 92.4161C116.764 91.1165 115.784 90.0677 114.598 90.0677Z" fill="#F2CB3C"/>
<path d="M130.308 103.086H127.23V96.4289L120.983 87.1265H124.722L128.826 93.5333L132.93 87.1265H136.578L130.308 96.4745V103.086Z" fill="#F2CB3C"/>
<defs>
<radialGradient id="paint0_radial_1008_88" cx="0" cy="0" r="1" gradientUnits="userSpaceOnUse" gradientTransform="translate(62.0857 52.6) scale(39.0857 26.6)">
<stop stop-color="#1877F2"/>
<stop offset="1" stop-color="#005ACE"/>
</radialGradient>
<radialGradient id="paint1_radial_1008_88" cx="0" cy="0" r="1" gradientUnits="userSpaceOnUse" gradientTransform="translate(101.714 52.0571) scale(35.2857 26.0571)">
<stop stop-color="#1877F2"/>
<stop offset="1" stop-color="#005ACE"/>
</radialGradient>
</defs>
</svg>
