<svg width="40" height="40" viewBox="0 0 40 40" fill="none" xmlns="http://www.w3.org/2000/svg">
    <path d="M0.3 9C0.3 4.19512 4.19512 0.3 9 0.3H31C35.8049 0.3 39.7 4.19512 39.7 9V31C39.7 35.8049 35.8049 39.7 31 39.7H9C4.19512 39.7 0.3 35.8049 0.3 31V9Z" fill="#FFE9EC" stroke="#FFBBC6" stroke-width="0.6"/>
    <path fill-rule="evenodd" clip-rule="evenodd" d="M26.3333 19.6667C28.7265 19.6667 30.6667 17.7265 30.6667 15.3333C30.6667 12.9401 28.7265 11 26.3333 11C24.3142 11 22.6176 12.381 22.1365 14.25H10.0833C9.48503 14.25 9 14.735 9 15.3333C9 15.9316 9.48503 16.4167 10.0833 16.4167H22.1365C22.6176 18.2856 24.3142 19.6667 26.3333 19.6667ZM24.1667 15.3333C24.1667 16.53 25.1367 17.5 26.3333 17.5C27.53 17.5 28.5 16.53 28.5 15.3333C28.5 14.1367 27.53 13.1667 26.3333 13.1667C25.1367 13.1667 24.1667 14.1367 24.1667 15.3333ZM9 24C9 21.6068 10.9401 19.6667 13.3333 19.6667C15.3525 19.6667 17.0491 21.0477 17.5301 22.9167H29.5833C30.1817 22.9167 30.6667 23.4017 30.6667 24C30.6667 24.5983 30.1817 25.0833 29.5833 25.0833H17.5301C17.0491 26.9523 15.3525 28.3333 13.3333 28.3333C10.9401 28.3333 9 26.3932 9 24ZM15.5 24C15.5 22.8034 14.53 21.8333 13.3333 21.8333C12.1367 21.8333 11.1667 22.8034 11.1667 24C11.1667 25.1967 12.1367 26.1667 13.3333 26.1667C14.53 26.1667 15.5 25.1967 15.5 24Z" fill="#E63946"/>
</svg>
