<svg width="14" height="16" viewBox="0 0 14 16" fill="none" xmlns="http://www.w3.org/2000/svg">
<path fill-rule="evenodd" clip-rule="evenodd" d="M1.89594 5.44688C2.04642 2.73359 4.22508 0.496826 6.99999 0.496826C7.60331 0.496826 8.18322 0.604421 8.72145 0.801919C9.12293 0.949234 9.32453 1.38249 9.17178 1.76962C9.01902 2.15675 8.5697 2.35116 8.16821 2.20385C7.80266 2.0697 7.40996 1.99683 6.99999 1.99683C5.31139 1.99683 3.83024 3.26587 3.50802 5.02644C3.54116 5.02425 3.57452 5.02226 3.60814 5.02041C4.03787 4.99682 4.55883 4.99683 5.18721 4.99683H8.81276C9.4412 4.99683 9.96216 4.99682 10.3919 5.02041C10.8284 5.04437 11.2238 5.09456 11.5901 5.21745C11.6803 5.2477 11.7684 5.2822 11.8546 5.32151C12.8017 5.75292 13.5123 6.5665 13.8359 7.54608C13.9705 7.95355 14.0054 8.3812 13.9994 8.86638C13.9935 9.34068 13.9467 9.92388 13.8882 10.6524L13.8861 10.6784C13.8819 10.7308 13.8778 10.7825 13.8738 10.8334C13.7826 11.9751 13.721 12.7461 13.4243 13.3757C13.0292 14.2139 12.3376 14.8827 11.4718 15.2332C11.1089 15.3802 10.732 15.4408 10.3141 15.4693C9.91106 15.4968 9.41966 15.4968 8.8189 15.4968H5.18108C4.58036 15.4968 4.08897 15.4968 3.68587 15.4693C3.26798 15.4408 2.89112 15.3802 2.52821 15.2332C1.66241 14.8827 0.970805 14.2139 0.575748 13.3757C0.279011 12.7461 0.217434 11.9751 0.126279 10.8334C0.122211 10.7825 0.118089 10.7308 0.113881 10.6784L0.111797 10.6524C0.0533077 9.92395 0.00648556 9.34068 0.000636678 8.86638C-0.0053522 8.3812 0.0295311 7.95355 0.164102 7.54608C0.458607 6.65448 1.07373 5.90044 1.89594 5.44688ZM3.69655 6.51798C3.31791 6.53875 3.08819 6.57805 2.92096 6.63415C2.88095 6.64758 2.84423 6.66213 2.80979 6.6778C2.27684 6.92058 1.84696 7.39383 1.64629 8.00133C1.58426 8.18913 1.55097 8.4343 1.55608 8.84853C1.56125 9.26793 1.60375 9.80223 1.66479 10.5627C1.77366 11.919 1.824 12.3988 1.9919 12.7551C2.23402 13.2687 2.64571 13.6539 3.13051 13.8502C3.27407 13.9084 3.46264 13.9503 3.79574 13.9731C4.13741 13.9964 4.57362 13.9968 5.20894 13.9968H8.79106C9.42634 13.9968 9.8626 13.9964 10.2043 13.9731C10.5374 13.9503 10.7259 13.9084 10.8695 13.8502C11.3543 13.6539 11.766 13.2687 12.0081 12.7551C12.176 12.3988 12.2263 11.919 12.3352 10.5627C12.3962 9.80223 12.4388 9.26793 12.4439 8.84853C12.449 8.4343 12.4157 8.18913 12.3537 8.00133C12.153 7.39383 11.7231 6.92058 11.1902 6.6778C11.1557 6.66213 11.119 6.64758 11.079 6.63415C10.9118 6.57805 10.6821 6.53875 10.3034 6.51798C9.92303 6.49713 9.44602 6.49683 8.79106 6.49683H5.20894C4.55395 6.49683 4.07697 6.49713 3.69655 6.51798ZM5.49982 9.49683C5.49982 8.72148 6.11838 7.99683 6.99999 7.99683C7.8816 7.99683 8.50017 8.72148 8.50017 9.49683C8.50017 10.0149 8.22406 10.5103 7.77777 10.782V11.7468C7.77777 12.1611 7.42956 12.4968 6.99999 12.4968C6.57043 12.4968 6.22221 12.1611 6.22221 11.7468V10.782C5.77593 10.5103 5.49982 10.0149 5.49982 9.49683Z" fill="white"/>
</svg>
