<svg width="160" height="178" viewBox="0 0 160 178" fill="none" xmlns="http://www.w3.org/2000/svg">
<path d="M7.88166 39.9516L43.3134 72.6949C43.42 72.7936 43.4831 72.9307 43.4888 73.076C43.4946 73.2213 43.4426 73.3629 43.3442 73.4698L43.3134 73.5007L7.18038 106.616C7.07376 106.712 7.00925 106.846 7.00092 106.989C6.99259 107.132 7.04111 107.273 7.13591 107.381C7.18817 107.438 7.25161 107.483 7.32224 107.514C7.39288 107.546 7.46919 107.562 7.54641 107.562H31.3561C31.4936 107.562 31.6259 107.51 31.7272 107.417L55.5366 85.302C55.6381 85.206 55.7724 85.1526 55.912 85.1526C56.0516 85.1526 56.1859 85.206 56.2875 85.302L78.6754 107.391C78.7262 107.441 78.7864 107.48 78.8524 107.507C78.9185 107.533 78.9891 107.546 79.0603 107.545H107.197C107.268 107.546 107.339 107.533 107.405 107.507C107.471 107.481 107.531 107.442 107.582 107.392C107.633 107.342 107.673 107.283 107.701 107.217C107.729 107.152 107.744 107.082 107.744 107.01C107.747 106.934 107.733 106.858 107.703 106.788C107.674 106.718 107.629 106.655 107.573 106.604L70.6853 72.4292C70.578 72.3317 70.5132 72.1958 70.5049 72.0509C70.4966 71.906 70.5454 71.7636 70.6408 71.6543L70.6853 71.6149L82.3744 61.4833C82.4888 61.398 82.5647 61.2706 82.5855 61.1292C82.6064 60.9878 82.5704 60.8439 82.4856 60.729C82.4349 60.66 82.3682 60.6044 82.2914 60.5667C82.2146 60.5291 82.1298 60.5107 82.0443 60.513H58.3102C58.1694 60.511 58.0349 60.4538 57.9356 60.3536L36.759 39.1544C36.7069 39.1039 36.6453 39.0642 36.5778 39.0377C36.5102 39.0112 36.4381 38.9985 36.3656 39.0001H8.24769C8.13917 39.0023 8.03375 39.0367 7.9448 39.0991C7.85586 39.1614 7.78743 39.2489 7.74819 39.3503C7.70896 39.4518 7.7007 39.5626 7.72447 39.6687C7.74823 39.7749 7.80295 39.8715 7.88166 39.9464" fill="white"/>
<path d="M128.85 39H81.1652C81.0566 39.0028 80.9529 39.045 80.8738 39.1185L63.0834 55.9979C63.0099 56.0782 62.9692 56.1826 62.9692 56.2909C62.9692 56.3991 63.0099 56.5035 63.0834 56.5838C63.1237 56.6284 63.1735 56.6637 63.2292 56.6871C63.285 56.7105 63.3452 56.7215 63.4057 56.7193L127.324 56.3705C133.775 56.5398 136.827 59.8249 137.106 63.6028C137.106 68.2003 134.685 72.3405 125.527 72.3405H93.6289C93.5155 72.3462 93.4086 72.3947 93.3304 72.476C93.2523 72.5573 93.2087 72.6652 93.2089 72.7774V86.7171C93.2084 86.7726 93.2196 86.8276 93.2417 86.8786C93.2638 86.9296 93.2964 86.9755 93.3375 87.0135L112.945 106.067C113.007 106.116 113.081 106.148 113.16 106.159C113.239 106.17 113.319 106.16 113.392 106.129C113.466 106.099 113.53 106.05 113.577 105.986C113.624 105.923 113.654 105.849 113.662 105.771V90.1225C113.662 90.0651 113.673 90.0083 113.695 89.9553C113.718 89.9023 113.75 89.8541 113.791 89.8135C113.832 89.773 113.881 89.7408 113.935 89.7188C113.988 89.6969 114.046 89.6856 114.104 89.6856H122.316C140.266 90.7524 153.919 81.9419 153.919 64.0871C153.674 53.5036 147.286 40.0668 128.85 39Z" fill="white"/>
<path d="M27.2746 128.062C27.2746 133.821 22.5438 138.347 16.6082 138.347H8.46892V117.778H16.6082C22.5438 117.778 27.2746 122.303 27.2746 128.062ZM16.1969 121.245H12.4357V134.879H16.1969C20.1049 134.879 23.2196 131.882 23.2196 128.062C23.2196 124.213 20.1049 121.245 16.1969 121.245Z" fill="white"/>
<path d="M31.8176 138.347V117.778H44.7759V121.245H35.7844V126.329H44.482V129.708H35.7844V134.879H44.7759V138.347H31.8176Z" fill="white"/>
<path d="M62.6151 134.879V138.347H49.6568V117.778H53.6236V134.879H62.6151Z" fill="white"/>
<path d="M71.0324 138.347H67.0656V117.778H71.0324V138.347Z" fill="white"/>
<path d="M83.0614 138.347L74.3932 117.778H78.7714L85.1477 133.645L91.524 117.778H95.7259L87.0576 138.347H83.0614Z" fill="white"/>
<path d="M99.0997 138.347V117.778H112.058V121.245H103.067V126.329H111.764V129.708H103.067V134.879H112.058V138.347H99.0997Z" fill="white"/>
<path d="M132.483 138.347H128.105L123.962 131.206H120.876V138.347H116.821V117.778H125.049C126.959 117.778 128.575 118.454 129.897 119.776C131.219 121.098 131.895 122.714 131.895 124.595C131.895 127.151 130.309 129.502 127.929 130.589L132.483 138.347ZM125.049 121.568H120.876V127.651H125.049C126.577 127.651 127.84 126.27 127.84 124.595C127.84 122.92 126.577 121.568 125.049 121.568Z" fill="white"/>
<path d="M145.295 138.347H141.328V129.766L133.277 117.778H138.096L143.385 126.035L148.674 117.778H153.375L145.295 129.825V138.347Z" fill="white"/>
</svg>
