<svg width="42" height="42" viewBox="0 0 42 42" fill="none" xmlns="http://www.w3.org/2000/svg">
    <path d="M0.3 8C0.3 3.74741 3.74741 0.3 8 0.3H34C38.2526 0.3 41.7 3.74741 41.7 8V34C41.7 38.2526 38.2526 41.7 34 41.7H8C3.74741 41.7 0.3 38.2526 0.3 34V8Z" fill="#ECF6FA" stroke="#C0D4DC" stroke-width="0.6"/>
    <path fill-rule="evenodd" clip-rule="evenodd" d="M27.3333 20.6667C29.7265 20.6667 31.6667 18.7265 31.6667 16.3333C31.6667 13.9401 29.7265 12 27.3333 12C25.3142 12 23.6176 13.381 23.1365 15.25H11.0833C10.485 15.25 10 15.735 10 16.3333C10 16.9316 10.485 17.4167 11.0833 17.4167H23.1365C23.6176 19.2856 25.3142 20.6667 27.3333 20.6667ZM25.1667 16.3333C25.1667 17.53 26.1367 18.5 27.3333 18.5C28.53 18.5 29.5 17.53 29.5 16.3333C29.5 15.1367 28.53 14.1667 27.3333 14.1667C26.1367 14.1667 25.1667 15.1367 25.1667 16.3333ZM10 25C10 22.6068 11.9401 20.6667 14.3333 20.6667C16.3525 20.6667 18.0491 22.0477 18.5301 23.9167H30.5833C31.1817 23.9167 31.6667 24.4017 31.6667 25C31.6667 25.5983 31.1817 26.0833 30.5833 26.0833H18.5301C18.0491 27.9523 16.3525 29.3333 14.3333 29.3333C11.9401 29.3333 10 27.3932 10 25ZM16.5 25C16.5 23.8034 15.53 22.8333 14.3333 22.8333C13.1367 22.8333 12.1667 23.8034 12.1667 25C12.1667 26.1967 13.1367 27.1667 14.3333 27.1667C15.53 27.1667 16.5 26.1967 16.5 25Z" fill="#061229"/>
</svg>
