<svg width="35" height="35" viewBox="0 0 35 35" fill="none" xmlns="http://www.w3.org/2000/svg">
<g id="Group 19380">
<path id="Rectangle 5696" d="M34.4273 17.6125C34.4273 8.11409 26.7266 0.414062 17.2273 0.414062C7.72805 0.414062 0.0273438 8.11409 0.0273438 17.6125C0.0273438 27.111 7.72805 34.811 17.2273 34.811C26.7266 34.811 34.4273 27.111 34.4273 17.6125Z" fill="#C7112B"/>
<path id="ic_view_details" d="M24.3243 16.8281H10.5563C10.4015 16.8281 10.2531 16.8896 10.1436 16.9991C10.0341 17.1085 9.97266 17.2569 9.97266 17.4117C9.97266 17.5665 10.0341 17.7149 10.1436 17.8244C10.2531 17.9338 10.4015 17.9953 10.5563 17.9953H24.3243C24.4791 17.9953 24.6276 17.9338 24.737 17.8244C24.8465 17.7149 24.908 17.5665 24.908 17.4117C24.908 17.2569 24.8465 17.1085 24.737 16.9991C24.6276 16.8896 24.4791 16.8281 24.3243 16.8281Z" fill="white" stroke="white" stroke-width="0.5"/>
</g>
</svg>
