<svg width="34" height="32" viewBox="0 0 34 32" fill="none" xmlns="http://www.w3.org/2000/svg">
<path d="M11.2747 2.99878H9.82224C7.58482 7.67597 7.6997 12.9711 9.90213 18.0005C10.1771 18.5333 11.0541 18.5333 11.4438 18.5333C14.3644 16.6921 15.2884 13.6907 15.2685 10.7137C15.1554 5.28727 12.444 3.46482 11.2747 2.99878Z" fill="#EFEDFF"/>
<path d="M9.90213 18.0005C8.80922 13.0778 8.65629 7.7789 9.82225 2.99878H9.37447C7.56357 2.99878 5.18928 3.84818 4.09783 5.29371L0.834761 9.61424C0.280003 10.3483 0.42603 11.3931 1.16015 11.9478L2.09223 12.6519C2.82628 13.2067 3.87112 13.0607 4.42581 12.3265L5.8313 10.4663V18.1572C6.01119 19.1556 9.09908 19.6889 9.90213 18.0005Z" fill="#DEDEF9"/>
<path d="M33.1653 9.61424L29.9022 5.29371C28.8108 3.84818 27.1039 2.99878 25.2931 2.99878H22.7101C20.9397 3.29814 15.1375 8.85461 15.0258 17.0185C18.0002 19.7668 25.0677 20.2642 28.1688 18.1573V10.4663L29.5743 12.3265C30.129 13.0607 31.1738 13.2066 31.9078 12.6519L32.8399 11.9478C33.574 11.3931 33.72 10.3483 33.1653 9.61424Z" fill="#EFEDFF"/>
<path d="M27.7686 27.4483L27.2772 21.0009C21.5912 19.1131 16.0782 19.2722 10.698 21.0009C10.6906 24.7726 11.99 28.0418 15.3831 30.502H24.9383C26.5911 30.502 27.8939 29.0958 27.7686 27.4483Z" fill="#EFEDFF"/>
<path d="M6.72278 21.0008L6.23137 27.4483C6.106 29.0958 7.40882 30.5019 9.06167 30.5019H15.3831C13.4546 27.8812 11.8297 24.6476 10.6981 21.0008C9.27437 20.0442 7.94392 19.9927 6.72278 21.0008Z" fill="#DEDEF9"/>
<path d="M21.1151 1.49854V1.4992C20.7837 2.7147 19.7502 6.89849 16.9999 7.70659C13.7329 6.76515 12.7327 2.38127 12.8941 1.49854H21.1151Z" fill="#D8AA8B"/>
<path d="M17 7.70668C17.4287 9.81249 16.7766 10.7327 15.2685 10.7137L11.384 3.36418C11.1506 2.92019 11.2844 2.37512 11.6934 2.09071L12.2895 1.67467C12.7617 1.34569 13.4182 1.48834 13.709 1.99203L17 7.70668Z" fill="#CCCCFA"/>
<path d="M22.292 2.08007L21.7099 1.67532C21.2376 1.34655 20.5804 1.48992 20.2911 1.99268C20.265 2.0379 11.0914 17.9669 11.072 18.0006L12.5458 18.5314C13.666 18.9348 14.872 18.199 15.0258 17.0184L22.592 3.3722C22.8328 2.93924 22.7176 2.37651 22.292 2.08007Z" fill="#DEDEF9"/>
<path d="M16.4625 15.4363C16.9761 15.4363 17.4644 15.2139 17.8023 14.8262C17.9832 14.6185 17.9615 14.3036 17.7539 14.1227C17.5463 13.9418 17.2314 13.9634 17.0505 14.1711C16.902 14.3415 16.6877 14.4392 16.4625 14.4392C16.2373 14.4392 16.0229 14.3415 15.8745 14.1711C15.6935 13.9635 15.3786 13.9419 15.171 14.1227C14.9634 14.3036 14.9418 14.6185 15.1226 14.8262C15.4605 15.2139 15.9489 15.4363 16.4625 15.4363Z" fill="black"/>
<path d="M21.2663 11C20.568 11 20 11.568 20 12.2663C20 12.5416 20.2232 12.7648 20.4986 12.7648C20.774 12.7648 20.9972 12.5416 20.9972 12.2663C20.9972 12.1179 21.1178 11.9972 21.2663 11.9972C21.4147 11.9972 21.5354 12.1179 21.5354 12.2663C21.5354 12.5416 21.7586 12.7648 22.034 12.7648C22.3094 12.7648 22.5326 12.5416 22.5326 12.2663C22.5326 11.568 21.9645 11 21.2663 11Z" fill="black"/>
<path d="M11.2663 11C10.568 11 10 11.568 10 12.2663C10 12.5416 10.2232 12.7648 10.4986 12.7648C10.774 12.7648 10.9972 12.5416 10.9972 12.2663C10.9972 12.1179 11.1178 11.9972 11.2663 11.9972C11.4147 11.9972 11.5354 12.1179 11.5354 12.2663C11.5354 12.5416 11.7586 12.7648 12.034 12.7648C12.3094 12.7648 12.5326 12.5416 12.5326 12.2663C12.5326 11.568 11.9645 11 11.2663 11Z" fill="black"/>
<path d="M10.6981 21.0009C11.5294 21.0009 26.6966 21.0009 27.5013 21.0009C28.329 21.0009 29.0014 20.3301 29.0014 19.5007C29.0014 18.6699 28.3273 18.0005 27.5013 18.0005C19.2264 18.0005 17.951 18.0005 9.90208 18.0005C9.39174 19.1558 9.65896 20.1571 10.6981 21.0009Z" fill="#008070"/>
<path d="M9.90216 18.0006C6.28661 18.0006 6.40328 17.9858 6.17504 18.036C5.4983 18.185 4.99866 18.7874 4.99866 19.5008C4.99866 20.3295 5.67009 21.0009 6.49884 21.0009C7.96735 21.0009 9.77181 21.0009 10.6982 21.0009C10.3965 20.029 10.1301 19.0275 9.90216 18.0006Z" fill="#005B50"/>
<path d="M16.3926 21.8758C15.4322 22.8365 15.7276 22.541 14.7677 23.5013C14.377 23.892 13.7436 23.892 13.3529 23.5013C12.9626 23.1097 12.9627 22.4779 13.3529 22.0864C14.8038 20.6362 13.839 21.601 15.1757 20.2642C16.4777 20.0891 16.7444 21.1725 16.3926 21.8758Z" fill="#008070"/>
<path d="M20.647 22.0864C21.0371 22.4771 21.0371 23.1105 20.647 23.5012C20.2588 23.8895 19.6245 23.8935 19.2322 23.5012C18.2726 22.5412 18.5677 22.8364 17.6074 21.8757C17.1222 21.267 17.5278 20.0502 18.8242 20.2642C20.1624 21.6024 19.1907 20.6308 20.647 22.0864Z" fill="#008070"/>
<path d="M19.7603 18.8607C19.6287 19.0581 20.3171 18.0255 17.9954 21.5077C17.5225 22.217 16.4789 22.2193 16.0044 21.5077C15.8729 21.3103 16.5613 22.3429 14.2396 18.8607C13.7102 18.0676 14.2786 17.0005 15.235 17.0005H18.7648C19.7223 17.0005 20.289 18.0686 19.7603 18.8607Z" fill="#005B50"/>
<path d="M6.72292 21.0007L6.23151 27.4481C6.106 29.0957 7.40889 30.5021 9.06174 30.5021H10.6117" stroke="black" stroke-width="1.08398" stroke-miterlimit="10" stroke-linecap="round" stroke-linejoin="round"/>
<path d="M27.277 21.0007L27.7684 27.4481C27.8939 29.0957 26.591 30.5021 24.9382 30.5021H12.9359" stroke="black" stroke-width="1.08398" stroke-miterlimit="10" stroke-linecap="round" stroke-linejoin="round"/>
<path d="M14.0544 18.0005C12.5931 18.0005 8.31273 18.0005 6.49884 18.0005C5.67188 18.0005 4.99866 18.6708 4.99866 19.5007C4.99866 20.3294 5.67009 21.0009 6.49884 21.0009C6.9771 21.0009 14.1332 21.0009 14.4391 21.0009" stroke="black" stroke-width="1.08398" stroke-miterlimit="10" stroke-linecap="round" stroke-linejoin="round"/>
<path d="M19.9457 18.0005H27.5013C27.7413 18.0005 27.968 18.0565 28.1687 18.1571C29.0857 18.6119 29.2877 19.8358 28.5621 20.5614C28.2908 20.8328 27.916 21.0009 27.5013 21.0009C26.2551 21.0009 20.5508 21.0009 19.5611 21.0009" stroke="black" stroke-width="1.08398" stroke-miterlimit="10" stroke-linecap="round" stroke-linejoin="round"/>
<path d="M22.7101 2.99878H25.293C27.1039 2.99878 28.8108 3.84818 29.9022 5.29371L33.1653 9.61424C33.72 10.3483 33.574 11.3931 32.8399 11.9478L31.9078 12.6519C31.1737 13.2067 30.1289 13.0607 29.5742 12.3265L28.1687 10.4663V18.1572" stroke="black" stroke-width="1.08398" stroke-miterlimit="10" stroke-linecap="round" stroke-linejoin="round"/>
<path d="M5.83134 18.1572V10.4663L4.42585 12.3265C3.87109 13.0606 2.82632 13.2066 2.09227 12.6519L1.16012 11.9478C0.426002 11.3931 0.280041 10.3483 0.834732 9.61424L4.0978 5.29371C5.18926 3.84818 7.56355 2.99878 9.37444 2.99878H11.2747" stroke="black" stroke-width="1.08398" stroke-miterlimit="10" stroke-linecap="round" stroke-linejoin="round"/>
<path d="M15.5 10.9999C15.5193 10.966 20.2652 2.03784 20.2911 1.99268C20.5807 1.48999 21.2374 1.34655 21.7102 1.67526L22.292 2.07967C22.7176 2.37651 22.8332 2.93897 22.5921 3.37194L19.7154 8.56092" stroke="black" stroke-width="1.08398" stroke-miterlimit="10" stroke-linecap="round" stroke-linejoin="round"/>
<path d="M17 7.70665L13.7089 1.99199C13.418 1.4881 12.7613 1.34586 12.2894 1.67463L11.6934 2.09067C11.2846 2.37495 11.1505 2.91995 11.384 3.36414L15.2684 10.7137" stroke="black" stroke-width="1.08398" stroke-miterlimit="10" stroke-linecap="round" stroke-linejoin="round"/>
<path d="M21.1151 1.49854H12.8941" stroke="black" stroke-width="1.08398" stroke-miterlimit="10" stroke-linecap="round" stroke-linejoin="round"/>
<path d="M16.0046 21.5077C15.873 21.3103 16.5615 22.3429 14.2397 18.8607C13.7103 18.0676 14.2787 17.0005 15.2351 17.0005H18.7649C19.7224 17.0005 20.289 18.0686 19.7603 18.8607C19.6288 19.0581 20.3172 18.0255 17.9954 21.5077C17.522 22.2178 16.4785 22.2187 16.0046 21.5077Z" stroke="black" stroke-width="1.08398" stroke-miterlimit="10" stroke-linecap="round" stroke-linejoin="round"/>
<path d="M16.392 21.8764L14.7678 23.5013C14.3771 23.892 13.7437 23.892 13.3529 23.5013C12.9627 23.1097 12.9627 22.4779 13.3529 22.0864C13.5399 21.8995 12.6769 22.7622 15.1751 20.2649" stroke="black" stroke-width="1.08398" stroke-miterlimit="10" stroke-linecap="round" stroke-linejoin="round"/>
<path d="M18.8249 20.2649C21.3231 22.7622 20.4602 21.8995 20.6471 22.0864C21.0372 22.4771 21.0372 23.1105 20.6471 23.5013C20.2588 23.8895 19.6245 23.8935 19.2323 23.5013L17.6081 21.8764" stroke="black" stroke-width="1.08398" stroke-miterlimit="10" stroke-linecap="round" stroke-linejoin="round"/>
</svg>
