<svg width="31" height="33" viewBox="0 0 31 33" fill="none" xmlns="http://www.w3.org/2000/svg">
<path d="M24.2725 30.7907C23.4514 25.921 19.2146 22.2114 14.1113 22.2114C9.00809 22.2114 4.77122 25.921 3.95015 30.7907C3.79808 31.6926 4.48804 32.5165 5.40264 32.5165H12.2797L13.8696 30.8727L15.948 32.5165H22.82C23.7346 32.5166 24.4246 31.6927 24.2725 30.7907Z" fill="#E9EFFF"/>
<path d="M25.6851 6.54108C26.7164 5.93583 27.3116 5.22351 27.3116 4.46097C27.3116 2.26432 22.3764 0.483643 16.2886 0.483643C12.2048 0.483643 8.6398 1.28499 6.73523 2.47563C5.942 2.97148 5.52112 3.8857 5.66636 4.80978C5.6672 4.8152 5.66803 4.82061 5.66894 4.82603C5.69691 5.0015 5.62981 5.17839 5.49063 5.28881C2.9754 7.28512 1.3622 10.3688 1.3622 13.8294C1.3622 15.1849 1.61038 16.4821 2.06259 17.6793H22.4575C22.5939 17.3181 22.7115 16.9476 22.8096 16.5693C23.9364 16.3962 25.0225 16.104 26.0531 15.7052C26.241 14.8668 26.3409 13.9965 26.3409 13.1034C26.3409 12.0933 26.2134 11.1121 25.9747 10.1736C26.8231 9.6671 27.3116 9.07333 27.3116 8.4383C27.3116 7.7343 26.711 7.08096 25.6851 6.54108Z" fill="#D8AA8B"/>
<path d="M13.6257 12.4368C11.4701 11.2507 10.0093 8.95794 10.0093 6.32371C10.0093 4.00096 11.1453 1.9438 12.8917 0.676514C10.2754 0.98207 8.0869 1.63057 6.73523 2.47562C5.942 2.97148 5.52112 3.8857 5.66636 4.80978C5.6672 4.8152 5.66803 4.82061 5.66894 4.82603C5.69685 5.0015 5.62981 5.17838 5.49063 5.28881C2.9754 7.28511 1.3622 10.3688 1.3622 13.8294C1.3622 15.1849 1.61038 16.4821 2.06259 17.6793H13.6257V12.4368Z" fill="#CF9671"/>
<path d="M8.93898 30.8578C9.62939 26.763 12.7352 23.4888 16.7403 22.5504C15.9009 22.3296 15.0199 22.2114 14.1113 22.2114C9.00802 22.2114 4.77116 25.921 3.95009 30.7907C3.79802 31.6926 4.48798 32.5165 5.40258 32.5165H9.95125C9.26839 32.3032 8.81257 31.6077 8.93898 30.8578Z" fill="#DAE2FE"/>
<path d="M15.948 32.5164L17.4994 21.332H10.7283L12.2797 32.5164H15.948Z" fill="#005B50"/>
<path d="M18.9617 20.1116L14.1113 25.0475C14.1113 25.0475 15.9873 28.4403 17.2013 28.4403C17.9213 28.4403 18.9522 26.1492 19.6719 24.2849C20.2188 22.8682 19.9477 21.2665 18.9617 20.1116Z" fill="#008070"/>
<path d="M9.26091 20.176L14.1113 25.112C14.1113 25.112 12.2353 28.5048 11.0213 28.5048C10.3014 28.5048 9.27039 26.2137 8.55072 24.3493C8.00388 22.9327 8.27488 21.331 9.26091 20.176Z" fill="#008070"/>
<path d="M3.56866 18.7962C5.05936 18.7962 6.26781 17.5878 6.26781 16.0971C6.26781 14.6064 5.05936 13.3979 3.56866 13.3979C2.07796 13.3979 0.869507 14.6064 0.869507 16.0971C0.869507 17.5878 2.07796 18.7962 3.56866 18.7962Z" fill="#FFE4C2"/>
<path d="M24.654 18.7962C26.1447 18.7962 27.3532 17.5878 27.3532 16.0971C27.3532 14.6064 26.1447 13.3979 24.654 13.3979C23.1633 13.3979 21.9549 14.6064 21.9549 16.0971C21.9549 17.5878 23.1633 18.7962 24.654 18.7962Z" fill="#FFE4C2"/>
<path d="M18.9855 10.9147C18.6029 10.6379 18.0565 10.8117 17.9234 11.2648C17.8459 11.5289 17.7164 11.7578 17.5317 11.9425C16.3563 13.118 13.3995 12.0669 10.9275 9.59492C10.4904 9.15785 10.098 8.70571 9.75451 8.25092C9.38745 7.76499 8.65502 7.76499 8.28797 8.25092C7.94444 8.70571 7.55205 9.15785 7.11499 9.59492C6.60412 10.1058 6.07255 10.5557 5.54028 10.9379C4.78167 11.4826 4.25958 12.303 4.10126 13.2234C4.00353 13.7917 3.95299 14.3761 3.95409 14.9725C3.96447 20.6925 8.76268 25.3063 14.479 25.1011C19.915 24.9059 24.2621 20.4375 24.2621 14.9537C24.2621 14.4814 24.2298 14.0167 24.1672 13.5615C24.0749 12.89 23.4919 12.3933 22.8145 12.4203C21.7667 12.462 20.3725 11.9182 18.9855 10.9147Z" fill="#FFF2DE"/>
<path d="M14.4625 18.4363C14.9761 18.4363 15.4644 18.2139 15.8023 17.8262C15.9832 17.6185 15.9615 17.3036 15.7539 17.1227C15.5462 16.9418 15.2313 16.9634 15.0504 17.1711C14.902 17.3415 14.6877 17.4392 14.4625 17.4392C14.2372 17.4392 14.0229 17.3415 13.8745 17.1711C13.6935 16.9635 13.3786 16.9419 13.171 17.1227C12.9634 17.3036 12.9418 17.6185 13.1226 17.8262C13.4605 18.2139 13.9489 18.4363 14.4625 18.4363Z" fill="black"/>
<path d="M8.17727 13.9412C8.17727 11.8576 8.74984 9.90808 9.74528 8.24015C9.37545 7.76557 8.65204 7.76873 8.28789 8.25085C7.94436 8.70564 7.55198 9.15779 7.11491 9.59485C6.60404 10.1057 6.07247 10.5557 5.5402 10.9378C4.78159 11.4825 4.2595 12.3029 4.10118 13.2234C4.00346 13.7916 3.95292 14.376 3.95401 14.9725C3.96439 20.6924 8.7626 25.3063 14.4789 25.101C15.2454 25.0735 15.9902 24.9609 16.7042 24.7727C11.8126 23.5966 8.17727 19.1937 8.17727 13.9412Z" fill="#FFE4C2"/>
<path d="M19.2663 14C18.5681 14 18 14.568 18 15.2663C18 15.5416 18.2232 15.7648 18.4986 15.7648C18.774 15.7648 18.9972 15.5416 18.9972 15.2663C18.9972 15.1179 19.1178 14.9972 19.2663 14.9972C19.4147 14.9972 19.5354 15.1179 19.5354 15.2663C19.5354 15.5416 19.7586 15.7648 20.034 15.7648C20.3094 15.7648 20.5326 15.5416 20.5326 15.2663C20.5326 14.568 19.9645 14 19.2663 14Z" fill="black"/>
<path d="M9.26627 14C8.56806 14 8.00002 14.568 8.00002 15.2663C8.00002 15.5416 8.22318 15.7648 8.49859 15.7648C8.77401 15.7648 8.99717 15.5416 8.99717 15.2663C8.99717 15.1179 9.11783 14.9972 9.26627 14.9972C9.41471 14.9972 9.53544 15.1179 9.53544 15.2663C9.53544 15.5416 9.7586 15.7648 10.034 15.7648C10.3094 15.7648 10.5326 15.5416 10.5326 15.2663C10.5326 14.568 9.96455 14 9.26627 14Z" fill="black"/>
<path d="M27.885 27.7355C29.1251 27.7355 30.1304 26.7302 30.1304 25.4901C30.1304 24.25 29.1251 23.2446 27.885 23.2446C26.6449 23.2446 25.6395 24.25 25.6395 25.4901C25.6395 26.7302 26.6449 27.7355 27.885 27.7355Z" fill="#6A647F"/>
<path d="M27.4681 25.4901C27.4681 24.5757 28.015 23.7895 28.7993 23.4393C28.5199 23.3146 28.2107 23.2446 27.885 23.2446C26.6448 23.2446 25.6395 24.2499 25.6395 25.4901C25.6395 26.7302 26.6448 27.7355 27.885 27.7355C28.2107 27.7355 28.5199 27.6656 28.7993 27.5409C28.015 27.1908 27.4681 26.4046 27.4681 25.4901Z" fill="#5C576E"/>
<path d="M30.614 25.4899C30.614 23.9852 29.3897 22.761 27.885 22.761C26.3802 22.761 25.156 23.9852 25.156 25.4899C25.156 26.6833 25.9263 27.6995 26.9956 28.0693C26.5188 29.0459 25.6171 29.7266 24.5787 29.8964C24.2648 28.6442 23.7251 27.461 22.9975 26.4041C24.446 24.344 25.2962 21.8383 25.4307 19.1834C26.8113 18.8358 27.8365 17.5841 27.8365 16.0971C27.8365 15.1717 27.4391 14.3374 26.8064 13.7554C26.8178 13.5384 26.8244 13.3195 26.8244 13.1034C26.8244 12.1917 26.7237 11.2823 26.5247 10.3951C27.5656 9.67848 27.795 8.94521 27.795 8.43827C27.795 7.92978 27.5663 7.2192 26.5808 6.5208C27.5668 5.75601 27.795 4.99817 27.795 4.46094C27.795 3.73121 27.3809 2.65693 25.4078 1.68288C25.1686 1.56479 24.8785 1.66296 24.7602 1.90238C24.6421 2.1418 24.7403 2.43169 24.9797 2.54992C26.1717 3.13834 26.8281 3.81701 26.8281 4.46094C26.8281 5.16243 26.0734 5.75252 25.4404 6.12409C25.289 6.21292 25.1977 6.37679 25.2017 6.55226C25.2058 6.72773 25.3046 6.88721 25.4599 6.96895C26.3423 7.43328 26.8282 7.95511 26.8282 8.43833C26.8282 8.86572 26.4371 9.3345 25.7269 9.75848C25.5432 9.86813 25.4534 10.0855 25.5061 10.2928C25.7392 11.2094 25.8575 12.155 25.8575 13.1035C25.8575 13.1194 25.8568 13.1355 25.8568 13.1514C25.4855 12.9992 25.0795 12.9147 24.654 12.9147C24.5918 12.9147 24.5295 12.9171 24.4673 12.9207C24.1572 12.3071 23.5152 11.9082 22.7952 11.9374C21.8605 11.9748 20.5441 11.4459 19.2689 10.5233C18.9583 10.2986 18.5569 10.2383 18.195 10.362C17.8345 10.4852 17.5665 10.7647 17.4595 11.1288C17.4037 11.3189 17.313 11.4777 17.1897 11.6009C16.7667 12.0239 15.9239 12.0531 14.8777 11.6812C13.6966 11.2614 12.4152 10.3991 11.2693 9.25334C10.8571 8.84123 10.4773 8.40603 10.1402 7.95982C9.87305 7.60617 9.46525 7.40331 9.02123 7.40331C8.57721 7.40331 8.16928 7.60611 7.90214 7.95982C7.56506 8.40603 7.18525 8.84123 6.77313 9.25334C6.29178 9.73456 5.78214 10.1693 5.25831 10.5454C4.46063 11.1182 3.89149 11.9731 3.67102 12.9168C3.63686 12.9157 3.60276 12.9148 3.56865 12.9148C2.93788 12.9148 2.34984 13.1 1.8547 13.4178C1.9726 10.3783 3.39183 7.57201 5.79129 5.66763C6.06584 5.44974 6.20186 5.09816 6.14642 4.75012C6.14635 4.7496 6.14532 4.74341 6.14526 4.7429L6.14397 4.73484C6.02922 4.00511 6.36192 3.27932 6.99147 2.88571C8.8845 1.70209 12.4469 0.966952 16.2886 0.966952C18.7726 0.966952 21.1946 1.27676 23.1086 1.83921C23.3646 1.9145 23.6335 1.76785 23.7088 1.51167C23.7841 1.25549 23.6375 0.986742 23.3812 0.911449C21.3522 0.315226 18.8996 0 16.2886 0C12.2151 0 8.54788 0.772143 6.47899 2.06554C5.52022 2.66492 5.0138 3.77156 5.18881 4.88478C5.18894 4.88562 5.19004 4.89213 5.19017 4.89297L5.19159 4.90199C5.19223 4.90599 5.19126 4.90909 5.19023 4.91005C2.45021 7.08453 0.878852 10.3355 0.878852 13.8292C0.878852 13.9794 0.881817 14.1315 0.887683 14.2813C0.888844 14.3109 0.892969 14.3396 0.899158 14.3675C0.575164 14.8659 0.386093 15.4596 0.386093 16.097C0.386093 17.5843 1.41164 18.8362 2.79264 19.1835C2.8446 20.2053 3.00254 21.2142 3.2651 22.1872C3.32331 22.4028 3.5185 22.5448 3.73155 22.5448C3.77326 22.5448 3.81568 22.5394 3.85784 22.528C4.11563 22.4584 4.26821 22.193 4.19865 21.9352C3.96575 21.0724 3.82103 20.1788 3.76572 19.273C3.96311 19.2609 4.15759 19.2309 4.34789 19.1829C4.90066 20.4492 5.70542 21.6093 6.73806 22.6037C7.08758 22.9403 7.45541 23.2495 7.83852 23.5317C7.84767 23.5936 7.8585 23.6552 7.87011 23.7166C7.11221 24.2553 6.43135 24.8879 5.8417 25.5934C5.50178 25.0796 5.19462 24.5305 4.92638 23.9478C4.81473 23.7053 4.52768 23.5992 4.28504 23.7109C4.04246 23.8225 3.93642 24.1097 4.04807 24.3522C4.38637 25.087 4.78102 25.7738 5.22433 26.4073C4.34144 27.691 3.73484 29.1604 3.47351 30.7103C3.37694 31.2829 3.5361 31.865 3.91018 32.3074C4.28226 32.7476 4.82627 32.9999 5.4027 32.9999H12.2778C12.2782 32.9999 12.2787 33 12.2791 33C12.2795 33 12.2797 32.9999 12.2801 32.9999H15.9478C15.9481 32.9999 15.9483 33 15.9487 33C15.9491 33 15.9496 32.9999 15.95 32.9999H22.8201C23.3965 32.9999 23.9405 32.7475 24.3125 32.3075C24.6574 31.8997 24.819 31.3733 24.7668 30.8451C26.1972 30.5999 27.4213 29.6128 27.9882 28.2162C29.4452 28.1618 30.614 26.9601 30.614 25.4899ZM23.5798 29.8998C22.6434 29.7543 21.8127 29.1948 21.299 28.3553C21.5431 28.1286 21.7804 27.89 22.0095 27.6386C22.1352 27.5006 22.2576 27.3595 22.377 27.216C22.9081 28.043 23.3159 28.9479 23.5798 29.8998ZM14.5948 32.033V31.2473C14.9498 31.2305 15.302 31.1951 15.6506 31.1417L15.5269 32.033H14.5948ZM12.7007 32.033L12.5772 31.1428C12.9237 31.1957 13.2742 31.2307 13.6278 31.2475V32.033H12.7007ZM14.9776 25.5558C16.4479 25.4371 17.8579 25.0187 19.1342 24.3333C17.8783 27.5338 17.2675 27.917 17.1831 27.9562C16.7991 27.9305 15.9539 27.1092 14.9776 25.5558ZM11.0395 28.0206C10.9541 27.9808 10.3325 27.5902 9.05256 24.3061C10.3549 25.0172 11.7894 25.4443 13.2832 25.5592C12.2986 27.137 11.4213 27.9938 11.0395 28.0206ZM13.1612 27.4251C13.3253 27.2156 13.4822 26.9997 13.6279 26.79V30.2782C13.2262 30.257 12.829 30.2097 12.4378 30.1371L12.2043 28.4539C12.5017 28.2031 12.8182 27.8629 13.1612 27.4251ZM14.5948 30.2795V26.7358C15.0439 27.3854 15.5363 27.9884 16.0314 28.3963L15.7897 30.139C15.3983 30.211 14.9997 30.2586 14.5948 30.2795ZM16.9389 28.8918C17.0272 28.912 17.1148 28.9237 17.2014 28.9237C17.7825 28.9237 18.5732 28.4131 20.0358 24.683C20.699 25.1859 21.2923 25.7689 21.8038 26.4142C20.485 28.0761 18.7572 29.3015 16.7999 29.8941L16.9389 28.8918ZM20.3409 23.7077C20.3512 23.6568 20.3613 23.606 20.3699 23.5549C20.8615 23.1958 21.3257 22.7925 21.7567 22.3466C22.6585 21.4138 23.3707 20.3426 23.8734 19.1826C24.0642 19.2309 24.2592 19.261 24.4571 19.273C24.3134 21.6533 23.5666 23.8274 22.3908 25.6042C21.796 24.8908 21.1081 24.2513 20.3409 23.7077ZM24.654 18.3127C24.5066 18.3127 24.3613 18.2981 24.2191 18.2699C24.5652 17.2121 24.7455 16.0955 24.7455 14.9537C24.7455 14.5963 24.7272 14.2375 24.6916 13.8824C25.896 13.9026 26.8696 14.888 26.8696 16.0971C26.8696 17.3188 25.8757 18.3127 24.654 18.3127ZM3.56865 18.3127C2.34694 18.3127 1.35298 17.3188 1.35298 16.097C1.35298 14.8901 2.32322 13.9061 3.52463 13.8825C3.4884 14.2444 3.4699 14.6092 3.4706 14.9734C3.47267 16.1115 3.65387 17.2205 3.99966 18.2707C3.85861 18.2984 3.71466 18.3127 3.56865 18.3127ZM4.43756 14.9716C4.43653 14.4125 4.48371 13.8519 4.57776 13.3054C4.71262 12.5214 5.16625 11.8017 5.8223 11.3306C6.38867 10.9239 6.93861 10.455 7.4569 9.93678C7.90047 9.49315 8.30988 9.02398 8.67371 8.54231C8.75648 8.43279 8.88315 8.36993 9.02129 8.36993C9.15938 8.36993 9.28592 8.43279 9.36875 8.54231C9.73271 9.02411 10.1421 9.49327 10.5856 9.93678C11.8309 11.1821 13.2402 12.1251 14.5539 12.592C15.9869 13.1015 17.1659 12.9922 17.8735 12.2844C18.1125 12.0455 18.2854 11.7483 18.3874 11.4011C18.4098 11.3246 18.4653 11.2912 18.5078 11.2767C18.5392 11.2661 18.6208 11.2476 18.7022 11.3064C20.1688 12.3674 21.6755 12.949 22.8337 12.9034C23.2617 12.8868 23.6292 13.1975 23.6883 13.6274C23.7484 14.0639 23.7787 14.5101 23.7787 14.9537C23.7787 20.1853 19.6863 24.4304 14.4618 24.6179C11.8272 24.7127 9.32234 23.7499 7.40887 21.9073C5.49753 20.0667 4.44233 17.6036 4.43756 14.9716ZM8.16722 24.6976C9.64246 28.4734 10.4376 28.9882 11.0213 28.9882C11.112 28.9882 11.2042 28.9764 11.2976 28.9552L11.4273 29.8898C9.50245 29.3028 7.76787 28.0933 6.42858 26.4031C6.933 25.7684 7.51627 25.1939 8.16722 24.6976ZM4.64848 31.6831C4.45857 31.4584 4.3778 31.1624 4.42686 30.871C4.64687 29.5662 5.13544 28.3239 5.84363 27.2201C7.38102 29.0747 9.37262 30.37 11.5726 30.9372L11.7246 32.033H5.40264C5.11139 32.033 4.83652 31.9054 4.64848 31.6831ZM23.5741 31.6831C23.3861 31.9055 23.1112 32.033 22.82 32.033H16.5031L16.6553 30.9356C18.0529 30.5745 19.3741 29.9166 20.5568 28.9899C21.2939 30.1068 22.4831 30.8107 23.7986 30.8958C23.8392 31.1791 23.7587 31.4648 23.5741 31.6831ZM27.885 27.2519C26.9134 27.2519 26.123 26.4615 26.123 25.4899C26.123 24.5184 26.9134 23.728 27.885 23.728C28.8566 23.728 29.647 24.5184 29.647 25.4899C29.647 26.4615 28.8566 27.2519 27.885 27.2519Z" fill="black"/>
</svg>
