<svg width="24" height="23" viewBox="0 0 24 23" fill="none" xmlns="http://www.w3.org/2000/svg">
<g id="ic_option_select">
<path id="Vector" d="M22.2373 11.5C22.2373 17.299 17.5363 22 11.7373 22C5.93832 22 1.2373 17.299 1.2373 11.5C1.2373 5.70101 5.93832 1 11.7373 1C15.0358 1 17.979 2.52095 19.904 4.89978" stroke="#C1C1C1" stroke-width="2" stroke-linecap="round"/>
<path id="Vector_2" d="M17.2371 7.24078C17.1831 7.30732 17.14 7.38415 17.0738 7.43866C15.8308 8.45717 14.7693 9.61752 13.7631 10.8201C12.4235 12.4213 11.208 14.0961 10.0714 15.8172C10.0246 15.8881 9.94028 15.9396 9.87335 16H9.75101C9.6885 15.9407 9.61274 15.8888 9.56591 15.8207C8.71569 14.587 7.76642 13.4138 6.82352 12.2368C6.65534 12.0269 6.48348 11.8191 6.31432 11.6094C6.20351 11.4722 6.21111 11.3818 6.34472 11.2632C6.56144 11.0705 6.77964 10.8794 6.99783 10.6881C7.15645 10.5491 7.23883 10.5434 7.42466 10.6592C8.17952 11.1294 8.93413 11.6 9.68874 12.0704C9.71203 12.0849 9.73581 12.0987 9.76744 12.1175C9.93194 11.9352 10.0935 11.7535 10.2585 11.574C11.6329 10.0776 13.1374 8.69904 14.8707 7.52906C15.1078 7.36905 15.3535 7.21889 15.6028 7.07464C15.6764 7.03217 15.7752 7.00766 15.8634 7.00569C16.2057 6.99781 16.5484 7.00788 16.8904 7.00021C17.0637 6.99627 17.1821 7.04596 17.2373 7.19678V7.24056L17.2371 7.24078Z" fill="#C1C1C1"/>
</g>
</svg>
