<svg width="43" height="43" viewBox="0 0 43 43" fill="none" xmlns="http://www.w3.org/2000/svg">
    <path d="M39.5977 18.3848L24.0413 2.82843C22.4792 1.26633 19.9466 1.26633 18.3845 2.82843L2.82811 18.3848C1.26602 19.9469 1.26602 22.4795 2.82811 24.0416L18.3845 39.598C19.9466 41.1601 22.4792 41.1601 24.0413 39.598L39.5977 24.0416C41.1598 22.4795 41.1598 19.9469 39.5977 18.3848Z" fill="#00C27C"/>
    <path d="M27.347 23.256C26.398 23.2579 25.4547 23.108 24.553 22.812C24.3462 22.7397 24.1235 22.7255 23.9091 22.7708C23.6948 22.8161 23.4969 22.9192 23.337 23.069L21.568 24.4C19.6657 23.4455 18.1225 21.9023 17.168 20L18.468 18.273C18.6282 18.1116 18.7409 17.9092 18.7938 17.6881C18.8467 17.4669 18.8378 17.2354 18.768 17.019C18.4705 16.1155 18.3195 15.1702 18.321 14.219C18.3181 13.8962 18.1885 13.5876 17.9601 13.3595C17.7317 13.1315 17.4228 13.0023 17.1 13H14.23C13.9038 13 13.5909 13.1296 13.3603 13.3603C13.1296 13.5909 13 13.9038 13 14.23C13.0042 18.0338 14.5171 21.6805 17.2068 24.3702C19.8965 27.0599 23.5432 28.5728 27.347 28.577C27.6732 28.577 27.9861 28.4474 28.2167 28.2167C28.4474 27.9861 28.577 27.6732 28.577 27.347V24.486C28.577 24.1598 28.4474 23.8469 28.2167 23.6163C27.9861 23.3856 27.6732 23.256 27.347 23.256Z" fill="white"/>
</svg>
