<svg width="40" height="40" viewBox="0 0 40 40" fill="none" xmlns="http://www.w3.org/2000/svg">
<path d="M39.0493 24.0189L36.9317 22.505L36.9032 16.5391C36.9006 15.9942 36.5069 15.6161 35.9421 15.6161H29.3837L25.3564 30.6462H36.629C37.3207 30.6462 38.0318 30.0854 38.2171 29.3937L39.3695 25.0928C39.4875 24.6529 39.3659 24.2453 39.0493 24.0189Z" fill="#CF9671"/>
<path d="M29.4496 28.7676C29.3595 28.7676 29.238 28.749 29.1705 28.661C29.1098 28.5819 29.0978 28.4516 29.1376 28.3033L29.8522 25.6363H26.6989L25.3564 30.6463H36.629C37.3208 30.6463 38.0317 30.0855 38.2171 29.3938L38.3849 28.7676H29.4496Z" fill="#BB8461"/>
<path d="M39.0486 24.0189L36.9311 22.505L36.9026 16.5391C36.9 15.9942 36.5063 15.6161 35.9415 15.6161H32.5365L29.8516 25.6362H39.2233L39.369 25.0928C39.4868 24.6529 39.3653 24.2453 39.0486 24.0189Z" fill="#D8AA8B"/>
<path d="M12.8104 14.3637H30.3455C30.6914 14.3637 30.8966 14.6441 30.8039 14.99L26.6088 30.6463H8.44747C8.10162 30.6463 7.89639 30.3659 7.98904 30.02L12.0163 14.99C12.109 14.6441 12.4645 14.3637 12.8104 14.3637Z" fill="#008070"/>
<path d="M26.6089 30.6463L27.1123 28.7676H26.9445H11.0256C10.6221 28.7676 10.3283 28.3848 10.4328 27.995L10.9242 26.1603C11.0171 25.8136 11.3834 25.6317 11.7245 25.7435C12.9919 26.1589 14.3309 26.328 15.6891 26.2397C20.6047 25.9203 24.5307 22.0823 25.4673 17.2463C25.6623 16.2395 25.6851 15.4741 25.5524 14.3637H12.8104C12.4645 14.3637 12.109 14.6441 12.0163 14.9899L7.98905 30.02C7.89639 30.3658 8.10155 30.6462 8.44748 30.6462H26.6089V30.6463Z" fill="#005B50"/>
<path d="M34.9714 32.2921C36.1621 31.25 36.4806 29.6664 35.6829 28.7549C34.8852 27.8434 33.2733 27.9492 32.0826 28.9912C30.892 30.0332 30.5734 31.6169 31.3712 32.5284C32.1689 33.4399 33.7808 33.3341 34.9714 32.2921Z" fill="#5D5360"/>
<path d="M15.5495 32.302C16.7402 31.26 17.0587 29.6763 16.261 28.7648C15.4633 27.8533 13.8514 27.9591 12.6608 29.0012C11.4701 30.0432 11.1516 31.6268 11.9493 32.5383C12.747 33.4498 14.3589 33.344 15.5495 32.302Z" fill="#5D5360"/>
<path d="M32.5483 22.505H36.9321L36.9112 18.1212H33.723C33.0313 18.1212 32.3203 18.682 32.1349 19.3737L31.6314 21.2524C31.446 21.9442 31.8565 22.505 32.5483 22.505Z" fill="#DBEAFF"/>
<path d="M15 24C19.9706 24 24 20.1944 24 15.5C24 10.8056 19.9706 7 15 7C10.0294 7 6 10.8056 6 15.5C6 20.1944 10.0294 24 15 24Z" fill="#DEDEF9"/>
<path d="M15.5 23C19.6421 23 23 19.6421 23 15.5C23 11.3579 19.6421 8 15.5 8C11.3579 8 8 11.3579 8 15.5C8 19.6421 11.3579 23 15.5 23Z" fill="#EFEDFF"/>
<path d="M36.9311 22.505L36.9222 20.6263H34.1355C34.0455 20.6263 33.924 20.6077 33.8565 20.5197C33.7958 20.4406 33.7838 20.3103 33.8235 20.162L34.327 18.2832L34.3704 18.1212H33.7221C33.0303 18.1212 32.3193 18.682 32.1339 19.3737L31.6304 21.2524C31.4451 21.9442 31.8557 22.5049 32.5474 22.5049L36.9311 22.505Z" fill="#C3DDFF"/>
<path d="M33.498 30.0603C33.1745 30.0603 32.9121 30.3227 32.9121 30.6463C32.9121 30.9699 33.1745 31.2322 33.498 31.2322H33.5043C33.8279 31.2322 34.0871 30.9699 34.0871 30.6463C34.0871 30.3227 33.8217 30.0603 33.498 30.0603Z" fill="black"/>
<path d="M14.084 30.0603C13.7604 30.0603 13.498 30.3227 13.498 30.6463C13.498 30.9699 13.7604 31.2322 14.084 31.2322H14.0902C14.4138 31.2322 14.673 30.9699 14.673 30.6463C14.673 30.3227 14.4077 30.0603 14.084 30.0603Z" fill="black"/>
<path d="M39.3897 23.5423L37.5159 22.2026L37.4888 16.5364C37.4846 15.6637 36.834 15.0303 35.9418 15.0303H31.3934C31.4467 14.7214 31.3783 14.4176 31.1981 14.1828C31.0006 13.9255 30.6898 13.7778 30.3453 13.7778H26.2621C25.9385 13.7778 25.6762 14.0401 25.6762 14.3637C25.6762 14.6873 25.9385 14.9497 26.2621 14.9497L30.2079 14.9497L26.159 30.0603H17.2606C17.2726 29.4735 17.1059 28.9235 16.7714 28.4876C16.3101 27.8865 15.594 27.5553 14.7548 27.5553C13.2467 27.5553 11.7497 28.6252 11.16 30.0603L8.58466 30.0603L9.72949 25.7877C9.81324 25.4752 9.62777 25.1539 9.31512 25.0701C9.00309 24.9867 8.6813 25.1718 8.59747 25.4845L7.42287 29.8684C7.33006 30.2146 7.39264 30.5642 7.59451 30.8272C7.79201 31.0846 8.10287 31.2322 8.44732 31.2322H10.9067C10.8946 31.8191 11.0613 32.369 11.3957 32.8048C11.857 33.4061 12.5732 33.7372 13.4123 33.7372C14.9204 33.7372 16.4175 32.6673 17.0071 31.2322H30.3205C30.3085 31.8191 30.4751 32.369 30.8096 32.8048C31.2709 33.4061 31.987 33.7372 32.8262 33.7372C34.3343 33.7372 35.8313 32.6673 36.421 31.2322H36.6287C37.5831 31.2322 38.5294 30.4913 38.7828 29.5454L39.9352 25.2445C40.1172 24.5652 39.9082 23.9129 39.3897 23.5423ZM16.0226 30.4946C15.7218 31.617 14.5265 32.5653 13.4123 32.5653C12.9459 32.5653 12.5599 32.397 12.3254 32.0915C12.0732 31.7629 12.009 31.3035 12.1445 30.7979C12.4452 29.6754 13.6406 28.7272 14.7548 28.7272C15.2212 28.7272 15.6072 28.8954 15.8418 29.201C16.0939 29.5296 16.1582 29.989 16.0226 30.4946ZM36.3426 21.919H32.5476C32.4485 21.919 32.3141 21.8979 32.2366 21.7968C32.1682 21.7077 32.1537 21.5646 32.1967 21.4041L32.7001 19.5254C32.8169 19.0895 33.2945 18.7072 33.7222 18.7072H36.3272L36.3426 21.919ZM35.4365 30.4946C35.1357 31.617 33.9404 32.5653 32.8262 32.5653C32.3598 32.5653 31.9738 32.397 31.7392 32.0915C31.487 31.7629 31.4228 31.3035 31.5584 30.7979C31.8591 29.6754 33.0544 28.7272 34.1687 28.7272C34.6351 28.7272 35.0211 28.8954 35.2556 29.201C35.5077 29.5296 35.572 29.989 35.4365 30.4946ZM37.6508 29.2422C37.5381 29.6625 37.0899 30.0321 36.6744 30.0579C36.6859 29.472 36.5192 28.9229 36.1852 28.4877C35.7239 27.8865 35.0077 27.5554 34.1686 27.5554C32.6605 27.5554 31.1635 28.6253 30.5738 30.0604H27.3722L28.4006 26.2223H35.466C35.7896 26.2223 36.0519 25.9599 36.0519 25.6363C36.0519 25.3127 35.7896 25.0504 35.466 25.0504H28.7146L31.0854 16.2022H35.9417C36.1121 16.2022 36.3155 16.2612 36.3168 16.5421L36.3216 17.5354H33.7221C32.7677 17.5354 31.8214 18.2763 31.568 19.2222L31.0646 21.1009C30.9266 21.6161 31.0149 22.1297 31.3068 22.5102C31.59 22.8793 32.0423 23.091 32.5475 23.091H36.7434L38.7081 24.4956C38.8751 24.615 38.8231 24.867 38.8031 24.9413L38.7739 25.0504H37.971C37.6474 25.0504 37.3851 25.3127 37.3851 25.6363C37.3851 25.9599 37.6474 26.2223 37.971 26.2223H38.4599L37.6508 29.2422Z" fill="black"/>
<path d="M15.5 25C20.7383 25 25 20.7384 25 15.5C25 10.2616 20.7383 6 15.5 6C10.2617 6 6 10.2617 6 15.5C6 20.7383 10.2617 25 15.5 25ZM15.5 7.19022C20.082 7.19022 23.8098 10.918 23.8098 15.5C23.8098 20.082 20.0821 23.8098 15.5 23.8098C10.9179 23.8098 7.19022 20.082 7.19022 15.5C7.19022 10.918 10.918 7.19022 15.5 7.19022Z" fill="black"/>
<path d="M6.84844 23.1715H0.585931C0.262341 23.1715 0 23.4339 0 23.7575C0 24.081 0.262341 24.3434 0.585931 24.3434H6.84844C7.17203 24.3434 7.43437 24.081 7.43437 23.7575C7.43437 23.4339 7.17203 23.1715 6.84844 23.1715Z" fill="black"/>
<path d="M6.22242 25.6766H2.46484C2.14125 25.6766 1.87891 25.9389 1.87891 26.2625C1.87891 26.5861 2.14125 26.8484 2.46484 26.8484H6.22242C6.54602 26.8484 6.80836 26.5861 6.80836 26.2625C6.80836 25.9389 6.54602 25.6766 6.22242 25.6766Z" fill="black"/>
<path d="M5.59625 28.1815H4.34375C4.02016 28.1815 3.75781 28.4439 3.75781 28.7675C3.75781 29.0911 4.02016 29.3534 4.34375 29.3534H5.59625C5.91984 29.3534 6.18219 29.0911 6.18219 28.7675C6.18219 28.4439 5.91984 28.1815 5.59625 28.1815Z" fill="black"/>
<path d="M15.4625 18.4363C15.9761 18.4363 16.4644 18.2139 16.8023 17.8262C16.9832 17.6185 16.9615 17.3036 16.7539 17.1227C16.5463 16.9418 16.2314 16.9634 16.0505 17.1711C15.902 17.3415 15.6877 17.4392 15.4625 17.4392C15.2373 17.4392 15.0229 17.3415 14.8745 17.1711C14.6935 16.9635 14.3786 16.9419 14.171 17.1227C13.9634 17.3036 13.9418 17.6185 14.1226 17.8262C14.4605 18.2139 14.9489 18.4363 15.4625 18.4363Z" fill="black"/>
<path d="M20.2663 14C19.568 14 19 14.568 19 15.2663C19 15.5416 19.2232 15.7648 19.4986 15.7648C19.774 15.7648 19.9972 15.5416 19.9972 15.2663C19.9972 15.1179 20.1178 14.9972 20.2663 14.9972C20.4147 14.9972 20.5354 15.1179 20.5354 15.2663C20.5354 15.5416 20.7586 15.7648 21.034 15.7648C21.3094 15.7648 21.5326 15.5416 21.5326 15.2663C21.5326 14.568 20.9645 14 20.2663 14Z" fill="black"/>
<path d="M11.2663 14C10.568 14 10 14.568 10 15.2663C10 15.5416 10.2232 15.7648 10.4986 15.7648C10.774 15.7648 10.9972 15.5416 10.9972 15.2663C10.9972 15.1179 11.1178 14.9972 11.2663 14.9972C11.4147 14.9972 11.5354 15.1179 11.5354 15.2663C11.5354 15.5416 11.7586 15.7648 12.034 15.7648C12.3094 15.7648 12.5326 15.5416 12.5326 15.2663C12.5326 14.568 11.9645 14 11.2663 14Z" fill="black"/>
</svg>
