<svg width="66" height="63" viewBox="0 0 66 63" fill="none" xmlns="http://www.w3.org/2000/svg">
<path id="Vector" d="M65.6613 59.2173C60.9704 51.1198 53.458 45.0462 44.5689 42.1648C48.8274 39.6253 52.1363 35.7548 53.9874 31.1479C55.8384 26.541 56.1293 21.4524 54.8154 16.6638C53.5014 11.8751 50.6553 7.65123 46.7141 4.64082C42.7729 1.63041 37.9547 0 32.9994 0C28.0441 0 23.2259 1.63041 19.2847 4.64082C15.3435 7.65123 12.4974 11.8751 11.1834 16.6638C9.8695 21.4524 10.1604 26.541 12.0115 31.1479C13.8626 35.7548 17.1714 39.6253 21.4299 42.1648C12.5411 45.0462 5.02894 51.1195 0.337979 59.2167C0.00407474 59.7951 -0.0869023 60.4828 0.0850621 61.1284C0.257027 61.774 0.677846 62.3247 1.25495 62.6594C1.83204 62.994 2.51815 63.0852 3.16233 62.9129C3.8065 62.7405 4.35598 62.3188 4.68989 61.7404C7.55991 56.7609 11.6869 52.6261 16.6562 49.7515C21.6255 46.8768 27.2622 45.3635 32.9998 45.3636C38.7375 45.3636 44.3741 46.8771 49.3433 49.7518C54.3126 52.6266 58.4395 56.7615 61.3094 61.741C61.4746 62.0276 61.6946 62.2787 61.9567 62.4801C62.2188 62.6815 62.5179 62.8291 62.837 62.9146C63.156 63 63.4888 63.0217 63.8162 62.9782C64.1436 62.9347 64.4592 62.827 64.7451 62.6613C65.0309 62.4955 65.2814 62.2749 65.4821 62.0121C65.6829 61.7493 65.83 61.4494 65.9151 61.1296C66.0002 60.8097 66.0216 60.4762 65.978 60.1481C65.9345 59.82 65.8269 59.5037 65.6613 59.2173ZM15.4015 22.6867C15.4015 19.1984 16.4336 15.7883 18.3673 12.8879C20.301 9.98738 23.0494 7.72673 26.265 6.39179C29.4806 5.05685 33.0189 4.70756 36.4326 5.38811C39.8463 6.06866 42.9819 7.74847 45.443 10.2151C47.9041 12.6818 49.5802 15.8245 50.2592 19.2458C50.9382 22.6672 50.5897 26.2135 49.2578 29.4363C47.9258 32.6592 45.6702 35.4138 42.7763 37.3518C39.8823 39.2899 36.4799 40.3243 32.9994 40.3243C28.3338 40.319 23.8607 38.459 20.5616 35.1525C17.2625 31.846 15.4068 27.3629 15.4015 22.6867Z" fill="#E0E0E0"/>
</svg>
