<svg width="24" height="24" viewBox="0 0 24 24" fill="none" xmlns="http://www.w3.org/2000/svg">
<g id="Group 427321212">
<path id="Vector" d="M12 12C13.6569 12 15 10.6569 15 9C15 7.34315 13.6569 6 12 6C10.3431 6 9 7.34315 9 9C9 10.6569 10.3431 12 12 12Z" stroke="black" stroke-width="1.8"/>
<path id="Vector_2" d="M18 21C17.8401 17.5302 16.9502 15 12 15C7.04984 15 6.15997 17.5302 6 21" stroke="black" stroke-width="1.8" stroke-linecap="round"/>
<path id="Vector_3" d="M6.5 2.4716C8.11796 1.53567 9.99646 1 12 1C18.0751 1 23 5.92487 23 12C23 18.0751 18.0751 23 12 23C5.92487 23 1 18.0751 1 12C1 9.99646 1.53567 8.11796 2.4716 6.5" stroke="black" stroke-width="1.8" stroke-linecap="round"/>
</g>
</svg>
