<svg width="24" height="24" viewBox="0 0 24 24" fill="none" xmlns="http://www.w3.org/2000/svg">
<g id="Group 427321168">
<path id="Vector" d="M19.5 8C21.433 8 23 6.433 23 4.5C23 2.567 21.433 1 19.5 1C17.567 1 16 2.567 16 4.5C16 6.433 17.567 8 19.5 8Z" stroke="black" stroke-width="1.8"/>
<path id="Vector_2" d="M6 15H16" stroke="black" stroke-width="1.8" stroke-linecap="round"/>
<path id="Vector_3" d="M6 18H13" stroke="black" stroke-width="1.8" stroke-linecap="round"/>
<path id="Vector_4" d="M1 12C1 17.1854 1 19.7782 2.61092 21.389C4.22182 23 6.81455 23 12 23C17.1854 23 19.7782 23 21.389 21.389C23 19.7782 23 17.1854 23 12V10.35M13.65 1H12C6.81455 1 4.22182 1 2.61092 2.61092C1.5398 3.68203 1.18088 5.18721 1.06061 7.6" stroke="black" stroke-width="1.8" stroke-linecap="round"/>
</g>
</svg>
