<svg width="18" height="18" viewBox="0 0 18 18" fill="none" xmlns="http://www.w3.org/2000/svg">
<path d="M14.453 17.0176C13.2109 16.9213 12.0047 16.6575 10.8314 16.2459C8.99846 15.6031 7.35382 14.6357 5.90422 13.3433C3.84648 11.5088 2.40206 9.27503 1.57681 6.64382L1.57681 6.64381C1.28365 5.70864 1.09129 4.75185 0.994651 3.77824L0.994646 3.77819C0.94642 3.28918 0.930094 2.79613 0.925073 2.30641L0.925072 2.30637C0.917457 1.52662 1.5115 0.933172 2.28906 0.928876L2.28907 0.928876C3.26338 0.923552 4.23798 0.923866 5.21225 0.928876L5.21226 0.928876C5.95941 0.932844 6.53313 1.47928 6.57085 2.22546M14.453 17.0176L6.49595 2.22925M14.453 17.0176C14.5684 17.0267 14.6822 17.0408 14.7978 17.0551C14.8295 17.059 14.8614 17.063 14.8934 17.0668V17.0754H14.9684H15.9061H15.9158L15.9251 17.073C16.2566 16.9859 16.5876 16.8492 16.7925 16.5321L16.7925 16.5321C16.8536 16.4374 16.9011 16.3356 16.9438 16.235C16.9607 16.1952 16.9765 16.1565 16.9921 16.1183C17.017 16.0573 17.0413 15.9977 17.0684 15.9378L17.0751 15.923V15.9069V12.5948V12.5764L17.0665 12.5601C17.0632 12.5538 17.0598 12.5483 17.0573 12.5444L17.0539 12.539L17.0515 12.5352C17.0514 12.535 17.0513 12.5349 17.0512 12.5347C16.9249 11.8731 16.3379 11.4237 15.6404 11.4194C15.2028 11.4166 14.7616 11.383 14.3322 11.3093L14.3321 11.3093C13.9476 11.2434 13.5692 11.1471 13.1874 11.0499C13.0559 11.0164 12.9241 10.9828 12.7914 10.9504C12.3723 10.8477 11.984 10.916 11.6369 11.1781L11.6821 11.238L11.6369 11.1781C11.4107 11.349 11.1851 11.5202 10.9596 11.6913C10.5841 11.9764 10.2087 12.2613 9.83127 12.5439L9.83115 12.544C9.82668 12.5473 9.81112 12.5543 9.78822 12.557C9.77787 12.5582 9.76846 12.5582 9.76102 12.5573C9.7565 12.5568 9.75371 12.5561 9.75232 12.5557C9.75126 12.5554 9.75102 12.5552 9.75145 12.5554L9.75139 12.5554C8.99213 12.1471 8.27794 11.674 7.63062 11.1061L7.6306 11.1061C6.71481 10.3033 6.02397 9.32449 5.44475 8.25623M14.453 17.0176C14.453 17.0176 14.453 17.0176 14.4529 17.0176L7.58116 11.1625M6.57085 2.22546L6.49595 2.22925M6.57085 2.22546C6.57085 2.22545 6.57085 2.22544 6.57085 2.22543L6.49595 2.22925M6.57085 2.22546C6.60722 2.93806 6.6484 3.64215 6.81837 4.32951M6.49595 2.22925C6.53228 2.94118 6.57362 3.65217 6.74556 4.34751M6.81837 4.32951C6.81837 4.3295 6.81836 4.32949 6.81836 4.32949L6.74556 4.34751M6.81837 4.32951C6.86145 4.50349 6.90862 4.67477 6.9561 4.84718C6.98693 4.95916 7.0179 5.07162 7.04796 5.18558C7.16934 5.64539 7.05953 6.05221 6.77484 6.42053C6.32643 7.00078 5.88608 7.58707 5.44737 8.17524C5.44753 8.17503 5.44551 8.17797 5.44331 8.18575C5.4412 8.19321 5.43965 8.20266 5.43914 8.21306C5.43801 8.23623 5.44246 8.25201 5.44475 8.25623M6.81837 4.32951L6.74556 4.34751M6.74556 4.34751L5.44475 8.25623M5.3788 8.29194C5.9607 9.36516 6.65662 10.352 7.58116 11.1625M5.3788 8.29194L5.44475 8.25623M5.3788 8.29194L5.44473 8.25619C5.44473 8.25621 5.44474 8.25622 5.44475 8.25623M5.3788 8.29194C5.35625 8.2503 5.35969 8.16734 5.38725 8.1304L5.44475 8.25623M7.58116 11.1625C8.23353 11.7348 8.95262 12.211 9.71587 12.6215L7.58116 11.1625ZM3.8252 1.97207V1.97239H3.7502C3.6096 1.97239 3.46917 1.9721 3.32883 1.97181C2.98487 1.9711 2.64152 1.9704 2.29777 1.97395L2.29774 1.97395C2.18785 1.97504 2.10753 2.0102 2.05456 2.06516C2.00132 2.12039 1.96811 2.20349 1.96798 2.3145L1.96798 2.31458C1.9658 3.23823 2.05984 4.15228 2.24642 5.05682C2.55388 6.54683 3.09333 7.94815 3.86983 9.25708L3.80532 9.29535L3.86983 9.25708C5.05528 11.2556 6.64093 12.8621 8.63022 14.0606L8.59151 14.1248L8.63022 14.0606C10.7868 15.36 13.1297 16.0145 15.65 16.0288C15.7878 16.0295 15.8793 15.9961 15.9366 15.9408C15.9936 15.8859 16.0294 15.7973 16.0297 15.66V15.66C16.0318 14.7231 16.0315 13.7858 16.0297 12.8489C16.0294 12.709 15.9962 12.6227 15.9417 12.5685C15.8862 12.5135 15.7954 12.4783 15.6506 12.4706C15.5965 12.4678 15.5422 12.465 15.4879 12.4622C15.1682 12.4458 14.846 12.4293 14.5257 12.3965C13.8717 12.3295 13.2335 12.1845 12.6102 11.9798L12.6101 11.9798C12.531 11.9538 12.4624 11.9498 12.3986 11.963L3.8252 1.97207ZM3.8252 1.97207C3.94304 1.97204 4.06085 1.97194 4.17863 1.97184C4.49945 1.97157 4.82009 1.97131 5.14083 1.97239L5.14086 1.97239C5.29013 1.97283 5.38558 2.00683 5.44449 2.06381C5.50293 2.12034 5.53921 2.2129 5.53994 2.36205L5.53994 2.36207C5.54531 3.3968 5.71006 4.40558 6.02488 5.38974M3.8252 1.97207L4.44368 7.76312M6.02488 5.38974C6.02488 5.38972 6.02487 5.38971 6.02487 5.3897L6.09632 5.36689L6.02488 5.38974ZM6.02488 5.38974C6.0487 5.46436 6.05277 5.52965 6.04112 5.58997C6.02941 5.65058 6.00093 5.71072 5.95306 5.77349L5.95303 5.77353C5.7485 6.04211 5.54536 6.3112 5.34231 6.58018C5.04396 6.97541 4.7458 7.37039 4.44368 7.76312M4.44368 7.76312L4.50311 7.80887L4.44367 7.76314C4.35333 7.8805 4.30208 7.99937 4.2938 8.12572C4.28555 8.25157 4.32047 8.37655 4.38777 8.50543L4.45425 8.47071L4.38777 8.50543C5.00938 9.69567 5.76264 10.7905 6.75232 11.7145M4.44368 7.76312L12.201 12.061C11.8227 12.3519 11.4412 12.64 11.06 12.928C10.7763 13.1423 10.4927 13.3564 10.2108 13.5715C10.1177 13.6425 10.0182 13.6933 9.91105 13.7104C9.80262 13.7276 9.69211 13.7095 9.58006 13.6518L9.58005 13.6518C8.55823 13.1255 7.59806 12.5047 6.75232 11.7145M6.75232 11.7145L6.8035 11.6597M6.75232 11.7145L6.8035 11.6597M6.8035 11.6597C7.64286 12.4439 8.59684 13.061 9.61439 13.5851L6.8035 11.6597Z" fill="#061229" stroke="#061229" stroke-width="0.15"/>
</svg>
