<svg width="36" height="35" viewBox="0 0 36 35" fill="none" xmlns="http://www.w3.org/2000/svg">
<g id="Group 19379">
<path id="Rectangle 5695" d="M35.3727 17.6125C35.3727 8.11409 27.672 0.414062 18.1727 0.414062C8.67336 0.414062 0.972656 8.11409 0.972656 17.6125C0.972656 27.111 8.67336 34.811 18.1727 34.811C27.672 34.811 35.3727 27.111 35.3727 17.6125Z" fill="#34C759"/>
<path id="ic_view_details" d="M25.7032 17.4514H19.4023V11.1556C19.4023 11.0004 19.3406 10.8515 19.2309 10.7417C19.1211 10.632 18.9722 10.5703 18.8169 10.5703C18.6617 10.5703 18.5128 10.632 18.403 10.7417C18.2932 10.8515 18.2316 11.0004 18.2316 11.1556V17.4514H11.9352C11.7804 17.4514 11.632 17.5129 11.5225 17.6224C11.4131 17.7318 11.3516 17.8802 11.3516 18.035C11.3516 18.1898 11.4131 18.3383 11.5225 18.4477C11.632 18.5571 11.7804 18.6186 11.9352 18.6186H18.2316V24.919C18.2316 25.0738 18.2931 25.2222 18.4025 25.3317C18.512 25.4411 18.6604 25.5026 18.8152 25.5026C18.97 25.5026 19.1185 25.4411 19.2279 25.3317C19.3374 25.2222 19.3989 25.0738 19.3989 24.919V18.6221H25.6998C25.8546 18.6221 26.0031 18.5606 26.1125 18.4511C26.222 18.3417 26.2835 18.1932 26.2835 18.0385C26.2835 17.8837 26.222 17.7352 26.1125 17.6258C26.0031 17.5164 25.8546 17.4549 25.6998 17.4549L25.7032 17.4514Z" fill="white" stroke="white" stroke-width="0.5"/>
</g>
</svg>
