<svg width="26" height="25" viewBox="0 0 26 25" fill="none" xmlns="http://www.w3.org/2000/svg">
<g id="Group 19357">
<path id="Rectangle 5695" d="M25.3098 12.3932C25.3098 5.5745 19.7821 0.046875 12.9635 0.046875C6.14481 0.046875 0.617188 5.5745 0.617188 12.3932C0.617188 19.2118 6.14481 24.7395 12.9635 24.7395C19.7821 24.7395 25.3098 19.2118 25.3098 12.3932Z" fill="#F5F0EB"/>
<path id="ic_view_details" d="M18.2131 12.2823H13.691V7.7624C13.691 7.65137 13.6469 7.54488 13.5684 7.46637C13.4899 7.38786 13.3834 7.34375 13.2724 7.34375C13.1613 7.34375 13.0548 7.38786 12.9763 7.46637C12.8978 7.54488 12.8537 7.65137 12.8537 7.7624V12.2823H8.33271C8.22168 12.2823 8.1152 12.3264 8.03668 12.4049C7.95817 12.4834 7.91406 12.5899 7.91406 12.7009C7.91406 12.8119 7.95817 12.9184 8.03668 12.9969C8.1152 13.0755 8.22168 13.1196 8.33271 13.1196H12.8526V17.6428C12.8526 17.7538 12.8967 17.8603 12.9752 17.9388C13.0537 18.0173 13.1602 18.0615 13.2712 18.0615C13.3823 18.0615 13.4887 18.0173 13.5673 17.9388C13.6458 17.8603 13.6899 17.7538 13.6899 17.6428V13.1207H18.2131C18.3241 13.1207 18.4306 13.0766 18.5091 12.9981C18.5877 12.9196 18.6318 12.8131 18.6318 12.702C18.6318 12.591 18.5877 12.4845 18.5091 12.406C18.4306 12.3275 18.3241 12.2823 18.2131 12.2823Z" fill="#CAC7C4" stroke="#CAC7C4" stroke-width="0.561195"/>
</g>
</svg>
