<svg width="69" height="69" viewBox="0 0 69 69" fill="none" xmlns="http://www.w3.org/2000/svg">
<path id="Vector" d="M55.0357 4.92857C54.5821 4.92857 54.2143 5.29634 54.2143 5.75V13.9643C54.2143 14.418 54.5821 14.7857 55.0357 14.7857H63.25C63.7037 14.7857 64.0714 14.418 64.0714 13.9643V5.75C64.0714 5.29634 63.7037 4.92857 63.25 4.92857H55.0357ZM54.2143 64.0714V61.6071C54.2143 60.2462 55.3176 59.1429 56.6786 59.1429C58.0396 59.1429 59.1429 60.2462 59.1429 61.6071V64.0714H64.0714V61.6071C64.0714 60.2462 65.1747 59.1429 66.5357 59.1429C67.8967 59.1429 69 60.2462 69 61.6071V66.5357C69 67.8967 67.8967 69 66.5357 69H46.8214C45.4604 69 44.3571 67.8967 44.3571 66.5357V61.6071C44.3571 60.2462 45.4604 59.1429 46.8214 59.1429C48.1824 59.1429 49.2857 60.2462 49.2857 61.6071V64.0714H54.2143ZM39.4286 29.5714H41.8929C43.2538 29.5714 44.3571 30.6747 44.3571 32.0357C44.3571 33.3967 43.2538 34.5 41.8929 34.5H32.0357C30.6747 34.5 29.5714 33.3967 29.5714 32.0357C29.5714 30.6747 30.6747 29.5714 32.0357 29.5714H34.5V24.6429H27.1071C25.7462 24.6429 24.6429 23.5396 24.6429 22.1786C24.6429 20.8176 25.7462 19.7143 27.1071 19.7143H41.8929C43.2538 19.7143 44.3571 20.8176 44.3571 22.1786C44.3571 23.5396 43.2538 24.6429 41.8929 24.6429H39.4286V29.5714ZM64.0714 34.5H61.6071C60.2462 34.5 59.1429 33.3967 59.1429 32.0357C59.1429 30.6747 60.2462 29.5714 61.6071 29.5714H64.0714V27.1071C64.0714 25.7462 65.1747 24.6429 66.5357 24.6429C67.8967 24.6429 69 25.7462 69 27.1071V36.9643C69 38.3253 67.8967 39.4286 66.5357 39.4286C65.1747 39.4286 64.0714 38.3253 64.0714 36.9643V34.5ZM39.4286 44.3571H36.9643C35.6033 44.3571 34.5 43.2538 34.5 41.8929C34.5 40.5319 35.6033 39.4286 36.9643 39.4286H41.8929C43.2538 39.4286 44.3571 40.5319 44.3571 41.8929V51.75C44.3571 53.111 43.2538 54.2143 41.8929 54.2143H27.1071C25.7462 54.2143 24.6429 53.111 24.6429 51.75C24.6429 50.389 25.7462 49.2857 27.1071 49.2857H39.4286V44.3571ZM55.0357 0H63.25C66.4256 0 69 2.57436 69 5.75V13.9643C69 17.1399 66.4256 19.7143 63.25 19.7143H55.0357C51.8601 19.7143 49.2857 17.1399 49.2857 13.9643V5.75C49.2857 2.57436 51.8601 0 55.0357 0ZM5.75 0H13.9643C17.1399 0 19.7143 2.57436 19.7143 5.75V13.9643C19.7143 17.1399 17.1399 19.7143 13.9643 19.7143H5.75C2.57436 19.7143 0 17.1399 0 13.9643V5.75C0 2.57436 2.57436 0 5.75 0ZM5.75 4.92857C5.29634 4.92857 4.92857 5.29634 4.92857 5.75V13.9643C4.92857 14.418 5.29634 14.7857 5.75 14.7857H13.9643C14.418 14.7857 14.7857 14.418 14.7857 13.9643V5.75C14.7857 5.29634 14.418 4.92857 13.9643 4.92857H5.75ZM5.75 49.2857H13.9643C17.1399 49.2857 19.7143 51.8601 19.7143 55.0357V63.25C19.7143 66.4256 17.1399 69 13.9643 69H5.75C2.57436 69 0 66.4256 0 63.25V55.0357C0 51.8601 2.57436 49.2857 5.75 49.2857ZM5.75 54.2143C5.29634 54.2143 4.92857 54.5821 4.92857 55.0357V63.25C4.92857 63.7037 5.29634 64.0714 5.75 64.0714H13.9643C14.418 64.0714 14.7857 63.7037 14.7857 63.25V55.0357C14.7857 54.5821 14.418 54.2143 13.9643 54.2143H5.75ZM39.4286 4.92857H27.1071C25.7462 4.92857 24.6429 3.82527 24.6429 2.46429C24.6429 1.1033 25.7462 0 27.1071 0H41.8929C43.2538 0 44.3571 1.1033 44.3571 2.46429V12.3214C44.3571 13.6824 43.2538 14.7857 41.8929 14.7857C40.5319 14.7857 39.4286 13.6824 39.4286 12.3214V4.92857ZM27.1071 14.7857C25.7462 14.7857 24.6429 13.6824 24.6429 12.3214C24.6429 10.9604 25.7462 9.85714 27.1071 9.85714H32.0357C33.3967 9.85714 34.5 10.9604 34.5 12.3214C34.5 13.6824 33.3967 14.7857 32.0357 14.7857H27.1071ZM2.46429 44.3571C1.1033 44.3571 0 43.2538 0 41.8929C0 40.5319 1.1033 39.4286 2.46429 39.4286H12.3214C13.6824 39.4286 14.7857 40.5319 14.7857 41.8929C14.7857 43.2538 13.6824 44.3571 12.3214 44.3571H2.46429ZM22.1786 44.3571C20.8176 44.3571 19.7143 43.2538 19.7143 41.8929C19.7143 40.5319 20.8176 39.4286 22.1786 39.4286H27.1071C28.4681 39.4286 29.5714 40.5319 29.5714 41.8929C29.5714 43.2538 28.4681 44.3571 27.1071 44.3571H22.1786ZM29.5714 64.0714V66.5357C29.5714 67.8967 28.4681 69 27.1071 69C25.7462 69 24.6429 67.8967 24.6429 66.5357V61.6071C24.6429 60.2462 25.7462 59.1429 27.1071 59.1429H36.9643C38.3253 59.1429 39.4286 60.2462 39.4286 61.6071C39.4286 62.9681 38.3253 64.0714 36.9643 64.0714H29.5714ZM19.7143 29.5714H22.1786C23.5396 29.5714 24.6429 30.6747 24.6429 32.0357C24.6429 33.3967 23.5396 34.5 22.1786 34.5H17.25C15.889 34.5 14.7857 33.3967 14.7857 32.0357V29.5714H12.3214C10.9604 29.5714 9.85714 28.4681 9.85714 27.1071C9.85714 25.7462 10.9604 24.6429 12.3214 24.6429H17.25C18.611 24.6429 19.7143 25.7462 19.7143 27.1071V29.5714ZM0 27.1071C0 25.7462 1.1033 24.6429 2.46429 24.6429C3.82527 24.6429 4.92857 25.7462 4.92857 27.1071V32.0357C4.92857 33.3967 3.82527 34.5 2.46429 34.5C1.1033 34.5 0 33.3967 0 32.0357V27.1071ZM49.2857 27.1071C49.2857 25.7462 50.389 24.6429 51.75 24.6429C53.111 24.6429 54.2143 25.7462 54.2143 27.1071V36.9643C54.2143 38.3253 53.111 39.4286 51.75 39.4286C50.389 39.4286 49.2857 38.3253 49.2857 36.9643V27.1071ZM59.1429 49.2857V46.8214C59.1429 45.4604 60.2462 44.3571 61.6071 44.3571H66.5357C67.8967 44.3571 69 45.4604 69 46.8214C69 48.1824 67.8967 49.2857 66.5357 49.2857H64.0714V51.75C64.0714 53.111 62.9681 54.2143 61.6071 54.2143H51.75C50.389 54.2143 49.2857 53.111 49.2857 51.75V46.8214C49.2857 45.4604 50.389 44.3571 51.75 44.3571C53.111 44.3571 54.2143 45.4604 54.2143 46.8214V49.2857H59.1429Z" fill="black"/>
</svg>
