<svg width="35" height="27" viewBox="0 0 35 27" fill="none" xmlns="http://www.w3.org/2000/svg">
<path d="M0.868711 26.266H2.89119C3.08779 26.266 3.24721 26.1066 3.24721 25.91V2.61664C3.24721 1.57683 2.40427 0.733887 1.36445 0.733887H0.868711C0.672109 0.733887 0.512695 0.893301 0.512695 1.0899V25.91C0.512695 26.1066 0.672109 26.266 0.868711 26.266Z" fill="#D8AA8B"/>
<path d="M12.2992 16.4485V12.2944C12.2992 11.2918 13.112 10.479 14.1145 10.479H11.4027C10.4001 10.479 9.58734 11.2918 9.58734 12.2944V16.4485H12.2992Z" fill="#EFEDFF"/>
<path d="M31.7528 12.2944C31.7528 11.2918 30.94 10.479 29.9375 10.479H14.1145C13.112 10.479 12.2992 11.2918 12.2992 12.2944V16.4485H31.7528V12.2944Z" fill="#EFEDFF"/>
<path d="M4.68439 2.9884C3.65032 3.26546 3.03666 4.32838 3.31372 5.36245L4.29959 9.04183C4.57666 10.0759 5.63958 10.6896 6.67365 10.4125C7.70772 10.1354 8.32138 9.07252 8.04432 8.03845L7.05844 4.35907C6.78138 3.325 5.71846 2.71134 4.68439 2.9884Z" fill="#008070"/>
<path d="M8.04433 8.03837L7.05845 4.35899C6.82637 3.49295 6.04311 2.92181 5.18725 2.92188C5.25548 3.04984 5.3103 3.18752 5.34947 3.3336L6.33535 7.01298C6.61241 8.04705 5.99875 9.1099 4.96467 9.38703C4.79665 9.43208 4.62787 9.45354 4.46182 9.45354C4.87642 10.2315 5.78567 10.6504 6.67366 10.4124C7.70773 10.1353 8.32139 9.07244 8.04433 8.03837Z" fill="#005B50"/>
<path d="M11.4027 10.479H5.06254C4.05999 10.479 3.24719 11.2918 3.24719 12.2944V16.4485H9.58732V12.2944C9.58732 11.2917 10.4001 10.479 11.4027 10.479Z" fill="#008070"/>
<path d="M9.58734 15.0813H12.2992V16.4485H9.58734V15.0813Z" fill="#DEDEF9"/>
<path d="M3.24719 15.0813H9.58732V16.4485H3.24719V15.0813Z" fill="#005B50"/>
<path d="M29.9375 10.479H28.9626C28.999 10.6224 29.0184 10.7725 29.0184 10.9272V11.573C29.0184 13.5106 27.4477 15.0812 25.5102 15.0812H12.2992V16.4484H31.7528V12.2943C31.7528 11.2917 30.94 10.479 29.9375 10.479Z" fill="#DEDEF9"/>
<path d="M21.4625 15.4363C21.9761 15.4363 22.4644 15.2139 22.8023 14.8262C22.9832 14.6185 22.9615 14.3036 22.7539 14.1227C22.5463 13.9418 22.2314 13.9634 22.0505 14.1711C21.902 14.3415 21.6877 14.4392 21.4625 14.4392C21.2373 14.4392 21.0229 14.3415 20.8745 14.1711C20.6935 13.9635 20.3786 13.9419 20.171 14.1227C19.9634 14.3036 19.9418 14.6185 20.1226 14.8262C20.4605 15.2139 20.9489 15.4363 21.4625 15.4363Z" fill="black"/>
<path d="M26.2663 12C25.568 12 25 12.568 25 13.2663C25 13.5416 25.2232 13.7648 25.4986 13.7648C25.774 13.7648 25.9972 13.5416 25.9972 13.2663C25.9972 13.1179 26.1178 12.9972 26.2663 12.9972C26.4147 12.9972 26.5354 13.1179 26.5354 13.2663C26.5354 13.5416 26.7586 13.7648 27.034 13.7648C27.3094 13.7648 27.5326 13.5416 27.5326 13.2663C27.5326 12.568 26.9645 12 26.2663 12Z" fill="black"/>
<path d="M16.2663 12C15.568 12 15 12.568 15 13.2663C15 13.5416 15.2232 13.7648 15.4986 13.7648C15.774 13.7648 15.9972 13.5416 15.9972 13.2663C15.9972 13.1179 16.1178 12.9972 16.2663 12.9972C16.4147 12.9972 16.5354 13.1179 16.5354 13.2663C16.5354 13.5416 16.7586 13.7648 17.034 13.7648C17.3094 13.7648 17.5326 13.5416 17.5326 13.2663C17.5326 12.568 16.9645 12 16.2663 12Z" fill="black"/>
<path d="M3.24719 16.4485H31.7527V20.67H3.24719V16.4485Z" fill="#CE9875"/>
<path d="M32.1088 26.2661H34.1313C34.328 26.2661 34.4873 26.1067 34.4873 25.9101V13.856C34.4873 13.6594 34.3279 13.5 34.1313 13.5H33.6356C32.5957 13.5 31.7528 14.3429 31.7528 15.3828V25.91C31.7528 26.1067 31.9122 26.2661 32.1088 26.2661Z" fill="#D8AA8B"/>
<path d="M34.1313 12.9872H33.6356C33.1265 12.9872 32.654 13.1469 32.2656 13.4188V12.2943C32.2656 11.0106 31.2212 9.9663 29.9375 9.9663H25.6272C25.3441 9.9663 25.1146 10.1959 25.1146 10.479C25.1146 10.7621 25.3441 10.9917 25.6272 10.9917H29.9374C30.6557 10.9917 31.2401 11.576 31.2401 12.2943V15.9358H12.8118V12.2943C12.8118 11.576 13.3962 10.9917 14.1145 10.9917H23.2347C23.5178 10.9917 23.7474 10.7621 23.7474 10.479C23.7474 10.1959 23.5178 9.9663 23.2347 9.9663H8.16416C8.57575 9.39023 8.73667 8.64149 8.53959 7.90574C8.46631 7.63224 8.18501 7.46995 7.91164 7.54316C7.63813 7.61645 7.47585 7.89761 7.54906 8.17111C7.75257 8.93045 7.3003 9.71378 6.54097 9.91722C5.78122 10.1209 4.9983 9.66839 4.79486 8.90912L3.80898 5.22975C3.60548 4.47041 4.05774 3.68708 4.81715 3.48364C5.57826 3.27979 6.35934 3.73056 6.56318 4.49174L6.92474 5.84108C6.99802 6.11459 7.27938 6.27688 7.55269 6.20366C7.82619 6.13038 7.98848 5.84922 7.91526 5.57571L7.55371 4.22637C7.2031 2.91797 5.86052 2.1425 4.55178 2.49318C4.2631 2.57057 3.99608 2.6971 3.75997 2.86574V2.61664C3.75997 1.2958 2.68536 0.221191 1.36452 0.221191H0.868848C0.389717 0.221123 0 0.610908 0 1.0899V25.91C0 26.389 0.389717 26.7787 0.868711 26.7787H2.89112C3.37012 26.7787 3.75983 26.389 3.75983 25.91V21.1826H4.34034C4.62349 21.1826 4.85304 20.953 4.85304 20.6699C4.85304 20.3867 4.62349 20.1572 4.34034 20.1572H3.75983V16.9611H31.24V20.1572H6.73306C6.44991 20.1572 6.22036 20.3867 6.22036 20.6699C6.22036 20.953 6.44991 21.1826 6.73306 21.1826H31.2401V25.91C31.2401 26.389 31.6298 26.7787 32.1088 26.7787H34.1312C34.6102 26.7787 34.9999 26.389 34.9999 25.91V13.8559C35 13.377 34.6103 12.9872 34.1313 12.9872ZM11.4027 10.9917H12.1859C11.9338 11.3637 11.7865 11.8121 11.7865 12.2943V15.9358H10.1001V12.2943C10.1001 11.576 10.6844 10.9917 11.4027 10.9917ZM3.8044 9.17456C3.8984 9.52531 4.06437 9.83799 4.2821 10.1009C4.09603 10.1673 3.92082 10.2568 3.7599 10.3658V9.00858L3.8044 9.17456ZM2.73451 25.7533H1.02539V1.24651H1.36445C2.11989 1.24651 2.73451 1.86113 2.73451 2.61657V25.7533ZM3.7599 12.2943C3.7599 11.576 4.34424 10.9917 5.06256 10.9917H9.47413C9.22202 11.3637 9.07471 11.8121 9.07471 12.2943V15.9358H3.7599V12.2943ZM33.9746 25.7533H32.2655V15.3827C32.2655 14.6272 32.8801 14.0126 33.6355 14.0126H33.9746V25.7533Z" fill="black"/>
</svg>
