<svg width="34" height="34" viewBox="0 0 34 34" fill="none" xmlns="http://www.w3.org/2000/svg">
<path d="M4.04619 29.7742C6.00548 29.7742 7.5938 28.1859 7.5938 26.2266C7.5938 24.2673 6.00548 22.679 4.04619 22.679C2.08689 22.679 0.498566 24.2673 0.498566 26.2266C0.498566 28.1859 2.08689 29.7742 4.04619 29.7742Z" fill="#D69569"/>
<path d="M6.2486 25.0489C9.05709 25.0489 11.3338 22.7722 11.3338 19.9637C11.3338 17.1552 9.05709 14.8784 6.2486 14.8784C3.4401 14.8784 1.16336 17.1552 1.16336 19.9637C1.16336 22.7722 3.4401 25.0489 6.2486 25.0489Z" fill="#E3A67B"/>
<path d="M9.55078 6.97865C8.88022 6.97865 8.22868 7.05969 7.60486 7.21146C7.38529 6.44797 6.80082 5.90186 6.11418 5.90186C5.23947 5.90186 4.53036 6.7878 4.53036 7.88068C4.53036 7.96098 4.53461 8.03996 4.54206 8.11774C3.8138 7.63704 2.92806 7.629 2.40568 8.15138C1.78718 8.76988 1.91222 9.89773 2.68502 10.6705C2.68774 10.6733 2.69054 10.6757 2.69326 10.6784C1.84216 11.9714 1.34644 13.5191 1.34644 15.1829V16.7338H17.7551V15.1829C17.7551 10.6518 14.0819 6.97865 9.55078 6.97865Z" fill="#F2B88F"/>
<path d="M4.63214 15.4976C4.63214 12.2748 6.31048 7.64382 9.55078 6.97865C8.88022 6.97865 8.22868 7.05969 7.60486 7.21146C7.38529 6.44797 6.80082 5.90186 6.11418 5.90186C5.23947 5.90186 4.53036 6.7878 4.53036 7.88068C4.53036 7.96098 4.53461 8.03996 4.54206 8.11774C3.8138 7.63704 2.92806 7.629 2.40568 8.15138C1.78718 8.76988 1.91222 9.8978 2.68502 10.6706C2.68774 10.6733 2.69054 10.6758 2.69326 10.6784C1.84216 11.9715 1.34644 13.5192 1.34644 15.183V16.7339H4.63214V15.4976Z" fill="#E3A67B"/>
<path d="M2.33828 29.0606C3.00897 25.2416 5.9797 22.3635 9.54281 22.3635V18.938H19.7308L18.4366 30.6985H3.53015C2.76766 30.6985 2.18924 29.909 2.33828 29.0606Z" fill="#008070"/>
<path d="M5.40744 29.0606C5.97908 25.8058 8.22155 23.2348 11.0773 22.5461C10.5824 22.4267 10.0691 22.3635 9.54272 22.3635C5.97961 22.3635 3.00888 25.2416 2.33819 29.0606C2.18915 29.909 2.7675 30.6986 3.53006 30.6986H6.59924C5.83682 30.6986 5.25847 29.9091 5.40744 29.0606Z" fill="#005B50"/>
<path d="M9.44433 26.1693C10.5458 26.1693 11.4386 25.2764 11.4386 24.175C11.4386 23.0735 10.5458 22.1807 9.44433 22.1807C8.3429 22.1807 7.45001 23.0735 7.45001 24.175C7.45001 25.2764 8.3429 26.1693 9.44433 26.1693Z" fill="#FFCDBE"/>
<path d="M2.30096 19.2457C3.2964 19.2457 4.10336 18.4387 4.10336 17.4433C4.10336 16.4478 3.2964 15.6409 2.30096 15.6409C1.30553 15.6409 0.498566 16.4478 0.498566 17.4433C0.498566 18.4387 1.30553 19.2457 2.30096 19.2457Z" fill="#FFCDBE"/>
<path d="M16.5451 15.6414C15.6628 15.5828 14.7466 15.3789 13.8433 15.009C11.7581 14.1551 10.1216 12.6375 9.44428 10.9902C8.76708 12.6376 7.13048 14.1551 5.04523 15.009C4.14193 15.3789 3.22581 15.5828 2.34346 15.6414C2.25106 16.1032 2.20233 16.5808 2.20233 17.0697C2.20233 21.0693 5.44469 24.3117 9.44428 24.3117C13.4439 24.3117 16.6862 21.0693 16.6862 17.0697C16.6863 16.5808 16.6375 16.1032 16.5451 15.6414Z" fill="#FFEEE5"/>
<path d="M8.79859 24.2828C6.2555 22.3125 4.61804 19.7271 4.61804 15.1715L4.61791 15.1711C3.85442 15.4392 3.087 15.5921 2.34352 15.6416C2.25112 16.1034 2.20239 16.5809 2.20239 17.0699C2.20239 20.8517 5.10159 23.956 8.79859 24.2828Z" fill="#FFDECF"/>
<path d="M24.4492 26.8326C29.0982 26.8326 32.8669 23.778 32.8669 20.0099C32.8669 16.2419 29.0982 13.1873 24.4492 13.1873C19.8003 13.1873 16.0316 16.2419 16.0316 20.0099C16.0316 23.778 19.8003 26.8326 24.4492 26.8326Z" fill="#5F7080"/>
<path d="M17.2447 29.0606C17.9154 25.2416 20.8861 22.3635 24.4492 22.3635C28.0123 22.3635 30.9831 25.2416 31.6538 29.0606C31.8028 29.909 31.2244 30.6986 30.4619 30.6986H18.4366C17.674 30.6986 17.0957 29.909 17.2447 29.0606Z" fill="#D8AA8B"/>
<path d="M20.3139 29.0606C20.8855 25.8058 23.128 23.2348 25.9838 22.5461C25.4888 22.4267 24.9755 22.3635 24.4492 22.3635C20.8861 22.3635 17.9153 25.2416 17.2446 29.0606C17.0956 29.909 17.6739 30.6986 18.4365 30.6986H21.5057C20.7433 30.6986 20.1649 29.909 20.3139 29.0606Z" fill="#CF9671"/>
<path d="M24.4218 26.1693C25.5233 26.1693 26.4161 25.2764 26.4161 24.175C26.4161 23.0735 25.5233 22.1807 24.4218 22.1807C23.3204 22.1807 22.4275 23.0735 22.4275 24.175C22.4275 25.2764 23.3204 26.1693 24.4218 26.1693Z" fill="#FFCDBE"/>
<path d="M24.4492 11.2783C26.6521 11.2783 28.4379 9.49251 28.4379 7.28965C28.4379 5.0868 26.6521 3.30103 24.4492 3.30103C22.2464 3.30103 20.4606 5.0868 20.4606 7.28965C20.4606 9.49251 22.2464 11.2783 24.4492 11.2783Z" fill="#546370"/>
<path d="M32.7597 15.7221C32.8299 15.2844 32.8669 14.8354 32.8669 14.3779C32.8669 9.72893 29.0982 5.96021 24.4492 5.96021C19.8003 5.96021 16.0316 9.72893 16.0316 14.3779C16.0316 14.8355 16.0685 15.2844 16.1388 15.7221H32.7597Z" fill="#6B7D8E"/>
<path d="M16.0316 14.3779C16.0316 14.8356 16.0685 15.2844 16.1388 15.7222H19.6869V14.5879C19.6869 14.5879 20.4227 7.72684 24.4493 5.96021C19.8003 5.96027 16.0316 9.72899 16.0316 14.3779Z" fill="#5F7080"/>
<path d="M17.1994 18.9815C18.1949 18.9815 19.0018 18.1745 19.0018 17.1791C19.0018 16.1837 18.1949 15.3767 17.1994 15.3767C16.204 15.3767 15.397 16.1837 15.397 17.1791C15.397 18.1745 16.204 18.9815 17.1994 18.9815Z" fill="#FFCDBE"/>
<path d="M31.699 18.9815C32.6945 18.9815 33.5014 18.1745 33.5014 17.1791C33.5014 16.1837 32.6945 15.3767 31.699 15.3767C30.7036 15.3767 29.8966 16.1837 29.8966 17.1791C29.8966 18.1745 30.7036 18.9815 31.699 18.9815Z" fill="#FFDECF"/>
<path d="M29.9014 13.0651C29.6113 14.2461 28.7639 15.0482 27.8062 15.0482H20.8851C19.9274 15.0482 19.08 14.2461 18.7899 13.0651L18.6756 12.6L18.6751 12.5992C17.7532 13.8145 17.2059 15.3295 17.2059 16.9726C17.2059 20.9729 20.4488 24.2159 24.4492 24.2159C28.4496 24.2159 31.6926 20.9729 31.6926 16.9726C31.6926 15.2376 31.0824 13.6454 30.0652 12.3982L29.9014 13.0651Z" fill="#FFEEE5"/>
<path d="M19.6202 15.7361C19.6202 15.3476 19.6436 14.9647 19.6869 14.5878C19.271 14.2378 18.9478 13.7077 18.79 13.0651L18.6757 12.6L18.6753 12.5994C17.7532 13.8146 17.2059 15.3295 17.2059 16.9726C17.2059 20.9383 20.3931 24.1591 24.3456 24.2147C21.5095 22.4575 19.6202 19.3176 19.6202 15.7361Z" fill="#FFDECF"/>
<path d="M27.8351 26.5216C29.1201 26.5216 30.1618 25.4799 30.1618 24.1949C30.1618 22.9099 29.1201 21.8682 27.8351 21.8682C26.5501 21.8682 25.5084 22.9099 25.5084 24.1949C25.5084 25.4799 26.5501 26.5216 27.8351 26.5216Z" fill="#FFDECF"/>
<path d="M5.94499 18.1623C6.22034 18.1623 6.44357 17.9391 6.44357 17.6638V16.9612C6.44357 16.6859 6.22034 16.4626 5.94499 16.4626C5.66964 16.4626 5.44641 16.6859 5.44641 16.9612V17.6638C5.44641 17.9391 5.66964 18.1623 5.94499 18.1623Z" fill="black"/>
<path d="M13.2575 18.1623C13.5328 18.1623 13.756 17.9391 13.756 17.6638V16.9612C13.756 16.6859 13.5328 16.4626 13.2575 16.4626C12.9821 16.4626 12.7589 16.6859 12.7589 16.9612V17.6638C12.7589 17.9391 12.9821 18.1623 13.2575 18.1623Z" fill="black"/>
<path d="M9.60116 18.5806C10.1148 18.5806 10.6031 18.3582 10.941 17.9704C11.1219 17.7628 11.1002 17.4479 10.8926 17.267C10.6849 17.0861 10.37 17.1077 10.1892 17.3154C10.0407 17.4858 9.82639 17.5835 9.60116 17.5835C9.37594 17.5835 9.16161 17.4858 9.01317 17.3154C8.83222 17.1078 8.51732 17.0862 8.30971 17.267C8.1021 17.4479 8.0805 17.7628 8.26132 17.9704C8.59922 18.3582 9.08756 18.5806 9.60116 18.5806Z" fill="black"/>
<path d="M33.3655 20.01C33.3655 19.6277 33.3288 19.2455 33.2575 18.8699C33.7136 18.4492 33.9999 17.8471 33.9999 17.1791C33.9999 16.5278 33.7274 15.9392 33.2911 15.5202C33.3395 15.1418 33.3654 14.7588 33.3654 14.3779C33.3654 11.0774 31.5628 8.19006 28.8904 6.64852C28.744 5.62637 28.2494 4.68659 27.4818 3.98239C26.6524 3.22156 25.5754 2.80249 24.4492 2.80249C23.3214 2.80249 22.2433 3.22256 21.4135 3.98525C20.6475 4.68924 20.1545 5.6277 20.0082 6.64839C18.5867 7.46825 17.4116 8.6689 16.6227 10.1099C15.8108 8.97788 14.742 8.05724 13.4906 7.42086C13.2453 7.29601 12.945 7.3938 12.8202 7.6393C12.6954 7.88473 12.7932 8.18488 13.0387 8.30966C14.3187 8.9606 15.383 9.94725 16.1301 11.1706C15.7448 12.1663 15.533 13.2478 15.533 14.3778C15.533 14.5874 15.5416 14.7977 15.5563 15.0075C15.0398 14.9046 14.5292 14.7511 14.0324 14.5476C12.085 13.7501 10.5423 12.3493 9.90556 10.8006C9.82871 10.6136 9.64656 10.4916 9.44441 10.4916C9.24225 10.4916 9.06017 10.6137 8.98325 10.8006C8.34654 12.3493 6.80374 13.7501 4.85635 14.5476C4.03576 14.8836 3.18505 15.0835 2.32763 15.1424C2.31879 15.1424 2.30988 15.1422 2.30097 15.1422C2.14488 15.1422 1.99245 15.158 1.84507 15.1878V15.1828C1.84507 13.6722 2.28243 12.2093 3.10973 10.9523C3.24043 10.7538 3.21277 10.4906 3.04366 10.3235L3.03555 10.3157C2.46996 9.74842 2.34279 8.91918 2.7582 8.50377C3.10089 8.16108 3.72146 8.17344 4.26737 8.53368C4.42758 8.63945 4.63439 8.64384 4.79892 8.54485C4.96345 8.44593 5.05658 8.26126 5.0383 8.07014C5.03192 8.0036 5.02886 7.9415 5.02886 7.88048C5.02886 7.0781 5.52585 6.40017 6.1141 6.40017C6.55591 6.40017 6.96242 6.78148 7.12562 7.34899C7.19947 7.60586 7.46292 7.75869 7.72258 7.69561C8.88101 7.41388 10.1148 7.40603 11.2709 7.66955C11.5392 7.73077 11.8066 7.56272 11.8678 7.29422C11.9289 7.02572 11.7609 6.75848 11.4924 6.69732C10.3282 6.43194 9.09487 6.40941 7.9155 6.63383C7.54881 5.88231 6.86689 5.40294 6.11397 5.40294C5.11681 5.40294 4.28106 6.24109 4.07844 7.35644C3.32884 7.1376 2.56329 7.28817 2.05295 7.79851C1.31977 8.53169 1.35088 9.78232 2.07355 10.7277C1.27038 12.0726 0.847716 13.6048 0.847716 15.1827V15.6606C0.330857 16.0831 0 16.7252 0 17.4433C0 18.1042 0.280533 18.7005 0.728257 19.1206C0.68611 19.3987 0.664771 19.6812 0.664771 19.9637C0.664771 21.0584 0.980006 22.112 1.57664 23.0214C0.593042 23.7817 0 24.967 0 26.2265C0 27.5963 0.697345 28.872 1.8359 29.616C1.88669 29.9749 2.03367 30.3127 2.26754 30.5913C2.59088 30.9764 3.0511 31.1973 3.53014 31.1973H30.4619C30.9409 31.1973 31.4011 30.9764 31.7245 30.5912C32.0946 30.1504 32.2479 29.5611 32.1448 28.9745C31.9086 27.6296 31.3922 26.362 30.644 25.2783C32.3796 23.9023 33.3655 22.0065 33.3655 20.01ZM25.0542 24.6905C25.0985 24.9394 25.175 25.1772 25.28 25.3992C25.0304 25.5739 24.7308 25.6706 24.4218 25.6706C23.7363 25.6706 23.1573 25.2067 22.9813 24.5765C23.4596 24.6675 23.9504 24.7146 24.4492 24.7146C24.6509 24.7146 24.853 24.706 25.0542 24.6905ZM26.007 24.195C26.007 23.1869 26.8271 22.3668 27.8351 22.3668C28.8431 22.3668 29.6632 23.1869 29.6632 24.195C29.6632 25.203 28.8431 26.0231 27.8351 26.0231C26.8271 26.0231 26.007 25.203 26.007 24.195ZM29.2239 21.7361C28.8135 21.5034 28.3397 21.3698 27.8351 21.3698C26.4499 21.3698 25.2951 22.3721 25.056 23.6894C24.8545 23.7074 24.6516 23.7175 24.4492 23.7175C22.596 23.7175 20.8684 22.9812 19.5842 21.6444C19.3936 21.4459 19.0779 21.4394 18.8793 21.6301C18.6807 21.8209 18.6744 22.1365 18.8651 22.3351C19.2377 22.723 19.6429 23.0667 20.0746 23.3639C19.6356 23.6954 19.2307 24.0726 18.8645 24.4892C17.3755 23.3044 16.5301 21.6936 16.5301 20.01C16.5301 19.8033 16.5429 19.5965 16.5679 19.3913C16.7455 19.4421 16.9316 19.4719 17.1237 19.4781C17.2593 19.8759 17.4265 20.2627 17.6255 20.633C17.7559 20.8755 18.058 20.9664 18.3008 20.8361C18.5433 20.7058 18.6343 20.4034 18.5039 20.1609C17.9809 19.1878 17.7044 18.0853 17.7044 16.9727C17.7044 15.8426 17.9786 14.7567 18.5045 13.7821C18.9645 14.8587 19.8672 15.5468 20.8851 15.5468H27.8061C28.8902 15.5468 29.8435 14.7662 30.2708 13.5672C30.8708 14.5944 31.1939 15.7727 31.1939 16.9727C31.194 18.7601 30.4802 20.4757 29.2239 21.7361ZM16.8467 18.4331C16.2988 18.2788 15.8955 17.7757 15.8955 17.1791C15.8955 16.6089 16.2641 16.1242 16.775 15.9475C16.7308 16.2848 16.7072 16.6267 16.7072 16.9726C16.7073 17.4638 16.7547 17.9531 16.8467 18.4331ZM32.1218 15.947C32.6336 16.1232 33.0028 16.6083 33.0028 17.1791C33.0028 17.7759 32.5993 18.2791 32.0512 18.4333C32.1433 17.9552 32.1911 17.4663 32.1911 16.9726C32.1912 16.6284 32.1674 16.2858 32.1218 15.947ZM24.4492 3.79971C25.9553 3.79971 27.2391 4.73671 27.728 6.08626C26.7126 5.68334 25.6063 5.46164 24.4492 5.46164C23.2921 5.46164 22.1857 5.68341 21.1702 6.08633C21.6588 4.73644 22.9421 3.79971 24.4492 3.79971ZM24.4492 6.4588C28.8158 6.4588 32.3683 10.0113 32.3683 14.3779C32.3683 14.5754 32.3605 14.7736 32.3457 14.9713C32.2031 14.9294 32.0549 14.9011 31.9024 14.8876C31.6171 13.8688 31.1263 12.9105 30.4516 12.0832C30.3322 11.9367 30.14 11.8703 29.9557 11.9119C29.7713 11.9535 29.6261 12.0958 29.5811 12.2793L29.4173 12.9462C29.1816 13.9052 28.5342 14.5496 27.8062 14.5496H20.8851C20.1571 14.5496 19.5097 13.9052 19.2741 12.9462L19.1598 12.481C19.1445 12.4182 19.1164 12.3583 19.0783 12.306C18.9855 12.1784 18.8379 12.1023 18.6802 12.1007C18.5233 12.0965 18.3733 12.1722 18.2779 12.298C17.6814 13.0843 17.2494 13.9593 16.9908 14.888C16.8401 14.9017 16.6937 14.9299 16.5527 14.9713C16.538 14.7736 16.5301 14.5755 16.5301 14.378C16.5301 10.0113 20.0826 6.4588 24.4492 6.4588ZM5.23421 15.4705C7.05043 14.7268 8.56186 13.4959 9.44434 12.0758C10.3268 13.496 11.8382 14.7268 13.6544 15.4705C14.1741 15.6834 14.7078 15.8468 15.2482 15.9617C15.0269 16.3151 14.8985 16.7323 14.8985 17.1791C14.8985 17.8471 15.1848 18.4492 15.6409 18.8699C15.5722 19.2322 15.5361 19.6003 15.5336 19.9687C14.4186 22.3063 12.0371 23.8131 9.44441 23.8131C5.72608 23.8131 2.70103 20.7881 2.70103 17.0697C2.70103 16.7467 2.72417 16.4233 2.76997 16.104C3.60658 16.0108 4.43383 15.7983 5.23421 15.4705ZM10.8522 24.6798C10.6447 25.2568 10.092 25.6707 9.44434 25.6707C8.79745 25.6707 8.24529 25.2578 8.03715 24.6818C8.49365 24.7659 8.96384 24.8103 9.44434 24.8103C9.92151 24.8103 10.3924 24.7655 10.8522 24.6798ZM0.997157 17.4433C0.997157 16.9231 1.30415 16.4744 1.74582 16.2653C1.7181 16.5324 1.70381 16.8012 1.70381 17.0697C1.70381 17.6192 1.76178 18.1554 1.8712 18.6728C1.36311 18.4946 0.997157 18.0115 0.997157 17.4433ZM2.17905 19.741C2.737 21.2536 3.75469 22.5453 5.06157 23.4463C4.79646 23.6541 4.54411 23.879 4.30572 24.1195C2.69013 23.3673 1.66193 21.7678 1.66193 19.9637C1.66193 19.8611 1.66658 19.7587 1.67336 19.6566C1.8355 19.7026 2.00455 19.7318 2.17905 19.741ZM0.997157 26.2265C0.997157 25.2736 1.44794 24.3772 2.19468 23.8043C2.61016 24.2437 3.09292 24.6111 3.62679 24.8948C2.8401 25.9108 2.26468 27.1228 1.95609 28.444C1.35327 27.8744 0.997157 27.0748 0.997157 26.2265ZM3.03122 29.95C2.85366 29.7385 2.77815 29.4383 2.82933 29.1468C3.20652 26.9994 4.35478 25.1358 5.99338 23.997C6.30509 24.1529 6.6285 24.2889 6.96228 24.4022C7.07755 25.6706 8.14644 26.6678 9.44434 26.6678C10.7437 26.6678 11.8135 25.6684 11.9267 24.3979C13.4504 23.8791 14.7904 22.8932 15.738 21.5743C16.1103 22.9774 16.979 24.266 18.2509 25.2754C17.5112 26.3461 16.9937 27.6068 16.7536 28.9743C16.6787 29.4009 16.7399 29.8287 16.9209 30.2H3.53014C3.27872 30.2 3.1096 30.0434 3.03122 29.95ZM30.9609 29.95C30.8824 30.0434 30.7133 30.2 30.4619 30.2H18.4365C18.1851 30.2 18.016 30.0434 17.9376 29.95C17.76 29.7385 17.6845 29.4383 17.7357 29.1469C18.1237 26.9378 19.3137 25.0477 21.0168 23.9178C21.3134 24.0647 21.6189 24.1922 21.9321 24.2994C21.9972 25.6164 23.089 26.6678 24.4218 26.6678C24.9396 26.6678 25.4413 26.5051 25.8585 26.2112C26.3685 26.7111 27.0662 27.0202 27.8351 27.0202C28.6826 27.0202 29.4435 26.6446 29.9618 26.0518C30.5543 26.9709 30.9662 28.028 31.1627 29.1468C31.2138 29.4383 31.1384 29.7385 30.9609 29.95ZM30.6484 23.94C30.595 23.3467 30.3576 22.8058 29.9936 22.3748C30.7987 21.5478 31.4035 20.5558 31.7727 19.4782C31.9655 19.4721 32.1523 19.4422 32.3305 19.3913C32.3555 19.5965 32.3683 19.8032 32.3683 20.01C32.3683 21.4459 31.7531 22.829 30.6484 23.94Z" fill="black"/>
<path d="M20.8281 16.49C20.5527 16.49 20.3295 16.7132 20.3295 16.9886V17.651C20.3295 17.9264 20.5527 18.1496 20.8281 18.1496C21.1035 18.1496 21.3267 17.9264 21.3267 17.651V16.9886C21.3267 16.7132 21.1035 16.49 20.8281 16.49Z" fill="black"/>
<path d="M25.7315 17.2712C25.5238 17.0903 25.209 17.1119 25.028 17.3195C24.8819 17.4872 24.6709 17.5834 24.4492 17.5834C24.2275 17.5834 24.0166 17.4872 23.8704 17.3195C23.6894 17.1118 23.3745 17.0903 23.1669 17.2712C22.9594 17.452 22.9377 17.767 23.1186 17.9746C23.4543 18.3597 23.9392 18.5806 24.4492 18.5806C24.9592 18.5806 25.4442 18.3598 25.7798 17.9746C25.9607 17.767 25.939 17.452 25.7315 17.2712Z" fill="black"/>
<path d="M28.1982 16.3662C27.5 16.3662 26.9319 16.9343 26.9319 17.6325C26.9319 17.9078 27.1551 18.131 27.4305 18.131C27.7059 18.131 27.9291 17.9078 27.9291 17.6325C27.9291 17.4841 28.0498 17.3634 28.1982 17.3634C28.3466 17.3634 28.4674 17.4841 28.4674 17.6325C28.4674 17.9078 28.6905 18.131 28.9659 18.131C29.2414 18.131 29.4645 17.9078 29.4645 17.6325C29.4645 16.9343 28.8965 16.3662 28.1982 16.3662Z" fill="black"/>
</svg>
