<svg width="29" height="27" viewBox="0 0 29 27" fill="none" xmlns="http://www.w3.org/2000/svg">
<g id="Group 427321154">
<path id="Vector" d="M27.3349 26H1" stroke="#606060" stroke-width="2" stroke-linecap="round"/>
<path id="Vector_2" d="M2.31641 26V11.9728C2.31641 10.8445 2.79891 9.77006 3.64225 9.02044M26.0179 26V18.0994M7.91712 5.22054L11.5427 1.99779C13.0395 0.667403 15.2948 0.667403 16.7915 1.99779L24.692 9.02044C25.5354 9.77006 26.0179 10.8445 26.0179 11.9728V12.8324" stroke="#606060" stroke-width="2" stroke-linecap="round"/>
<path id="Vector_3" d="M10.2168 21.3906H18.1173" stroke="#606060" stroke-width="2" stroke-linecap="round"/>
<path id="Vector_4" d="M6.26758 26.0034V22.0532M22.0685 26.0034V18.1029C22.0685 15.6201 22.0685 14.3786 21.2972 13.6073C20.5258 12.8359 19.2844 12.8359 16.8016 12.8359H11.5346C9.05168 12.8359 7.81024 12.8359 7.03892 13.6073C6.418 14.2281 6.29692 15.1537 6.27329 16.7862" stroke="#606060" stroke-width="2" stroke-linecap="round"/>
<path id="Vector_5" d="M11.5332 8.88281H12.1916M16.8002 8.88281H14.8251" stroke="#606060" stroke-width="2" stroke-linecap="round"/>
<path id="Vector_6" d="M10.2168 17.4375H12.1919M18.1173 17.4375H14.8254" stroke="#606060" stroke-width="2" stroke-linecap="round"/>
</g>
</svg>
