<svg width="33" height="33" viewBox="0 0 33 33" fill="none" xmlns="http://www.w3.org/2000/svg">
<path d="M25.8279 14.1108L25.9794 14.0145C26.1143 13.9175 26.2048 13.7736 26.2318 13.6132C26.2588 13.4528 26.2201 13.2885 26.124 13.1552C26.0279 13.0218 25.8819 12.9299 25.7169 12.8989C25.5519 12.8679 25.3809 12.9003 25.2401 12.9891C15.1375 19.819 7.78256 13.3239 7.47351 13.046C7.34789 12.9381 7.18376 12.8817 7.01587 12.8887C6.84799 12.8958 6.68953 12.9657 6.57407 13.0838C6.45861 13.2019 6.39522 13.3587 6.39731 13.5212C6.39941 13.6837 6.46683 13.839 6.5853 13.9543C6.59915 13.9668 6.82943 14.1711 7.24929 14.4716L5.95161 16.535C5.86283 16.6767 5.83575 16.8467 5.87632 17.0077C5.91689 17.1687 6.02179 17.3076 6.16804 17.3939C6.2697 17.4532 6.38608 17.4847 6.50479 17.4851C6.61566 17.4849 6.72462 17.4573 6.8213 17.4048C6.91798 17.3524 6.99916 17.2768 7.05711 17.1855L8.32275 15.1689C9.17989 15.6709 10.0853 16.0914 11.0263 16.4245L10.403 18.4403C10.3783 18.5187 10.3699 18.6012 10.3783 18.6828C10.3867 18.7645 10.4117 18.8437 10.452 18.9159C10.4922 18.9882 10.5469 19.052 10.6128 19.1036C10.6786 19.1553 10.7545 19.1939 10.8359 19.2171L11.022 19.2439C11.1607 19.2433 11.2956 19.1996 11.4067 19.1192C11.5178 19.0389 11.5993 18.9262 11.6392 18.7977L12.2565 16.8096C13.3427 17.0945 14.4593 17.2574 15.5842 17.2951V19.2924C15.5842 19.4581 15.6522 19.6169 15.7733 19.734C15.8945 19.8511 16.0587 19.9169 16.23 19.9169C16.4013 19.9169 16.5655 19.8511 16.6866 19.734C16.8078 19.6169 16.8758 19.4581 16.8758 19.2924V17.2834C18.006 17.22 19.1254 17.0347 20.213 16.7309L21.0078 18.7584C21.0546 18.877 21.1377 18.979 21.2459 19.0509C21.3541 19.1228 21.4824 19.1612 21.6137 19.161L21.8423 19.1217C21.9217 19.0927 21.9943 19.0488 22.0562 18.9927C22.118 18.9365 22.1678 18.8691 22.2027 18.7943C22.2376 18.7195 22.2569 18.6388 22.2595 18.5568C22.2622 18.4748 22.248 18.3931 22.218 18.3164L21.4441 16.3408C22.5892 15.9269 23.6908 15.4081 24.7337 14.7914L25.7803 16.1424C25.8408 16.2204 25.9192 16.2837 26.0094 16.3273C26.0995 16.3709 26.1989 16.3936 26.2997 16.3936C26.4395 16.3942 26.5756 16.35 26.6867 16.268C26.7547 16.2189 26.8121 16.1573 26.8555 16.0868C26.8989 16.0162 26.9275 15.9381 26.9396 15.8568C26.9518 15.7756 26.9472 15.6928 26.9263 15.6133C26.9053 15.5337 26.8683 15.4589 26.8174 15.3932L25.8279 14.1108Z" fill="#4F4F4F"/>
</svg>
