<svg width="36" height="34" viewBox="0 0 36 34" fill="none" xmlns="http://www.w3.org/2000/svg">
<path id="Path 34841" fill-rule="evenodd" clip-rule="evenodd" d="M18.2816 28.6208L9.79911 33.08C9.55627 33.2074 9.29072 33.2857 9.01756 33.3104C8.74439 33.3351 8.46903 33.3057 8.20726 33.2238C7.9455 33.142 7.70248 33.0093 7.49208 32.8334C7.28169 32.6576 7.10807 32.4419 6.98119 32.1989C6.76438 31.7951 6.69169 31.3295 6.77523 30.8789L8.38963 21.4338L1.5268 14.7459C1.13497 14.3602 0.911895 13.8351 0.906356 13.2854C0.900816 12.7357 1.11318 12.2062 1.49716 11.8126C1.81882 11.4957 2.22756 11.2816 2.6713 11.1974L12.181 9.81827L16.4043 1.22369C16.6531 0.733053 17.0847 0.359735 17.6063 0.184081C18.1278 0.00842686 18.6975 0.0444753 19.1927 0.284551C19.608 0.485576 19.9474 0.814873 20.1609 1.22369L24.3842 9.81827L33.893 11.1974C34.437 11.2887 34.9244 11.5871 35.2529 12.03C35.5813 12.473 35.7251 13.0259 35.6541 13.5726C35.5693 14.0161 35.3547 14.4244 35.0375 14.7459L28.1747 21.4338L29.7889 30.8789C29.8393 31.1489 29.835 31.4263 29.7762 31.6946C29.7174 31.963 29.6053 32.2169 29.4466 32.4412C29.2879 32.6655 29.0859 32.8557 28.8523 33.0006C28.6188 33.1455 28.3586 33.2421 28.087 33.2848C27.6361 33.3635 27.1718 33.2911 26.7662 33.0789L18.2816 28.6208Z" fill="#FFA800"/>
</svg>
