<svg width="36" height="34" viewBox="0 0 36 34" fill="none" xmlns="http://www.w3.org/2000/svg">
<path id="Path 34842" opacity="0.53" fill-rule="evenodd" clip-rule="evenodd" d="M18.015 28.6208L9.53246 33.08C9.28969 33.2074 9.02412 33.2856 8.75103 33.3103C8.47795 33.3349 8.2028 33.3056 7.94112 33.2237C7.67944 33.1419 7.43637 33.0091 7.22607 32.8333C7.01578 32.6574 6.84234 32.4419 6.71556 32.1989C6.4986 31.7951 6.4259 31.3295 6.5096 30.8789L8.12401 21.4338L1.26118 14.7459C0.869348 14.3602 0.64627 13.8351 0.640731 13.2854C0.635191 12.7357 0.847689 12.2062 1.23167 11.8126C1.55325 11.4956 1.96189 11.2815 2.40567 11.1974L11.9154 9.81827L16.1387 1.22369C16.3875 0.733053 16.8192 0.359735 17.3408 0.184081C17.8623 0.00842686 18.432 0.0444753 18.9272 0.284551C19.3424 0.4857 19.6818 0.814964 19.8954 1.22369L24.1187 9.81827L33.6284 11.1974C34.1724 11.2887 34.6598 11.5871 34.9883 12.03C35.3167 12.473 35.4605 13.0259 35.3895 13.5726C35.3045 14.0158 35.0903 14.424 34.7739 14.7459L27.9048 21.4338L29.5192 30.8789C29.5695 31.149 29.565 31.4265 29.5062 31.6949C29.4473 31.9633 29.3351 32.2171 29.1764 32.4415C29.0176 32.6658 28.8153 32.856 28.5817 33.0009C28.348 33.1457 28.0877 33.2423 27.8161 33.2848C27.3652 33.3635 26.9009 33.291 26.4953 33.0789L18.015 28.6208Z" fill="#909090"/>
</svg>
