<svg width="34" height="34" viewBox="0 0 34 34" fill="none" xmlns="http://www.w3.org/2000/svg">
<g clip-path="url(#clip0_675_733)">
<path d="M14.9568 26.7574C22.1973 26.7574 28.0669 20.8878 28.0669 13.6472C28.0669 6.40672 22.1973 0.537109 14.9568 0.537109C7.71623 0.537109 1.84662 6.40672 1.84662 13.6472C1.84662 20.8878 7.71623 26.7574 14.9568 26.7574Z" fill="#008070"/>
<path d="M19.2001 1.2395C21.5391 8.09669 17.8764 15.5516 11.0192 17.8906C8.27351 18.8272 5.29475 18.8272 2.54904 17.8906C4.89368 24.7421 12.3486 28.3956 19.2001 26.0511C26.0517 23.7065 29.7052 16.2514 27.3605 9.39996C26.0481 5.56459 23.0354 2.55197 19.2001 1.2395Z" fill="#005B50"/>
<path d="M32.994 23.4931C33.2469 22.7692 33.4411 22.0261 33.5747 21.2709C33.681 20.6599 33.4252 20.0425 32.9181 19.6856C32.2895 19.246 31.6265 18.8578 30.9356 18.5247L31.416 21.0089L32.994 23.4931Z" fill="#DEDEF9"/>
<path d="M13.6971 32.5208C12.5679 32.0866 11.4984 31.5106 10.5145 30.8066C10.0222 30.4512 9.77255 29.8485 9.86937 29.249C10.0668 28.0586 10.4145 26.8979 10.904 25.7949L12.9854 29.1578L13.6971 32.5208Z" fill="#DEDEF9"/>
<path d="M15.9238 33.1777C18.29 33.6686 21.2339 33.6375 24.5699 32.2558C28.4599 30.6445 30.6952 28.1027 31.9782 25.7755L30.9356 21.3524L28.6071 17.6301C26.0539 16.8911 22.6749 16.6735 18.7832 18.2854C15.4471 19.6673 13.3433 21.7272 12.0173 23.7477L13.4139 28.6862L15.9238 33.1777Z" fill="#EFEDFF"/>
<path d="M25.047 30.6759C19.4743 30.6759 14.9213 26.2263 14.7931 20.655C13.7176 21.5405 12.7818 22.5831 12.0172 23.7476L13.4139 28.6861L15.9238 33.1776C18.29 33.6685 21.2339 33.6374 24.5699 32.2556C25.8615 31.7277 27.0777 31.0316 28.1872 30.1855C27.1724 30.5113 26.1129 30.6768 25.047 30.6759Z" fill="#DEDEF9"/>
<path d="M28.6033 17.6299L31.9774 25.7757C32.3801 25.0447 32.7201 24.2808 32.994 23.4924L30.9366 18.5256C30.1855 18.1617 29.405 17.8621 28.6033 17.6299Z" fill="#EFEDFF"/>
<path d="M13.6879 32.5168C14.4139 32.7978 15.1617 33.0186 15.9238 33.1771L12.018 23.7478C11.5912 24.3987 11.2185 25.0836 10.904 25.7957L13.6879 32.5168Z" fill="#EFEDFF"/>
<path d="M6.02022 31.951C9.12273 31.951 11.6378 29.4359 11.6378 26.3334C11.6378 23.2309 9.12273 20.7158 6.02022 20.7158C2.9177 20.7158 0.402618 23.2309 0.402618 26.3334C0.402618 29.4359 2.9177 31.951 6.02022 31.951Z" fill="#D8AA8B"/>
<path d="M8.54981 21.3159C8.05049 25.2571 4.71901 28.2251 0.746582 28.2677C1.8157 31.1803 5.04347 32.6747 7.95605 31.6055C10.8686 30.5364 12.363 27.3086 11.2939 24.3961C10.8029 23.0586 9.82197 21.9575 8.54981 21.3159Z" fill="#CF9671"/>
<path d="M33.1495 19.3567C32.5033 18.9043 31.8215 18.5049 31.1109 18.1626C30.3431 17.791 29.5454 17.4846 28.7264 17.2468C28.7238 17.2459 28.7215 17.2445 28.7189 17.2437C28.4906 17.1776 28.2618 17.1174 28.0327 17.0629C28.3229 15.9475 28.4696 14.7997 28.4692 13.6472C28.4692 6.19644 22.4076 0.134766 14.9567 0.134766C7.50592 0.134766 1.44431 6.19651 1.44431 13.6473C1.43967 16.1979 2.16103 18.6972 3.52416 20.8532C3.07963 21.0568 2.66144 21.3134 2.27858 21.6175C-0.325949 23.6839 -0.762172 27.4704 1.30416 30.0749C3.37049 32.6793 7.15693 33.1156 9.76146 31.0493C9.83595 30.9902 9.90902 30.9293 9.9806 30.8668C10.2236 31.1299 16.2838 36.1236 24.7239 32.6274C28.1087 31.2255 30.6679 28.9855 32.3305 25.9699L32.3299 25.9695C32.7433 25.2189 33.0925 24.4346 33.3737 23.6251C33.6341 22.8807 33.8338 22.1165 33.9711 21.34C34.102 20.5758 33.7825 19.8043 33.1495 19.3567ZM33.1784 21.2019C33.115 21.566 33.0341 21.9341 32.9368 22.3032L31.7371 19.4068C32.0669 19.599 32.3844 19.8021 32.6866 20.0147C33.0654 20.2827 33.2568 20.7445 33.1784 21.2019ZM27.2441 16.8969C26.9304 16.8396 26.6161 16.7929 26.3011 16.7566C26.1981 12.0043 23.7131 9.15499 21.9781 7.06883C21.1545 6.07857 20.4252 5.20052 19.9995 4.32685C22.004 4.42805 23.5789 5.0491 24.9425 5.79614C27.4094 8.93005 28.2616 13.0404 27.2441 16.8969ZM19.9411 17.4299C19.859 14.2532 19.1774 9.43001 15.7557 4.82378C16.852 4.5252 17.9792 4.35498 19.1148 4.31655C19.5529 5.40981 20.395 6.42357 21.3596 7.58333C23.203 9.79986 25.3807 12.4197 25.4985 16.6871C23.6159 16.5845 21.7307 16.8365 19.9411 17.4299ZM23.5073 4.25442C22.2889 3.78543 20.999 3.52934 19.6939 3.49734C19.5677 2.9549 19.559 2.39166 19.6686 1.8456C21.0818 2.41258 22.382 3.22844 23.5073 4.25442ZM18.9041 1.56781C18.759 2.20425 18.7479 2.86399 18.8716 3.50494C17.6331 3.56861 16.4066 3.77887 15.2176 4.13121C14.3543 3.0559 13.3743 2.07975 12.2958 1.22056C14.4905 0.751311 16.7705 0.871118 18.9041 1.56781ZM11.2928 1.47865C11.7164 1.77389 12.9882 2.72449 14.3854 4.38756C13.5531 4.66194 12.3192 5.06307 10.4625 6.28155C8.93852 4.89872 7.19562 4.64159 5.95918 4.68202C7.44451 3.1893 9.27721 2.08857 11.2928 1.47865ZM5.15292 5.57037C6.10893 5.41857 8.09517 5.33249 9.77994 6.75338C5.52006 9.84363 3.57373 14.1406 2.77918 17.2876C1.56875 13.2303 2.45884 8.8367 5.15292 5.57037ZM3.29717 18.7097C3.65601 16.6474 5.08333 11.0937 10.3613 7.32685C11.446 8.61247 11.1108 9.96801 10.5774 12.1251C9.99683 14.4729 9.255 17.4781 10.0113 21.8315C8.45421 20.4483 6.29253 19.9686 4.2965 20.5634C3.91249 19.9744 3.57824 19.3543 3.29717 18.7097ZM0.83916 25.7366C0.972936 24.5463 1.51538 23.4392 2.37412 22.6041C2.48047 22.8989 2.56995 23.1994 2.64212 23.5043L2.05513 23.8664C1.59779 24.1486 2.02931 24.8274 2.47751 24.5512L2.80835 24.3472C2.87079 24.753 2.91071 25.162 2.92802 25.5723L2.34991 25.5057C1.82156 25.4451 1.7288 26.2441 2.25785 26.305L2.93459 26.3829C2.92094 26.8954 2.87581 27.4065 2.7994 27.9134L2.26828 27.6076C1.80689 27.3416 1.40607 28.0395 1.86682 28.3049L2.6456 28.7532C2.53873 29.2476 2.42337 29.655 2.31386 30.0023C1.19787 28.8795 0.654782 27.309 0.83916 25.7366ZM5.4235 31.5145C4.54024 31.4144 3.69759 31.089 2.97631 30.5694C3.09547 30.2141 3.24103 29.7494 3.37699 29.1741L3.71124 29.3666C4.1682 29.6299 4.57841 28.9375 4.1127 28.6693L3.54766 28.344C3.65646 27.7267 3.7218 27.1025 3.74324 26.476L4.34343 26.5451C4.87191 26.6062 4.96468 25.8067 4.43549 25.7459L3.74375 25.6663C3.72586 25.0694 3.66232 24.4747 3.55365 23.8875L4.33307 23.4067C4.78584 23.1274 4.36416 22.4426 3.91069 22.7219L3.36431 23.0589C3.27457 22.7197 3.16236 22.3869 3.02845 22.0625C5.18981 20.5459 8.14423 20.8871 9.9029 22.8566C9.6994 23.1414 9.51509 23.4394 9.35105 23.7486L8.89552 23.2961C8.51781 22.9206 7.95103 23.492 8.32848 23.8668L8.97876 24.5128C8.73953 25.0598 8.54253 25.6243 8.38951 26.2014L7.69706 26.1216C7.16871 26.0601 7.07582 26.86 7.605 26.9209L8.20661 26.9902C8.08461 27.605 8.00601 28.2276 7.97137 28.8535L7.34685 29.0419C6.83543 29.1963 7.07144 29.9657 7.57925 29.8123L7.94865 29.7008C7.95026 30.2935 7.98483 30.761 8.02178 31.1504C7.20116 31.4923 6.30644 31.6177 5.4235 31.5145ZM8.79541 30.7486C8.76824 30.3879 8.74925 29.9675 8.75813 29.4564L9.61655 29.1974C10.1271 29.0434 9.89241 28.2734 9.38414 28.4271L8.80005 28.6033C8.84138 28.0927 8.91399 27.5852 9.01758 27.0835L9.69058 27.161C10.2191 27.2221 10.3118 26.4226 9.78264 26.3617L9.20872 26.2956C9.31887 25.9011 9.45052 25.5129 9.60309 25.1328L9.87535 25.4032C10.2482 25.7738 10.8245 25.2119 10.4424 24.8324L9.95595 24.3492C10.0947 24.0695 10.2491 23.7978 10.418 23.5353C11.9651 25.9608 11.253 29.1812 8.82753 30.7283C8.81678 30.7351 8.8061 30.7419 8.79541 30.7486ZM10.5501 30.2981C11.002 29.7845 11.3618 29.1967 11.6139 28.5608L12.9389 31.7596C11.808 31.2299 10.7576 30.5347 10.5501 30.2981ZM13.9931 32.2023L11.9619 27.2985C12.097 26.4712 12.0567 25.6247 11.8436 24.814C11.8781 24.7522 11.912 24.69 11.9475 24.6287L15.2509 32.604C14.8264 32.4904 14.4058 32.3561 13.9931 32.2023ZM24.4159 31.8841C21.6643 33.0239 18.9056 33.3397 16.2134 32.8249L12.4723 23.7932C13.0179 22.9892 13.6489 22.2467 14.3543 21.5786C14.7411 21.2127 14.1878 20.6282 13.8014 20.9942C12.9988 21.7535 12.2872 22.6035 11.6808 23.5271C11.6793 23.5294 11.6786 23.5319 11.6771 23.5343C11.6141 23.6303 11.5523 23.7275 11.4914 23.8259C11.3799 23.5846 11.2525 23.351 11.1102 23.1265C9.96728 18.3187 10.6441 15.2067 11.3584 12.3184C11.8873 10.1794 12.3119 8.45713 11.0291 6.87421C12.8292 5.71458 14.0779 5.32593 14.927 5.06191C18.3846 9.56758 19.0796 14.3617 19.1393 17.7124C18.1958 18.0676 17.2854 18.5053 16.4186 19.0201C15.9567 19.2961 16.3796 19.9807 16.8313 19.7107C19.2802 18.2478 23.4858 16.6396 28.3062 17.9642L31.5309 25.7493C29.9568 28.5162 27.5643 30.58 24.4159 31.8841ZM32.0163 24.8182L29.3078 18.2793C29.7546 18.4383 30.1947 18.6197 30.624 18.822L32.5633 23.5039C32.4027 23.9505 32.2198 24.3899 32.0163 24.8182Z" fill="black"/>
<path d="M23.7147 29.3529C24.1868 29.1506 24.5481 28.7539 24.7059 28.2644C24.7904 28.0023 24.6465 27.7213 24.3844 27.6368C24.1223 27.5523 23.8413 27.6962 23.7569 27.9584C23.6875 28.1734 23.529 28.3477 23.322 28.4364C23.115 28.5251 22.8795 28.5196 22.6759 28.4215C22.4278 28.3019 22.1299 28.4062 22.0103 28.6541C21.8907 28.9021 21.9948 29.2001 22.2428 29.3197C22.7061 29.5431 23.2426 29.5551 23.7147 29.3529Z" fill="black"/>
<path d="M26.383 23.3834C25.7413 23.6584 25.4428 24.4042 25.7178 25.046C25.8263 25.2991 26.1193 25.4164 26.3725 25.3079C26.6256 25.1995 26.7428 24.9064 26.6344 24.6533C26.5759 24.5169 26.6393 24.3584 26.7757 24.3C26.9122 24.2415 27.0707 24.3049 27.1291 24.4413C27.2376 24.6944 27.5306 24.8117 27.7838 24.7032C28.0369 24.5948 28.1542 24.3017 28.0457 24.0486C27.7707 23.4068 27.0249 23.1084 26.383 23.3834Z" fill="black"/>
<path d="M17.1912 27.3216C16.5495 27.5966 16.251 28.3425 16.526 28.9842C16.6344 29.2373 16.9275 29.3546 17.1806 29.2462C17.4338 29.1377 17.551 28.8446 17.4426 28.5915C17.3841 28.4551 17.4475 28.2967 17.5839 28.2382C17.7204 28.1797 17.8789 28.2431 17.9373 28.3795C18.0458 28.6326 18.3388 28.7499 18.592 28.6415C18.8451 28.533 18.9623 28.2399 18.8539 27.9868C18.5789 27.345 17.8331 27.0466 17.1912 27.3216Z" fill="black"/>
<path d="M15.3079 20.6513C15.5301 20.6513 15.7102 20.4712 15.7102 20.249C15.7102 20.0268 15.5301 19.8467 15.3079 19.8467C15.0858 19.8467 14.9056 20.0268 14.9056 20.249C14.9056 20.4712 15.0858 20.6513 15.3079 20.6513Z" fill="black"/>
<path d="M27.0048 19.9213C26.1267 20.0654 25.2366 20.2588 24.3345 20.5016L24.0707 19.8648C23.8671 19.3735 23.1236 19.6806 23.3274 20.1727L23.555 20.7221C22.6112 21.0029 21.6604 21.3351 20.7026 21.7187L20.483 21.1886C20.2793 20.6962 19.5362 21.0053 19.7397 21.4965L19.9593 22.0263C19.013 22.431 18.1058 22.8683 17.2377 23.3385L17.0102 22.7894C16.806 22.2965 16.0636 22.6067 16.2669 23.0972L16.5304 23.7333C15.993 24.0432 15.4742 24.3649 14.974 24.6984C14.5258 24.9974 14.9835 25.6595 15.4205 25.3677C15.8773 25.063 16.3508 24.7684 16.8411 24.4836L17.1435 25.2136C17.3469 25.7047 18.0915 25.3997 17.8868 24.9057L17.5472 24.0857C18.4111 23.6149 19.3177 23.1762 20.2671 22.7697L20.6164 23.6128C20.8197 24.1039 21.5644 23.7989 21.3597 23.305L21.0105 22.4619C21.9681 22.0783 22.9194 21.7474 23.8644 21.4692L24.204 22.289C24.4076 22.7805 25.1518 22.4747 24.9474 21.9812L24.645 21.2511C25.4851 21.0289 26.3151 20.8502 27.1352 20.715C27.6601 20.629 27.5309 19.8353 27.0048 19.9213Z" fill="black"/>
</g>
<defs>
<clipPath id="clip0_675_733">
<rect width="34" height="34" fill="white"/>
</clipPath>
</defs>
</svg>
