<svg width="26" height="26" viewBox="0 0 26 26" fill="none" xmlns="http://www.w3.org/2000/svg">
<g id="fi_8017777">
<path id="Vector" fill-rule="evenodd" clip-rule="evenodd" d="M19.3333 12.6667C21.7265 12.6667 23.6667 10.7265 23.6667 8.33333C23.6667 5.9401 21.7265 4 19.3333 4C17.3142 4 15.6176 5.381 15.1365 7.25H3.08333C2.48503 7.25 2 7.73503 2 8.33333C2 8.93165 2.48503 9.41667 3.08333 9.41667H15.1365C15.6176 11.2856 17.3142 12.6667 19.3333 12.6667ZM17.1667 8.33333C17.1667 9.52995 18.1367 10.5 19.3333 10.5C20.53 10.5 21.5 9.52995 21.5 8.33333C21.5 7.13672 20.53 6.16667 19.3333 6.16667C18.1367 6.16667 17.1667 7.13672 17.1667 8.33333ZM2 17C2 14.6068 3.9401 12.6667 6.33333 12.6667C8.35249 12.6667 10.0491 14.0477 10.5301 15.9167H22.5833C23.1817 15.9167 23.6667 16.4017 23.6667 17C23.6667 17.5983 23.1817 18.0833 22.5833 18.0833H10.5301C10.0491 19.9523 8.35249 21.3333 6.33333 21.3333C3.9401 21.3333 2 19.3932 2 17ZM8.5 17C8.5 15.8034 7.52995 14.8333 6.33333 14.8333C5.13672 14.8333 4.16667 15.8034 4.16667 17C4.16667 18.1967 5.13672 19.1667 6.33333 19.1667C7.52995 19.1667 8.5 18.1967 8.5 17Z" fill="#061229"/>
</g>
</svg>
