<svg width="35" height="35" viewBox="0 0 35 35" fill="none" xmlns="http://www.w3.org/2000/svg">
<path d="M28.0315 11.1406V32.2666C28.031 32.5344 27.9778 32.7994 27.8748 33.0466C27.7718 33.2938 27.621 33.5183 27.4312 33.7072C27.2413 33.896 27.0161 34.0456 26.7684 34.1474C26.5206 34.2491 26.2553 34.301 25.9875 34.3001H9.009C8.7412 34.301 8.47585 34.2491 8.22813 34.1474C7.98041 34.0456 7.75518 33.896 7.56533 33.7072C7.37548 33.5183 7.22474 33.2938 7.12173 33.0466C7.01871 32.7994 6.96545 32.5344 6.965 32.2666V11.1371C7.29659 11.2486 7.64415 11.3053 7.994 11.3051C8.7019 11.3079 9.3901 11.0722 9.94762 10.6359C10.5051 10.1997 10.8995 9.58836 11.067 8.90057C11.1131 8.72776 11.1412 8.55065 11.151 8.37207H11.1685C11.1798 8.57564 11.2126 8.77743 11.2665 8.97407C11.4121 9.50524 11.6959 9.98832 12.089 10.3741C12.5177 10.8052 13.0613 11.104 13.6551 11.2349C14.2488 11.3658 14.8677 11.3232 15.438 11.1122C16.0082 10.9012 16.5058 10.5308 16.8714 10.0449C17.2369 9.55912 17.4552 8.97843 17.5 8.37207C17.515 8.57571 17.5502 8.77736 17.605 8.97407C17.7916 9.64897 18.1964 10.2431 18.7561 10.6638C19.3159 11.0845 19.9991 11.3081 20.6993 11.2997C21.3995 11.2913 22.0772 11.0514 22.6267 10.6174C23.1762 10.1834 23.5666 9.57975 23.737 8.90057C23.7831 8.72776 23.8112 8.55065 23.821 8.37207H23.842C23.889 9.13173 24.2171 9.84668 24.7625 10.3776C25.3587 10.9659 26.1614 11.2975 26.999 11.3016C27.3495 11.3029 27.698 11.2486 28.0315 11.1406Z" fill="#DEDEF9"/>
<path d="M25.9 8.94254V32.074C25.9227 32.6417 25.719 33.1951 25.3338 33.6125C24.9485 34.03 24.4131 34.2773 23.8455 34.3H9.009C8.7412 34.301 8.47585 34.2491 8.22813 34.1473C7.98041 34.0456 7.75518 33.896 7.56533 33.7071C7.37548 33.5183 7.22474 33.2938 7.12173 33.0466C7.01871 32.7994 6.96545 32.5343 6.965 32.2665V11.137C7.29659 11.2486 7.64415 11.3053 7.994 11.305C8.7019 11.3078 9.3901 11.0721 9.94762 10.6359C10.5051 10.1996 10.8995 9.58833 11.067 8.90054L11.2665 8.97404C11.5633 9.07294 11.8742 9.12259 12.187 9.12104C13.86 9.12104 15.2355 7.72104 15.337 5.91504C15.3841 6.73022 15.709 7.50469 16.2575 8.10954C16.5696 8.4514 16.9532 8.72028 17.381 8.89704L17.584 8.97404C17.8779 9.06957 18.185 9.118 18.494 9.11754C20.1705 9.11754 21.5425 7.71754 21.644 5.91504H21.7C21.7448 6.73074 22.07 7.50593 22.6205 8.10954C22.9288 8.45341 23.3103 8.72371 23.737 8.90054L23.94 8.97404C24.2362 9.06984 24.5457 9.11827 24.857 9.11754C25.2122 9.12063 25.5652 9.0614 25.9 8.94254Z" fill="#EFEDFF"/>
<path d="M17.4625 19.4363C17.9761 19.4363 18.4644 19.2139 18.8023 18.8262C18.9832 18.6185 18.9615 18.3036 18.7539 18.1227C18.5463 17.9418 18.2314 17.9634 18.0505 18.1711C17.902 18.3415 17.6877 18.4392 17.4625 18.4392C17.2373 18.4392 17.0229 18.3415 16.8745 18.1711C16.6935 17.9635 16.3786 17.9419 16.171 18.1227C15.9634 18.3036 15.9418 18.6185 16.1226 18.8262C16.4605 19.2139 16.9489 19.4363 17.4625 19.4363Z" fill="black"/>
<path d="M22.2663 15C21.568 15 21 15.568 21 16.2663C21 16.5416 21.2232 16.7648 21.4986 16.7648C21.774 16.7648 21.9972 16.5416 21.9972 16.2663C21.9972 16.1179 22.1178 15.9972 22.2663 15.9972C22.4147 15.9972 22.5354 16.1179 22.5354 16.2663C22.5354 16.5416 22.7586 16.7648 23.034 16.7648C23.3094 16.7648 23.5326 16.5416 23.5326 16.2663C23.5326 15.568 22.9645 15 22.2663 15Z" fill="black"/>
<path d="M12.2663 15C11.568 15 11 15.568 11 16.2663C11 16.5416 11.2232 16.7648 11.4986 16.7648C11.774 16.7648 11.9972 16.5416 11.9972 16.2663C11.9972 16.1179 12.1178 15.9972 12.2663 15.9972C12.4147 15.9972 12.5354 16.1179 12.5354 16.2663C12.5354 16.5416 12.7586 16.7648 13.034 16.7648C13.3094 16.7648 13.5326 16.5416 13.5326 16.2663C13.5326 15.568 12.9645 15 12.2663 15Z" fill="black"/>
<path d="M25.9875 34.8251H9.00901C8.3292 34.826 7.67681 34.5571 7.19513 34.0774C6.71345 33.5977 6.44186 32.9464 6.44001 32.2666V11.1371C6.43968 11.0529 6.4596 10.9699 6.49807 10.8951C6.53654 10.8202 6.59245 10.7557 6.66107 10.707C6.72969 10.6583 6.80902 10.6268 6.89238 10.6151C6.97573 10.6035 7.06066 10.612 7.14001 10.6401C7.416 10.7344 7.70586 10.7817 7.99751 10.7801C8.66466 10.78 9.30703 10.5273 9.79536 10.0727C10.2837 9.61818 10.5817 8.99553 10.6295 8.33009C10.6392 8.1973 10.6987 8.07307 10.796 7.98223C10.8933 7.89138 11.0214 7.84062 11.1545 7.84009C11.2894 7.83953 11.4195 7.88955 11.5193 7.98026C11.6191 8.07097 11.6812 8.1958 11.6935 8.33009C11.7381 8.96214 12.0105 9.55656 12.46 10.0031C12.8192 10.3589 13.2726 10.6046 13.7668 10.7114C14.261 10.8181 14.7754 10.7815 15.2494 10.6057C15.7235 10.4299 16.1374 10.1223 16.4425 9.71915C16.7476 9.316 16.9311 8.83406 16.9715 8.33009C16.9768 8.25285 16.9989 8.1777 17.0364 8.10996C17.0739 8.04222 17.1258 7.98355 17.1885 7.93809C17.2518 7.89361 17.324 7.86337 17.4002 7.84948C17.4763 7.83558 17.5545 7.83835 17.6295 7.85759C17.7376 7.88622 17.8343 7.94712 17.9069 8.03217C17.9794 8.11722 18.0243 8.22237 18.0355 8.33359C18.0825 8.99993 18.3808 9.62356 18.8701 10.0784C19.3593 10.5332 20.003 10.7852 20.671 10.7836C21.3389 10.7837 21.9821 10.5312 22.4716 10.0767C22.961 9.62234 23.2605 8.99964 23.31 8.33359C23.318 8.20081 23.3765 8.07612 23.4735 7.98504C23.5704 7.89395 23.6985 7.84335 23.8315 7.84359C23.9667 7.84296 24.0973 7.89285 24.1977 7.9835C24.298 8.07414 24.3609 8.199 24.374 8.33359C24.4226 8.99933 24.7214 9.62201 25.2103 10.0765C25.6992 10.531 26.342 10.7836 27.0095 10.7836C27.3022 10.7844 27.5931 10.7371 27.8705 10.6436C27.9501 10.6154 28.0354 10.6069 28.119 10.6187C28.2026 10.6305 28.2822 10.6624 28.3509 10.7115C28.4196 10.7606 28.4754 10.8256 28.5137 10.9009C28.5519 10.9762 28.5714 11.0596 28.5705 11.1441V32.2666C28.5696 32.6044 28.502 32.9387 28.3715 33.2503C28.2411 33.5619 28.0504 33.8446 27.8104 34.0824C27.5704 34.3201 27.2859 34.5081 26.973 34.6355C26.6602 34.763 26.3253 34.8274 25.9875 34.8251ZM7.49001 11.7986V32.2666C7.49186 32.6679 7.65283 33.0521 7.93759 33.3349C8.22236 33.6177 8.60767 33.776 9.00901 33.7751H25.9875C26.3888 33.776 26.7742 33.6177 27.0589 33.3349C27.3437 33.0521 27.5047 32.6679 27.5065 32.2666V11.7986C27.3405 11.8197 27.1733 11.8302 27.006 11.8301C26.5216 11.8324 26.0416 11.7383 25.5939 11.5532C25.1462 11.3681 24.7399 11.0958 24.3985 10.7521C24.1829 10.5425 23.9937 10.3075 23.835 10.0521C23.5455 10.5323 23.1507 10.9405 22.6804 11.2459C22.2101 11.5512 21.6766 11.7458 21.1201 11.8149C20.5636 11.884 19.9987 11.8258 19.468 11.6447C18.9373 11.4636 18.4547 11.1644 18.0565 10.7696C17.841 10.5502 17.654 10.3044 17.5 10.0381C17.2101 10.5184 16.815 10.9266 16.3443 11.2319C15.8737 11.5373 15.34 11.7319 14.7832 11.8009C14.2265 11.87 13.6614 11.8118 13.1304 11.6308C12.5994 11.4497 12.1165 11.1504 11.718 10.7556C11.5043 10.5453 11.3163 10.3103 11.158 10.0556C10.8306 10.599 10.3688 11.049 9.81713 11.3622C9.26544 11.6754 8.64241 11.8414 8.00801 11.8441C7.83453 11.8402 7.6615 11.825 7.49001 11.7986Z" fill="black"/>
<path d="M28.0315 28.7561V32.2561C28.0324 32.5248 27.9802 32.791 27.8778 33.0394C27.7754 33.2878 27.6249 33.5135 27.4349 33.7035C27.2449 33.8935 27.0192 34.044 26.7708 34.1464C26.5224 34.2488 26.2562 34.301 25.9875 34.3001H9.009C8.7412 34.301 8.47585 34.2491 8.22813 34.1474C7.98041 34.0457 7.75518 33.8961 7.56533 33.7072C7.37548 33.5183 7.22474 33.2939 7.12173 33.0467C7.01871 32.7995 6.96545 32.5344 6.965 32.2666V28.7666L28.0315 28.7561Z" fill="#CF9671"/>
<path d="M26.25 28.7561C26.2463 30.2296 25.6576 31.6413 24.6134 32.6809C23.5692 33.7205 22.155 34.3029 20.6815 34.3001H9.009C8.7412 34.301 8.47585 34.2491 8.22813 34.1474C7.98041 34.0457 7.75518 33.8961 7.56533 33.7072C7.37548 33.5183 7.22474 33.2939 7.12173 33.0467C7.01871 32.7995 6.96545 32.5344 6.965 32.2666V28.7666L26.25 28.7561Z" fill="#D8AA8B"/>
<path d="M25.9875 34.825H9.009C8.32919 34.8259 7.67681 34.557 7.19513 34.0772C6.71345 33.5975 6.44186 32.9463 6.44 32.2665V28.7665C6.44 28.6272 6.49532 28.4937 6.59377 28.3952C6.69223 28.2968 6.82576 28.2415 6.965 28.2415H28.0315C28.1707 28.2415 28.3043 28.2968 28.4027 28.3952C28.5012 28.4937 28.5565 28.6272 28.5565 28.7665V32.2665C28.5546 32.9463 28.2831 33.5975 27.8014 34.0772C27.3197 34.557 26.6673 34.8259 25.9875 34.825ZM7.49 29.281V32.2665C7.49046 32.4653 7.53014 32.6621 7.60677 32.8456C7.6834 33.0291 7.79547 33.1957 7.93657 33.3358C8.07767 33.4759 8.24502 33.5869 8.42904 33.6622C8.61307 33.7376 8.81015 33.7759 9.009 33.775H25.9875C26.3888 33.7759 26.7741 33.6176 27.0589 33.3348C27.3437 33.052 27.5046 32.6678 27.5065 32.2665V29.281H7.49Z" fill="black"/>
<path d="M12.2745 0.700093L11.2 5.91509L11.1685 6.05859V5.91509H4.89999L6.72349 1.49109C6.79977 1.30437 6.91964 1.13862 7.07309 1.00771C7.22653 0.876792 7.40909 0.784516 7.60549 0.738593C7.70585 0.711391 7.80953 0.698431 7.91349 0.700093H12.2745Z" fill="#005B50"/>
<path d="M9.95049 4.12303L9.57599 5.91503L9.54449 6.05853V5.91503H4.89999L6.72349 1.49103C6.79977 1.3043 6.91964 1.13855 7.07309 1.00764C7.22653 0.876725 7.40909 0.784448 7.60549 0.738525C7.98574 0.79833 8.3499 0.934661 8.67594 1.13927C9.00198 1.34388 9.28312 1.61251 9.50234 1.9289C9.72156 2.2453 9.8743 2.60289 9.95134 2.98002C10.0284 3.35716 10.0281 3.746 9.95049 4.12303Z" fill="#008070"/>
<path d="M11.1615 6.58356H11.102C10.9868 6.56947 10.8789 6.51923 10.794 6.44006H4.90001C4.8134 6.44009 4.72813 6.4187 4.6518 6.37778C4.57546 6.33687 4.51043 6.2777 4.46251 6.20556C4.41429 6.13366 4.38486 6.05081 4.37691 5.9646C4.36896 5.87839 4.38275 5.79157 4.41701 5.71206L6.23701 1.28806C6.3749 0.957425 6.60782 0.675158 6.90628 0.47702C7.20473 0.278882 7.55528 0.173791 7.91351 0.17506H12.2745C12.3524 0.175044 12.4293 0.192346 12.4996 0.225713C12.57 0.259079 12.632 0.307675 12.6812 0.36798C12.7305 0.428284 12.7657 0.498788 12.7844 0.574383C12.803 0.649979 12.8046 0.728774 12.789 0.80506L11.6725 6.17056C11.6476 6.28757 11.5833 6.39246 11.4902 6.46765C11.3972 6.54285 11.2811 6.58377 11.1615 6.58356ZM5.67351 5.39006H10.7625L11.6305 1.22506H7.91351C7.76407 1.22557 7.61806 1.26996 7.49362 1.35271C7.36918 1.43547 7.27178 1.55294 7.21351 1.69056L5.67351 5.39006Z" fill="black"/>
<path d="M11.158 6.65C11.0798 6.64999 11.0025 6.63273 10.9318 6.59946C10.861 6.56618 10.7984 6.51771 10.7485 6.4575C10.699 6.39791 10.6632 6.32809 10.6439 6.25305C10.6245 6.17802 10.622 6.09962 10.6365 6.0235V5.985C10.65 5.84576 10.7182 5.71757 10.8261 5.62863C10.9341 5.53969 11.073 5.49729 11.2122 5.51075C11.3515 5.52421 11.4797 5.59243 11.5686 5.7004C11.6576 5.80838 11.7 5.94726 11.6865 6.0865V6.125C11.6865 6.19424 11.6728 6.26279 11.6462 6.32672C11.6196 6.39064 11.5806 6.44868 11.5315 6.49747C11.4824 6.54627 11.4241 6.58487 11.36 6.61105C11.2959 6.63722 11.2272 6.65046 11.158 6.65Z" fill="black"/>
<path d="M17.4965 0.699951V5.91495H11.1965L12.2745 0.699951H17.4965Z" fill="#DEDEF9"/>
<path d="M16.0405 0.699951V2.60395C16.0377 3.48426 15.6856 4.32746 15.0615 4.9483C14.4374 5.56913 13.5923 5.91681 12.712 5.91495H11.2L12.2745 0.699951H16.0405Z" fill="#EFEDFF"/>
<path d="M17.5 6.44005H11.2C11.1218 6.44017 11.0445 6.42282 10.9739 6.38925C10.9032 6.35568 10.8409 6.30675 10.7916 6.24603C10.7423 6.18531 10.7072 6.11433 10.6888 6.0383C10.6705 5.96226 10.6693 5.88308 10.6855 5.80655L11.76 0.595049C11.7842 0.476466 11.8486 0.369887 11.9424 0.293352C12.0361 0.216816 12.1535 0.175024 12.2745 0.175049H17.5C17.6386 0.175973 17.7713 0.231693 17.869 0.33005C17.9667 0.428406 18.0215 0.561414 18.0215 0.700049V5.91505C18.0215 6.05368 17.9667 6.18669 17.869 6.28505C17.7713 6.3834 17.6386 6.43912 17.5 6.44005ZM11.844 5.39005H16.9715V1.22505H12.7015L11.844 5.39005Z" fill="black"/>
<path d="M23.835 6.07604V8.15154C23.835 8.99161 23.5013 9.79728 22.9073 10.3913C22.3132 10.9853 21.5076 11.319 20.6675 11.319C19.8274 11.319 19.0218 10.9853 18.4277 10.3913C17.8337 9.79728 17.5 8.99161 17.5 8.15154V5.91504H23.8L23.835 6.07604Z" fill="#005B50"/>
<path d="M22.2285 6.07604V8.15154C22.228 8.85009 21.9953 9.52866 21.567 10.0805C21.1387 10.6324 20.5391 11.0262 19.8625 11.2C19.3201 11.057 18.8251 10.7733 18.4275 10.3775C18.1343 10.0856 17.9014 9.73875 17.7423 9.35681C17.5832 8.97487 17.5008 8.56531 17.5 8.15154V5.91504H22.1935L22.2285 6.07604Z" fill="#008070"/>
<path d="M11.158 6.07604V8.15154C11.158 8.98697 10.8261 9.78819 10.2354 10.3789C9.64464 10.9697 8.84343 11.3015 8.008 11.3015C7.72944 11.3034 7.45182 11.2693 7.182 11.2C6.64096 11.0562 6.14728 10.7725 5.7505 10.3775C5.45686 10.0852 5.22379 9.73777 5.06463 9.35519C4.90547 8.97262 4.82336 8.5624 4.823 8.14804V5.91504H11.123L11.158 6.07604Z" fill="#005B50"/>
<path d="M9.5515 6.07604V8.15154C9.55077 8.85056 9.31755 9.52948 8.88857 10.0814C8.45959 10.6333 7.85922 11.0268 7.182 11.2C6.64096 11.0562 6.14728 10.7725 5.7505 10.3775C5.45686 10.0852 5.22379 9.73777 5.06463 9.35519C4.90547 8.97262 4.82336 8.5624 4.823 8.14804V5.91504H9.5165L9.5515 6.07604Z" fill="#008070"/>
<path d="M20.6675 11.8299C19.7329 11.8329 18.8321 11.4801 18.1482 10.843C17.4644 10.2059 17.0486 9.3324 16.9855 8.3999C16.9855 8.3054 16.9855 8.2214 16.9855 8.1374V5.9149C16.9855 5.77746 17.0393 5.64549 17.1355 5.54733C17.2317 5.44917 17.3626 5.39265 17.5 5.3899H23.8C23.9196 5.38936 24.0357 5.42966 24.1293 5.50412C24.2229 5.57858 24.2882 5.68275 24.3145 5.7994L24.3495 5.9639C24.3531 6.00114 24.3531 6.03865 24.3495 6.0759V8.1514V8.4069C24.2798 9.33636 23.8619 10.2053 23.1793 10.8399C22.4966 11.4745 21.5996 11.8281 20.6675 11.8299ZM18.025 6.4399V8.1514V8.3474C18.072 9.01374 18.3703 9.63737 18.8596 10.0922C19.3488 10.547 19.9925 10.7991 20.6605 10.7974C21.3284 10.7975 21.9716 10.545 22.4611 10.0906C22.9505 9.63614 23.25 9.01344 23.2995 8.3474C23.2995 8.2914 23.2995 8.2249 23.2995 8.1584V6.4399H18.025Z" fill="black"/>
<path d="M23.8 5.91495H17.5V0.699951H22.722L23.8 5.91495Z" fill="#005B50"/>
<path d="M19.0015 5.91495H17.5V0.699951H21.2625L21.665 2.65645C21.7468 3.05135 21.7394 3.45954 21.6434 3.85122C21.5473 4.2429 21.365 4.60819 21.1098 4.92043C20.8545 5.23268 20.5328 5.484 20.1681 5.65605C19.8033 5.82811 19.4048 5.91656 19.0015 5.91495Z" fill="#008070"/>
<path d="M23.8 6.44005H17.5C17.3608 6.44005 17.2272 6.38474 17.1288 6.28628C17.0303 6.18782 16.975 6.05429 16.975 5.91505V0.700049C16.975 0.56081 17.0303 0.427274 17.1288 0.328818C17.2272 0.230361 17.3608 0.175049 17.5 0.175049H22.722C22.8429 0.175676 22.9599 0.217706 23.0535 0.294133C23.1471 0.37056 23.2117 0.476766 23.2365 0.595049L24.3145 5.80655C24.3307 5.88308 24.3295 5.96226 24.3112 6.0383C24.2928 6.11433 24.2577 6.18531 24.2084 6.24603C24.1591 6.30675 24.0968 6.35568 24.0261 6.38925C23.9555 6.42282 23.8782 6.44017 23.8 6.44005ZM18.025 5.39005H23.156L22.295 1.22505H18.025V5.39005Z" fill="black"/>
<path d="M23.8455 6.65C23.7063 6.65 23.5727 6.59469 23.4743 6.49623C23.3758 6.39777 23.3205 6.26424 23.3205 6.125V6.0865C23.307 5.94726 23.3494 5.80838 23.4384 5.7004C23.5273 5.59243 23.6555 5.52421 23.7948 5.51075C23.934 5.49729 24.0729 5.53969 24.1808 5.62863C24.2888 5.71757 24.357 5.84576 24.3705 5.985V6.0235C24.3857 6.10041 24.3834 6.17975 24.3639 6.25568C24.3444 6.33161 24.3082 6.40221 24.2578 6.46229C24.2075 6.52238 24.1443 6.57043 24.073 6.60291C24.0016 6.63539 23.9239 6.65148 23.8455 6.65Z" fill="black"/>
<path d="M30.1 5.91495H23.842V6.05845L23.8 5.91495L22.7255 0.699951H27.083C27.3377 0.699833 27.5867 0.77481 27.799 0.915502C28.0113 1.05619 28.1774 1.25636 28.2765 1.49095L30.1 5.91495Z" fill="#DEDEF9"/>
<path d="M25.921 5.91495H23.8L22.7255 0.699951H25.5675C25.8222 0.699833 26.0712 0.77481 26.2835 0.915502C26.4958 1.05619 26.6619 1.25636 26.761 1.49095L27.573 3.45445C27.6856 3.72542 27.7295 4.02006 27.7006 4.31209C27.6717 4.60411 27.5709 4.88444 27.4074 5.12808C27.2438 5.37171 27.0225 5.57107 26.7631 5.70837C26.5037 5.84567 26.2144 5.91664 25.921 5.91495Z" fill="#EFEDFF"/>
<path d="M23.8385 6.58355C23.7181 6.58277 23.6016 6.54061 23.5085 6.46414C23.4155 6.38768 23.3516 6.28155 23.3275 6.16355L23.296 6.02705L22.211 0.805049C22.1954 0.728763 22.197 0.649968 22.2156 0.574372C22.2343 0.498777 22.2695 0.428273 22.3187 0.367968C22.368 0.307664 22.43 0.259068 22.5004 0.225702C22.5707 0.192335 22.6476 0.175033 22.7255 0.175049H27.083C27.4405 0.17487 27.7902 0.279999 28.0883 0.477314C28.3865 0.674629 28.6199 0.955389 28.7595 1.28455L30.597 5.71205C30.6312 5.79156 30.645 5.87838 30.6371 5.96459C30.6291 6.0508 30.5997 6.13365 30.5515 6.20555C30.5023 6.2797 30.435 6.34012 30.356 6.38114C30.2771 6.42216 30.189 6.44243 30.1 6.44005H24.206C24.1188 6.51995 24.0085 6.57018 23.891 6.58355H23.8385ZM24.2375 5.39005H29.3265L27.7935 1.69055C27.7337 1.55399 27.636 1.4375 27.5119 1.35496C27.3878 1.27242 27.2425 1.22733 27.0935 1.22505H23.3695L24.2375 5.39005Z" fill="black"/>
<path d="M11.158 6.65C11.0798 6.64999 11.0025 6.63273 10.9318 6.59946C10.861 6.56618 10.7984 6.51771 10.7485 6.4575C10.699 6.39791 10.6632 6.32809 10.6439 6.25305C10.6245 6.17802 10.622 6.09962 10.6365 6.0235V5.985C10.65 5.84576 10.7182 5.71757 10.8261 5.62863C10.9341 5.53969 11.073 5.49729 11.2122 5.51075C11.3515 5.52421 11.4797 5.59243 11.5686 5.7004C11.6576 5.80838 11.7 5.94726 11.6865 6.0865V6.125C11.6865 6.19424 11.6728 6.26279 11.6462 6.32672C11.6196 6.39064 11.5806 6.44868 11.5315 6.49747C11.4824 6.54627 11.4241 6.58487 11.36 6.61105C11.2959 6.63722 11.2272 6.65046 11.158 6.65Z" fill="black"/>
<path d="M11.1615 6.60089H11.109C10.979 6.58871 10.8582 6.52854 10.7702 6.43211C10.6822 6.33569 10.6333 6.20994 10.633 6.07939V5.91489C10.633 5.77565 10.6883 5.64212 10.7868 5.54366C10.8852 5.44521 11.0188 5.38989 11.158 5.38989C11.2379 5.38999 11.3169 5.40686 11.3898 5.43942C11.4628 5.47198 11.5281 5.51949 11.5815 5.57889C11.6322 5.63881 11.6696 5.70877 11.6913 5.78417C11.713 5.85957 11.7185 5.93871 11.7075 6.01639L11.676 6.17739C11.6519 6.29632 11.5876 6.40333 11.4939 6.48045C11.4002 6.55757 11.2828 6.6001 11.1615 6.60089Z" fill="black"/>
<path d="M23.835 6.6009C23.7154 6.60111 23.5993 6.56018 23.5063 6.48499C23.4133 6.4098 23.3489 6.3049 23.324 6.1879L23.289 6.0269C23.2716 5.95034 23.2717 5.87085 23.2894 5.79435C23.307 5.71784 23.3417 5.64631 23.3908 5.58507C23.4399 5.52383 23.5022 5.47448 23.5731 5.44068C23.6439 5.40689 23.7215 5.38953 23.8 5.3899H23.835C23.9743 5.3899 24.1078 5.44521 24.2062 5.54367C24.3047 5.64212 24.36 5.77566 24.36 5.9149V6.0759C24.36 6.20481 24.3125 6.32921 24.2267 6.42539C24.1408 6.52156 24.0226 6.58279 23.8945 6.5974L23.835 6.6009Z" fill="black"/>
<path d="M23.8455 6.65005C23.706 6.65005 23.5721 6.59485 23.473 6.49649C23.374 6.39814 23.3179 6.26461 23.317 6.12505C23.319 5.99348 23.3693 5.86724 23.4584 5.77041C23.5475 5.67358 23.6691 5.61293 23.8 5.60005C23.9285 5.58593 24.0576 5.62 24.1623 5.69566C24.2671 5.77131 24.34 5.88317 24.367 6.00955V6.02705C24.3815 6.10342 24.3789 6.18205 24.3593 6.25728C24.3398 6.33251 24.3037 6.40246 24.2538 6.46207C24.2039 6.52167 24.1414 6.56946 24.0708 6.60197C24.0002 6.63447 23.9232 6.6509 23.8455 6.65005Z" fill="black"/>
<path d="M30.177 6.06904V8.16904C30.177 8.58448 30.0949 8.99581 29.9352 9.37936C29.7756 9.76291 29.5417 10.1111 29.247 10.4039C28.9523 10.6967 28.6025 10.9283 28.2179 11.0853C27.8333 11.2424 27.4214 11.3218 27.006 11.319C26.7037 11.3207 26.4029 11.2771 26.1135 11.1895C25.4591 10.9995 24.884 10.6024 24.4745 10.0578C24.0649 9.51318 23.843 8.85046 23.842 8.16904V6.11454V5.91504H30.1L30.177 6.06904Z" fill="#DEDEF9"/>
<path d="M28.3885 6.06904V8.16904C28.3873 8.85091 28.1649 9.51397 27.7547 10.0586C27.3444 10.6033 26.7685 11.0001 26.1135 11.1895C25.4591 10.9995 24.884 10.6024 24.4745 10.0578C24.0649 9.51318 23.843 8.85046 23.842 8.16904V6.11454V5.91504H28.3255L28.3885 6.06904Z" fill="#EFEDFF"/>
<path d="M27.006 11.8299C26.0723 11.8296 25.1734 11.4756 24.4903 10.8392C23.8071 10.2028 23.3904 9.3312 23.324 8.39989C23.324 8.29839 23.324 8.22139 23.324 8.14089V5.91489C23.324 5.77565 23.3793 5.64212 23.4778 5.54366C23.5762 5.44521 23.7098 5.38989 23.849 5.38989H30.1C30.2038 5.38989 30.3052 5.42042 30.3917 5.47768C30.4782 5.53494 30.546 5.6164 30.5865 5.71189L30.6495 5.86589C30.6744 5.93072 30.6874 5.99947 30.688 6.06889V8.16889C30.6916 8.94125 30.4517 9.69511 30.0025 10.3234C29.5533 10.9517 28.9175 11.4225 28.1855 11.6689C27.8034 11.785 27.4052 11.8393 27.006 11.8299ZM24.367 6.43989V8.15489V8.34039C24.4086 8.97047 24.6801 9.56335 25.13 10.0064C25.3748 10.2527 25.6661 10.4479 25.9869 10.5807C26.3077 10.7134 26.6518 10.7812 26.999 10.7799C27.2917 10.7807 27.5826 10.7334 27.86 10.6399C28.3803 10.4647 28.8324 10.1307 29.1526 9.68482C29.4729 9.23897 29.6451 8.70384 29.645 8.15489V6.43989H24.367Z" fill="black"/>
<path d="M19.075 32.0529H15.925C15.7858 32.0529 15.6522 31.9976 15.5538 31.8992C15.4553 31.8007 15.4 31.6672 15.4 31.5279C15.4 31.3887 15.4553 31.2552 15.5538 31.1567C15.6522 31.0582 15.7858 31.0029 15.925 31.0029H19.075C19.2142 31.0029 19.3478 31.0582 19.4462 31.1567C19.5447 31.2552 19.6 31.3887 19.6 31.5279C19.6 31.6672 19.5447 31.8007 19.4462 31.8992C19.3478 31.9976 19.2142 32.0529 19.075 32.0529Z" fill="black"/>
<path d="M17.5 6.06904V8.16904C17.5 8.58448 17.4178 8.99581 17.2582 9.37936C17.0986 9.76291 16.8647 10.1111 16.57 10.4039C16.2752 10.6967 15.9255 10.9283 15.5409 11.0853C15.1563 11.2424 14.7444 11.3218 14.329 11.319C14.0267 11.3207 13.7259 11.2771 13.4365 11.1895C12.7815 11.0001 12.2056 10.6033 11.7953 10.0586C11.3851 9.51397 11.1627 8.85091 11.1615 8.16904V6.11454V5.91504H17.451L17.5 6.06904Z" fill="#DEDEF9"/>
<path d="M15.7255 6.06904V8.16904C15.7243 8.85091 15.5019 9.51397 15.0917 10.0586C14.6814 10.6033 14.1055 11.0001 13.4505 11.1895C12.7955 11.0001 12.2196 10.6033 11.8094 10.0586C11.3991 9.51397 11.1767 8.85091 11.1755 8.16904V6.11454V5.91504H15.6625L15.7255 6.06904Z" fill="#EFEDFF"/>
<path d="M14.329 11.83C13.3943 11.8322 12.4936 11.4792 11.8093 10.8424C11.125 10.2055 10.7083 9.3325 10.6435 8.39999C10.6435 8.31599 10.6435 8.23549 10.6435 8.14799V6.07599C10.6401 6.04224 10.6401 6.00823 10.6435 5.97449L10.675 5.81349C10.6988 5.69247 10.7645 5.58371 10.8605 5.50627C10.9565 5.42883 11.0767 5.38766 11.2 5.38999H17.5C17.6392 5.38999 17.7728 5.4453 17.8712 5.54375C17.9697 5.64221 18.025 5.77575 18.025 5.91499V8.15149V8.39999C17.956 9.33281 17.5366 10.205 16.851 10.8413C16.1654 11.4775 15.2644 11.8308 14.329 11.83ZM11.683 6.43999V8.15499V8.34399C11.7293 8.97357 12.0015 9.56523 12.4495 10.01C12.8087 10.3658 13.2621 10.6115 13.7563 10.7183C14.2505 10.825 14.7649 10.7884 15.2389 10.6126C15.713 10.4368 16.1269 10.1292 16.432 9.72605C16.7371 9.32289 16.9206 8.84096 16.961 8.33699C16.961 8.28099 16.961 8.21799 16.961 8.15149V6.43999H11.683Z" fill="black"/>
<path d="M7.99399 11.83C7.5089 11.832 7.0282 11.7381 6.57952 11.5537C6.13084 11.3693 5.72302 11.098 5.37949 10.7555C5.03552 10.4156 4.76273 10.0106 4.57704 9.56412C4.39135 9.11762 4.29649 8.6386 4.29799 8.15503V6.05503C4.29859 5.9856 4.31163 5.91685 4.33649 5.85203L4.39949 5.69803C4.44306 5.60292 4.51389 5.52288 4.60298 5.46805C4.69208 5.41322 4.79545 5.38606 4.89999 5.39003H11.158C11.2972 5.39003 11.4308 5.44534 11.5292 5.5438C11.6277 5.64225 11.683 5.77579 11.683 5.91503V8.15503V8.40003C11.6165 9.33254 11.1988 10.2051 10.5142 10.8417C9.82951 11.4783 8.92887 11.8315 7.99399 11.83ZM5.34799 6.44003V8.15503C5.3517 8.85372 5.63233 9.52243 6.12835 10.0145C6.62437 10.5066 7.29529 10.7819 7.99399 10.78C8.66114 10.78 9.30351 10.5272 9.79184 10.0727C10.2802 9.61811 10.5782 8.99547 10.626 8.33003C10.626 8.27403 10.626 8.21453 10.626 8.14803V6.44003H5.34799Z" fill="black"/>
</svg>
