<svg width="41" height="41" viewBox="0 0 41 41" fill="none" xmlns="http://www.w3.org/2000/svg">
<path fill-rule="evenodd" clip-rule="evenodd" d="M20.5 0C9.17816 0 0 9.17816 0 20.5C0 31.8218 9.17816 41 20.5 41C31.8218 41 41 31.8218 41 20.5C41 9.17816 31.8218 0 20.5 0ZM28.9191 13.5104C28.9453 13.4734 28.9716 13.4365 28.9996 13.4013L29 13.4009V13.328C28.9097 13.0766 28.716 12.9938 28.4323 13.0004C28.1542 13.0067 27.8759 13.0058 27.5974 13.0048C27.3155 13.0038 27.0336 13.0029 26.7518 13.0095C26.6074 13.0128 26.4457 13.0536 26.3254 13.1244C25.9174 13.3648 25.5154 13.6151 25.1275 13.8818C22.2911 15.8317 19.8291 18.1294 17.5801 20.6233C17.3921 20.8317 17.2067 21.0418 17.0206 21.2529C16.9395 21.3448 16.8583 21.4369 16.7766 21.5292C16.7614 21.5199 16.7473 21.5115 16.734 21.5035C16.7021 21.4842 16.6747 21.4677 16.6478 21.4507C16.3145 21.2391 15.9812 21.0275 15.648 20.8159C14.7464 20.2434 13.8448 19.6708 12.9429 19.0987C12.6389 18.9057 12.5041 18.9152 12.2445 19.1469L12.1675 19.2156C11.8361 19.5115 11.5049 19.8073 11.1758 20.1053C10.9571 20.303 10.9447 20.4537 11.126 20.6824C11.248 20.8364 11.3708 20.9898 11.4936 21.1431C11.6495 21.3377 11.8053 21.5323 11.9593 21.728C12.0513 21.845 12.1434 21.9621 12.2355 22.0791C13.687 23.9234 15.1386 25.7678 16.4468 27.7012C16.4994 27.779 16.5742 27.8441 16.649 27.9092C16.6833 27.9391 16.7175 27.9689 16.7497 28H16.9499C16.9845 27.9681 17.022 27.9378 17.0595 27.9074C17.1406 27.8418 17.2217 27.7762 17.274 27.6954C19.1339 24.8268 21.1229 22.0355 23.3149 19.3669C24.9614 17.3625 26.6985 15.4286 28.7324 13.7311C28.8064 13.6691 28.8627 13.5898 28.9191 13.5104Z" fill="#008070"/>
</svg>
