<svg width="68" height="78" viewBox="0 0 68 78" fill="none" xmlns="http://www.w3.org/2000/svg">
<g clip-path="url(#clip0_941_1903)">
<path d="M68.0003 16.8672H65.5664C65.5664 16.2576 66.1117 15.7622 66.7828 15.7622C67.4538 15.7622 67.9991 16.2565 67.9991 16.8672H68.0003Z" fill="url(#paint0_linear_941_1903)"/>
<path d="M68.0003 57.7567L67.553 59.8359H66.015L65.5664 57.7567V16.8626H68.0003V57.7567Z" fill="url(#paint1_linear_941_1903)"/>
<path d="M66.4861 62.0189L66.0352 59.9277H67.5344L67.0834 62.0189C67.0194 62.3166 66.5502 62.3166 66.4861 62.0189Z" fill="url(#paint2_linear_941_1903)"/>
<path d="M67.5343 59.9297H66.0338L66.0156 59.8396H67.5536L67.5343 59.9297Z" fill="url(#paint3_linear_941_1903)"/>
<path d="M3.66963 0H61.8965C63.9193 0 65.5661 1.49597 65.5661 3.33353V74.6665C65.5661 76.5051 63.9193 78 61.8965 78H3.66963C1.6468 78 0 76.5051 0 74.6665V3.33353C0 1.49597 1.6468 0 3.66963 0ZM3.66963 0.0307617C3.57895 0.0307617 3.48826 0.0340576 3.39758 0.0395432C3.36977 0.0417404 3.34075 0.0439377 3.31174 0.0461349C3.16181 0.0593185 3.01551 0.0812759 2.87162 0.10984C2.8426 0.115326 2.81479 0.120827 2.78578 0.128517C2.76159 0.134003 2.73499 0.139496 2.71202 0.146088C2.45569 0.209793 2.21145 0.297661 1.98172 0.408592C1.95633 0.420677 1.93094 0.432762 1.90676 0.444839C1.80519 0.495369 1.70846 0.551384 1.61294 0.609596C1.59118 0.623871 1.56942 0.638145 1.54644 0.652428C1.50654 0.678787 1.46543 0.706245 1.42674 0.734802C1.32397 0.808395 1.22603 0.886375 1.13172 0.969856C1.10996 0.988525 1.09061 1.0061 1.07006 1.02587C1.05918 1.03466 1.04829 1.04565 1.03983 1.05443C1.03016 1.06322 1.01927 1.0731 1.01202 1.08189C0.980583 1.11044 0.951565 1.1401 0.923755 1.17085C0.897155 1.19832 0.869346 1.22797 0.843955 1.25762C0.833073 1.26971 0.820982 1.28179 0.811309 1.29387C0.804054 1.30046 0.798009 1.30815 0.791963 1.31584C0.765363 1.34769 0.737553 1.37955 0.712162 1.4114C0.712162 1.41469 0.708535 1.41689 0.704908 1.41908C0.67468 1.45753 0.645661 1.49816 0.616643 1.5388C0.614225 1.5432 0.610597 1.54649 0.608179 1.55088C0.58037 1.59042 0.55377 1.62997 0.528378 1.67171C0.49936 1.71564 0.47276 1.76177 0.44495 1.8068C0.440114 1.81339 0.436487 1.82108 0.432859 1.82767C0.409886 1.86611 0.389331 1.90565 0.369986 1.9463C0.345804 1.99353 0.322831 2.04076 0.301067 2.08908C0.278094 2.13741 0.258748 2.18574 0.239403 2.23627C0.181366 2.38454 0.13542 2.53722 0.102774 2.69428C0.0906828 2.747 0.0798009 2.80082 0.0725462 2.85355C0.0640825 2.90077 0.058037 2.9458 0.0532006 2.99303C0.0532006 2.99962 0.0532006 3.00841 0.0507824 3.015C0.0471551 3.03806 0.0447368 3.06333 0.0447368 3.08749C0.0411095 3.11715 0.0386913 3.1468 0.0374822 3.17646C0.0338549 3.22698 0.0326458 3.2786 0.0326458 3.33023V74.6665C0.0326458 74.7181 0.0326458 74.7697 0.0374822 74.8202C0.0374822 74.8499 0.0411095 74.8796 0.0447368 74.9092C0.0447368 74.9334 0.0471551 74.9586 0.0507824 74.9817C0.0507824 74.9894 0.0532006 74.9971 0.0532006 75.0037C0.058037 75.0509 0.0640825 75.097 0.0725462 75.1432C0.08101 75.1959 0.0906828 75.2497 0.102774 75.3024C0.13542 75.4595 0.181366 75.6122 0.239403 75.7604C0.258748 75.811 0.278094 75.8593 0.301067 75.9076C0.322831 75.956 0.344595 76.0032 0.369986 76.0504C0.389331 76.09 0.409886 76.1295 0.432859 76.169C0.437696 76.1767 0.441323 76.1833 0.44495 76.1899C0.471551 76.236 0.49936 76.2822 0.528378 76.3261C0.55256 76.3667 0.58037 76.4063 0.608179 76.4469C0.611807 76.4513 0.615434 76.4546 0.616643 76.459C0.645661 76.4985 0.67468 76.5392 0.704908 76.5787C0.708535 76.582 0.710953 76.5842 0.712162 76.5864C0.737553 76.6194 0.765363 76.6501 0.791963 76.682C0.798009 76.6897 0.804054 76.6973 0.811309 76.7039C0.820982 76.716 0.833073 76.7281 0.843955 76.7402C0.869346 76.7698 0.897155 76.7995 0.923755 76.827C0.951565 76.8577 0.980583 76.8874 1.01202 76.9159C1.01927 76.9247 1.03016 76.9346 1.03983 76.9434C1.04829 76.9522 1.05918 76.9631 1.07006 76.9719C1.09061 76.9917 1.10996 77.0093 1.13172 77.028C1.22603 77.1114 1.32397 77.1905 1.42674 77.263C1.46543 77.2916 1.50654 77.319 1.54644 77.3454C1.56942 77.3597 1.59118 77.3739 1.61294 77.3882C1.70846 77.4475 1.8064 77.5024 1.90676 77.553C1.93094 77.565 1.95633 77.5771 1.98172 77.5892C2.21145 77.699 2.4569 77.788 2.71202 77.8517C2.73499 77.8583 2.76159 77.8638 2.78578 77.8693C2.81358 77.877 2.84139 77.8825 2.87162 77.888C3.01551 77.9176 3.16181 77.9385 3.31174 77.9517C3.33955 77.955 3.36856 77.9572 3.39758 77.9594C3.48706 77.966 3.57774 77.9681 3.66963 77.9681H61.8965C61.9871 77.9681 62.0778 77.9649 62.1685 77.9594C62.1939 77.9572 62.2193 77.955 62.2447 77.9528C62.397 77.9396 62.5482 77.9176 62.6945 77.888C62.7223 77.8825 62.7501 77.877 62.7791 77.8693C62.7996 77.8649 62.8202 77.8605 62.842 77.855C63.1019 77.7913 63.351 77.7023 63.5844 77.5903C63.6097 77.5793 63.6351 77.5672 63.6593 77.5541C63.7113 77.5288 63.7609 77.5024 63.8092 77.4739C63.8322 77.4618 63.8552 77.4486 63.8782 77.4343C63.9024 77.4212 63.9253 77.4069 63.9483 77.3915C64.0136 77.352 64.0777 77.3091 64.1393 77.2641C64.1671 77.2443 64.1937 77.2257 64.2191 77.2048C64.2602 77.1751 64.3001 77.1422 64.34 77.1103C64.363 77.0906 64.386 77.0719 64.409 77.051C64.4489 77.017 64.4888 76.9807 64.5275 76.9445C64.5275 76.9445 64.5311 76.9423 64.5323 76.9401C64.6097 76.8665 64.6822 76.7896 64.7523 76.7094C64.7523 76.7072 64.7548 76.7061 64.7572 76.7039C64.8612 76.5842 64.9555 76.4579 65.0401 76.3261C65.0691 76.2822 65.0969 76.236 65.1235 76.1899C65.1272 76.1833 65.132 76.1756 65.1356 76.169C65.1586 76.1306 65.1792 76.0911 65.1985 76.0504C65.2227 76.0032 65.2469 75.956 65.2674 75.9076C65.2904 75.8582 65.3097 75.8099 65.3291 75.7604C65.3484 75.7121 65.3666 75.6638 65.3823 75.6144C65.3823 75.6122 65.3823 75.6089 65.3847 75.6067C65.4016 75.5572 65.4162 75.5078 65.4295 75.4573C65.444 75.4068 65.456 75.3541 65.4669 75.3024C65.479 75.2497 65.4899 75.1959 65.4972 75.1432C65.5044 75.0959 65.5117 75.0509 65.5165 75.0037C65.5165 74.9971 65.5165 74.9883 65.5189 74.9817C65.5274 74.9048 65.5322 74.829 65.5346 74.7511C65.5346 74.7225 65.5346 74.695 65.5346 74.6665V3.33353C65.5346 3.30497 65.5346 3.2775 65.5346 3.24895C65.5322 3.17097 65.5274 3.09518 65.5189 3.0183C65.5189 3.0117 65.5165 3.00292 65.5165 2.99633C65.5117 2.9491 65.5056 2.90407 65.4972 2.85683C65.4887 2.80412 65.479 2.75029 65.4669 2.69757C65.4573 2.64595 65.444 2.59323 65.4295 2.54271C65.4162 2.49328 65.4016 2.44276 65.3847 2.39333C65.3847 2.39004 65.3823 2.38674 65.3823 2.38564C65.3666 2.33621 65.3484 2.28789 65.3291 2.23956C65.3097 2.19013 65.2892 2.14181 65.2674 2.09238C65.2469 2.04405 65.2239 1.99682 65.1985 1.94959C65.1792 1.91005 65.1586 1.87051 65.1356 1.83097C65.1308 1.82438 65.1272 1.81669 65.1235 1.8101C65.0982 1.76397 65.0691 1.71783 65.0401 1.675C64.9555 1.5421 64.8612 1.41579 64.7572 1.29716C64.7548 1.29497 64.7536 1.29387 64.7523 1.29167C64.6822 1.21149 64.6097 1.13461 64.5323 1.06102C64.5323 1.05882 64.5287 1.05772 64.5275 1.05663C64.4888 1.02038 64.4501 0.983032 64.409 0.950081C64.386 0.929214 64.3642 0.910545 64.34 0.890778C64.3001 0.857826 64.2602 0.825966 64.2191 0.79631C64.1937 0.775444 64.1671 0.756775 64.1393 0.737C64.0777 0.691971 64.0136 0.649139 63.9483 0.609596C63.9253 0.594215 63.9011 0.579941 63.8782 0.566757C63.8552 0.552483 63.8322 0.539299 63.8092 0.527222C63.7597 0.498665 63.7101 0.472298 63.6593 0.447037C63.6351 0.433853 63.6097 0.421776 63.5844 0.410789C63.351 0.298759 63.1031 0.208694 62.842 0.146088C62.8202 0.140594 62.7996 0.1362 62.7791 0.131805C62.7513 0.125214 62.7235 0.118629 62.6945 0.113136C62.5469 0.0823822 62.397 0.0615082 62.2447 0.0483322C62.2193 0.0461349 62.1939 0.0439377 62.1685 0.0417404C62.079 0.0351486 61.9883 0.032959 61.8965 0.032959H3.66963V0.0307617Z" fill="#F3DABA"/>
<path d="M3.66948 75.4755H61.8963C62.3848 75.4755 62.7826 75.1152 62.7826 74.6704V3.33742C62.7826 2.89368 62.386 2.53232 61.8963 2.53232H3.66948C3.181 2.53232 2.7832 2.89259 2.7832 3.33742V74.6715C2.7832 75.1152 3.17979 75.4766 3.66948 75.4766V75.4755Z" fill="#212121"/>
<path d="M3.67041 2.47923H61.8972C62.4171 2.47923 62.8391 2.86256 62.8391 3.33485V74.6678C62.8391 75.1401 62.4171 75.5234 61.8972 75.5234H3.67041C3.15049 75.5234 2.72852 75.1401 2.72852 74.6678V3.33485C2.72852 2.86256 3.15049 2.47923 3.67041 2.47923ZM3.67041 2.52975C3.18193 2.52975 2.78413 2.89112 2.78413 3.33485V74.6678C2.78413 75.1116 3.18193 75.4729 3.67041 75.4729H61.8972C62.3857 75.4729 62.7835 75.1116 62.7835 74.6678V3.33485C62.7835 2.89112 62.3857 2.52975 61.8972 2.52975H3.67041Z" fill="#212121"/>
<path d="M3.66879 0.337357H61.8956C63.7153 0.337357 65.1952 1.68176 65.1952 3.33479V74.6666C65.1952 76.3197 63.7153 77.6641 61.8956 77.6641H3.66879C1.84908 77.6641 0.369141 76.3197 0.369141 74.6666V3.33369C0.369141 1.68066 1.84908 0.336258 3.66879 0.336258V0.337357ZM3.66879 2.47916C3.14887 2.47916 2.72689 2.86249 2.72689 3.33479V74.6666C2.72689 75.1389 3.14887 75.5223 3.66879 75.5223H61.8956C62.4155 75.5223 62.8375 75.1389 62.8375 74.6666V3.33369C62.8375 2.86139 62.4155 2.47806 61.8956 2.47806H3.66879V2.47916Z" fill="#030303"/>
<path d="M65.5288 74.8219C65.5264 74.8571 65.5239 74.8933 65.5203 74.9285C65.5203 74.9472 65.5179 74.9636 65.5155 74.9823C65.5155 74.99 65.5131 74.9977 65.5131 75.0043C65.507 75.0515 65.501 75.0976 65.4937 75.1438C65.4852 75.1976 65.4744 75.2503 65.4635 75.303C65.4526 75.3547 65.4405 75.4074 65.426 75.4579C65.4115 75.5073 65.397 75.5579 65.3813 75.6073C65.3813 75.6106 65.3788 75.6139 65.3788 75.615C65.3619 75.6644 65.3438 75.7127 65.3257 75.761C65.3063 75.8116 65.2858 75.8599 65.264 75.9082C65.2422 75.9566 65.2205 76.0038 65.1951 76.051C65.1745 76.0906 65.154 76.1301 65.1322 76.1696C65.1274 76.1773 65.1237 76.1839 65.1201 76.1905C65.0935 76.2366 65.0657 76.2828 65.0367 76.3267C64.9508 76.4596 64.8565 76.5859 64.7537 76.7045C64.7513 76.7067 64.7501 76.7078 64.7489 76.71C64.6788 76.7891 64.605 76.8671 64.5288 76.9407C64.5288 76.9429 64.5252 76.944 64.524 76.9451C64.4853 76.9813 64.4466 77.0176 64.4055 77.0516C64.3825 77.0725 64.3608 77.0912 64.3366 77.1109C64.2967 77.1428 64.2568 77.1757 64.2157 77.2054C64.1903 77.2263 64.1637 77.2449 64.1359 77.2647C64.0742 77.3086 64.0101 77.3515 63.9449 77.3921C63.9219 77.4064 63.8977 77.4207 63.8747 77.4349C63.8518 77.4481 63.8288 77.4613 63.8058 77.4745C63.7562 77.503 63.7067 77.5294 63.6559 77.5547C63.6317 77.5668 63.6051 77.5788 63.5809 77.5909C63.3475 77.7029 63.0997 77.793 62.8385 77.8556C62.818 77.8611 62.7974 77.8655 62.7756 77.8699C62.7478 77.8776 62.72 77.8831 62.691 77.8886C62.5435 77.9193 62.3936 77.9402 62.2412 77.9534C62.2158 77.9556 62.1904 77.9578 62.1651 77.96C62.0756 77.9666 61.9849 77.9688 61.893 77.9688H3.66982C3.57913 77.9688 3.48845 77.9655 3.39777 77.96C3.36996 77.9578 3.34094 77.9556 3.31192 77.9523C3.16199 77.9391 3.01569 77.9171 2.87181 77.8886C2.84279 77.8831 2.81498 77.8776 2.78596 77.8699C2.76178 77.8644 2.73518 77.8589 2.7122 77.8523C2.45587 77.7886 2.21164 77.7008 1.98191 77.5898C1.95651 77.5777 1.93112 77.5657 1.90694 77.5536C1.80538 77.503 1.70865 77.447 1.61313 77.3888C1.59137 77.3745 1.5696 77.3603 1.54663 77.346C1.50673 77.3196 1.46562 77.2922 1.42693 77.2636C1.32415 77.19 1.22622 77.112 1.13191 77.0286C1.11014 77.0099 1.0908 76.9923 1.07024 76.9725C1.05936 76.9638 1.04848 76.9528 1.04001 76.944C1.03034 76.9352 1.01946 76.9253 1.0122 76.9165C0.980768 76.888 0.95175 76.8583 0.92394 76.8276C0.89734 76.8001 0.869531 76.7704 0.84414 76.7408C0.833258 76.7287 0.821167 76.7166 0.811494 76.7045C0.804239 76.6968 0.798194 76.6903 0.792148 76.6826C0.765548 76.6507 0.737738 76.6189 0.712347 76.587C0.712347 76.5837 0.70872 76.5815 0.705093 76.5793C0.674865 76.5409 0.645846 76.5002 0.616828 76.4596C0.61441 76.4552 0.610783 76.4519 0.608364 76.4475C0.581764 76.408 0.553955 76.3684 0.528563 76.3267C0.499545 76.2828 0.472945 76.2366 0.445135 76.1905C0.440299 76.1839 0.436672 76.1762 0.433044 76.1696C0.41128 76.1312 0.390726 76.0917 0.370171 76.051C0.345989 76.0038 0.323016 75.9566 0.301252 75.9082C0.278279 75.8599 0.258933 75.8116 0.239588 75.761C0.18276 75.6128 0.136814 75.4601 0.102959 75.303C0.0920769 75.2503 0.081195 75.1976 0.0727313 75.1438C0.0654766 75.0976 0.0594311 75.0515 0.0533856 75.0043C0.0533856 74.9977 0.0533856 74.9889 0.0509674 74.9823C0.0473401 74.9592 0.0449219 74.934 0.0449219 74.9098C0.0449219 74.9296 0.0485492 74.9483 0.0509674 74.968C0.0570129 75.0175 0.0630584 75.0658 0.0715222 75.1141C0.0751495 75.1372 0.0787768 75.1613 0.0848223 75.1833C0.0896587 75.213 0.0944951 75.2415 0.10175 75.2701C0.110213 75.314 0.122305 75.3569 0.134396 75.3986C0.146487 75.4447 0.159787 75.4909 0.175505 75.5348C0.187596 75.5721 0.200896 75.6095 0.215406 75.6457C0.244424 75.7237 0.27707 75.8017 0.315761 75.8764C0.325434 75.8994 0.338734 75.9236 0.350825 75.9456C0.368962 75.9807 0.388307 76.017 0.407653 76.0521C0.410071 76.0554 0.41128 76.0587 0.413699 76.0609C0.436672 76.1004 0.460854 76.1389 0.485036 76.1784C0.485036 76.1806 0.487454 76.1828 0.488663 76.1839C0.5068 76.2114 0.524936 76.2388 0.543073 76.2652C0.558791 76.2883 0.575718 76.3124 0.592646 76.3344C0.596273 76.3399 0.599901 76.3443 0.604737 76.3498C0.631337 76.386 0.660356 76.4234 0.690583 76.4585C0.718393 76.4937 0.747411 76.5277 0.778848 76.5618C0.784893 76.5694 0.790939 76.5771 0.799403 76.5826C0.827212 76.6167 0.858649 76.6485 0.892504 76.6804C0.927568 76.7155 0.963841 76.7507 1.00132 76.7847C1.03276 76.8144 1.06661 76.844 1.10168 76.8726C1.11014 76.8803 1.11982 76.888 1.12949 76.8957C1.16455 76.9231 1.20083 76.9506 1.23589 76.978C1.27579 77.0099 1.31811 77.0395 1.36043 77.067C1.39428 77.0901 1.42814 77.1131 1.46199 77.1329C1.47892 77.145 1.49706 77.1549 1.51519 77.1669C1.53696 77.1801 1.55872 77.1933 1.5829 77.2054C1.60467 77.2186 1.62522 77.2307 1.64819 77.2416C1.69172 77.2647 1.73525 77.2889 1.78119 77.3097C1.8078 77.3229 1.8356 77.3361 1.86462 77.3482C1.92991 77.3778 1.99762 77.4064 2.06533 77.4317C2.0871 77.4393 2.10886 77.4481 2.13183 77.4558C2.16569 77.4679 2.19954 77.4789 2.2334 77.491C2.27693 77.5052 2.32166 77.5184 2.3664 77.5305C2.41114 77.5437 2.45708 77.5547 2.50303 77.5657C2.50545 77.5657 2.50787 77.5657 2.51028 77.5657C2.56107 77.5777 2.61185 77.5887 2.66142 77.5986C2.66505 77.5986 2.66747 77.5986 2.66989 77.5986C2.70858 77.6052 2.74606 77.6129 2.78475 77.6173C2.9637 77.6458 3.14627 77.6601 3.33368 77.6601H62.234C62.2993 77.6601 62.3658 77.6579 62.4298 77.6535C62.4649 77.6535 62.5 77.6502 62.5326 77.6469C62.5616 77.6447 62.5907 77.6414 62.6197 77.6381C62.6342 77.6381 62.6475 77.6348 62.6608 77.6338C62.7007 77.6294 62.7382 77.625 62.7769 77.6173C62.7829 77.6173 62.7865 77.6173 62.7926 77.6151C62.8156 77.6118 62.8397 77.6074 62.8639 77.6041C62.8748 77.6019 62.8869 77.5997 62.8978 77.5975C62.9026 77.5975 62.905 77.5953 62.9099 77.5953C62.9449 77.5887 62.9788 77.5821 63.0126 77.5744C63.0271 77.5711 63.0417 77.5678 63.0562 77.5646C63.1045 77.5536 63.1529 77.5415 63.2 77.5283C63.2472 77.5151 63.2943 77.5019 63.3391 77.4866C63.3415 77.4866 63.3427 77.4866 63.3451 77.4844C63.3693 77.4778 63.3911 77.4701 63.4141 77.4613C63.4177 77.4613 63.4201 77.4591 63.4225 77.458C63.4479 77.4503 63.4733 77.4404 63.4975 77.4317C63.4999 77.4317 63.5011 77.4317 63.5035 77.4295C63.5724 77.4031 63.6377 77.3756 63.703 77.346C63.7308 77.3339 63.7574 77.3207 63.7865 77.3075C63.8312 77.2867 63.8747 77.2625 63.9195 77.2394C63.9424 77.2285 63.963 77.2164 63.9848 77.2032C64.0077 77.1911 64.0295 77.1779 64.0525 77.1648C64.0706 77.1549 64.0887 77.1439 64.1057 77.1307C64.1407 77.1098 64.1746 77.0879 64.2072 77.0648C64.2495 77.0373 64.2919 77.0077 64.3318 76.9758C64.3632 76.9539 64.3946 76.9286 64.4249 76.9033C64.4297 76.9 64.4333 76.8957 64.4382 76.8935C64.4478 76.8858 64.4575 76.877 64.466 76.8704C64.4696 76.8671 64.4732 76.8638 64.4756 76.8627C64.5059 76.8363 64.5361 76.81 64.5651 76.7836C64.5953 76.7573 64.6232 76.7309 64.651 76.7045C64.651 76.7023 64.6546 76.7001 64.657 76.6979C64.6691 76.687 64.6812 76.6749 64.6933 76.6617C64.7187 76.6375 64.7429 76.6123 64.7646 76.5859C64.7731 76.5782 64.7803 76.5694 64.7876 76.5607C64.8178 76.5266 64.8481 76.4937 64.8759 76.4574C64.8988 76.4321 64.9182 76.4069 64.9375 76.3794C64.9399 76.3772 64.9424 76.3739 64.9448 76.3717C64.9605 76.3509 64.9762 76.3311 64.9907 76.3102C65.0149 76.2751 65.0415 76.2399 65.0645 76.2037C65.0645 76.2015 65.0669 76.1993 65.0693 76.1971C65.085 76.1729 65.1008 76.1477 65.1153 76.1224C65.1237 76.1092 65.1334 76.0949 65.1407 76.0807C65.1564 76.0543 65.1721 76.0279 65.1854 76.0016C65.2059 75.9664 65.2241 75.9302 65.241 75.8939C65.2543 75.8676 65.2676 75.8412 65.2797 75.8149C65.2845 75.805 65.2882 75.7951 65.293 75.7852C65.3051 75.7567 65.3172 75.7281 65.3293 75.6984C65.3377 75.6809 65.3438 75.6622 65.351 75.6446C65.351 75.6402 65.3547 75.638 65.3559 75.6336C65.368 75.6007 65.3789 75.5688 65.3909 75.5348C65.403 75.4996 65.4151 75.4645 65.4236 75.4282C65.426 75.4228 65.4272 75.4195 65.4284 75.414C65.4321 75.4019 65.4357 75.3898 65.4381 75.3777C65.4478 75.3437 65.4562 75.3096 65.4635 75.2745C65.4635 75.2723 65.4635 75.2712 65.4635 75.269C65.4707 75.2404 65.4756 75.2119 65.4804 75.1822C65.4865 75.1602 65.4901 75.1361 65.4937 75.113C65.501 75.0647 65.5082 75.0164 65.5143 74.9669C65.5203 74.9186 65.5239 74.8692 65.5264 74.8198L65.5288 74.8219Z" fill="url(#paint4_linear_941_1903)"/>
<path d="M65.5322 74.6665C65.5322 74.7182 65.531 74.7698 65.5273 74.8203C65.5298 74.7687 65.5322 74.7182 65.5322 74.6665Z" fill="#F3DABA"/>
<path d="M3.66981 0.0292015H61.8966C61.9873 0.0292015 62.078 0.0324984 62.1687 0.0379903C62.1941 0.0401869 62.2195 0.0423834 62.2448 0.0445802C62.3972 0.0577605 62.5483 0.0797238 62.6946 0.10938C62.7224 0.114871 62.7502 0.120368 62.7793 0.128057C62.801 0.13245 62.8216 0.136837 62.8421 0.142329C63.1021 0.206034 63.3512 0.295005 63.5845 0.407037C63.6087 0.419119 63.6353 0.431203 63.6595 0.443285C63.7115 0.468547 63.7611 0.494906 63.8094 0.523463C63.8324 0.536644 63.8554 0.549822 63.8783 0.563003C63.9025 0.577281 63.9255 0.591562 63.9485 0.60584C64.0138 0.646479 64.0778 0.689312 64.1395 0.733247C64.1673 0.753017 64.1939 0.771694 64.2193 0.792562C64.2604 0.823317 64.3015 0.856266 64.3402 0.88702C64.3632 0.90679 64.3862 0.92546 64.4091 0.946329C64.449 0.981476 64.4889 1.01663 64.5276 1.05287C64.5276 1.05287 64.5313 1.05507 64.5325 1.05726C64.6086 1.13085 64.6824 1.20774 64.7525 1.28792C64.7525 1.29012 64.755 1.29122 64.7574 1.29341C64.8601 1.41314 64.9544 1.53945 65.0403 1.67125C65.0693 1.71518 65.0959 1.76131 65.1237 1.80635C65.1273 1.81294 65.1322 1.82063 65.1358 1.82722C65.1576 1.86566 65.1781 1.9052 65.1987 1.94584C65.2229 1.99307 65.2458 2.0403 65.2676 2.08863C65.2906 2.13695 65.3099 2.18528 65.3293 2.2358C65.3474 2.28413 65.3655 2.33246 65.3825 2.38189C65.3825 2.38408 65.3825 2.38738 65.3849 2.38957C65.4006 2.439 65.4151 2.48843 65.4296 2.53895C65.4429 2.58947 65.455 2.6422 65.4671 2.69382C65.478 2.74654 65.4889 2.79927 65.4973 2.85309C65.5046 2.89922 65.5106 2.94534 65.5167 2.99257C65.5167 2.99916 65.5167 3.00795 65.5191 3.01454C65.5215 3.03321 65.5227 3.04969 65.5239 3.06836C65.5239 3.05518 65.5203 3.042 65.5191 3.02882C65.5143 2.97939 65.5082 2.93106 65.4986 2.88274C65.4949 2.85967 65.4901 2.83551 65.4852 2.81354C65.4804 2.78388 65.4756 2.75533 65.4683 2.72677C65.4574 2.67735 65.4454 2.63012 65.4308 2.58179C65.42 2.54115 65.4079 2.50051 65.3934 2.46097C65.3825 2.42692 65.3704 2.39507 65.3583 2.36212C65.3353 2.29951 65.3099 2.2402 65.2833 2.18088C65.2712 2.15452 65.2579 2.12817 65.2446 2.10181C65.2277 2.06556 65.2084 2.02822 65.189 1.99417C65.1745 1.96781 65.16 1.94144 65.1443 1.91508C65.137 1.9008 65.1273 1.88652 65.1189 1.87334C65.1032 1.84589 65.0862 1.81953 65.0681 1.79317C65.0451 1.75692 65.0185 1.72067 64.9943 1.68662C64.9798 1.66575 64.9641 1.64598 64.9484 1.62511C64.9266 1.59546 64.9037 1.5669 64.8795 1.53945C64.8517 1.5043 64.8227 1.47025 64.7912 1.4362C64.784 1.42741 64.7755 1.41863 64.7682 1.41094C64.7453 1.38568 64.7223 1.36041 64.6969 1.33515C64.686 1.32197 64.6739 1.30989 64.6606 1.2989C64.6316 1.26925 64.6026 1.24069 64.57 1.21323C64.5385 1.18357 64.5047 1.15392 64.4696 1.12536C64.4611 1.11877 64.4515 1.10999 64.4418 1.1023C64.4067 1.07484 64.3717 1.04738 64.3354 1.01992C64.2955 0.988071 64.2532 0.958416 64.2109 0.930957C64.177 0.907892 64.1431 0.884822 64.1093 0.865051C64.0924 0.852969 64.0742 0.841986 64.0561 0.831002C64.0331 0.817822 64.0113 0.804645 63.9884 0.792562C63.9666 0.779382 63.9461 0.767298 63.9231 0.756315C63.8796 0.733249 63.836 0.709086 63.7901 0.688217C63.7623 0.675037 63.7357 0.661859 63.7067 0.649777C63.6414 0.620121 63.5749 0.592661 63.5071 0.566301C63.4805 0.556416 63.4527 0.546529 63.4261 0.537742C63.3995 0.527857 63.3717 0.517971 63.3427 0.509184C63.298 0.493807 63.2508 0.480626 63.2037 0.467446C63.1565 0.454266 63.1081 0.442182 63.0598 0.431198C63.0078 0.418018 62.9546 0.408133 62.9002 0.397149C62.8603 0.389461 62.8204 0.382871 62.7805 0.377379C62.604 0.349921 62.4226 0.335641 62.2376 0.335641H3.33368C3.14627 0.335641 2.9637 0.349922 2.78475 0.378479C2.74606 0.382872 2.70858 0.389461 2.66989 0.397149C2.66747 0.397149 2.66505 0.397149 2.66142 0.397149C2.61064 0.405936 2.55986 0.418023 2.51028 0.430105C2.50787 0.430105 2.50545 0.430105 2.50303 0.430105C2.45708 0.441089 2.41114 0.452067 2.3664 0.465247C2.32166 0.477329 2.27693 0.490514 2.2334 0.504793C2.19834 0.515777 2.16448 0.526761 2.13183 0.539941C2.10886 0.54763 2.0871 0.556413 2.06533 0.564102C1.99642 0.589364 1.92991 0.617923 1.86462 0.647578C1.83681 0.65966 1.809 0.672838 1.78119 0.686018C1.73646 0.706887 1.69293 0.73105 1.64819 0.754116C1.62522 0.7651 1.60467 0.777183 1.5829 0.790364C1.55993 0.802446 1.53696 0.815623 1.51519 0.828804C1.49706 0.839787 1.47892 0.849672 1.46199 0.862853C1.42693 0.883721 1.39307 0.905693 1.36043 0.928758C1.31811 0.956217 1.27579 0.985873 1.23589 1.01772C1.19962 1.04518 1.16455 1.07264 1.12949 1.1001C1.11982 1.10779 1.11014 1.11658 1.10168 1.12317C1.06661 1.15173 1.03276 1.18138 1.00132 1.21104C0.963841 1.24509 0.927568 1.27914 0.892504 1.31538C0.858649 1.34724 0.827212 1.37908 0.799403 1.41313C0.790939 1.41972 0.784893 1.42631 0.778848 1.434C0.747411 1.46805 0.718393 1.5021 0.690583 1.53725C0.661565 1.57239 0.632546 1.60974 0.604737 1.64598C0.599901 1.65148 0.596273 1.65587 0.592646 1.66136C0.575718 1.68333 0.558791 1.70749 0.543073 1.73056C0.523727 1.75692 0.50559 1.78438 0.488663 1.81184C0.488663 1.81184 0.486245 1.81513 0.485036 1.81733C0.460854 1.85577 0.436672 1.89531 0.413699 1.93485C0.41128 1.93815 0.410071 1.94144 0.407653 1.94364C0.387098 1.97879 0.368962 2.01394 0.350825 2.05019C0.338734 2.07215 0.326643 2.09631 0.315761 2.11938C0.27707 2.19406 0.245633 2.27095 0.215406 2.35004C0.200896 2.38628 0.187596 2.42363 0.175505 2.46097C0.159787 2.506 0.146487 2.55213 0.134396 2.59717C0.122305 2.6389 0.110213 2.68174 0.10175 2.72567C0.0944951 2.75423 0.0896587 2.78278 0.0848223 2.81244C0.0787768 2.83441 0.0751495 2.85857 0.0715222 2.88164C0.0630584 2.92997 0.0570129 2.9783 0.0509674 3.02772C0.0485492 3.04749 0.046131 3.06617 0.0449219 3.08594C0.0449219 3.06177 0.0473401 3.03651 0.0509674 3.01344C0.0509674 3.00685 0.0533856 2.99806 0.0533856 2.99147C0.0594311 2.94424 0.0654766 2.89812 0.0727313 2.85199C0.081195 2.79817 0.0920769 2.74544 0.102959 2.69272C0.136814 2.53566 0.18276 2.38299 0.239588 2.23471C0.258933 2.18528 0.278279 2.13585 0.301252 2.08753C0.323016 2.0392 0.34478 1.99197 0.370171 1.94474C0.390726 1.9052 0.41128 1.86566 0.433044 1.82612C0.437881 1.81953 0.441508 1.81184 0.445135 1.80525C0.471736 1.75912 0.499545 1.71299 0.528563 1.67015C0.553955 1.62951 0.581764 1.58997 0.608364 1.54933C0.611992 1.54493 0.615619 1.54164 0.616828 1.53725C0.645846 1.49771 0.674865 1.45707 0.705093 1.41753C0.70872 1.41423 0.711138 1.41204 0.712347 1.40984C0.737738 1.37689 0.765548 1.34614 0.792148 1.31428C0.798194 1.30659 0.804239 1.2989 0.811494 1.29231C0.821167 1.28023 0.833258 1.26815 0.844139 1.25607C0.869531 1.22641 0.89734 1.19676 0.92394 1.1693C0.95175 1.13855 0.980768 1.10889 1.0122 1.08033C1.01946 1.07155 1.03034 1.06166 1.04001 1.05287C1.04848 1.04409 1.05936 1.0331 1.07024 1.02431C1.0908 1.00454 1.11014 0.986969 1.13191 0.968297C1.22622 0.884822 1.32415 0.805739 1.42693 0.733247C1.46562 0.70469 1.50673 0.677231 1.54663 0.65087C1.5696 0.636591 1.59137 0.622318 1.61313 0.608039C1.70865 0.548728 1.80659 0.49381 1.90694 0.443285C1.93112 0.431203 1.95651 0.419119 1.98191 0.407037C2.21164 0.297201 2.45708 0.208233 2.7122 0.144528C2.73518 0.137938 2.76178 0.132449 2.78596 0.126957C2.81377 0.120367 2.84158 0.113772 2.87181 0.10828C3.01569 0.0786245 3.16199 0.0577605 3.31192 0.0445802C3.33973 0.041285 3.36875 0.0390885 3.39777 0.0379903C3.48724 0.0314 3.57792 0.0292015 3.66981 0.0292015Z" fill="url(#paint5_linear_941_1903)"/>
<path d="M65.5322 3.33594C65.5322 3.28431 65.531 3.23269 65.5273 3.18216C65.5298 3.23269 65.5322 3.28431 65.5322 3.33594Z" fill="#F3DABA"/>
<path d="M3.33331 0.337357H3.67065C1.85095 0.337357 0.371008 1.68176 0.371008 3.33479V74.6666C0.369799 76.3197 1.84974 77.6641 3.66944 77.6641H3.3321C3.14469 77.6641 2.96212 77.6498 2.78317 77.6212C2.74448 77.6168 2.707 77.6102 2.66831 77.6026C2.66589 77.6026 2.66347 77.6026 2.65984 77.6026C2.60906 77.5938 2.55828 77.5817 2.5087 77.5696C2.50629 77.5696 2.50387 77.5696 2.50145 77.5696C2.4555 77.5586 2.40956 77.5476 2.36482 77.5345C2.32008 77.5224 2.27535 77.5092 2.23182 77.4949C2.19675 77.4839 2.1629 77.4729 2.13025 77.4598C2.10728 77.4521 2.08552 77.4433 2.06375 77.4356C1.99483 77.4103 1.92833 77.3818 1.86304 77.3521C1.83523 77.34 1.80742 77.3269 1.77961 77.3137C1.73488 77.2928 1.69135 77.2687 1.64661 77.2456C1.62364 77.2346 1.60309 77.2225 1.58132 77.2093C1.55835 77.1973 1.53538 77.1841 1.51361 77.1709C1.49547 77.161 1.47734 77.15 1.46041 77.1368C1.42535 77.116 1.39149 77.094 1.35885 77.0709C1.31653 77.0424 1.27421 77.0127 1.23431 76.982C1.19804 76.9545 1.16297 76.9271 1.12791 76.8996C1.11823 76.8919 1.10856 76.8831 1.1001 76.8765C1.06624 76.848 1.03239 76.8183 0.999742 76.7887C0.96226 76.7546 0.925987 76.7206 0.890923 76.6843C0.858277 76.6525 0.828049 76.6206 0.797822 76.5866C0.789358 76.58 0.783313 76.5734 0.777267 76.5657C0.747039 76.5317 0.718021 76.4987 0.689002 76.4625C0.659984 76.4273 0.630965 76.39 0.603156 76.3537C0.59832 76.3482 0.594692 76.3438 0.591065 76.3383C0.574138 76.3164 0.55721 76.2922 0.541492 76.2691C0.522146 76.2428 0.50401 76.2153 0.487082 76.1879C0.487082 76.1879 0.484664 76.1846 0.483455 76.1824C0.459273 76.1439 0.435091 76.1044 0.412118 76.0649C0.4097 76.0616 0.40849 76.0583 0.406072 76.0561C0.385517 76.0209 0.367381 75.9858 0.349244 75.9495C0.337153 75.9276 0.325062 75.9034 0.31418 75.8803C0.275489 75.8056 0.244052 75.7288 0.213825 75.6497C0.199315 75.6134 0.186015 75.5761 0.173924 75.5387C0.159415 75.4937 0.144906 75.4476 0.132815 75.4025C0.120724 75.3608 0.108633 75.318 0.100169 75.274C0.0929143 75.2455 0.0880779 75.2169 0.0832415 75.1873C0.0771959 75.1653 0.0735686 75.1411 0.0699413 75.1181C0.0614776 75.0697 0.0554321 75.0214 0.0493866 74.972C0.0469684 74.9522 0.0445501 74.9335 0.043341 74.9138C0.0397137 74.8841 0.0372955 74.8545 0.0360864 74.8248C0.0324591 74.7743 0.03125 74.7227 0.03125 74.671V3.33807C0.03125 3.28645 0.03125 3.23483 0.0360864 3.18431C0.0360864 3.15466 0.0397137 3.125 0.043341 3.09534C0.043341 3.07558 0.0469684 3.0569 0.0493866 3.03712C0.0554321 2.9877 0.0614776 2.93937 0.0699413 2.89104C0.0735686 2.86798 0.0771959 2.84381 0.0832415 2.82185C0.0880779 2.79219 0.0929143 2.76363 0.100169 2.73508C0.108633 2.69115 0.120724 2.64831 0.132815 2.60658C0.144906 2.56044 0.159415 2.51431 0.173924 2.47038C0.186015 2.43303 0.199315 2.39569 0.213825 2.35944C0.242843 2.28146 0.275489 2.20347 0.31418 2.12878C0.323853 2.10572 0.337153 2.08155 0.349244 2.05959C0.367381 2.02444 0.386727 1.9882 0.406072 1.95305C0.40849 1.94975 0.4097 1.94646 0.412118 1.94426C0.435091 1.90472 0.459273 1.86627 0.483455 1.82674C0.483455 1.82454 0.485873 1.82234 0.487082 1.82124C0.505219 1.79379 0.523355 1.76633 0.541492 1.73997C0.55721 1.7169 0.574138 1.69273 0.591065 1.67077C0.594692 1.66528 0.59832 1.66088 0.603156 1.65539C0.629756 1.61914 0.658775 1.5818 0.689002 1.54665C0.718021 1.51151 0.747039 1.47746 0.777267 1.44341C0.783313 1.43572 0.789358 1.42803 0.797822 1.42254C0.828049 1.38849 0.858277 1.35664 0.890923 1.32478C0.925987 1.28963 0.96226 1.25449 0.999742 1.22044C1.03239 1.19079 1.06624 1.16113 1.1001 1.13257C1.10856 1.12598 1.11823 1.1172 1.12791 1.1095C1.16297 1.08205 1.19924 1.05459 1.23431 1.02713C1.27421 0.996376 1.31653 0.966721 1.35885 0.938164C1.3927 0.9151 1.42656 0.892029 1.46041 0.872261C1.47734 0.860176 1.49547 0.84919 1.51361 0.838211C1.53538 0.825027 1.55714 0.811852 1.58132 0.799767C1.60309 0.786591 1.62364 0.774506 1.64661 0.763519C1.69014 0.740456 1.73367 0.716293 1.77961 0.695427C1.80621 0.682243 1.83402 0.669067 1.86304 0.656982C1.92833 0.627327 1.99604 0.59877 2.06375 0.573509C2.08552 0.565819 2.10728 0.55703 2.13025 0.549339C2.16411 0.537262 2.19796 0.526283 2.23182 0.514198C2.27535 0.499924 2.32008 0.486732 2.36482 0.474655C2.40956 0.461472 2.4555 0.450485 2.50145 0.439507C2.50387 0.439507 2.50629 0.439507 2.5087 0.439507C2.55949 0.427422 2.61027 0.416443 2.65984 0.406555C2.66347 0.406555 2.66589 0.406555 2.66831 0.406555C2.707 0.399963 2.74448 0.392281 2.78317 0.387886C2.96212 0.359329 3.14469 0.345047 3.3321 0.345047L3.33331 0.337357Z" fill="url(#paint6_linear_941_1903)"/>
<path d="M61.8965 0.333939H62.2338C62.4188 0.333939 62.6014 0.348213 62.7767 0.375671C62.8166 0.381165 62.8577 0.386658 62.8964 0.395447C62.9508 0.405327 63.004 0.416313 63.056 0.429497C63.1044 0.440475 63.1527 0.45256 63.1999 0.465744C63.2471 0.47892 63.2942 0.492104 63.3389 0.507477C63.3668 0.516266 63.3946 0.526154 63.4224 0.536041C63.449 0.544823 63.4768 0.55471 63.5034 0.564598C63.5723 0.590958 63.6376 0.618416 63.7029 0.648071C63.7307 0.660156 63.7573 0.673332 63.7863 0.686516C63.831 0.707382 63.8746 0.731544 63.9193 0.754608C63.9423 0.765594 63.9628 0.777679 63.9846 0.790855C64.0076 0.80294 64.0293 0.816116 64.0523 0.8293C64.0705 0.83918 64.0886 0.850166 64.1055 0.86335C64.1406 0.884216 64.1744 0.906189 64.2071 0.929253C64.2494 0.957809 64.2917 0.987465 64.3316 1.01822C64.3679 1.04568 64.403 1.07314 64.438 1.10059C64.4477 1.10828 64.4574 1.11707 64.4658 1.12366C64.4997 1.15221 64.5335 1.18187 64.5662 1.21152C64.5964 1.23898 64.6266 1.26755 64.6569 1.2972C64.669 1.30818 64.681 1.32027 64.6931 1.33345C64.7173 1.35761 64.7415 1.38287 64.7645 1.40923C64.7729 1.41692 64.7802 1.4257 64.7875 1.43449C64.8177 1.46854 64.8479 1.5015 64.8757 1.53774C64.8987 1.5652 64.9217 1.59376 64.9446 1.62341C64.9604 1.64428 64.9761 1.66405 64.9906 1.68492C65.0148 1.72006 65.0414 1.75522 65.0643 1.79147C65.0825 1.81783 65.0994 1.84418 65.1151 1.87164C65.1236 1.88482 65.1333 1.8991 65.1405 1.91338C65.1562 1.93974 65.1707 1.9661 65.1852 1.99246C65.2058 2.02761 65.2239 2.06386 65.2409 2.1001C65.2542 2.12646 65.2675 2.15282 65.2796 2.17918C65.3062 2.23849 65.3315 2.2989 65.3545 2.36041C65.3666 2.39336 65.3775 2.42522 65.3896 2.45927C65.4029 2.49771 65.415 2.53835 65.4271 2.58009C65.4404 2.62841 65.4525 2.67564 65.4645 2.72507C65.4718 2.75362 65.4766 2.78218 65.4815 2.81184C65.4875 2.8338 65.4911 2.85796 65.4948 2.88103C65.502 2.92936 65.5093 2.97769 65.5153 3.02711C65.5153 3.0403 65.519 3.05347 65.5202 3.06666C65.5238 3.10181 65.5262 3.13805 65.5286 3.1732C65.5286 3.19627 65.531 3.21933 65.5323 3.24239C65.5323 3.27096 65.5323 3.29841 65.5323 3.32697V74.6632C65.5323 74.6918 65.5323 74.7192 65.5323 74.7478C65.5323 74.7709 65.5298 74.7939 65.5286 74.817C65.5262 74.8521 65.5238 74.8884 65.5202 74.9235C65.5202 74.9367 65.5165 74.9499 65.5153 74.9631C65.5093 75.0125 65.5032 75.0608 65.4948 75.1092C65.4911 75.1322 65.4863 75.1564 65.4815 75.1784C65.4766 75.208 65.4718 75.2366 65.4645 75.2651C65.4645 75.2673 65.4645 75.2684 65.4645 75.2706C65.4561 75.3058 65.4488 75.3398 65.4392 75.3739C65.4355 75.3859 65.4319 75.398 65.4295 75.4101C65.4295 75.4156 65.4271 75.4189 65.4246 75.4244C65.4162 75.4595 65.4041 75.4958 65.392 75.5309C65.3811 75.565 65.369 75.5968 65.3569 75.6298C65.3569 75.6342 65.3533 75.6375 65.3521 75.6408C65.3448 75.6594 65.3388 75.677 65.3303 75.6946C65.3195 75.7242 65.3062 75.7528 65.2941 75.7814C65.2892 75.7912 65.2856 75.8011 65.2808 75.811C65.2687 75.8374 65.2554 75.8637 65.2421 75.8901C65.2251 75.9263 65.2058 75.9637 65.1865 75.9977C65.1732 76.0241 65.1574 76.0504 65.1417 76.0768C65.1345 76.0911 65.1248 76.1054 65.1163 76.1185C65.1018 76.1438 65.0861 76.168 65.0704 76.1932C65.068 76.1954 65.0668 76.1976 65.0655 76.1998C65.0426 76.2361 65.016 76.2723 64.9918 76.3064C64.9773 76.3272 64.9616 76.347 64.9458 76.3679C64.9434 76.3712 64.941 76.3745 64.9386 76.3756C64.918 76.4019 64.8987 76.4283 64.8769 76.4535C64.8491 76.4898 64.8189 76.5227 64.7887 76.5568C64.7814 76.5656 64.7729 76.5744 64.7657 76.5821C64.7427 76.6073 64.7185 76.6326 64.6943 76.6578C64.6835 76.671 64.6714 76.6831 64.6581 76.6941C64.6557 76.6963 64.6532 76.6985 64.652 76.7007C64.623 76.7281 64.5952 76.7545 64.5662 76.7798C64.5372 76.805 64.5069 76.8325 64.4767 76.8588C64.4731 76.861 64.4695 76.8643 64.467 76.8665C64.4586 76.8742 64.4489 76.8819 64.4392 76.8896C64.4344 76.8929 64.4308 76.8962 64.4259 76.8995C64.3957 76.9236 64.3643 76.9478 64.3328 76.972C64.2929 77.0027 64.2506 77.0324 64.2083 77.0609C64.1744 77.084 64.1406 77.1071 64.1067 77.1268C64.0898 77.1389 64.0717 77.1499 64.0535 77.1609C64.0306 77.1741 64.0088 77.1873 63.9858 77.1993C63.9641 77.2125 63.9435 77.2246 63.9205 77.2356C63.877 77.2586 63.8335 77.2828 63.7875 77.3037C63.7597 77.3169 63.7331 77.33 63.7041 77.3421C63.6388 77.3718 63.5723 77.3992 63.5046 77.4256C63.5022 77.4256 63.501 77.4256 63.4985 77.4278C63.4744 77.4366 63.4478 77.4465 63.4236 77.4542C63.42 77.4542 63.4175 77.4563 63.4151 77.4574C63.3921 77.4662 63.3704 77.4739 63.3462 77.4805C63.3438 77.4805 63.3426 77.4805 63.3402 77.4827C63.2954 77.4981 63.2483 77.5113 63.2011 77.5244C63.154 77.5376 63.1056 77.5497 63.0572 77.5607C63.0427 77.5651 63.0282 77.5684 63.0137 77.5706C62.9786 77.5783 62.9448 77.586 62.9109 77.5914C62.9061 77.5914 62.9025 77.5914 62.8988 77.5936C62.888 77.5958 62.8759 77.598 62.865 77.6002C62.8408 77.6046 62.8178 77.6079 62.7936 77.6112C62.7876 77.6112 62.784 77.6112 62.7779 77.6134C62.7392 77.62 62.7017 77.6244 62.6618 77.6299C62.6485 77.6299 62.6352 77.6332 62.6207 77.6343C62.5917 77.6387 62.5627 77.6409 62.5337 77.6431C62.4998 77.6464 62.4648 77.6486 62.4309 77.6497C62.3668 77.6541 62.3003 77.6562 62.235 77.6562H61.8977C63.7174 77.6562 65.1973 76.3119 65.1973 74.6588V3.32587C65.1973 1.67284 63.7174 0.328445 61.8977 0.328445L61.8965 0.333939Z" fill="url(#paint7_linear_941_1903)"/>
<path d="M3.66948 75.4677H61.8963C62.3848 75.4677 62.7826 75.1074 62.7826 74.6626V3.32961C62.7826 2.88587 62.386 2.52451 61.8963 2.52451H3.66948C3.181 2.52451 2.7832 2.88477 2.7832 3.32961V74.6637C2.7832 75.1074 3.17979 75.4688 3.66948 75.4688V75.4677Z" fill="#F2F3F4"/>
</g>
<defs>
<linearGradient id="paint0_linear_941_1903" x1="66.05" y1="15.972" x2="67.3773" y2="17.4331" gradientUnits="userSpaceOnUse">
<stop stop-color="#927C58"/>
<stop offset="0.28" stop-color="#BAA78F"/>
<stop offset="0.37" stop-color="#CEB99E"/>
<stop offset="0.5" stop-color="#E9D0B1"/>
<stop offset="0.61" stop-color="#F9DEBD"/>
<stop offset="0.7" stop-color="#FFE4C2"/>
<stop offset="0.83" stop-color="#FBE1BF"/>
<stop offset="0.93" stop-color="#F2D9B9"/>
<stop offset="1" stop-color="#E5CEB0"/>
</linearGradient>
<linearGradient id="paint1_linear_941_1903" x1="65.5664" y1="38.3487" x2="68.0003" y2="38.3487" gradientUnits="userSpaceOnUse">
<stop stop-color="#927C58"/>
<stop offset="0.28" stop-color="#BAA78F"/>
<stop offset="0.37" stop-color="#CEB99E"/>
<stop offset="0.5" stop-color="#E9D0B1"/>
<stop offset="0.61" stop-color="#F9DEBD"/>
<stop offset="0.7" stop-color="#FFE4C2"/>
<stop offset="0.83" stop-color="#FBE1BF"/>
<stop offset="0.93" stop-color="#F2D9B9"/>
<stop offset="1" stop-color="#E5CEB0"/>
</linearGradient>
<linearGradient id="paint2_linear_941_1903" x1="66.0339" y1="61.0842" x2="67.5344" y2="61.0842" gradientUnits="userSpaceOnUse">
<stop stop-color="#927C58"/>
<stop offset="0.28" stop-color="#BAA78F"/>
<stop offset="0.37" stop-color="#CEB99E"/>
<stop offset="0.5" stop-color="#E9D0B1"/>
<stop offset="0.61" stop-color="#F9DEBD"/>
<stop offset="0.7" stop-color="#FFE4C2"/>
<stop offset="0.83" stop-color="#FBE1BF"/>
<stop offset="0.93" stop-color="#F2D9B9"/>
<stop offset="1" stop-color="#E5CEB0"/>
</linearGradient>
<linearGradient id="paint3_linear_941_1903" x1="66.0156" y1="59.8847" x2="67.5536" y2="59.8847" gradientUnits="userSpaceOnUse">
<stop stop-color="#927C58"/>
<stop offset="0.02" stop-color="#96805E"/>
<stop offset="0.11" stop-color="#A69173"/>
<stop offset="0.21" stop-color="#B19D83"/>
<stop offset="0.32" stop-color="#B7A48C"/>
<stop offset="0.49" stop-color="#BAA78F"/>
<stop offset="0.66" stop-color="#B7A48C"/>
<stop offset="0.78" stop-color="#B19D82"/>
<stop offset="0.88" stop-color="#A59172"/>
<stop offset="0.98" stop-color="#957F5C"/>
<stop offset="1" stop-color="#927C58"/>
</linearGradient>
<linearGradient id="paint4_linear_941_1903" x1="32.7862" y1="77.9709" x2="32.7862" y2="74.8219" gradientUnits="userSpaceOnUse">
<stop stop-color="#FFE5C2"/>
<stop offset="0.05" stop-color="#E9CFAC"/>
<stop offset="0.12" stop-color="#CEB592"/>
<stop offset="0.2" stop-color="#B7A07C"/>
<stop offset="0.29" stop-color="#A6906C"/>
<stop offset="0.41" stop-color="#9A8460"/>
<stop offset="0.57" stop-color="#937D59"/>
<stop offset="1" stop-color="#927C58"/>
</linearGradient>
<linearGradient id="paint5_linear_941_1903" x1="32.7826" y1="3.08923" x2="32.7826" y2="0.0292015" gradientUnits="userSpaceOnUse">
<stop stop-color="#927C58"/>
<stop offset="0.43" stop-color="#937D59"/>
<stop offset="0.59" stop-color="#9A8460"/>
<stop offset="0.71" stop-color="#A6906C"/>
<stop offset="0.8" stop-color="#B7A07C"/>
<stop offset="0.88" stop-color="#CEB592"/>
<stop offset="0.95" stop-color="#E9CFAC"/>
<stop offset="1" stop-color="#FFE5C2"/>
</linearGradient>
<linearGradient id="paint6_linear_941_1903" x1="1.85095" y1="77.6641" x2="1.85095" y2="0.33626" gradientUnits="userSpaceOnUse">
<stop stop-color="#E6CFB1"/>
<stop offset="0.48" stop-color="#FFE5C2"/>
<stop offset="0.68" stop-color="#FAE0BE"/>
<stop offset="0.92" stop-color="#ECD4B5"/>
<stop offset="1" stop-color="#E6CFB1"/>
</linearGradient>
<linearGradient id="paint7_linear_941_1903" x1="63.715" y1="-500.91" x2="63.715" y2="-501.02" gradientUnits="userSpaceOnUse">
<stop stop-color="#E6CFB1"/>
<stop offset="0.48" stop-color="#FFE5C2"/>
<stop offset="0.68" stop-color="#FAE0BE"/>
<stop offset="0.92" stop-color="#ECD4B5"/>
<stop offset="1" stop-color="#E6CFB1"/>
</linearGradient>
<clipPath id="clip0_941_1903">
<rect width="68" height="78" fill="white" transform="matrix(1 0 0 -1 0 78)"/>
</clipPath>
</defs>
</svg>
