<svg width="16" height="15" viewBox="0 0 16 15" fill="none" xmlns="http://www.w3.org/2000/svg">
    <path d="M11.25 2C10.8358 2 10.5 2.33579 10.5 2.75C10.5 3.16421 10.8358 3.5 11.25 3.5C11.9644 3.5 12.5 4.03563 12.5 4.75C12.5 5.16421 12.8358 5.5 13.25 5.5C13.6642 5.5 14 5.16421 14 4.75C14 3.2072 12.7928 2 11.25 2Z" fill="black"/>
    <path d="M4.42105 0C3.4895 0 2.40384 0.473546 1.56196 1.18875C0.714578 1.90863 1.32393e-06 2.97291 1.32393e-06 4.24116V4.25661C-7.44655e-05 4.86907 -0.000234503 6.23169 1.02199 7.4664C1.13002 7.59686 1.19598 7.67974 1.24286 7.76289C1.50977 8.23611 1.68179 8.76171 1.68423 9.2178C1.69294 10.8463 1.98116 12.2402 2.49292 13.2522C2.9991 14.2532 3.79843 15 4.84211 15C5.15124 15 5.44652 14.9264 5.70215 14.7497C5.9552 14.5749 6.11783 14.3347 6.22424 14.0907C6.4224 13.6365 6.47116 13.0526 6.50257 12.5257C6.51048 12.3928 6.51756 12.2589 6.52463 12.1243C6.57895 11.0937 6.63554 10.0203 7.09356 9.06849C7.248 8.7474 7.52488 8.57143 7.78947 8.57143H8.21053C8.46872 8.57143 8.7387 8.73909 8.89516 9.0456C9.22611 9.93386 9.3264 10.9201 9.42307 11.8705C9.44648 12.1012 9.46973 12.3299 9.496 12.5545C9.55916 13.0941 9.6464 13.6607 9.84817 14.0993C9.9536 14.3286 10.1063 14.5599 10.3364 14.7335C10.5756 14.9139 10.8564 15 11.1579 15C12.0932 15 12.8852 14.2272 13.4041 13.2681C13.9475 12.2635 14.3069 10.8687 14.3158 9.2178C14.3185 8.70917 14.5322 8.11834 14.8438 7.61657C15.9981 6.21754 16 4.90815 16 4.24116C16 2.97291 15.2854 1.90863 14.4381 1.18875C13.5962 0.473546 12.5105 0 11.5789 0C10.8474 0 10.2725 0.118363 9.80438 0.317623C9.33314 0.518203 9.00261 0.78702 8.74804 1.04012C8.63697 1.15055 8.53777 1.26085 8.45592 1.35177L8.4304 1.38019C8.33811 1.48255 8.27259 1.55323 8.21103 1.60891C8.10661 1.70346 8.06013 1.71429 8 1.71429C7.93987 1.71429 7.89339 1.70346 7.78897 1.60891C7.72741 1.55323 7.6619 1.48254 7.5696 1.38019L7.54409 1.35177C7.46223 1.26083 7.36303 1.15055 7.25196 1.04012C6.99739 0.78702 6.66686 0.518203 6.19564 0.317623C5.72748 0.118363 5.15256 0 4.42105 0ZM1.26316 4.24116C1.26316 3.48351 1.69711 2.74863 2.37136 2.17584C3.05111 1.59837 3.86019 1.28571 4.42105 1.28571C5.01695 1.28571 5.4213 1.38164 5.70831 1.50381C5.99225 1.62465 6.19284 1.78442 6.36935 1.95988C6.45389 2.04397 6.52977 2.1282 6.6144 2.2222L6.63874 2.24928C6.72758 2.34782 6.83352 2.46463 6.94956 2.56966C7.20017 2.79654 7.53288 3 8 3C8.46712 3 8.79983 2.79654 9.05044 2.56966C9.16648 2.46463 9.27242 2.34781 9.36126 2.24927L9.3856 2.22224C9.47023 2.12821 9.54611 2.04397 9.63065 1.95988C9.80716 1.78441 10.0077 1.62465 10.2917 1.50381C10.5787 1.38164 10.9831 1.28571 11.5789 1.28571C12.1398 1.28571 12.9489 1.59837 13.6286 2.17584C14.3029 2.74863 14.7368 3.48351 14.7368 4.24116V4.24497C14.7368 4.82662 14.7368 5.76309 13.8538 6.81703C13.8357 6.83863 13.819 6.86143 13.8039 6.88526C13.3997 7.52203 13.0572 8.36691 13.0526 9.21077C13.0447 10.6859 12.7224 11.8625 12.2976 12.6479C11.8482 13.4787 11.3854 13.7143 11.1579 13.7143C11.1049 13.7143 11.0918 13.7033 11.0888 13.7008C11.0778 13.6925 11.04 13.6583 10.9922 13.5542C10.8872 13.3261 10.8148 12.9533 10.7503 12.4024C10.7289 12.2193 10.709 12.0202 10.6879 11.8093C10.5914 10.8434 10.4699 9.62777 10.0629 8.55429C10.0563 8.53689 10.0489 8.51974 10.0409 8.50294C9.71377 7.82314 9.04093 7.28572 8.21053 7.28572H7.78947C6.95907 7.28572 6.28625 7.82314 5.95912 8.50294C5.37879 9.70894 5.3116 11.063 5.26166 12.0697C5.25509 12.2021 5.24882 12.3285 5.24171 12.4479C5.20832 13.0087 5.16098 13.3599 5.06979 13.5689C5.03153 13.6567 5.00116 13.6801 4.99266 13.686C4.98664 13.6901 4.95171 13.7143 4.84211 13.7143C4.47045 13.7143 4.01498 13.4527 3.61603 12.6638C3.22265 11.8858 2.95538 10.7083 2.94736 9.21077C2.94337 8.46369 2.67445 7.71874 2.33833 7.12277C2.229 6.92897 2.09288 6.76457 1.99544 6.64697L1.98789 6.6378C1.27209 5.77328 1.26316 4.82164 1.26316 4.24116Z" fill="black"/>
</svg>
