<svg width="25" height="20" viewBox="0 0 25 20" fill="none" xmlns="http://www.w3.org/2000/svg">
<path id="ic_take_photo" d="M24 11.2857V16.4286C24 17.8488 22.8559 19 21.4444 19H8.66667M3.55556 19C2.14416 19 1 17.8488 1 16.4286V6.14286C1 4.7227 2.14416 3.57143 3.55556 3.57143H6.75C7.45569 3.57143 8.02778 2.99579 8.02778 2.28571C8.02778 1.57564 8.59986 1 9.30556 1H15.6944C16.4002 1 16.9722 1.57564 16.9722 2.28571C16.9722 2.99579 17.5443 3.57143 18.25 3.57143H21.4444C22.8559 3.57143 24 4.7227 24 6.14286M8.66667 11.2857C8.66667 13.416 10.3829 15.1429 12.5 15.1429C14.6172 15.1429 16.3333 13.416 16.3333 11.2857C16.3333 9.15541 14.6172 7.42857 12.5 7.42857" stroke="#00205C" stroke-width="1.8" stroke-linecap="round"/>
</svg>
