<svg width="32" height="32" viewBox="0 0 32 32" fill="none" xmlns="http://www.w3.org/2000/svg">
<path d="M6.81598 31.5312C6.22186 31.5312 5.74023 31.0496 5.74023 30.4555V27.7389H7.89173V30.4555C7.89173 31.0496 7.41011 31.5312 6.81598 31.5312Z" fill="#7A6D79"/>
<path d="M7.23373 31.4477C7.10586 31.5014 6.96423 31.5312 6.81605 31.5312C6.22186 31.5312 5.74023 31.0496 5.74023 30.4554V27.7387H6.57486V30.4554C6.57486 30.9014 6.84655 31.2842 7.23373 31.4477Z" fill="#685E68"/>
<path d="M12.9146 31.5312C12.3205 31.5312 11.8389 31.0496 11.8389 30.4555V27.7389H13.9904V30.4555C13.9904 31.0496 13.5087 31.5312 12.9146 31.5312Z" fill="#7A6D79"/>
<path d="M13.3324 31.4477C13.2045 31.5014 13.0629 31.5312 12.9147 31.5312C12.3205 31.5312 11.8389 31.0496 11.8389 30.4554V27.7387H12.6735V30.4554C12.6735 30.9014 12.9452 31.2842 13.3324 31.4477Z" fill="#685E68"/>
<path d="M13.3263 11.1897H6.40408C5.80233 11.1897 5.31445 10.7019 5.31445 10.1001V1.55862C5.31445 0.956869 5.80227 0.468994 6.40408 0.468994H13.3263C13.928 0.468994 14.4159 0.956807 14.4159 1.55862V10.1001C14.4159 10.7019 13.9281 11.1897 13.3263 11.1897ZM7.4937 9.01049H12.2367V2.64824H7.4937V9.01049Z" fill="#7A6D79"/>
<path d="M12.2363 2.64825H13.3234V9.0105H12.2363V2.64825Z" fill="#685E68"/>
<path d="M6.40152 10.1001V1.55862C6.40152 0.956869 6.88933 0.468994 7.49114 0.468994H6.40408C5.80233 0.468994 5.31445 0.956807 5.31445 1.55862V10.1001C5.31445 10.7019 5.80227 11.1897 6.40408 11.1897H7.49114C6.88939 11.1897 6.40152 10.7019 6.40152 10.1001Z" fill="#685E68"/>
<path d="M13.9908 7.233H5.74031C2.82888 7.233 0.46875 9.59319 0.46875 12.5046V24.1081C0.46875 27.0196 2.82894 29.3797 5.74031 29.3797H13.9908C16.9023 29.3797 19.2624 27.0195 19.2624 24.1081V12.5046C19.2624 9.59313 16.9023 7.233 13.9908 7.233Z" fill="#008070"/>
<path d="M8.20131 29.3796H5.74025C2.82881 29.3796 0.46875 27.0195 0.46875 24.1081V12.5045C0.46875 9.59311 2.82881 7.23305 5.74025 7.23305H8.20131C5.28987 7.23305 2.92981 9.59311 2.92981 12.5045V24.1081C2.92981 27.0195 5.28987 29.3796 8.20131 29.3796Z" fill="#005B50"/>
<path d="M9.86527 25.4255C9.19702 25.4255 8.65527 24.8838 8.65527 24.2155V12.3972C8.65527 11.7289 9.19702 11.1872 9.86527 11.1872C10.5335 11.1872 11.0753 11.7289 11.0753 12.3972V24.2156C11.0753 24.8839 10.5335 25.4255 9.86527 25.4255Z" fill="#005B50"/>
<path d="M14.5362 25.4256C13.8679 25.4256 13.3262 24.8838 13.3262 24.2156V12.3972C13.3262 11.7289 13.8679 11.1872 14.5362 11.1872C15.2044 11.1872 15.7462 11.7289 15.7462 12.3972V24.2156C15.7461 24.8839 15.2044 25.4256 14.5362 25.4256Z" fill="#005B50"/>
<path d="M5.19438 25.4255C4.52613 25.4255 3.98438 24.8838 3.98438 24.2155V12.3972C3.98438 11.7289 4.52613 11.1872 5.19438 11.1872C5.86263 11.1872 6.40438 11.7289 6.40438 12.3972V24.2156C6.40431 24.8839 5.86263 25.4255 5.19438 25.4255Z" fill="#005B50"/>
<path d="M26.0169 20.6746H18.4297C17.9119 20.6746 17.4922 20.2548 17.4922 19.7371V15.2276C17.4922 13.7817 18.6684 12.6055 20.1143 12.6055H24.3322C25.7781 12.6055 26.9543 13.7817 26.9543 15.2276V19.7371C26.9544 20.2549 26.5346 20.6746 26.0169 20.6746ZM19.3672 18.7996H25.0794V15.2276C25.0794 14.8157 24.7443 14.4805 24.3323 14.4805H20.1144C19.7024 14.4805 19.3673 14.8157 19.3673 15.2276V18.7996H19.3672Z" fill="#7A6D79"/>
<path d="M26.1229 18.7996V15.2276C26.1229 14.8157 25.7878 14.4805 25.3758 14.4805H24.332C24.744 14.4805 25.0792 14.8157 25.0792 15.2276V18.7996H26.1229Z" fill="#685E68"/>
<path d="M18.5359 19.7371V15.2276C18.5359 13.7817 19.7122 12.6055 21.1581 12.6055H20.1143C18.6684 12.6055 17.4922 13.7817 17.4922 15.2276V19.7371C17.4922 20.2548 17.9119 20.6746 18.4297 20.6746H19.4734C18.9557 20.6746 18.5359 20.2549 18.5359 19.7371Z" fill="#685E68"/>
<path d="M15.6884 16.9385H28.7579C30.2895 16.9385 31.5312 18.1802 31.5312 19.7119V28.7579C31.5312 30.2896 30.2895 31.5313 28.7579 31.5313H15.6884C14.1567 31.5313 12.915 30.2896 12.915 28.7579V19.7119C12.915 18.1802 14.1567 16.9385 15.6884 16.9385Z" fill="#EFEDFF"/>
<path d="M22.4625 29.4363C22.9761 29.4363 23.4644 29.2139 23.8023 28.8262C23.9832 28.6185 23.9615 28.3036 23.7539 28.1227C23.5463 27.9418 23.2314 27.9634 23.0505 28.1711C22.902 28.3415 22.6877 28.4392 22.4625 28.4392C22.2373 28.4392 22.0229 28.3415 21.8745 28.1711C21.6935 27.9635 21.3786 27.9419 21.171 28.1227C20.9634 28.3036 20.9418 28.6185 21.1226 28.8262C21.4605 29.2139 21.9489 29.4363 22.4625 29.4363Z" fill="black"/>
<path d="M27.2663 25C26.568 25 26 25.568 26 26.2663C26 26.5416 26.2232 26.7648 26.4986 26.7648C26.774 26.7648 26.9972 26.5416 26.9972 26.2663C26.9972 26.1179 27.1178 25.9972 27.2663 25.9972C27.4147 25.9972 27.5354 26.1179 27.5354 26.2663C27.5354 26.5416 27.7586 26.7648 28.034 26.7648C28.3094 26.7648 28.5326 26.5416 28.5326 26.2663C28.5326 25.568 27.9645 25 27.2663 25Z" fill="black"/>
<path d="M17.2663 25C16.568 25 16 25.568 16 26.2663C16 26.5416 16.2232 26.7648 16.4986 26.7648C16.774 26.7648 16.9972 26.5416 16.9972 26.2663C16.9972 26.1179 17.1178 25.9972 17.2663 25.9972C17.4147 25.9972 17.5354 26.1179 17.5354 26.2663C17.5354 26.5416 17.7586 26.7648 18.034 26.7648C18.3094 26.7648 18.5326 26.5416 18.5326 26.2663C18.5326 25.568 17.9645 25 17.2663 25Z" fill="black"/>
<path d="M17.7569 31.5313H15.6882C14.1563 31.5313 12.915 30.2894 12.915 28.7581V19.7119C12.915 18.18 14.1563 16.9388 15.6882 16.9388H17.7569C16.225 16.9388 14.9832 18.18 14.9832 19.7119V28.7581C14.9832 30.2894 16.225 31.5313 17.7569 31.5313Z" fill="#DEDEF9"/>
<path d="M24.0837 23.1258H27.7039C28.2134 23.1258 28.6264 22.7127 28.6264 22.2032V21.1762C28.6264 20.6667 28.2134 20.2536 27.7039 20.2536H24.0837C23.5742 20.2536 23.1611 20.6667 23.1611 21.1762V22.2032C23.1611 22.7127 23.5742 23.1258 24.0837 23.1258Z" fill="#CF9671"/>
<path d="M9.86527 25.8943C10.791 25.8943 11.544 25.1412 11.544 24.2155V12.3971C11.544 11.4715 10.7908 10.7184 9.86521 10.7184C8.93959 10.7184 8.18652 11.4715 8.18652 12.3971V24.2156C8.18646 25.1412 8.93959 25.8943 9.86527 25.8943ZM9.12396 12.3971C9.12396 11.9884 9.45646 11.6559 9.86521 11.6559C10.2739 11.6559 10.6064 11.9884 10.6064 12.3971V24.2156C10.6064 24.6243 10.2739 24.9568 9.86521 24.9568C9.45652 24.9568 9.12396 24.6243 9.12396 24.2156V12.3971Z" fill="black"/>
<path d="M6.87306 24.2156V12.3971C6.87306 11.4715 6.11994 10.7184 5.19431 10.7184C4.26869 10.7184 3.51562 11.4715 3.51562 12.3971V24.2156C3.51562 25.1413 4.26869 25.8943 5.19431 25.8943C6.11994 25.8943 6.87306 25.1412 6.87306 24.2156ZM4.45306 24.2156V12.3971C4.45306 11.9884 4.78556 11.6559 5.19425 11.6559C5.603 11.6559 5.9355 11.9884 5.9355 12.3971V24.2156C5.9355 24.6243 5.603 24.9568 5.19425 24.9568C4.78556 24.9568 4.45306 24.6243 4.45306 24.2156Z" fill="black"/>
<path d="M28.7581 16.47H27.4231V15.2275C27.4231 13.5233 26.0364 12.1369 24.3319 12.1369H20.1144C19.9821 12.1369 19.8507 12.1454 19.7208 12.1621C19.5608 9.45556 17.5169 7.24762 14.885 6.83419V1.55813C14.885 0.699 14.1861 0 13.3269 0H6.405C5.54556 0 4.84625 0.699 4.84625 1.55813V3.07375C4.84625 3.33262 5.05606 3.5425 5.315 3.5425C5.57394 3.5425 5.78375 3.33262 5.78375 3.07375V1.55813C5.78375 1.21594 6.06244 0.9375 6.405 0.9375H13.3269C13.6691 0.9375 13.9475 1.21594 13.9475 1.55813V6.76438H12.7058V2.64794C12.7058 2.38906 12.496 2.17919 12.2371 2.17919H7.49438C7.23544 2.17919 7.02563 2.38906 7.02563 2.64794V6.76438H5.78375V4.9325C5.78375 4.67362 5.57394 4.46375 5.315 4.46375C5.05606 4.46375 4.84625 4.67362 4.84625 4.9325V6.83419C2.10413 7.26494 0 9.64344 0 12.5044V24.1081C0 27.1156 2.32469 29.5901 5.27156 29.8295V30.4554C5.27156 31.3071 5.96444 31.9999 6.81612 31.9999C7.66775 31.9999 8.36063 31.3071 8.36063 30.4554V29.8487H11.3706V30.4556C11.3706 31.3072 12.0634 32 12.915 32C13.3389 32 13.7339 31.8275 14.0191 31.5362C14.5069 31.8304 15.0781 32 15.6881 32H26.0169C26.2758 32 26.4856 31.7901 26.4856 31.5312C26.4856 31.2724 26.2758 31.0625 26.0169 31.0625H15.6881C14.4175 31.0625 13.3837 30.0287 13.3837 28.7581V19.7119C13.3837 18.4413 14.4175 17.4075 15.6881 17.4075H28.7581C30.0287 17.4075 31.0625 18.4413 31.0625 19.7119V28.7581C31.0625 30.0287 30.0287 31.0625 28.7581 31.0625H27.8919C27.6329 31.0625 27.4231 31.2724 27.4231 31.5312C27.4231 31.7901 27.6329 32 27.8919 32H28.7581C30.5457 32 32 30.5457 32 28.7581V19.7119C32 17.9243 30.5457 16.47 28.7581 16.47ZM24.3319 13.0744C25.5194 13.0744 26.4856 14.0402 26.4856 15.2275V16.47H25.5481V15.2275C25.5481 14.5572 25.0026 14.0119 24.3319 14.0119H20.1144C19.4437 14.0119 18.8981 14.5572 18.8981 15.2275V16.47H17.9606V15.2275C17.9606 14.3086 18.5451 13.4904 19.4157 13.1911C19.6397 13.1136 19.8749 13.0744 20.1144 13.0744H24.3319ZM24.6106 16.47H19.8356V15.2275C19.8356 15.0741 19.9607 14.9494 20.1144 14.9494H24.3318C24.4855 14.9494 24.6106 15.0741 24.6106 15.2275L24.6106 16.47ZM7.96313 3.11669H11.7683V6.76438H7.96313V3.11669ZM0.9375 24.1081V12.5044C0.9375 9.85625 3.09219 7.70188 5.74062 7.70188H13.9906C16.6157 7.70188 18.7544 9.81869 18.792 12.4347C17.7216 12.9411 17.0231 14.0239 17.0231 15.2275V16.47H16.2156V12.3969C16.2156 11.9484 16.041 11.5268 15.724 11.2098C15.4069 10.8927 14.9854 10.7181 14.5369 10.7181C13.6112 10.7181 12.8582 11.4712 12.8582 12.3969V18.133C12.5963 18.6006 12.4462 19.1389 12.4462 19.7119V28.7581C12.4462 28.8095 12.4478 28.8605 12.4501 28.9112C12.4501 28.9112 5.73769 28.9111 5.73637 28.9111C3.08987 28.9089 0.9375 26.7552 0.9375 24.1081ZM7.42312 30.4554C7.42312 30.7901 7.15088 31.0624 6.81612 31.0624C6.48137 31.0624 6.20906 30.7901 6.20906 30.4554V29.8487H7.42312V30.4554ZM12.3081 30.4556V29.8487H12.6355C12.7806 30.2534 13.0035 30.6213 13.2868 30.9338C13.1824 31.0147 13.0531 31.0625 12.915 31.0625C12.5803 31.0625 12.3081 30.7903 12.3081 30.4556ZM13.7956 17.0822V12.3969C13.7956 11.9881 14.1281 11.6556 14.5368 11.6556C14.7349 11.6556 14.921 11.7327 15.061 11.8727C15.201 12.0127 15.2781 12.1988 15.2781 12.3969V16.4968C14.7297 16.5664 14.2238 16.7733 13.7956 17.0822Z" fill="black"/>
<path d="M29.0953 22.2032V21.1762C29.0953 20.409 28.4711 19.7849 27.7039 19.7849H24.0837C23.3166 19.7849 22.6924 20.409 22.6924 21.1762V22.2032C22.6924 22.9704 23.3165 23.5946 24.0837 23.5946H27.7039C28.4711 23.5946 29.0953 22.9704 29.0953 22.2032ZM23.6299 22.2032V21.1762C23.6299 20.9259 23.8335 20.7224 24.0838 20.7224H27.704C27.9543 20.7224 28.1578 20.9259 28.1578 21.1762V22.2032C28.1578 22.4535 27.9543 22.6571 27.704 22.6571H24.0838C23.8335 22.6571 23.6299 22.4535 23.6299 22.2032Z" fill="black"/>
</svg>
