<svg width="20" height="16" viewBox="0 0 20 16" fill="none" xmlns="http://www.w3.org/2000/svg">
<g id="SVGRepo_iconCarrier">
<path id="primary" d="M7.00581 12.5576H10.7334V1.96313C10.7334 1.70769 10.6309 1.46272 10.4484 1.2821C10.2659 1.10147 10.0183 1 9.76017 1H2.94727" stroke="black" stroke-width="1.4" stroke-linecap="round" stroke-linejoin="round"/>
<path id="primary_2" d="M1 8.70703V11.5964C1 11.8519 1.10254 12.0968 1.28506 12.2775C1.46759 12.4581 1.71514 12.5596 1.97327 12.5596H2.82002" stroke="black" stroke-width="1.4" stroke-linecap="round" stroke-linejoin="round"/>
<path id="primary_3" d="M12.5524 12.5578H10.7324V2.92644H14.8688C15.0873 2.91845 15.3021 2.98346 15.4786 3.111C15.6552 3.23855 15.7832 3.4212 15.8421 3.62953L16.5721 6.29741L17.7789 6.59598C17.9949 6.64871 18.186 6.77305 18.3206 6.94829C18.4552 7.12353 18.5251 7.3391 18.5186 7.55911V11.5946C18.5186 11.8501 18.4161 12.0951 18.2335 12.2757C18.051 12.4563 17.8035 12.5578 17.5453 12.5578H16.6791" stroke="black" stroke-width="1.4" stroke-linecap="round" stroke-linejoin="round"/>
<path id="secondary" d="M1 4.85156H6.83963M4.89309 10.6304C4.5081 10.6304 4.13175 10.7433 3.81165 10.955C3.49154 11.1667 3.24204 11.4675 3.09472 11.8195C2.94739 12.1715 2.90884 12.5588 2.98395 12.9324C3.05905 13.3061 3.24444 13.6493 3.51667 13.9187C3.7889 14.1881 4.13574 14.3716 4.51334 14.4459C4.89093 14.5202 5.28231 14.4821 5.638 14.3363C5.99368 14.1905 6.29769 13.9436 6.51158 13.6268C6.72547 13.31 6.83963 12.9376 6.83963 12.5566C6.83963 12.0458 6.63455 11.5558 6.2695 11.1946C5.90445 10.8333 5.40934 10.6304 4.89309 10.6304ZM14.6258 10.6304C14.2408 10.6304 13.8645 10.7433 13.5444 10.955C13.2243 11.1667 12.9748 11.4675 12.8274 11.8195C12.6801 12.1715 12.6416 12.5588 12.7167 12.9324C12.7918 13.3061 12.9772 13.6493 13.2494 13.9187C13.5216 14.1881 13.8685 14.3716 14.2461 14.4459C14.6236 14.5202 15.015 14.4821 15.3707 14.3363C15.7264 14.1905 16.0304 13.9436 16.2443 13.6268C16.4582 13.31 16.5723 12.9376 16.5723 12.5566C16.5723 12.0458 16.3673 11.5558 16.0022 11.1946C15.6372 10.8333 15.1421 10.6304 14.6258 10.6304Z" stroke="black" stroke-width="1.4" stroke-linecap="round" stroke-linejoin="round"/>
</g>
</svg>
