<svg width="27" height="27" viewBox="0 0 27 27" fill="none" xmlns="http://www.w3.org/2000/svg">
<g id="Group 427321153">
<path id="Vector" d="M26 26H1" stroke="#606060" stroke-width="2" stroke-linecap="round"/>
<path id="Vector_2" d="M18.8569 26V6C18.8569 3.64298 18.8569 2.46446 18.2292 1.73224C17.6016 1 16.5914 1 14.5711 1H12.4283C10.408 1 9.39783 1 8.77021 1.73224C8.14258 2.46446 8.14258 3.64298 8.14258 6V26" stroke="#606060" stroke-width="2"/>
<path id="Vector_3" d="M13.5 26.0011V22.4297" stroke="#606060" stroke-width="2" stroke-linecap="round"/>
<path id="Vector_4" d="M10.8223 13.5H16.1794" stroke="#606060" stroke-width="2" stroke-linecap="round"/>
<path id="Vector_5" d="M4.57227 12.6094H8.14369" stroke="#606060" stroke-width="2" stroke-linecap="round"/>
<path id="Vector_6" d="M4.57227 16.1797H8.14369" stroke="#606060" stroke-width="2" stroke-linecap="round"/>
<path id="Vector_7" d="M18.8574 12.6094H21.536" stroke="#606060" stroke-width="2" stroke-linecap="round"/>
<path id="Vector_8" d="M18.8574 16.1797H21.536" stroke="#606060" stroke-width="2" stroke-linecap="round"/>
<path id="Vector_9" d="M4.57227 9.03906H8.14369" stroke="#606060" stroke-width="2" stroke-linecap="round"/>
<path id="Vector_10" d="M18.8574 9.03906H21.536" stroke="#606060" stroke-width="2" stroke-linecap="round"/>
<path id="Vector_11" d="M13.5008 9.92746C14.9802 9.92746 16.1794 8.72822 16.1794 7.24888C16.1794 5.76955 14.9802 4.57031 13.5008 4.57031C12.0215 4.57031 10.8223 5.76955 10.8223 7.24888C10.8223 8.72822 12.0215 9.92746 13.5008 9.92746Z" stroke="#606060" stroke-width="2"/>
<path id="Vector_12" d="M24.109 13.2859C24.109 13.7874 24.5322 14.1939 25.0543 14.1939C25.5764 14.1939 25.9997 13.7874 25.9997 13.2859H24.109ZM25.9997 18.1285C25.9997 17.6271 25.5764 17.2205 25.0543 17.2205C24.5322 17.2205 24.109 17.6271 24.109 18.1285H25.9997ZM20.6426 9.95661C21.5474 9.95661 22.1549 9.95771 22.618 10.003C23.0653 10.0467 23.272 10.1239 23.4088 10.2116L24.4591 8.70172C23.96 8.38138 23.4062 8.25461 22.8094 8.19629C22.2283 8.13952 21.508 8.14063 20.6426 8.14063V9.95661ZM25.9997 13.2859C25.9997 12.4547 26.0009 11.7629 25.9417 11.2048C25.8811 10.6316 25.749 10.0997 25.4155 9.62026L23.8434 10.6292C23.9348 10.7605 24.0152 10.959 24.0607 11.3886C24.1078 11.8334 24.109 12.4169 24.109 13.2859H25.9997ZM23.4088 10.2116C23.5808 10.3221 23.7284 10.4639 23.8434 10.6292L25.4155 9.62026C25.1626 9.25674 24.8377 8.94461 24.4591 8.70172L23.4088 10.2116ZM24.109 18.1285V25.9978H25.9997V18.1285H24.109Z" fill="#606060"/>
<path id="Vector_13" d="M2.89076 23.5765C2.89076 23.075 2.46749 22.6685 1.94538 22.6685C1.42327 22.6685 1 23.075 1 23.5765H2.89076ZM1 18.7338C1 19.2353 1.42327 19.6418 1.94538 19.6418C2.46749 19.6418 2.89076 19.2353 2.89076 18.7338H1ZM6.35714 8.14063C5.49166 8.14063 4.77138 8.13952 4.19036 8.19629C3.59355 8.25461 3.03972 8.38138 2.54056 8.70172L3.59102 10.2116C3.72772 10.1239 3.9344 10.0467 4.38172 10.003C4.84483 9.95771 5.4523 9.95661 6.35714 9.95661V8.14063ZM2.89076 13.2859C2.89076 12.4169 2.8919 11.8334 2.93901 11.3886C2.98451 10.959 3.06496 10.7605 3.1563 10.6292L1.58419 9.62026C1.25067 10.0997 1.11868 10.6316 1.05796 11.2048C0.998855 11.7629 1 12.4547 1 13.2859H2.89076ZM2.54056 8.70172C2.16207 8.94461 1.83709 9.25674 1.58419 9.62026L3.1563 10.6292C3.27125 10.4639 3.41897 10.3221 3.59102 10.2116L2.54056 8.70172ZM1 23.5765V25.9978H2.89076V23.5765H1ZM1 13.2859V18.7338H2.89076V13.2859H1Z" fill="#606060"/>
<path id="Vector_14" d="M10.8223 17.0703H11.4919M16.1794 17.0703H14.1705" stroke="#606060" stroke-width="2" stroke-linecap="round"/>
</g>
</svg>
