<svg width="25" height="25" viewBox="0 0 25 25" fill="none" xmlns="http://www.w3.org/2000/svg">
<path d="M25 18.629C25 20 23.9113 20.9677 22.5806 20.9677H2.41935C1.08871 20.9677 0 20 0 18.629V6.37094C0 4.99997 1.08871 4.03223 2.41935 4.03223H22.5806C23.9113 4.03223 25 4.99997 25 6.37094V18.629Z" fill="#29337A"/>
<path d="M2.41936 4.03223H22.5806C23.9113 4.03223 25 4.99997 25 6.37094V18.629C25 20 23.7097 20.9677 22.379 20.9677" fill="#1B265B"/>
<path d="M2.41936 4.03223H22.5806C23.9113 4.03223 25 4.99997 25 6.37094V10.8871" fill="#111D49"/>
<path d="M25 18.5887C25 19.9596 23.9113 20.9677 22.5806 20.9677H2.41935C1.08871 20.9677 0 19.9193 0 18.5483" fill="#111D49"/>
<path d="M13.7097 12.5L22.2984 4.03223H19.879L12.5 11.4113L5.12097 4.03223H2.70161L11.2903 12.5L2.70161 20.9677H5.12097L12.5 13.5887L19.879 20.9677H22.2984L13.7097 12.5Z" fill="white"/>
<path d="M5.16129 18.5483L2.70161 20.9677H5.12097L7.54032 18.5483H5.16129Z" fill="#D9ECED"/>
<path d="M17.4597 18.5483L19.879 20.9677H22.2984L19.8387 18.5483H17.4597Z" fill="#D9ECED"/>
<path d="M20.7258 19.4758L13.7097 12.5806L22.2984 4.03223H19.879L12.5 11.4113L5.12097 4.03223H2.70161L4.31452 5.56448L20.7258 19.4758Z" fill="#D9ECED"/>
<path d="M25 10.8871H14.1129V4.03223H10.8871V10.8871H0V14.1129H10.8871V20.9677H14.1129V14.1129H25V10.8871Z" fill="white"/>
<path d="M14.1129 18.5483H10.8871V20.9677H14.1129V18.5483Z" fill="#D9ECED"/>
<path d="M14.1129 4.03223H10.8871V10.8871H10.6048L14.3952 14.1129H25V10.8871H14.1129V4.03223Z" fill="#D9ECED"/>
<path d="M25 11.6935H13.3065H13.7903L21.8145 4.03223H21.0081L13.3065 11.6935V4.03223H11.6935V11.6935L3.91129 4.03223H3.18548L10.8871 11.6935H0V13.3064H10.9274L3.3871 20.9677H4.1129L11.6935 13.3064V20.9677H13.3065V13.3871L21.0887 20.9677H21.8145L14.1129 13.3064H25V11.6935Z" fill="#E51D35"/>
<path d="M13.3065 18.5483H11.6936V20.9677H13.3065V18.5483Z" fill="#AF0026"/>
<path d="M5.76613 18.5483L3.3871 20.9677H4.11291L6.53226 18.5483H5.76613Z" fill="#AF0026"/>
<path d="M18.629 18.5483L21.0887 20.9677H21.8145L19.3548 18.5483H18.629Z" fill="#AF0026"/>
<path d="M14.0323 11.6935L21.8145 4.03223H21.0081L13.3065 11.6935V4.03223H11.6936V11.6935L3.91129 4.03223H3.18549L7.62097 8.42739L17.2984 16.5725L14.1129 13.3064H25V11.6935H13.3065H14.0323Z" fill="#AF0026"/>
</svg>
