<svg width="7" height="26" viewBox="0 0 7 26" fill="none" xmlns="http://www.w3.org/2000/svg">
<path d="M-1.50045e-07 22.5638C-6.75203e-08 24.4537 1.51422 26 3.36492 26C5.21563 26 6.72985 24.4537 6.72985 22.5638C6.72985 20.6738 5.21563 19.1275 3.36492 19.1275C1.51422 19.1275 -2.3257e-07 20.6738 -1.50045e-07 22.5638ZM5.04738 22.5638C5.04738 23.5087 4.29028 24.2819 3.36492 24.2819C2.43957 24.2819 1.68246 23.5087 1.68246 22.5638C1.68246 21.6188 2.43957 20.8456 3.36492 20.8456C4.29028 20.8456 5.04738 21.6188 5.04738 22.5638Z" fill="#061229"/>
<path d="M-1.50045e-07 3.66532C-1.29414e-07 4.1378 0.378554 4.52438 0.841231 4.52438C1.30391 4.52438 1.68246 4.1378 1.68246 3.66532C1.68246 2.72035 2.43957 1.9472 3.36492 1.9472C4.29028 1.9472 5.04738 2.72035 5.04738 3.66532C5.04738 4.61029 4.29028 5.38344 3.36492 5.38344C2.90225 5.38344 2.52369 5.77002 2.52369 6.2425C2.52369 6.71499 2.90225 7.10156 3.36492 7.10156C5.21563 7.10156 6.72985 5.55525 6.72985 3.66532C6.72985 1.77539 5.21563 0.229077 3.36492 0.229077C1.51422 0.229077 -2.3257e-07 1.77539 -1.50045e-07 3.66532Z" fill="#061229"/>
<path d="M-1.50045e-07 13.1145C-6.75203e-08 15.0045 1.51422 16.5508 3.36492 16.5508C5.21563 16.5508 6.72985 15.0045 6.72985 13.1145C6.72985 11.2246 5.21563 9.6783 3.36492 9.6783C1.51422 9.6783 -2.3257e-07 11.2246 -1.50045e-07 13.1145ZM5.04738 13.1145C5.04738 14.0595 4.29028 14.8327 3.36492 14.8327C2.43957 14.8327 1.68246 14.0595 1.68246 13.1145C1.68246 12.1696 2.43957 11.3964 3.36492 11.3964C4.29028 11.3964 5.04738 12.1696 5.04738 13.1145Z" fill="#061229"/>
</svg>
