<svg width="31" height="31" viewBox="0 0 31 31" fill="none" xmlns="http://www.w3.org/2000/svg">
<g id="ic_verified_account">
<g id="Group">
<path id="Vector" fill-rule="evenodd" clip-rule="evenodd" d="M15.5 23.1945L14.8241 19.5804L21.8718 18.7449L22.2512 20.6039L23.571 29.3395L19.6961 27.3302L16.5878 30.3945L15.7818 25.06L15.5 23.1945Z" fill="#F26674"/>
<path id="Vector_2" fill-rule="evenodd" clip-rule="evenodd" d="M22.4832 22.1395L22.0613 18.4871L18.4603 19.1494L19.6961 27.3302L23.571 29.3395L22.765 24.005L22.4832 22.1395Z" fill="#DB5669"/>
<path id="Vector_3" fill-rule="evenodd" clip-rule="evenodd" d="M8.74878 20.6039L9.15693 17.9819L16.2046 21.0698L15.5 23.1945L15.2182 25.0599L14.4122 30.3945L11.3039 27.3302L7.42904 29.3395L8.74878 20.6039Z" fill="#F26674"/>
<path id="Vector_4" fill-rule="evenodd" clip-rule="evenodd" d="M8.74878 20.6039L9.15693 17.9819L12.5102 19.4512L11.3039 27.3302L7.42904 29.3395L8.74878 20.6039Z" fill="#DB5669"/>
<path id="Vector_5" fill-rule="evenodd" clip-rule="evenodd" d="M18.4122 2.82978C18.9119 2.99011 19.3935 3.19082 19.8535 3.42768L21.0299 3.11247L22.1918 2.80108C23.1103 3.47775 23.9225 4.29005 24.5992 5.20848L24.2878 6.37038L23.9727 7.54626C24.2097 8.00642 24.4104 8.48837 24.5709 8.98837L25.6241 9.59644L26.6673 10.1988C26.7512 10.7537 26.7949 11.3218 26.7949 11.9002C26.7949 12.4785 26.7512 13.0467 26.6673 13.6016L25.6241 14.2039L24.5706 14.8122C24.4102 15.3119 24.2095 15.7935 23.9727 16.2535L24.2879 17.4299L24.5993 18.5918C23.9226 19.5104 23.1103 20.3226 22.1919 20.9992L21.03 20.6878L19.8541 20.3728C19.394 20.6097 18.912 20.8104 18.412 20.9709L17.804 22.0242L17.2016 23.0673C16.6467 23.1512 16.0786 23.1949 15.5002 23.1949C14.9219 23.1949 14.3537 23.1512 13.7988 23.0673L13.1965 22.0242L12.5882 20.9706C12.0885 20.8103 11.6069 20.6095 11.1469 20.3727L9.97047 20.6879L8.80858 20.9993C7.89002 20.3226 7.07791 19.5103 6.40117 18.5919L6.71257 17.4301L7.02765 16.2542C6.79067 15.794 6.58996 15.3121 6.42951 14.8121L5.37624 14.204L4.33307 13.6017C4.24916 13.0467 4.2055 12.4786 4.2055 11.9002C4.2055 11.3219 4.24922 10.7537 4.33307 10.1988L5.37624 9.59656L6.42963 8.9883C6.59002 8.48837 6.79055 8.00642 7.02759 7.54626L6.71251 6.37038L6.40111 5.20848C7.07778 4.28993 7.89008 3.47781 8.80852 2.80108L9.97035 3.11247L11.1464 3.42756C11.6064 3.19064 12.0883 2.99011 12.5882 2.82978L13.1964 1.7762L13.7987 0.733041C14.3537 0.649123 14.9218 0.605469 15.5002 0.605469C16.0785 0.605469 16.6467 0.649184 17.2016 0.733041L17.8038 1.7762L18.4122 2.82978ZM15.5002 5.38837C11.9038 5.38837 8.98834 8.30382 8.98834 11.9002C8.98834 15.4965 11.9038 18.412 15.5002 18.412C19.0965 18.412 22.012 15.4965 22.012 11.9002C22.012 8.30382 19.0965 5.38837 15.5002 5.38837Z" fill="#FFCC66"/>
<path id="Vector_6" fill-rule="evenodd" clip-rule="evenodd" d="M18.4118 20.9708L17.8037 22.0241L17.2014 23.0673C16.6465 23.1512 16.0783 23.1948 15.5 23.1948C14.9217 23.1948 14.3535 23.1511 13.7986 23.0673L13.1963 22.0241L12.588 20.9705C12.0882 20.8102 11.6067 20.6094 11.1467 20.3726L9.97025 20.6878L8.80836 20.9992C7.8898 20.3226 7.07769 19.5103 6.40096 18.5918L6.71235 17.43L7.02743 16.2541C6.79045 15.794 6.58974 15.312 6.42929 14.812L5.37602 14.2039L4.33286 13.6016C4.24894 13.0466 4.20528 12.4785 4.20528 11.9002C4.20528 11.3218 4.249 10.7537 4.33286 10.1988L5.37602 9.5965L6.42941 8.98825C6.5898 8.48831 6.79033 8.00636 7.02737 7.54621L6.71229 6.37032L6.4009 5.20843C7.07757 4.28987 7.88986 3.47776 8.8083 2.80103L9.97013 3.11242L11.1461 3.4275C7.5347 6.09932 6.2066 10.8871 7.92553 15.0375C9.64445 19.188 13.9688 21.6348 18.4118 20.9708Z" fill="#FFBA55"/>
<path id="Vector_7" fill-rule="evenodd" clip-rule="evenodd" d="M15.5 7.83057L16.741 10.622L19.7791 10.9396L17.5079 12.9824L18.1447 15.9701L15.5 14.4413L12.8553 15.9701L13.4921 12.9824L11.2208 10.9396L14.259 10.622L15.5 7.83057Z" fill="#FFCC66"/>
</g>
</g>
</svg>
