<svg width="24" height="24" viewBox="0 0 24 24" fill="none" xmlns="http://www.w3.org/2000/svg">
<g id="Group 427321165">
<path id="Vector" d="M20 7C21.6569 7 23 5.65685 23 4C23 2.34315 21.6569 1 20 1C18.3431 1 17 2.34315 17 4C17 5.65685 18.3431 7 20 7Z" stroke="black" stroke-width="1.8"/>
<path id="Vector_2" d="M1 13H4.47629C5.47197 13 5.96982 13 6.40742 13.2091C6.84504 13.4182 7.16903 13.811 7.81702 14.5963L8.48298 15.4037C9.13097 16.189 9.45496 16.5818 9.89262 16.7909C10.3302 17 10.8281 17 11.8237 17H12.1763C13.1719 17 13.6698 17 14.1074 16.7909C14.5451 16.5818 14.869 16.189 15.517 15.4037L16.183 14.5963C16.831 13.811 17.1549 13.4182 17.5926 13.2091C18.0302 13 18.5281 13 19.5237 13H23" stroke="black" stroke-width="1.8" stroke-linecap="round"/>
<path id="Vector_3" d="M1 12C1 17.1854 1 19.7782 2.61092 21.389C4.22182 23 6.81455 23 12 23C17.1854 23 19.7782 23 21.389 21.389C23 19.7782 23 17.1854 23 12C23 11.2081 23 10.4767 22.9943 9.8M14.2 1.00574C13.5233 1 12.7919 1 12 1C6.81455 1 4.22182 1 2.61092 2.61092C1.5398 3.68203 1.18088 5.18721 1.06061 7.6" stroke="black" stroke-width="1.8" stroke-linecap="round"/>
</g>
</svg>
