<svg width="24" height="24" viewBox="0 0 24 24" fill="none" xmlns="http://www.w3.org/2000/svg">
<path d="M8.05873 14.3782L8.00066 14.4257C8.16525 14.6271 8.13622 14.9234 7.9356 15.0883C7.84773 15.16 7.74213 15.1949 7.63742 15.1949C7.50133 15.1949 7.36634 15.1361 7.27298 15.0231C7.1838 14.9141 6.74655 14.3708 6.33191 13.6773C5.91507 12.9802 5.53008 12.1458 5.53008 11.4517C5.53008 11.1916 5.74047 10.9813 6.00055 10.9813C6.26063 10.9813 6.47102 11.1916 6.47102 11.4517C6.47102 11.6621 6.53245 11.9089 6.62994 12.1682C6.72781 12.4285 6.86394 12.7064 7.01767 12.9804C7.32505 13.5284 7.70577 14.0663 8.00075 14.4258L8.05873 14.3782ZM8.05873 14.3782C8.24942 14.6115 8.21588 14.9551 7.9831 15.1463L7.21504 15.0707C7.03498 14.8507 5.45508 12.884 5.45508 11.4517C5.45508 11.1502 5.69905 10.9062 6.00055 10.9062C6.30205 10.9062 6.54602 11.1502 6.54602 11.4517C6.54602 12.2411 7.47394 13.6655 8.05873 14.3782Z" fill="black" stroke="white" stroke-width="0.15"/>
<path d="M15.9998 14.4263L15.9998 14.4263C16.2948 14.066 16.6755 13.5273 16.9829 12.9791C17.1366 12.7049 17.2727 12.427 17.3706 12.1669C17.4681 11.9079 17.5295 11.6615 17.5295 11.4517C17.5295 11.1916 17.7399 10.9813 18 10.9813C18.2601 10.9813 18.4705 11.1916 18.4705 11.4517C18.4705 12.1458 18.0855 12.9802 17.6686 13.6774C17.254 14.3708 16.8167 14.9142 16.7276 15.0231C16.6341 15.1362 16.4996 15.1949 16.3636 15.1949C16.2583 15.1949 16.1528 15.16 16.0656 15.0884C15.8647 14.9234 15.8354 14.627 15.9998 14.4263Z" fill="black" stroke="white" stroke-width="0.15"/>
<path d="M11.5301 11.4517C11.5301 11.1916 11.7405 10.9813 12.0005 10.9813C12.2606 10.9813 12.471 11.1916 12.471 11.4517C12.471 11.4517 12.471 11.4517 12.471 11.4517V14.7244C12.471 14.9845 12.2606 15.1949 12.0005 15.1949C11.7405 15.1949 11.5301 14.9845 11.5301 14.7244V11.4517Z" fill="black" stroke="white" stroke-width="0.15"/>
<path d="M4.37696 13.1958L4.37005 18.4704H4.36995V18.5454L4.44495 18.5455V18.5454H19.5613H19.6363V18.4704V13.1884C19.6358 13.1575 19.6374 13.1271 19.6422 13.0967C19.6539 13.0168 19.6827 12.9422 19.7253 12.8778C19.7673 12.8129 19.8238 12.7564 19.8925 12.7138C19.9181 12.6972 19.9452 12.6834 19.974 12.6717C21.7574 11.886 22.9091 10.125 22.9091 8.18181C22.9091 5.4748 20.707 3.27272 18 3.27272C17.9206 3.27272 17.8379 3.27992 17.7553 3.28716C17.7495 3.277 17.7437 3.26687 17.7379 3.25675L17.6729 3.29415L17.6788 3.36892C17.6905 3.36799 17.7021 3.36703 17.7137 3.36606C18.2405 4.30854 18.5454 5.39106 18.5454 6.54544C18.5454 6.84694 18.3015 7.09092 18 7.09092C17.6985 7.09092 17.4545 6.84694 17.4545 6.54544C17.4545 3.53797 15.0075 1.09089 12 1.09089C8.99252 1.09089 6.54544 3.53797 6.54544 6.54544C6.54544 6.84694 6.30147 7.09092 5.99997 7.09092C5.69847 7.09092 5.4545 6.84694 5.4545 6.54544C5.4545 5.39106 5.75941 4.30849 6.28626 3.36606L4.37696 13.1958ZM4.37696 13.1958C4.37747 13.166 4.37589 13.1356 4.37164 13.1063L4.37696 13.1958ZM16.9084 2.34102L16.9365 2.37381L16.979 2.36592C17.3353 2.29974 17.6758 2.25683 18 2.25683C21.267 2.25683 23.9249 4.91481 23.925 8.18181C23.925 10.413 22.6679 12.445 20.6932 13.454L20.6523 13.4748V13.5207V21.7744C20.6523 22.9603 19.6876 23.9249 18.5018 23.9249H5.50037C4.92527 23.9249 4.38559 23.7012 3.97885 23.2939L3.92578 23.3469L3.97885 23.2939C3.57264 22.8872 3.34938 22.347 3.34987 21.7719C3.34987 21.7719 3.34987 21.7719 3.34987 21.7719L3.36051 13.5288L3.36057 13.4827L3.31946 13.4618C1.33737 12.4555 0.075 10.4204 0.075 8.18181C0.075 4.91481 2.73298 2.25683 6.00003 2.25678C6.32418 2.25678 6.66465 2.29974 7.02103 2.36587L7.06351 2.37376L7.09164 2.34097C8.27943 0.956344 10.0374 0.075 12 0.075C13.9626 0.075 15.7205 0.956344 16.9084 2.34102ZM4.64449 22.6292L4.64456 22.6292C4.87325 22.8579 5.17729 22.9841 5.50032 22.9841H18.5017C19.1685 22.9841 19.7113 22.4413 19.7113 21.7745V19.6363V19.5613H19.6363H4.36857H4.29367L4.29357 19.6362L4.29071 21.7728C4.29016 22.0964 4.41634 22.4005 4.64449 22.6292ZM20.0023 12.7411L20.0023 12.7412L20.0043 12.7403C21.8147 11.9427 22.9841 10.1548 22.9841 8.18181C22.9841 5.43338 20.7484 3.19772 18 3.19772C17.9164 3.19772 17.8283 3.20545 17.7443 3.21282C17.7181 3.21512 17.6922 3.21739 17.667 3.21938L17.5487 3.22871L17.6079 3.33155C18.1535 4.27989 18.4704 5.37534 18.4704 6.54544C18.4704 6.80552 18.2601 7.01592 18 7.01592C17.7399 7.01592 17.5295 6.80552 17.5295 6.54544C17.5295 3.49655 15.0489 1.01589 12 1.01589C8.9511 1.01589 6.47045 3.49654 6.47045 6.54544C6.47045 6.80552 6.26005 7.01592 5.99997 7.01592C5.7399 7.01592 5.5295 6.80552 5.5295 6.54544C5.5295 5.37534 5.84642 4.27984 6.39205 3.33155L6.45122 3.22871L6.33294 3.21938C6.30773 3.21739 6.28187 3.21512 6.25561 3.21282C6.17162 3.20545 6.08358 3.19772 5.99997 3.19772C3.25155 3.19772 1.01589 5.43333 1.01589 8.18181C1.01589 10.1618 2.19009 11.9519 4.00757 12.7467L4.00756 12.7467L4.00907 12.7473C4.03479 12.7579 4.05977 12.7708 4.08343 12.7857C4.14017 12.8214 4.18695 12.8681 4.22293 12.922C4.26119 12.9796 4.28731 13.0458 4.29738 13.1168L4.29742 13.117C4.301 13.1418 4.30242 13.1681 4.30196 13.1945L4.30196 13.1957L4.29495 18.5453L4.29486 18.6204H4.36995H19.6363H19.7113V18.5454L19.7113 13.1884L19.7113 13.1871C19.7108 13.1596 19.7122 13.1337 19.7162 13.1084L19.7164 13.1076C19.7265 13.0385 19.7513 12.9744 19.7878 12.9192L19.7882 12.9186C19.8244 12.8627 19.873 12.8141 19.932 12.7775L19.9332 12.7768C19.9545 12.763 19.9774 12.7513 20.0023 12.7411Z" fill="black" stroke="white" stroke-width="0.15"/>
</svg>
