<svg width="45" height="41" viewBox="0 0 45 41" fill="none" xmlns="http://www.w3.org/2000/svg">
    <path d="M2.43874 37.8516H0.804604V31.9242H2.43874V34.5133H4.60387V31.9242H6.238V37.8516H4.60387V35.2666H2.43874V37.8516ZM12.7578 35.4642C12.7578 35.7111 12.7248 35.943 12.659 36.1598C12.5931 36.3766 12.5012 36.5769 12.3832 36.7608C12.2679 36.9446 12.128 37.1106 11.9633 37.2588C11.7987 37.4043 11.6176 37.5278 11.42 37.6293C11.2251 37.7308 11.0152 37.809 10.7902 37.8639C10.5679 37.9188 10.3388 37.9462 10.1028 37.9462C9.8668 37.9462 9.63766 37.9188 9.41539 37.8639C9.19311 37.809 8.98319 37.7308 8.78561 37.6293C8.59077 37.5278 8.41103 37.4043 8.24638 37.2588C8.08174 37.1106 7.94041 36.9446 7.82241 36.7608C7.70716 36.5769 7.6166 36.3766 7.55074 36.1598C7.48489 35.9403 7.45196 35.7084 7.45196 35.4642C7.45196 35.2199 7.48489 34.9894 7.55074 34.7726C7.6166 34.5531 7.70716 34.3514 7.82241 34.1676C7.94041 33.9837 8.08174 33.819 8.24638 33.6736C8.41103 33.5254 8.59077 33.4006 8.78561 33.299C8.98319 33.1975 9.19311 33.1193 9.41539 33.0644C9.63766 33.0095 9.8668 32.9821 10.1028 32.9821C10.3388 32.9821 10.5679 33.0095 10.7902 33.0644C11.0152 33.1193 11.2251 33.1975 11.42 33.299C11.6176 33.4006 11.7987 33.5254 11.9633 33.6736C12.128 33.819 12.2679 33.9837 12.3832 34.1676C12.5012 34.3514 12.5931 34.5531 12.659 34.7726C12.7248 34.9894 12.7578 35.2199 12.7578 35.4642ZM11.3418 35.4642C11.3418 35.3324 11.3335 35.1939 11.3171 35.0484C11.3034 34.9002 11.2787 34.7562 11.243 34.6162C11.2073 34.4735 11.1579 34.3377 11.0948 34.2087C11.0344 34.077 10.959 33.9631 10.8684 33.8671C10.7779 33.7683 10.6695 33.6901 10.5432 33.6324C10.417 33.5721 10.2702 33.5419 10.1028 33.5419C9.94364 33.5419 9.80231 33.5721 9.67883 33.6324C9.55534 33.6928 9.44695 33.7738 9.35364 33.8753C9.26309 33.9741 9.18625 34.0893 9.12314 34.2211C9.06277 34.3528 9.01337 34.49 8.97495 34.6327C8.93654 34.7726 8.90909 34.9153 8.89263 35.0608C8.87616 35.2035 8.86793 35.3379 8.86793 35.4642C8.86793 35.5904 8.87616 35.7262 8.89263 35.8717C8.90909 36.0144 8.93654 36.1571 8.97495 36.2998C9.01337 36.4424 9.06277 36.5797 9.12314 36.7114C9.18625 36.8403 9.26309 36.9556 9.35364 37.0571C9.44695 37.1559 9.55534 37.2355 9.67883 37.2959C9.80231 37.3562 9.94364 37.3864 10.1028 37.3864C10.2674 37.3864 10.4129 37.3576 10.5391 37.3C10.6653 37.2396 10.7737 37.16 10.8643 37.0612C10.9576 36.9625 11.0344 36.8486 11.0948 36.7196C11.1552 36.5906 11.2032 36.4548 11.2389 36.3121C11.2773 36.1694 11.3034 36.0253 11.3171 35.8799C11.3335 35.7345 11.3418 35.5959 11.3418 35.4642ZM13.733 35.8182C13.733 35.6014 13.7508 35.3763 13.7865 35.1431C13.8249 34.9098 13.8784 34.6766 13.947 34.4433C14.0184 34.2101 14.1034 33.9796 14.2022 33.7518C14.301 33.5241 14.4121 33.3059 14.5356 33.0973H15.5523C15.4837 33.3031 15.422 33.5186 15.3671 33.7436C15.315 33.9659 15.2697 34.1895 15.2313 34.4145C15.1956 34.6368 15.1668 34.855 15.1448 35.069C15.1256 35.283 15.116 35.482 15.116 35.6659C15.116 35.7729 15.1201 35.8881 15.1284 36.0116C15.1393 36.1324 15.1572 36.2545 15.1819 36.378C15.2066 36.4987 15.2409 36.6153 15.2848 36.7278C15.3314 36.8403 15.3904 36.9405 15.4618 37.0283C15.5331 37.1134 15.6196 37.182 15.7211 37.2341C15.8254 37.2835 15.9475 37.3082 16.0874 37.3082C16.2246 37.3082 16.3468 37.278 16.4538 37.2177C16.5635 37.1546 16.6596 37.0736 16.7419 36.9748C16.8242 36.8733 16.8942 36.758 16.9518 36.629C17.0095 36.5001 17.0561 36.3684 17.0918 36.2339C17.1302 36.0967 17.1577 35.9636 17.1741 35.8346C17.1933 35.7029 17.2029 35.5849 17.2029 35.4806V33.0973H18.5942V37.8516H18.0591L17.4211 36.7443C17.3415 36.9282 17.2441 37.0956 17.1288 37.2465C17.0163 37.3947 16.8874 37.5223 16.7419 37.6293C16.5965 37.7363 16.4346 37.8186 16.2562 37.8763C16.0806 37.9339 15.8899 37.9627 15.684 37.9627C15.3548 37.9627 15.068 37.9092 14.8238 37.8022C14.5795 37.6951 14.3765 37.547 14.2146 37.3576C14.0527 37.1683 13.9319 36.9433 13.8523 36.6826C13.7728 36.4191 13.733 36.131 13.733 35.8182ZM24.1837 36.3327C24.1837 36.5412 24.1535 36.7265 24.0931 36.8884C24.0328 37.0503 23.9504 37.1916 23.8462 37.3123C23.7419 37.4303 23.6184 37.5305 23.4757 37.6128C23.333 37.6924 23.1793 37.7569 23.0147 37.8063C22.8528 37.8557 22.6826 37.8914 22.5043 37.9133C22.3259 37.9353 22.1489 37.9462 21.9733 37.9462C21.7373 37.9462 21.5287 37.9311 21.3476 37.901C21.1665 37.8708 20.9936 37.8227 20.829 37.7569C20.6643 37.6883 20.4997 37.6005 20.335 37.4935C20.1731 37.3864 19.992 37.2561 19.7917 37.1024L20.6026 36.4397C20.6767 36.5797 20.7741 36.7073 20.8948 36.8225C21.0183 36.935 21.1459 37.0324 21.2776 37.1148C21.4094 37.1971 21.537 37.2602 21.6605 37.3041C21.7839 37.348 21.8841 37.37 21.9609 37.37C22.0241 37.37 22.0954 37.3686 22.175 37.3658C22.2546 37.3604 22.3355 37.3521 22.4178 37.3412C22.5002 37.3274 22.5811 37.3082 22.6607 37.2835C22.7403 37.2588 22.8103 37.2259 22.8706 37.1847C22.9337 37.1408 22.9831 37.0873 23.0188 37.0242C23.0572 36.9583 23.0764 36.8801 23.0764 36.7896C23.0764 36.6963 23.0517 36.6153 23.0023 36.5467C22.9557 36.4754 22.8939 36.4136 22.8171 36.3615C22.7403 36.3094 22.6525 36.2654 22.5537 36.2298C22.4549 36.1941 22.3547 36.1625 22.2532 36.1351C22.1544 36.1077 22.0584 36.0843 21.9651 36.0651C21.8718 36.0432 21.7908 36.0226 21.7222 36.0034C21.596 35.9677 21.4629 35.932 21.3229 35.8964C21.183 35.8579 21.0444 35.8154 20.9072 35.7688C20.77 35.7194 20.6383 35.6617 20.512 35.5959C20.3885 35.53 20.2788 35.4518 20.1827 35.3613C20.0894 35.268 20.014 35.1596 19.9563 35.0361C19.9015 34.9098 19.874 34.763 19.874 34.5956C19.874 34.2883 19.9344 34.0317 20.0551 33.8259C20.1786 33.6174 20.3405 33.4513 20.5408 33.3278C20.7412 33.2016 20.9689 33.1124 21.2241 33.0603C21.4793 33.0082 21.7387 32.9821 22.0021 32.9821C22.1832 32.9821 22.3739 33.0013 22.5743 33.0397C22.7746 33.0754 22.9694 33.1303 23.1588 33.2044C23.3481 33.2757 23.5251 33.3635 23.6897 33.4678C23.8544 33.5721 23.9916 33.6914 24.1014 33.8259L23.2905 34.4927C23.2301 34.3281 23.1505 34.1868 23.0517 34.0688C22.9557 33.9508 22.85 33.8547 22.7348 33.7806C22.6223 33.7038 22.5057 33.6475 22.3849 33.6119C22.2669 33.5762 22.1571 33.5584 22.0556 33.5584C21.9568 33.5584 21.8457 33.5625 21.7222 33.5707C21.5987 33.5789 21.4821 33.6023 21.3723 33.6407C21.2653 33.6791 21.1734 33.7381 21.0965 33.8177C21.0224 33.8945 20.9854 34.0015 20.9854 34.1387C20.9854 34.2375 21.0074 34.3226 21.0513 34.3939C21.0979 34.4625 21.1583 34.5229 21.2324 34.5751C21.3065 34.6245 21.3902 34.667 21.4835 34.7027C21.5795 34.7356 21.6769 34.7658 21.7757 34.7932C21.8745 34.8179 21.9705 34.8399 22.0638 34.8591C22.1571 34.8783 22.2408 34.8989 22.3149 34.9208C22.4412 34.9565 22.5743 34.9935 22.7142 35.032C22.8569 35.0676 22.9969 35.1102 23.1341 35.1596C23.2713 35.2062 23.403 35.2625 23.5292 35.3283C23.6582 35.3914 23.7707 35.4696 23.8667 35.5629C23.9628 35.6562 24.0396 35.766 24.0973 35.8922C24.1549 36.0157 24.1837 36.1625 24.1837 36.3327ZM26.5461 35.5959C26.7162 35.6343 26.8863 35.6645 27.0565 35.6864C27.2266 35.7084 27.3981 35.7194 27.571 35.7194C27.7521 35.7194 27.9195 35.7029 28.0732 35.67C28.2296 35.6343 28.3641 35.5767 28.4766 35.4971C28.5918 35.4148 28.6824 35.3064 28.7482 35.1719C28.8141 35.0374 28.847 34.8701 28.847 34.6697C28.847 34.5078 28.8251 34.3596 28.7812 34.2252C28.7373 34.0907 28.6714 33.9755 28.5836 33.8794C28.4985 33.7834 28.3929 33.7093 28.2666 33.6571C28.1404 33.6023 27.9936 33.5748 27.8262 33.5748C27.6698 33.5748 27.5285 33.6036 27.4022 33.6613C27.2788 33.7189 27.169 33.7971 27.0729 33.8959C26.9796 33.9919 26.8987 34.1044 26.8301 34.2334C26.7642 34.3624 26.7093 34.4969 26.6654 34.6368C26.6215 34.7768 26.59 34.9181 26.5708 35.0608C26.5516 35.2035 26.542 35.3379 26.542 35.4642C26.542 35.4861 26.542 35.5081 26.542 35.53C26.542 35.552 26.5433 35.5739 26.5461 35.5959ZM29.9749 34.6574C29.9749 34.8522 29.9433 35.0265 29.8802 35.1801C29.8171 35.3311 29.7306 35.4642 29.6209 35.5794C29.5139 35.6947 29.389 35.7921 29.2463 35.8717C29.1036 35.9512 28.9513 36.0171 28.7894 36.0692C28.6275 36.1186 28.4601 36.1543 28.2872 36.1763C28.1171 36.1982 27.9511 36.2092 27.7892 36.2092C27.5834 36.2092 27.3803 36.1955 27.18 36.168C26.9796 36.1378 26.7821 36.0912 26.5872 36.0281C26.6174 36.2092 26.6654 36.3821 26.7313 36.5467C26.7972 36.7086 26.885 36.8513 26.9947 36.9748C27.1045 37.0956 27.239 37.1916 27.3981 37.2629C27.56 37.3343 27.7507 37.37 27.9703 37.37C28.1157 37.37 28.2543 37.348 28.386 37.3041C28.5177 37.2602 28.6385 37.1985 28.7482 37.1189C28.858 37.0393 28.9541 36.9446 29.0364 36.8349C29.1214 36.7251 29.1901 36.603 29.2422 36.4685L29.8432 36.6908C29.7526 36.9076 29.6277 37.0956 29.4686 37.2547C29.3122 37.4111 29.1338 37.5415 28.9335 37.6458C28.7359 37.7473 28.5246 37.8227 28.2996 37.8721C28.0773 37.9215 27.8564 37.9462 27.6369 37.9462C27.2746 37.9462 26.9399 37.8859 26.6325 37.7651C26.3252 37.6416 26.0604 37.4701 25.8381 37.2506C25.6158 37.0311 25.4416 36.769 25.3153 36.4644C25.1891 36.1598 25.126 35.8264 25.126 35.4642C25.126 35.1019 25.1891 34.7685 25.3153 34.4639C25.4416 34.1593 25.6158 33.8973 25.8381 33.6777C26.0604 33.4582 26.3252 33.2881 26.6325 33.1673C26.9399 33.0438 27.2746 32.9821 27.6369 32.9821C27.8125 32.9821 27.9922 32.9944 28.1761 33.0191C28.3599 33.0438 28.5383 33.0836 28.7112 33.1385C28.8841 33.1906 29.0474 33.2592 29.201 33.3443C29.3547 33.4294 29.4878 33.535 29.6003 33.6613C29.7156 33.7847 29.8061 33.9288 29.872 34.0935C29.9406 34.2581 29.9749 34.4461 29.9749 34.6574ZM32.9259 35.991C32.9259 36.3725 32.8765 36.7608 32.7777 37.1559C32.6816 37.5483 32.5458 37.9284 32.3702 38.2961C32.1973 38.6666 31.9887 39.0123 31.7445 39.3334C31.5003 39.6545 31.2314 39.9344 30.9377 40.1731L30.3038 39.7903C30.4685 39.5653 30.6126 39.3101 30.736 39.0247C30.8595 38.7393 30.9624 38.4429 31.0448 38.1356C31.1271 37.8282 31.1888 37.5195 31.23 37.2094C31.2712 36.8993 31.2917 36.6044 31.2917 36.3244V31.9242H32.9259V35.991ZM39.5115 35.4642C39.5115 35.7111 39.4786 35.943 39.4127 36.1598C39.3468 36.3766 39.2549 36.5769 39.1369 36.7608C39.0217 36.9446 38.8817 37.1106 38.7171 37.2588C38.5524 37.4043 38.3713 37.5278 38.1737 37.6293C37.9789 37.7308 37.769 37.809 37.5439 37.8639C37.3217 37.9188 37.0925 37.9462 36.8565 37.9462C36.6205 37.9462 36.3914 37.9188 36.1691 37.8639C35.9468 37.809 35.7369 37.7308 35.5393 37.6293C35.3445 37.5278 35.1648 37.4043 35.0001 37.2588C34.8355 37.1106 34.6941 36.9446 34.5761 36.7608C34.4609 36.5769 34.3703 36.3766 34.3045 36.1598C34.2386 35.9403 34.2057 35.7084 34.2057 35.4642C34.2057 35.2199 34.2386 34.9894 34.3045 34.7726C34.3703 34.5531 34.4609 34.3514 34.5761 34.1676C34.6941 33.9837 34.8355 33.819 35.0001 33.6736C35.1648 33.5254 35.3445 33.4006 35.5393 33.299C35.7369 33.1975 35.9468 33.1193 36.1691 33.0644C36.3914 33.0095 36.6205 32.9821 36.8565 32.9821C37.0925 32.9821 37.3217 33.0095 37.5439 33.0644C37.769 33.1193 37.9789 33.1975 38.1737 33.299C38.3713 33.4006 38.5524 33.5254 38.7171 33.6736C38.8817 33.819 39.0217 33.9837 39.1369 34.1676C39.2549 34.3514 39.3468 34.5531 39.4127 34.7726C39.4786 34.9894 39.5115 35.2199 39.5115 35.4642ZM38.0955 35.4642C38.0955 35.3324 38.0873 35.1939 38.0708 35.0484C38.0571 34.9002 38.0324 34.7562 37.9967 34.6162C37.961 34.4735 37.9116 34.3377 37.8485 34.2087C37.7882 34.077 37.7127 33.9631 37.6221 33.8671C37.5316 33.7683 37.4232 33.6901 37.297 33.6324C37.1707 33.5721 37.0239 33.5419 36.8565 33.5419C36.6974 33.5419 36.556 33.5721 36.4326 33.6324C36.3091 33.6928 36.2007 33.7738 36.1074 33.8753C36.0168 33.9741 35.94 34.0893 35.8769 34.2211C35.8165 34.3528 35.7671 34.49 35.7287 34.6327C35.6903 34.7726 35.6628 34.9153 35.6464 35.0608C35.6299 35.2035 35.6217 35.3379 35.6217 35.4642C35.6217 35.5904 35.6299 35.7262 35.6464 35.8717C35.6628 36.0144 35.6903 36.1571 35.7287 36.2998C35.7671 36.4424 35.8165 36.5797 35.8769 36.7114C35.94 36.8403 36.0168 36.9556 36.1074 37.0571C36.2007 37.1559 36.3091 37.2355 36.4326 37.2959C36.556 37.3562 36.6974 37.3864 36.8565 37.3864C37.0212 37.3864 37.1666 37.3576 37.2928 37.3C37.4191 37.2396 37.5275 37.16 37.618 37.0612C37.7113 36.9625 37.7882 36.8486 37.8485 36.7196C37.9089 36.5906 37.9569 36.4548 37.9926 36.3121C38.031 36.1694 38.0571 36.0253 38.0708 35.8799C38.0873 35.7345 38.0955 35.5959 38.0955 35.4642ZM44.8622 33.0973L43.1334 37.2794C42.9358 37.7569 42.7149 38.2289 42.4707 38.6954C42.2292 39.1646 41.9672 39.6147 41.6845 40.0455L41.1412 39.7162C41.2098 39.5927 41.2907 39.45 41.384 39.2881C41.4773 39.1262 41.5693 38.9588 41.6598 38.7859C41.7504 38.6131 41.8341 38.4416 41.9109 38.2714C41.9877 38.104 42.0467 37.9504 42.0879 37.8104L40.0092 33.0973H41.4005L42.8123 36.3121L43.899 33.0973H44.8622Z" fill="white"/>
    <g clip-path="url(#clip0_0_1)">
        <mask id="mask0_0_1" style="mask-type:luminance" maskUnits="userSpaceOnUse" x="20" y="0" width="13" height="25">
            <path d="M23.5015 4.77938C25.6625 5.02038 27.7605 5.98846 29.4173 7.68386C33.2795 11.6364 33.2795 18.0449 29.4173 21.9974L26.5659 24.9153C25.6803 24.1571 24.8826 23.3293 24.1741 22.4458C21.9646 19.6896 20.6261 16.3918 20.2127 12.9756H20.2125L20.209 12.946L20.1979 12.8496C20.1937 12.8136 20.1895 12.7774 20.1858 12.7415L20.1742 12.6311L20.1643 12.5318C20.1608 12.4967 20.1576 12.4617 20.1544 12.4265L20.1447 12.3192L20.1363 12.2177L20.1279 12.1119L20.1205 12.0081L20.1131 11.8989L20.1069 11.7962L20.1009 11.6916L20.0957 11.5845L20.0908 11.4774L20.0871 11.3795L20.0831 11.2676L20.0804 11.1693L20.0777 11.0537L20.0762 10.9607L20.0747 10.8438L20.0742 10.7481V10.6332L20.0747 10.5365C20.075 10.4982 20.0752 10.4602 20.076 10.422L20.0774 10.3289C20.0782 10.2876 20.0789 10.2461 20.0802 10.2048L20.0824 10.1233L20.0866 9.99444L20.0901 9.90583L20.095 9.79014L20.097 9.74685H20.0972C20.2659 6.34947 21.3477 2.9655 23.3951 0C22.5877 3.25131 22.5736 6.60085 23.2898 9.77672L23.316 9.89191L23.3249 9.92988C23.3432 10.0086 23.3622 10.0873 23.3813 10.1658L23.3927 10.2127L23.4191 10.3182L23.4355 10.3823L23.4656 10.4992L23.4748 10.5332C23.5102 10.6671 23.5468 10.8005 23.5849 10.9337L23.5972 10.9769L23.6319 11.0954L23.646 11.1433C23.6843 11.2721 23.7239 11.4007 23.7645 11.5291L23.7786 11.5736L23.8147 11.685L23.8342 11.7448L23.8713 11.8569L23.8718 11.8582C23.8884 11.9078 23.9052 11.9572 23.9223 12.0065L23.9584 12.1103L23.9772 12.1638L24.017 12.2754L24.0371 12.3311L24.0779 12.4425L24.0977 12.4954C24.1214 12.5592 24.1454 12.6227 24.1699 12.6865L24.1937 12.7483L24.2377 12.8607L24.2572 12.9101C25.082 14.9915 26.2419 16.9479 27.7162 18.6912C29.5242 16.0961 29.2902 12.4711 27.0147 10.1425C26.087 9.19319 24.9489 8.59118 23.7543 8.33625C23.5668 7.16058 23.482 5.97023 23.5013 4.77938" fill="white"/>
        </mask>
        <g mask="url(#mask0_0_1)">
            <path d="M33.28 0H20.0752V24.9156H33.28V0Z" fill="#F7EEEE"/>
        </g>
        <mask id="mask1_0_1" style="mask-type:luminance" maskUnits="userSpaceOnUse" x="20" y="1" width="11" height="16">
            <path d="M30.0494 8.76058C29.8075 8.44388 29.5445 8.13832 29.2595 7.84668C27.7565 6.30849 25.8223 5.3275 23.7217 5.03814C23.718 6.07913 23.7947 7.11986 23.9507 8.14845C25.173 8.43933 26.2829 9.07248 27.1722 9.98258C27.6452 10.4666 28.0343 11.0079 28.3381 11.5858C29.0139 10.7231 29.5903 9.77524 30.0491 8.76033M22.9135 1.16482C21.362 3.75894 20.4539 6.70215 20.3204 9.75879L20.3134 9.91676L20.31 10.0038L20.3058 10.1314L20.3035 10.213C20.3026 10.2535 20.3018 10.294 20.3011 10.3345L20.2993 10.4276C20.2988 10.4648 20.2986 10.5021 20.2983 10.5393L20.2979 10.6345V10.7484L20.2983 10.8423L20.2998 10.9585L20.3011 11.0496L20.3038 11.1646L20.3063 11.2613L20.31 11.3722L20.3137 11.4684L20.3184 11.5747L20.3236 11.6798L20.3295 11.7835L20.3355 11.8843L20.3429 11.9924L20.35 12.0944L20.3585 12.1995L20.3666 12.2992L20.3763 12.4066C20.3792 12.4407 20.3825 12.4752 20.3857 12.5094L20.3956 12.6078L20.4072 12.7182C20.4109 12.7534 20.4151 12.7886 20.4191 12.8238L20.4299 12.9182L20.4337 12.9478C20.5756 14.0967 20.8208 15.2245 21.1644 16.3174C22.4745 15.9779 23.7078 15.4414 24.8324 14.7404C24.5457 14.1723 24.2847 13.5903 24.0504 12.9962L23.9861 12.8321L23.9624 12.7704C23.9376 12.7061 23.9134 12.6418 23.8894 12.5775L23.8694 12.5233L23.8283 12.4111L23.8078 12.3544L23.7674 12.2415L23.7125 12.0838C23.6952 12.0342 23.6786 11.984 23.6616 11.9342L23.623 11.8182L23.6032 11.7577L23.5668 11.6451L23.5527 11.6005C23.5117 11.4709 23.4716 11.3408 23.433 11.2104L23.4184 11.1615L23.3835 11.0418L23.3712 10.9985C23.3328 10.8641 23.2957 10.7291 23.2598 10.594L23.2504 10.5585L23.2198 10.4405L23.2032 10.3757L23.1762 10.2686L23.1649 10.2218C23.1453 10.1423 23.1263 10.0631 23.1077 9.98334L23.0986 9.94435L23.0723 9.82917C22.4228 6.98164 22.3758 4.02703 22.913 1.16406L22.9135 1.16482Z" fill="white"/>
        </mask>
        <g mask="url(#mask1_0_1)">
            <path d="M30.0491 1.16406H20.2974V16.3176H30.0491V1.16406Z" fill="white"/>
        </g>
        <mask id="mask2_0_1" style="mask-type:luminance" maskUnits="userSpaceOnUse" x="12" y="2" width="15" height="28">
            <path d="M26.0491 25.446L22.4239 29.1557L15.4308 21.9989C11.5686 18.0464 11.5686 11.6379 15.4308 7.68538C16.0082 7.09451 16.6392 6.59199 17.3078 6.17782C15.0966 9.93444 14.9749 14.6034 16.9868 18.4757C15.4595 14.1126 16.096 9.2623 18.6936 5.46569C19.0862 4.9976 20.0249 3.888 20.9231 2.96094C20.0081 5.08519 19.4728 7.36868 19.3702 9.7152L19.363 9.87748L19.3593 9.97114L19.3548 10.1035L19.3526 10.1851C19.3514 10.2291 19.3506 10.2734 19.3496 10.3175L19.3481 10.4106C19.3474 10.4516 19.3472 10.4927 19.3469 10.5337L19.3464 10.6352V10.7534L19.3469 10.8549L19.3484 10.9744L19.3499 11.0731L19.3526 11.1916L19.3556 11.2957L19.3595 11.4103L19.3635 11.5141L19.3684 11.6235L19.3739 11.7369L19.3801 11.8435L19.3865 11.9524L19.3942 12.064L19.4021 12.1736L19.4107 12.2812L19.4196 12.3891L19.4293 12.4964C19.4327 12.5341 19.436 12.5721 19.4399 12.6098L19.4503 12.7116L19.4619 12.822C19.4659 12.8607 19.4706 12.8997 19.475 12.9384L19.4869 13.0409L19.4906 13.0706C19.9374 16.6844 21.3523 20.1015 23.6115 22.9197C24.3462 23.8364 25.1635 24.6817 26.0494 25.4454" fill="white"/>
        </mask>
        <g mask="url(#mask2_0_1)">
            <path d="M26.0493 2.96094H11.5688V29.1557H26.0493V2.96094Z" fill="#F7EEEE"/>
        </g>
        <mask id="mask3_0_1" style="mask-type:luminance" maskUnits="userSpaceOnUse" x="12" y="3" width="9" height="14">
            <path d="M15.9635 16.6011C14.9362 13.4151 15.1776 9.9149 16.6675 6.89219C16.2858 7.18231 15.9254 7.50129 15.5887 7.84583C13.4809 10.0032 12.5503 12.9087 12.7964 15.7269C13.7975 16.1441 14.859 16.4413 15.9635 16.6011ZM20.2811 3.97707C19.7992 4.50971 19.3302 5.05654 18.8701 5.60488C17.6139 7.44382 16.8063 9.56351 16.5144 11.7875C16.2997 13.4242 16.3692 15.0834 16.7152 16.6876C17.092 16.72 17.4729 16.7378 17.8578 16.7378C18.5901 16.7378 19.3082 16.677 20.0087 16.5616C19.6631 15.437 19.4153 14.2781 19.2693 13.0986L19.2654 13.067L19.2535 12.9644C19.2488 12.9249 19.2441 12.8852 19.2401 12.8455L19.2285 12.7343L19.2181 12.6326C19.2142 12.5938 19.2107 12.5551 19.2072 12.5166L19.1973 12.4072L19.1884 12.2986L19.1798 12.189L19.1719 12.0786L19.1642 11.965L19.1578 11.8556L19.1516 11.7473L19.1459 11.6328L19.1409 11.5217L19.137 11.4171L19.133 11.3007L19.1303 11.1956L19.1276 11.0754L19.1261 10.9759L19.1246 10.8546L19.1241 10.7521V10.6326L19.1246 10.5311C19.1246 10.4891 19.1251 10.4473 19.1259 10.4053L19.1276 10.3124C19.1283 10.2673 19.1291 10.2225 19.1303 10.1774L19.1325 10.0946L19.137 9.96072L19.1407 9.86604L19.1479 9.70376C19.2337 7.74305 19.6194 5.81247 20.2811 3.97656V3.97707Z" fill="white"/>
        </mask>
        <g mask="url(#mask3_0_1)">
            <path d="M20.2811 3.97656H12.5503V16.7373H20.2811V3.97656Z" fill="white"/>
        </g>
    </g>
    <defs>
        <clipPath id="clip0_0_1">
            <rect width="21.7106" height="29.1542" fill="white" transform="translate(11.5688)"/>
        </clipPath>
    </defs>
</svg>
