<svg width="28" height="28" viewBox="0 0 28 28" fill="none" xmlns="http://www.w3.org/2000/svg">
<g id="Frame">
<path id="Vector" d="M13.5 7.85292L12.9722 8.35313C12.9755 8.35648 12.9788 8.35979 12.9821 8.36307L13.5 7.85292ZM8.61687 18.3556C8.30448 18.1024 7.84282 18.1466 7.58573 18.4542C7.32863 18.7617 7.37345 19.2163 7.68584 19.4695L8.61687 18.3556ZM4.06659 15.4613C4.26072 15.8108 4.70585 15.9392 5.06081 15.748C5.41578 15.5568 5.54615 15.1185 5.35201 14.769L4.06659 15.4613ZM14.9356 10.2859C15.2217 10.5675 15.6856 10.5674 15.9716 10.2857C16.2576 10.004 16.2575 9.54724 15.9714 9.2656L14.9356 10.2859ZM4.46512 11.3503C4.46512 9.28171 5.65222 7.54698 7.27263 6.81765C8.84686 6.10911 10.9621 6.29675 12.9722 8.35313L14.0278 7.35271C11.6427 4.91272 8.87423 4.51058 6.66353 5.50559C4.49902 6.47981 3 8.74197 3 11.3503H4.46512ZM10.0789 21.3168C10.5792 21.7052 11.1163 22.1193 11.6606 22.4325C12.2047 22.7455 12.8257 23 13.5 23V21.5574C13.1976 21.5574 12.8418 21.4413 12.3998 21.1869C11.958 20.9327 11.4997 20.5827 10.9859 20.1839L10.0789 21.3168ZM16.9211 21.3168C18.3146 20.2351 20.0958 18.9958 21.493 17.4466C22.9153 15.8696 24 13.9139 24 11.3503H22.5349C22.5349 13.4637 21.6566 15.0926 20.3975 16.4887C19.1133 17.9126 17.4945 19.0348 16.0141 20.1839L16.9211 21.3168ZM24 11.3503C24 8.74197 22.501 6.47981 20.3364 5.50559C18.1258 4.51058 15.3573 4.91272 12.9722 7.35271L14.0278 8.35313C16.0379 6.29675 18.1531 6.10911 19.7273 6.81765C21.3477 7.54698 22.5349 9.28171 22.5349 11.3503H24ZM16.0141 20.1839C15.5003 20.5827 15.042 20.9327 14.6002 21.1869C14.1582 21.4413 13.8024 21.5574 13.5 21.5574V23C14.1743 23 14.7953 22.7455 15.3394 22.4325C15.8837 22.1193 16.4208 21.7052 16.9211 21.3168L16.0141 20.1839ZM10.9859 20.1839C10.2085 19.5805 9.41847 19.0051 8.61687 18.3556L7.68584 19.4695C8.4968 20.1267 9.35345 20.7537 10.0789 21.3168L10.9859 20.1839ZM5.35201 14.769C4.80385 13.7821 4.46512 12.6643 4.46512 11.3503H3C3 12.9252 3.41018 14.2795 4.06659 15.4613L5.35201 14.769ZM12.9821 8.36307L14.9356 10.2859L15.9714 9.2656L14.0179 7.34279L12.9821 8.36307Z" fill="black"/>
</g>
</svg>
