<svg width="16" height="22" viewBox="0 0 16 22" fill="none" xmlns="http://www.w3.org/2000/svg">
<path id="Vector" d="M13.5718 2.27833C12.8055 1.5216 11.8946 0.929857 10.8945 0.539066C9.89438 0.148274 8.82593 -0.0334118 7.75404 0.00504618C5.7443 0.0742101 3.83347 0.901381 2.39948 2.32297C0.965479 3.74455 0.112736 5.65703 0.00989986 7.68215C-0.0424453 8.73878 0.113167 9.79539 0.467761 10.7911C0.822356 11.7868 1.36892 12.7018 2.07593 13.4834C4.20031 15.7564 5.93005 18.3737 7.19263 21.2258L7.33226 21.5558C7.38835 21.6876 7.48156 21.8 7.60036 21.879C7.71915 21.9579 7.8583 22 8.00057 22C8.14285 22 8.28199 21.9579 8.40079 21.879C8.51958 21.8 8.61279 21.6876 8.66888 21.5558L8.97941 20.8225C10.179 18.1299 11.8327 15.6675 13.867 13.545C15.2878 12.0003 16.0524 9.95602 15.9972 7.8499C15.942 5.74377 15.0714 3.74311 13.5718 2.27613V2.27833ZM8.00057 11.0004C7.42525 11.0004 6.86285 10.8284 6.38449 10.5061C5.90613 10.1838 5.53329 9.72565 5.31312 9.18966C5.09296 8.65368 5.03535 8.06389 5.14759 7.49489C5.25983 6.92589 5.53687 6.40323 5.94369 5.99301C6.3505 5.58278 6.86881 5.30342 7.43308 5.19023C7.99734 5.07705 8.58222 5.13514 9.11375 5.35715C9.64527 5.57917 10.0996 5.95513 10.4192 6.43751C10.7388 6.91988 10.9094 7.487 10.9094 8.06715C10.9094 8.8451 10.603 9.59119 10.0575 10.1413C9.51193 10.6914 8.77205 11.0004 8.00057 11.0004Z" fill="#016F61"/>
</svg>
