<svg width="17" height="23" viewBox="0 0 17 23" fill="none" xmlns="http://www.w3.org/2000/svg">
<g id="Layer_1" clip-path="url(#clip0_578_8668)">
<g id="Clip path group">
<mask id="mask0_578_8668" style="mask-type:luminance" maskUnits="userSpaceOnUse" x="6" y="0" width="11" height="20">
<g id="clippath">
<path id="Vector" d="M9.34383 3.77049C11.036 3.96062 12.6787 4.72435 13.9761 6.06186C17.0003 9.18007 17.0003 14.2357 13.9761 17.354L11.7433 19.6559C11.0499 19.0578 10.4252 18.4047 9.87049 17.7077C8.14039 15.5333 7.09229 12.9316 6.76863 10.2366H6.76843L6.76572 10.2132L6.757 10.1371C6.75371 10.1088 6.75042 10.0802 6.74751 10.0518L6.73841 9.96476L6.73066 9.88647C6.72795 9.85871 6.72543 9.83115 6.72291 9.80339L6.71536 9.71871L6.70877 9.63862L6.70219 9.55514L6.69638 9.47326L6.69057 9.38718L6.68572 9.30609L6.68108 9.22361L6.67701 9.13913L6.67313 9.05465L6.67023 8.97736L6.66713 8.88908L6.665 8.81159L6.66287 8.72032L6.66171 8.64702L6.66054 8.55475L6.66016 8.47926V8.38858L6.66054 8.31229C6.66074 8.28213 6.66093 8.25218 6.66151 8.22202L6.66267 8.14852C6.66326 8.11597 6.66384 8.08321 6.6648 8.05066L6.66655 7.98635L6.66984 7.88469L6.67255 7.81479L6.67643 7.72352L6.67798 7.68937H6.67817C6.81027 5.00914 7.65731 2.3395 9.26054 0C8.62831 2.56499 8.61727 5.20747 9.17802 7.71294L9.19855 7.80381L9.20553 7.83377C9.21986 7.89588 9.23478 7.95799 9.24969 8.0199L9.2586 8.05685L9.27933 8.14013L9.29211 8.19066L9.31574 8.28293L9.32291 8.3097C9.35061 8.41535 9.37927 8.5206 9.4091 8.62565L9.41879 8.6598L9.44591 8.75327L9.45695 8.79102C9.48697 8.89267 9.51796 8.99413 9.54973 9.09539L9.56077 9.13054L9.58905 9.21842L9.60435 9.26555L9.6334 9.35402L9.63379 9.35502C9.64677 9.39417 9.65994 9.43311 9.67331 9.47206L9.70158 9.55394L9.71631 9.59608L9.74749 9.68416L9.76318 9.7281L9.79514 9.81597L9.81064 9.85771C9.82923 9.90804 9.84802 9.95817 9.8672 10.0085L9.88579 10.0572L9.92027 10.1459L9.93557 10.1849C10.5814 11.8269 11.4896 13.3704 12.644 14.7456C14.0598 12.6983 13.8765 9.83854 12.0947 8.00153C11.3683 7.25258 10.4771 6.77765 9.54178 6.57654C9.39496 5.64904 9.32852 4.70997 9.34363 3.77049" fill="white"/>
</g>
</mask>
<g mask="url(#mask0_578_8668)">
<g id="Group">
<path id="Vector_2" d="M17.0009 0H6.66113V19.6561H17.0009V0Z" fill="#F7EEEE"/>
</g>
</g>
</g>
<g id="Clip path group_2">
<mask id="mask1_578_8668" style="mask-type:luminance" maskUnits="userSpaceOnUse" x="6" y="0" width="9" height="13">
<g id="clippath-1">
<path id="Vector_3" d="M14.4707 6.91093C14.2812 6.66108 14.0753 6.42002 13.8522 6.18994C12.6753 4.97645 11.1608 4.20254 9.51592 3.97426C9.51301 4.79551 9.57306 5.61655 9.69528 6.42801C10.6523 6.65748 11.5215 7.15698 12.2178 7.87497C12.5881 8.25683 12.8928 8.68383 13.1307 9.13978C13.6599 8.45914 14.1112 7.7114 14.4705 6.91073M8.88311 0.918568C7.66824 2.96508 6.95718 5.28701 6.85259 7.69842L6.84716 7.82304L6.84445 7.89174L6.84116 7.9924L6.83942 8.05671C6.83864 8.08867 6.83806 8.12062 6.83748 8.15258L6.83612 8.22607C6.83574 8.25543 6.83554 8.28479 6.83535 8.31415L6.83496 8.38924V8.47912L6.83535 8.55321L6.83651 8.64488L6.83748 8.71678L6.83961 8.80745L6.84155 8.88375L6.84445 8.97122L6.84736 9.04712L6.85104 9.131L6.85511 9.21388L6.85975 9.29576L6.8644 9.37525L6.87021 9.46053L6.87583 9.54102L6.88242 9.6239L6.88881 9.70259L6.89636 9.78727C6.89869 9.81424 6.90121 9.8414 6.90372 9.86836L6.91147 9.94605L6.92057 10.0331C6.92348 10.0609 6.92677 10.0886 6.92987 10.1164L6.93839 10.1909L6.9413 10.2143C7.05248 11.1206 7.24444 12.0103 7.51348 12.8725C8.5393 12.6047 9.50507 12.1815 10.3856 11.6285C10.1611 11.1803 9.95677 10.7212 9.77334 10.2524L9.72298 10.123L9.70439 10.0743C9.68502 10.0235 9.66603 9.97281 9.64725 9.92208L9.63156 9.87934L9.5994 9.79087L9.58333 9.74613L9.55175 9.65706L9.50875 9.53263C9.49519 9.49349 9.48222 9.45394 9.46885 9.4146L9.43863 9.32313L9.42314 9.27539L9.39466 9.18652L9.38362 9.15137C9.35147 9.04911 9.32009 8.94646 9.28987 8.8436L9.27845 8.80506L9.25114 8.71059L9.24145 8.67644C9.21143 8.57039 9.18237 8.46394 9.15429 8.35729L9.14693 8.32933L9.12291 8.23626L9.10993 8.18513L9.08882 8.10065L9.07991 8.0637C9.06461 8.00099 9.04969 7.93848 9.03516 7.87557L9.028 7.84481L9.00746 7.75394C8.49882 5.5075 8.46201 3.17659 8.88272 0.917969L8.88311 0.918568Z" fill="white"/>
</g>
</mask>
<g mask="url(#mask1_578_8668)">
<g id="Group_2">
<path id="Vector_4" d="M14.4709 0.917969H6.83496V12.8727H14.4709V0.917969Z" fill="white"/>
</g>
</g>
</g>
<g id="Clip path group_3">
<mask id="mask2_578_8668" style="mask-type:luminance" maskUnits="userSpaceOnUse" x="0" y="2" width="12" height="21">
<g id="clippath-2">
<path id="Vector_5" d="M11.3384 20.0745L8.49981 23.0012L3.024 17.3552C-0.000187933 14.237 -0.000187933 9.18129 3.024 6.06309C3.47609 5.59694 3.97021 5.2005 4.49377 4.87376C2.76232 7.83739 2.66702 11.5208 4.24235 14.5757C3.04647 11.1335 3.54485 7.30713 5.57886 4.31195C5.88626 3.94267 6.62134 3.06731 7.32465 2.33594C6.60817 4.01178 6.18901 5.81324 6.10862 7.66443L6.10301 7.79245L6.1001 7.86635L6.09661 7.9708L6.09487 8.03511C6.0939 8.06986 6.09332 8.10481 6.09255 8.13956L6.09138 8.21306C6.0908 8.24541 6.09061 8.27777 6.09042 8.31012L6.09003 8.39021V8.48348L6.09042 8.56356L6.09158 8.65783L6.09274 8.73572L6.09487 8.82919L6.0972 8.91128L6.1003 9.00175L6.10339 9.08363L6.10727 9.16991L6.11153 9.25938L6.11637 9.34347L6.12141 9.42935L6.12741 9.51742L6.13361 9.6039L6.14039 9.68878L6.14736 9.77386L6.15492 9.85854C6.15763 9.8883 6.16015 9.91826 6.16325 9.94801L6.17138 10.0283L6.18049 10.1154C6.18358 10.1459 6.18726 10.1767 6.19075 10.2072L6.20005 10.2881L6.20295 10.3115C6.55277 13.1625 7.66072 15.8583 9.42975 18.0816C10.005 18.8047 10.645 19.4716 11.3386 20.0742" fill="white"/>
</g>
</mask>
<g mask="url(#mask2_578_8668)">
<g id="Group_3">
<path id="Vector_6" d="M11.3386 2.33594H0V23.0012H11.3386V2.33594Z" fill="#F7EEEE"/>
</g>
</g>
</g>
<g id="Clip path group_4">
<mask id="mask3_578_8668" style="mask-type:luminance" maskUnits="userSpaceOnUse" x="0" y="3" width="7" height="11">
<g id="clippath-3">
<path id="Vector_7" d="M3.4408 13.0963C2.63638 10.5828 2.82542 7.82152 3.99206 5.43688C3.69319 5.66576 3.41097 5.9174 3.14735 6.18922C1.49686 7.89122 0.768169 10.1834 0.960898 12.4067C1.74479 12.7358 2.57594 12.9703 3.4408 13.0963ZM6.82158 3.13712C6.44426 3.55733 6.07701 3.98872 5.71674 4.42131C4.73314 5.87206 4.10072 7.54431 3.87216 9.29884C3.70403 10.59 3.75846 11.899 4.02944 13.1646C4.32444 13.1902 4.62274 13.2041 4.92413 13.2041C5.49747 13.2041 6.05977 13.1562 6.60832 13.0651C6.33773 12.178 6.14365 11.2637 6.02936 10.3332L6.02627 10.3082L6.01697 10.2273C6.01329 10.1962 6.00961 10.1648 6.00651 10.1335L5.9974 10.0458L5.98927 9.9655C5.98617 9.93494 5.98346 9.90438 5.98075 9.87403L5.973 9.78775L5.96602 9.70207L5.95925 9.61559L5.95305 9.52851L5.94704 9.43884L5.94201 9.35256L5.93716 9.26708L5.93271 9.17681L5.92884 9.08913L5.92574 9.00665L5.92264 8.91478L5.92051 8.83189L5.91838 8.73703L5.91721 8.65854L5.91605 8.56287L5.91566 8.48199V8.38772L5.91605 8.30763C5.91605 8.27448 5.91644 8.24153 5.91702 8.20837L5.91838 8.13508C5.91896 8.09953 5.91954 8.06418 5.92051 8.02863L5.92225 7.96332L5.92574 7.85767L5.92864 7.78297L5.93426 7.65495C6.00147 6.10813 6.30345 4.58508 6.82158 3.13672V3.13712Z" fill="white"/>
</g>
</mask>
<g mask="url(#mask3_578_8668)">
<g id="Group_4">
<path id="Vector_8" d="M6.82197 3.13672H0.768555V13.2037H6.82197V3.13672Z" fill="white"/>
</g>
</g>
</g>
</g>
<defs>
<clipPath id="clip0_578_8668">
<rect width="17" height="23" fill="white"/>
</clipPath>
</defs>
</svg>
