<svg width="42" height="35" viewBox="0 0 42 35" fill="none" xmlns="http://www.w3.org/2000/svg">
    <path d="M3.84396 33H4.19598V35H3.88754V33.4371L3.11978 34.5257H3.07955L2.3118 33.44V35H2V33H2.35203L3.09967 34.0571L3.84396 33Z" fill="white"/>
    <path d="M9.91673 33L10.9125 35H10.5336L10.2822 34.4743H9.18585L8.9344 35H8.56896L9.5647 33H9.91673ZM9.31325 34.2114H10.1548L9.73568 33.3371L9.31325 34.2114Z" fill="white"/>
    <path d="M16.9756 35H16.6302L16.1039 34.2343H15.5507V35H15.2389V33H16.1776C16.3788 33 16.5498 33.06 16.6939 33.1829C16.8381 33.3029 16.9085 33.4486 16.9085 33.62C16.9085 33.7486 16.8616 33.8686 16.7711 33.9743C16.6805 34.08 16.5665 34.1571 16.4224 34.2L16.9756 35ZM16.1776 33.2486H15.5507V33.9943H16.1776C16.295 33.9943 16.3922 33.9571 16.4727 33.8857C16.5565 33.8114 16.5967 33.7229 16.5967 33.62C16.5967 33.5171 16.5565 33.4286 16.4727 33.3571C16.3922 33.2857 16.295 33.2486 16.1776 33.2486Z" fill="white"/>
    <path d="M21.2205 33.2629V33H23.0376V33.2629H22.3034V35H21.9514V33.2629H21.2205Z" fill="white"/>
    <path d="M27.7247 35H27.3727V33H27.7247V35Z" fill="white"/>
    <path d="M33.3267 33L34.3224 35H33.9436L33.6922 34.4743H32.5958L32.3444 35H31.979L32.9747 33H33.3267ZM32.7232 34.2114H33.5648L33.1457 33.3371L32.7232 34.2114Z" fill="white"/>
    <path d="M40 34.7371V35H38.5751V33H38.9272V34.7371H40Z" fill="white"/>
    <path fill-rule="evenodd" clip-rule="evenodd" d="M39.6024 29.4364C41.6954 28.4681 42.5882 26.0187 41.5929 23.9823L31.0257 2.33669C30.0304 0.300293 27.513 -0.568379 25.42 0.399977C23.3271 1.36833 22.4343 3.8177 23.4295 5.8541L33.9968 27.4997C34.9921 29.5361 37.5241 30.4048 39.6024 29.4364Z" fill="white"/>
    <path fill-rule="evenodd" clip-rule="evenodd" d="M27.2204 29.4352C29.3134 28.4668 30.2062 26.0174 29.2109 23.981L18.6437 2.33545C17.9265 0.854432 16.4043 0 14.8236 0C13.2429 0 11.7208 0.854432 11.0036 2.33545L0.407073 23.9953C-0.588182 26.0317 0.30462 28.4811 2.39758 29.4494C4.49054 30.4178 7.00796 29.5491 8.00321 27.5127L14.809 13.5855L21.6148 27.5127C22.61 29.5349 25.1274 30.4035 27.2204 29.4352Z" fill="white"/>
</svg>
