<svg width="17" height="17" viewBox="0 0 17 17" fill="none" xmlns="http://www.w3.org/2000/svg">
<path d="M17 8.5C17 3.80558 13.1944 0 8.5 0C3.80558 0 0 3.80558 0 8.5C0 13.1944 3.80558 17 8.5 17C13.1944 17 17 13.1944 17 8.5Z" fill="#D63229"/>
<path d="M12.6 8.5H4.829C4.74174 8.5 4.65806 8.53466 4.59636 8.59636C4.53466 8.65806 4.5 8.74174 4.5 8.829C4.5 8.91626 4.53466 8.99994 4.59636 9.06164C4.65806 9.12334 4.74174 9.158 4.829 9.158H12.6C12.6873 9.158 12.7709 9.12334 12.8326 9.06164C12.8943 8.99994 12.929 8.91626 12.929 8.829C12.929 8.74174 12.8943 8.65806 12.8326 8.59636C12.7709 8.53466 12.6873 8.5 12.6 8.5Z" fill="white" stroke="white" stroke-width="0.3"/>
</svg>
