<svg width="65" height="19" viewBox="0 0 65 19" fill="none" xmlns="http://www.w3.org/2000/svg">
    <path fill-rule="evenodd" clip-rule="evenodd" d="M0.106395 1.97546C1.65806 1.49951 3.3996 1.69962 4.85561 2.67305C6.31052 3.64287 7.1606 5.17936 7.31612 6.793C5.76445 7.26895 4.02291 7.06885 2.5669 6.09542C1.1145 5.12089 0.261907 3.5891 0.106395 1.97546Z" fill="#515151"/>
    <path fill-rule="evenodd" clip-rule="evenodd" d="M10.0587 0.0562988C10.744 1.05113 10.9919 2.33289 10.6258 3.58049C10.2644 4.83061 9.36526 5.77874 8.25428 6.25083C7.56897 5.256 7.3211 3.97424 7.68724 2.72664C8.05227 1.47543 8.94776 0.528388 10.0587 0.0562988Z" fill="#CA872F"/>
    <path d="M0.089425 7.89043H2.89027L9.19979 15.6308V9.67901C9.19979 9.04476 9.12875 8.64899 8.98668 8.49169C8.79894 8.27859 8.50211 8.17203 8.09619 8.17203H7.73848V7.89043H11.3309V8.17203H10.9655C10.5292 8.17203 10.2197 8.30396 10.037 8.5678C9.92537 8.73017 9.86956 9.10057 9.86956 9.67901V18.3784H9.59556L2.79133 10.0672V16.4224C2.79133 17.0566 2.85983 17.4524 2.99683 17.6097C3.18964 17.8228 3.48647 17.9293 3.88731 17.9293H4.25264V18.2109H0.66025V17.9293H1.01797C1.4594 17.9293 1.77146 17.7974 1.95412 17.5336C2.06575 17.3712 2.12156 17.0008 2.12156 16.4224V9.24518C1.8222 8.89508 1.59387 8.66421 1.43657 8.55258C1.28435 8.44095 1.05856 8.33694 0.759193 8.24053C0.612047 8.19487 0.388791 8.17203 0.089425 8.17203V7.89043ZM14.8167 8.45364V12.5331H17.0848C17.6734 12.5331 18.0666 12.4443 18.2645 12.2667C18.5283 12.0333 18.6755 11.6224 18.7059 11.0338H18.9875V14.6262H18.7059C18.6349 14.1238 18.5639 13.8016 18.4928 13.6596C18.4015 13.482 18.2518 13.3424 18.0438 13.241C17.8357 13.1395 17.5161 13.0887 17.0848 13.0887H14.8167V16.4909C14.8167 16.9475 14.837 17.2266 14.8776 17.3281C14.9182 17.4245 14.9892 17.5031 15.0907 17.564C15.1922 17.6198 15.385 17.6477 15.6691 17.6477H17.4197C18.0032 17.6477 18.4269 17.6071 18.6907 17.5259C18.9545 17.4448 19.2082 17.2849 19.4518 17.0465C19.7664 16.7319 20.0886 16.2574 20.4184 15.6232H20.7228L19.8324 18.2109H11.8789V17.9293H12.2442C12.4877 17.9293 12.7186 17.871 12.9368 17.7543C13.0992 17.6731 13.2082 17.5513 13.2641 17.3889C13.3249 17.2266 13.3554 16.8942 13.3554 16.3919V9.68662C13.3554 9.03207 13.2894 8.62869 13.1575 8.47647C12.9748 8.27351 12.6704 8.17203 12.2442 8.17203H11.8789V7.89043H19.8324L19.9465 10.1509H19.6497C19.5431 9.60797 19.4239 9.23503 19.292 9.03207C19.1651 8.82911 18.9748 8.67436 18.7211 8.5678C18.5182 8.49169 18.1605 8.45364 17.648 8.45364H14.8167ZM28.2349 7.65448V11.224H27.9533C27.862 10.5391 27.697 9.9936 27.4586 9.58768C27.2252 9.18176 26.8903 8.85956 26.4539 8.62108C26.0176 8.3826 25.566 8.26336 25.0992 8.26336C24.5715 8.26336 24.1351 8.42573 23.7901 8.75047C23.445 9.07013 23.2725 9.43546 23.2725 9.84645C23.2725 10.161 23.3816 10.4477 23.5998 10.7065C23.9144 11.087 24.6628 11.5944 25.845 12.2287C26.8091 12.7462 27.4662 13.1446 27.8163 13.4236C28.1715 13.6976 28.4429 14.0224 28.6307 14.3978C28.8235 14.7733 28.9199 15.1665 28.9199 15.5775C28.9199 16.3589 28.6154 17.0338 28.0066 17.6021C27.4028 18.1653 26.6239 18.4469 25.67 18.4469C25.3706 18.4469 25.089 18.424 24.8252 18.3784C24.6679 18.353 24.3406 18.2617 23.8433 18.1044C23.3512 17.942 23.0391 17.8608 22.9072 17.8608C22.7803 17.8608 22.6789 17.8989 22.6028 17.975C22.5317 18.0511 22.4784 18.2084 22.4429 18.4469H22.1613V14.9078H22.4429C22.5748 15.6486 22.7524 16.2042 22.9757 16.5746C23.1989 16.9399 23.5389 17.2443 23.9956 17.4879C24.4573 17.7314 24.9622 17.8532 25.5102 17.8532C26.1444 17.8532 26.6442 17.6858 27.0095 17.3509C27.3799 17.016 27.5651 16.6202 27.5651 16.1636C27.5651 15.9099 27.4941 15.6536 27.352 15.3949C27.215 15.1361 26.9994 14.8951 26.7051 14.6718C26.5072 14.5196 25.9668 14.1974 25.0839 13.7052C24.2011 13.208 23.5719 12.8122 23.1964 12.5179C22.826 12.2236 22.5444 11.8989 22.3516 11.5437C22.1588 11.1885 22.0624 10.7978 22.0624 10.3716C22.0624 9.63081 22.3465 8.99402 22.9148 8.46125C23.4831 7.92341 24.2061 7.65448 25.0839 7.65448C25.6319 7.65448 26.2129 7.78895 26.8269 8.05787C27.111 8.18472 27.3114 8.24814 27.4281 8.24814C27.56 8.24814 27.6666 8.21009 27.7478 8.13398C27.834 8.05279 27.9025 7.89296 27.9533 7.65448H28.2349ZM38.7837 7.89043L38.8979 10.3107H38.6087C38.5529 9.88451 38.4768 9.58007 38.3804 9.3974C38.2231 9.10311 38.0125 8.88747 37.7486 8.75047C37.4899 8.6084 37.1474 8.53736 36.7212 8.53736H35.2675V16.4224C35.2675 17.0566 35.336 17.4524 35.4729 17.6097C35.6658 17.8228 35.9626 17.9293 36.3634 17.9293H36.7212V18.2109H32.3448V17.9293H32.7102C33.1465 17.9293 33.456 17.7974 33.6387 17.5336C33.7503 17.3712 33.8061 17.0008 33.8061 16.4224V8.53736H32.5655C32.0835 8.53736 31.741 8.57288 31.5381 8.64391C31.2742 8.74032 31.0484 8.92552 30.8607 9.19952C30.6729 9.47351 30.5613 9.84391 30.5258 10.3107H30.2366L30.3584 7.89043H38.7837ZM44.1038 17.9293V18.2109H39.6818V17.9293H40.0472C40.4734 17.9293 40.7829 17.805 40.9757 17.5564C41.0975 17.394 41.1584 17.0033 41.1584 16.3843V9.71706C41.1584 9.19444 41.1254 8.84941 41.0594 8.68197C41.0087 8.55512 40.9047 8.44603 40.7474 8.3547C40.5241 8.23292 40.2907 8.17203 40.0472 8.17203H39.6818V7.89043H44.1038V8.17203H43.7309C43.3097 8.17203 43.0028 8.29635 42.81 8.54497C42.6831 8.70734 42.6197 9.09804 42.6197 9.71706V16.3843C42.6197 16.9069 42.6527 17.252 42.7186 17.4194C42.7694 17.5462 42.8759 17.6553 43.0383 17.7467C43.2565 17.8684 43.4873 17.9293 43.7309 17.9293H44.1038ZM47.6734 8.45364V12.5103H49.5533C49.9846 12.5103 50.2992 12.4164 50.4971 12.2287C50.7 12.0359 50.8345 11.6579 50.9004 11.0947H51.182V14.5881H50.9004C50.8954 14.1873 50.8421 13.893 50.7406 13.7052C50.6442 13.5175 50.5072 13.378 50.3296 13.2866C50.1571 13.1902 49.8983 13.142 49.5533 13.142H47.6734V16.3843C47.6734 16.9069 47.7064 17.252 47.7723 17.4194C47.8231 17.5462 47.9296 17.6553 48.092 17.7467C48.3152 17.8684 48.5486 17.9293 48.7922 17.9293H49.1651V18.2109H44.7355V17.9293H45.1009C45.5271 17.9293 45.8366 17.805 46.0294 17.5564C46.1512 17.394 46.2121 17.0033 46.2121 16.3843V9.71706C46.2121 9.19444 46.1791 8.84941 46.1131 8.68197C46.0624 8.55512 45.9584 8.44603 45.8011 8.3547C45.5829 8.23292 45.3495 8.17203 45.1009 8.17203H44.7355V7.89043H52.415L52.514 10.1585H52.2476C52.1157 9.67647 51.9609 9.32383 51.7833 9.10057C51.6108 8.87224 51.3952 8.70734 51.1364 8.60586C50.8827 8.50438 50.4869 8.45364 49.9491 8.45364H47.6734ZM60.5892 7.89043H64.1892V8.17203H63.9914C63.8594 8.17203 63.6666 8.23038 63.4129 8.34709C63.1592 8.46379 62.9284 8.63123 62.7203 8.84941C62.5123 9.06759 62.256 9.42277 61.9516 9.91495L59.4628 13.8346V16.4224C59.4628 17.0566 59.5338 17.4524 59.6759 17.6097C59.8687 17.8228 60.1732 17.9293 60.5892 17.9293H60.9241V18.2109H56.5402V17.9293H56.9055C57.3419 17.9293 57.6514 17.7974 57.8341 17.5336C57.9457 17.3712 58.0015 17.0008 58.0015 16.4224V13.9792L55.1702 9.65618C54.8353 9.14878 54.607 8.83165 54.4852 8.7048C54.3685 8.57795 54.1224 8.42573 53.747 8.24814C53.6455 8.1974 53.4983 8.17203 53.3055 8.17203V7.89043H57.7199V8.17203H57.4916C57.2531 8.17203 57.0324 8.22785 56.8294 8.33947C56.6315 8.4511 56.5326 8.61854 56.5326 8.8418C56.5326 9.02446 56.6873 9.35427 56.9969 9.83123L59.1508 13.1572L61.1753 9.97584C61.4797 9.49888 61.6319 9.1437 61.6319 8.9103C61.6319 8.76823 61.5939 8.64138 61.5178 8.52975C61.4467 8.41812 61.3427 8.33186 61.2057 8.27098C61.0687 8.20501 60.8632 8.17203 60.5892 8.17203V7.89043Z" fill="#004980"/>
</svg>
