<svg width="30" height="30" viewBox="0 0 30 30" fill="none" xmlns="http://www.w3.org/2000/svg">
<path d="M1.17554 28.2656H29.0001" stroke="black" stroke-width="2" stroke-miterlimit="10" stroke-linecap="round" stroke-linejoin="round"/>
<path d="M19.2754 28.2506L2.58073 28.2786L2.5668 7.49358C2.5668 6.56146 3.03983 5.69886 3.80501 5.1841L9.36992 1.46954C10.302 0.843487 11.5263 0.843487 12.4584 1.46954L18.0233 5.1841C18.8024 5.69886 19.2615 6.56146 19.2615 7.49358L19.2754 28.2506Z" stroke="black" stroke-width="2" stroke-miterlimit="10" stroke-linecap="round" stroke-linejoin="round"/>
<path d="M26.1899 28.278V22.6992" stroke="black" stroke-width="2" stroke-miterlimit="10" stroke-linecap="round" stroke-linejoin="round"/>
<path d="M26.2178 14.3516C24.6874 14.3516 23.4353 15.6037 23.4353 17.134V19.9165C23.4353 21.4468 24.6874 22.6989 26.2178 22.6989C27.7481 22.6989 29.0002 21.4468 29.0002 19.9165V17.134C29.0002 15.6037 27.7481 14.3516 26.2178 14.3516Z" stroke="black" stroke-width="2" stroke-miterlimit="10" stroke-linecap="round" stroke-linejoin="round"/>
<path d="M2.56689 17.1367H19.2616" stroke="black" stroke-width="2" stroke-miterlimit="10" stroke-linecap="round" stroke-linejoin="round"/>
<path d="M10.9143 28.264V23.0469" stroke="black" stroke-width="2" stroke-miterlimit="10" stroke-linecap="round" stroke-linejoin="round"/>
<path d="M10.914 12.2674C12.0665 12.2674 13.0008 11.3331 13.0008 10.1806C13.0008 9.02806 12.0665 8.09375 10.914 8.09375C9.76146 8.09375 8.82715 9.02806 8.82715 10.1806C8.82715 11.3331 9.76146 12.2674 10.914 12.2674Z" stroke="black" stroke-width="2" stroke-miterlimit="10" stroke-linecap="round" stroke-linejoin="round"/>
</svg>
