<svg width="17" height="17" viewBox="0 0 17 17" fill="none" xmlns="http://www.w3.org/2000/svg">
<path d="M17 8.5C17 3.80558 13.1944 0 8.5 0C3.80558 0 0 3.80558 0 8.5C0 13.1944 3.80558 17 8.5 17C13.1944 17 17 13.1944 17 8.5Z" fill="#34C759"/>
<path d="M12.277 8.231H8.863V4.816C8.863 4.73219 8.82971 4.65182 8.77045 4.59255C8.71118 4.53329 8.63081 4.5 8.547 4.5C8.46319 4.5 8.38282 4.53329 8.32355 4.59255C8.26429 4.65182 8.231 4.73219 8.231 4.816V8.231H4.816C4.73219 8.231 4.65182 8.26429 4.59255 8.32355C4.53329 8.38282 4.5 8.46319 4.5 8.547C4.5 8.63081 4.53329 8.71118 4.59255 8.77045C4.65182 8.82971 4.73219 8.863 4.816 8.863H8.231V12.277C8.231 12.3185 8.23917 12.3596 8.25505 12.3979C8.27093 12.4363 8.29421 12.4711 8.32355 12.5004C8.3529 12.5298 8.38773 12.5531 8.42607 12.5689C8.46441 12.5848 8.5055 12.593 8.547 12.593C8.5885 12.593 8.62959 12.5848 8.66793 12.5689C8.70627 12.5531 8.7411 12.5298 8.77045 12.5004C8.79979 12.4711 8.82307 12.4363 8.83895 12.3979C8.85483 12.3596 8.863 12.3185 8.863 12.277V8.863H12.277C12.3608 8.863 12.4412 8.82971 12.5004 8.77045C12.5597 8.71118 12.593 8.63081 12.593 8.547C12.593 8.46319 12.5597 8.38282 12.5004 8.32355C12.4412 8.26429 12.3608 8.231 12.277 8.231Z" fill="white" stroke="white" stroke-width="0.3"/>
</svg>
