<svg width="27" height="25" viewBox="0 0 27 25" fill="none" xmlns="http://www.w3.org/2000/svg">
<g id="Group">
<g id="Group_2">
<path id="Vector" d="M26.7127 15.6343C26.1991 14.8795 25.1649 14.6798 24.4078 15.1886L20.9622 17.4945L20.9522 10.3168L22.1492 11.4382C22.4038 11.6767 22.7357 11.8079 23.0842 11.8079C23.0848 11.8079 23.0855 11.8079 23.0862 11.8079C23.4624 11.8073 23.8257 11.6497 24.0828 11.3752C24.3326 11.1085 24.4636 10.7606 24.4517 10.3953C24.4398 10.0301 24.2863 9.69137 24.0197 9.44156L21.7502 7.31563C21.5949 7.17008 21.351 7.17805 21.2055 7.3334C21.06 7.48876 21.068 7.7326 21.2233 7.87815L23.4927 10.0041C23.6091 10.1131 23.6761 10.261 23.6813 10.4204C23.6865 10.5798 23.6293 10.7318 23.5202 10.8481C23.4063 10.9698 23.2518 11.0368 23.0851 11.037C23.0847 11.037 23.0845 11.037 23.0842 11.037C22.9321 11.037 22.7873 10.9798 22.6761 10.8757L22.6761 10.8756L13.6647 2.43396C13.5162 2.2949 13.2852 2.29511 13.137 2.43469L4.14909 10.9016C4.03302 11.011 3.88125 11.0683 3.72178 11.0638C3.56231 11.0591 3.41429 10.9925 3.30492 10.8763C3.19554 10.7602 3.13791 10.6085 3.14271 10.4491C3.14745 10.2896 3.21405 10.1416 3.33012 10.0322L12.9898 0.932451C13.2188 0.716714 13.578 0.716187 13.8076 0.931343L19.459 6.22545C19.6143 6.37095 19.8582 6.36304 20.0037 6.20768C20.1492 6.05233 20.1413 5.80848 19.986 5.66293L14.3346 0.368825C13.8087 -0.123924 12.9859 -0.122817 12.4613 0.371409L9.36905 3.28446L9.36821 2.76486C9.368 2.60107 9.30398 2.44719 9.18801 2.3316C9.07226 2.21616 8.9186 2.15262 8.75512 2.15262C8.7548 2.15262 8.75454 2.15262 8.75422 2.15262L6.54217 2.15573C6.37838 2.15594 6.22456 2.21996 6.10891 2.33592C5.99331 2.45189 5.92972 2.60592 5.92998 2.76977L5.9361 6.5185L2.80162 9.47125C2.53563 9.72179 2.38317 10.0609 2.37226 10.4262C2.36134 10.7914 2.49333 11.139 2.74388 11.4049C2.99436 11.6709 3.3335 11.8234 3.69879 11.8343C3.71276 11.8348 3.72674 11.835 3.74071 11.835C4.09061 11.835 4.42194 11.7037 4.67764 11.4627L5.87203 10.3375L5.87677 13.7279C5.49033 13.6716 5.09936 13.6421 4.7066 13.6421H4.04715V13.411C4.04715 12.6352 3.41597 12.004 2.6402 12.004H1.40695C0.631178 12.004 0 12.6351 0 13.4109V19.45C0 19.6628 0.172547 19.8354 0.385383 19.8354C0.598219 19.8354 0.770766 19.6628 0.770766 19.45V13.4109C0.770766 13.0601 1.05616 12.7747 1.40695 12.7747H2.64015C2.99094 12.7747 3.27633 13.0601 3.27633 13.4109V14.0274V21.9268V22.5372C3.27633 22.888 2.99094 23.1734 2.64015 23.1734H1.40695C1.05616 23.1734 0.770766 22.888 0.770766 22.5372V21.8628C0.770766 21.65 0.598219 21.4774 0.385383 21.4774C0.172547 21.4774 0 21.65 0 21.8628V22.5372C0 23.313 0.631178 23.9441 1.40695 23.9441H2.64015C3.41592 23.9441 4.0471 23.313 4.0471 22.5372V22.4848L9.69094 24.622C9.70138 24.626 9.71198 24.6295 9.72274 24.6325C9.96811 24.7018 10.2134 24.7365 10.4555 24.7365C10.5865 24.7365 10.7166 24.7264 10.8454 24.706L19.1395 23.5104C19.1415 23.5101 19.1434 23.5098 19.1453 23.5095C19.8505 23.3969 20.5157 23.0988 21.0691 22.6475C21.0739 22.6436 21.0786 22.6396 21.0832 22.6354L26.4416 17.8161C27.0656 17.2621 27.1821 16.3241 26.7127 15.6343ZM8.59765 2.92365L8.59945 4.00945L6.70565 5.79345L6.70096 2.92623L8.59765 2.92365ZM13.402 3.24396L20.1803 9.59381L20.1921 18.0098L19.101 18.7401L17.9455 18.6753L17.915 18.3684C17.8074 17.2874 17.0095 16.4179 15.9543 16.2104L15.9473 11.2035C15.9468 10.8193 15.634 10.5071 15.2498 10.5071C15.2495 10.5071 15.2493 10.5071 15.2489 10.5071L11.5757 10.5122C11.3894 10.5125 11.2143 10.5853 11.0828 10.7172C10.9512 10.8491 10.8789 11.0244 10.8792 11.2106L10.8853 15.576C10.1577 15.4097 9.46303 15.135 8.8135 14.7551C8.73244 14.7077 8.6506 14.6619 8.56807 14.6174C8.5359 14.6 8.50321 14.5837 8.47078 14.5668C8.42057 14.5406 8.37047 14.5142 8.31974 14.4891C8.27935 14.469 8.23848 14.4501 8.19777 14.4307C8.15458 14.4102 8.11144 14.3895 8.06794 14.3697C8.02364 14.3496 7.97897 14.3305 7.93436 14.3112C7.8936 14.2935 7.85283 14.2758 7.81181 14.2589C7.76593 14.24 7.71979 14.2218 7.67359 14.2037C7.63262 14.1877 7.59159 14.1717 7.5504 14.1563C7.50468 14.1392 7.45875 14.1227 7.41271 14.1066C7.36952 14.0913 7.32628 14.0764 7.28283 14.0619C7.23874 14.0472 7.19455 14.0328 7.15015 14.0189C7.10285 14.0039 7.05533 13.9897 7.00777 13.9756C6.9669 13.9636 6.92608 13.9516 6.885 13.9402C6.83137 13.9253 6.77747 13.9113 6.72353 13.8975C6.69827 13.891 6.67317 13.8836 6.64775 13.8774L6.64179 9.61232L13.402 3.24396ZM15.1834 16.1139L11.9601 15.7428L11.6564 15.7079L11.6501 11.2829L15.1767 11.2779L15.1834 16.1139ZM25.9281 17.2415L20.5749 22.056C20.1289 22.4177 19.5938 22.657 19.0266 22.748L10.7361 23.943C10.7343 23.9433 10.7327 23.9436 10.7309 23.9438L10.7252 23.9447C10.474 23.9845 10.2124 23.9677 9.94765 23.8951L4.04715 21.6606V14.4128H4.7066C5.26795 14.4128 5.82551 14.4776 6.36847 14.6035C6.38866 14.6082 6.40881 14.613 6.42895 14.6178C6.49566 14.6339 6.56221 14.6505 6.62845 14.6684C6.63425 14.67 6.64 14.6717 6.6458 14.6732C6.71219 14.6914 6.77832 14.7105 6.84424 14.7305C6.85605 14.7341 6.86791 14.7376 6.87967 14.7413C6.94981 14.7629 7.01963 14.7856 7.08908 14.8093C7.09625 14.8118 7.10337 14.8143 7.11055 14.8168C7.2552 14.8667 7.39842 14.9212 7.53986 14.9801C7.54755 14.9834 7.55525 14.9866 7.56295 14.9899C7.63346 15.0195 7.70354 15.0501 7.77315 15.082C7.775 15.0828 7.7769 15.0837 7.77874 15.0846C7.84603 15.1155 7.91285 15.1476 7.97924 15.1805C7.98704 15.1844 7.9949 15.1882 8.00271 15.1921C8.06757 15.2245 8.1319 15.2581 8.19587 15.2925C8.20795 15.299 8.21997 15.3056 8.23205 15.3122C8.29659 15.3473 8.36077 15.3832 8.42432 15.4204C9.34142 15.9568 10.3398 16.3043 11.3917 16.4532C11.3951 16.4537 11.3983 16.4541 11.4016 16.4544L15.7196 16.9516C15.7435 16.955 15.7672 16.959 15.7908 16.9634C16.4264 17.0828 16.9282 17.5525 17.096 18.1641C17.1209 18.2547 17.1384 18.3485 17.148 18.4446L17.1651 18.6171L9.07253 17.9081C8.86064 17.8896 8.67354 18.0463 8.65498 18.2583C8.63636 18.4704 8.79325 18.6573 9.00524 18.6759L17.561 19.4255C17.563 19.4257 17.565 19.4256 17.567 19.4258C17.569 19.4259 17.571 19.4262 17.573 19.4264L19.1866 19.5169C19.1938 19.5174 19.201 19.5175 19.2081 19.5175C19.2158 19.5175 19.2233 19.5163 19.2309 19.5158C19.2395 19.5153 19.2481 19.515 19.2566 19.5139C19.2681 19.5125 19.2794 19.51 19.2907 19.5075C19.2987 19.5057 19.3068 19.5044 19.3148 19.5021C19.3271 19.4985 19.339 19.4937 19.3509 19.4889C19.3574 19.4864 19.364 19.4844 19.3703 19.4814C19.3883 19.4731 19.4058 19.4635 19.4225 19.4523L20.7921 18.5358L20.7923 18.5356L24.8371 15.8286C25.244 15.5551 25.7996 15.6624 26.0754 16.0678C26.3276 16.4384 26.265 16.9422 25.9281 17.2415Z" fill="black"/>
</g>
</g>
</svg>
