<svg width="25" height="26" viewBox="0 0 25 26" fill="none" xmlns="http://www.w3.org/2000/svg">
<g id="Group 427321163">
<path id="Vector" d="M12.2797 16.8406C14.2679 16.8406 15.8797 15.2288 15.8797 13.2406C15.8797 11.2524 14.2679 9.64062 12.2797 9.64062C10.2915 9.64062 8.67969 11.2524 8.67969 13.2406C8.67969 15.2288 10.2915 16.8406 12.2797 16.8406Z" stroke="black" stroke-width="1.8"/>
<path id="Vector_2" d="M2.30342 11.367C2.86879 11.7233 3.23256 12.3303 3.23256 12.9999C3.23255 13.6696 2.86878 14.2766 2.30342 14.6328C1.9187 14.8752 1.67083 15.069 1.49448 15.2996C1.10814 15.8046 0.937643 16.4428 1.02048 17.0739C1.0826 17.5472 1.36133 18.0314 1.91879 18.9999C2.47626 19.9683 2.75499 20.4525 3.13259 20.7431C3.63606 21.1306 4.27239 21.3016 4.90158 21.2186C5.18876 21.1806 5.47998 21.0622 5.88159 20.8493C6.472 20.5364 7.17805 20.5239 7.75636 20.8588C8.33461 21.1937 8.67679 21.8132 8.70173 22.4824C8.71872 22.9378 8.76211 23.25 8.87296 23.5185C9.11583 24.1065 9.58165 24.5738 10.1679 24.8174C10.6077 25 11.1651 25 12.2801 25C13.395 25 13.9524 25 14.3922 24.8174C14.9785 24.5738 15.4444 24.1065 15.6872 23.5185C15.798 23.25 15.8414 22.9378 15.8584 22.4825C15.8833 21.8132 16.2255 21.1937 16.8038 20.8588C17.3821 20.524 18.0881 20.5365 18.6784 20.8494C19.0801 21.0623 19.3713 21.1808 19.6585 21.2187C20.2877 21.3018 20.9241 21.1307 21.4275 20.7432C21.8051 20.4527 22.0839 19.9684 22.6414 19C22.8895 18.5688 23.0825 18.2337 23.2256 17.9526M22.2566 14.633C21.6913 14.2767 21.3276 13.6697 21.3275 13.0001C21.3275 12.3304 21.6913 11.7233 22.2566 11.367C22.6414 11.1246 22.8892 10.9308 23.0655 10.7003C23.4518 10.1953 23.6223 9.5571 23.5395 8.92602C23.4774 8.45272 23.1987 7.9685 22.6412 7.00006C22.0837 6.03161 21.805 5.5474 21.4274 5.25678C20.9239 4.86929 20.2876 4.69828 19.6584 4.78136C19.3712 4.81929 19.08 4.93768 18.6784 5.1506C18.088 5.46357 17.3819 5.47605 16.8037 5.14115C16.2255 4.80628 15.8833 4.18684 15.8584 3.51764C15.8414 3.06222 15.798 2.75002 15.6872 2.48156C15.4444 1.8935 14.9785 1.42628 14.3922 1.18269C13.9524 1 13.395 1 12.2801 1C11.1651 1 10.6077 1 10.1679 1.18269C9.58165 1.42628 9.11583 1.8935 8.87296 2.48156C8.76211 2.75 8.71872 3.06218 8.70173 3.51753C8.67678 4.18679 8.33459 4.80629 7.75631 5.14115C7.17804 5.47602 6.47205 5.46351 5.8817 5.15056C5.48004 4.93763 5.18879 4.81923 4.9016 4.7813C4.2724 4.69822 3.63607 4.86923 3.1326 5.25672C2.755 5.54734 2.47627 6.03156 1.9188 7C1.67063 7.43115 1.47769 7.76631 1.33452 8.04728" stroke="black" stroke-width="1.8" stroke-linecap="round"/>
</g>
</svg>
