<svg width="28" height="28" viewBox="0 0 28 28" fill="none" xmlns="http://www.w3.org/2000/svg">
<g id="share_svgrepo.com">
<path id="Vector" d="M4.66602 14.0026C4.66602 15.6134 5.97185 16.9193 7.58268 16.9193C9.19351 16.9193 10.4993 15.6134 10.4993 14.0026C10.4993 12.3918 9.19351 11.0859 7.58268 11.0859" stroke="black" stroke-width="1.5" stroke-linecap="round"/>
<path id="Vector_2" d="M16.3333 7.58594L10.5 11.6693" stroke="black" stroke-width="1.5" stroke-linecap="round"/>
<path id="Vector_3" d="M16.3333 20.4193L10.5 16.3359" stroke="black" stroke-width="1.5" stroke-linecap="round"/>
<path id="Vector_4" d="M19.2507 24.4974C20.8615 24.4974 22.1673 23.1915 22.1673 21.5807C22.1673 19.9699 20.8615 18.6641 19.2507 18.6641C17.6398 18.6641 16.334 19.9699 16.334 21.5807" stroke="black" stroke-width="1.5" stroke-linecap="round"/>
<path id="Vector_5" d="M21.7751 7.87549C20.9696 9.2705 19.1859 9.74848 17.7908 8.94306C16.3958 8.13765 15.9178 6.35384 16.7233 4.95882C17.5287 3.5638 19.3125 3.08583 20.7075 3.89125" stroke="black" stroke-width="1.5" stroke-linecap="round"/>
</g>
</svg>
