<svg width="29" height="21" viewBox="0 0 29 21" fill="none" xmlns="http://www.w3.org/2000/svg">
<path d="M28.1607 6.59537C28.0932 6.51286 28.0084 6.44632 27.9122 6.40053C27.816 6.35475 27.7109 6.33085 27.6044 6.33056H24.8728C24.4109 4.73472 23.5312 3.2916 22.3249 2.15078C18.8768 -0.121873 9.72443 -0.121873 6.27384 2.15078C5.0688 3.29291 4.18899 4.73552 3.7247 6.33056H0.995513C0.888372 6.3306 0.782595 6.35462 0.685917 6.40085C0.589239 6.44709 0.504104 6.51438 0.436739 6.5978C0.369375 6.68122 0.321483 6.77866 0.296566 6.88299C0.27165 6.98733 0.270339 7.09592 0.29273 7.20083L0.697513 9.16267C0.730935 9.32457 0.819087 9.46997 0.947107 9.57438C1.07513 9.67878 1.23519 9.73579 1.4003 9.7358H2.20862C1.45379 10.6197 1.04094 11.7456 1.04518 12.9086C1.03134 13.5752 1.15773 14.2373 1.41614 14.8518C1.67456 15.4663 2.05921 16.0195 2.54511 16.4754C2.55629 16.4854 2.56622 16.4916 2.57615 16.5003V19.2441C2.57648 19.5299 2.69001 19.8039 2.89182 20.0059C3.09364 20.208 3.36727 20.3217 3.65268 20.322H6.17078C6.45619 20.3217 6.72982 20.208 6.93163 20.0059C7.13345 19.8039 7.24698 19.5299 7.2473 19.2441V18.1414H21.3514V19.2441C21.3517 19.5299 21.4652 19.8039 21.6671 20.0059C21.8689 20.208 22.1425 20.3217 22.4279 20.322H24.946C25.2313 20.3214 25.5048 20.2076 25.7065 20.0056C25.9083 19.8036 26.0219 19.5298 26.0225 19.2441V16.5513C26.9439 15.6742 27.4911 14.4746 27.5496 13.203C27.6082 11.9315 27.1736 10.6865 26.3367 9.72834H27.1996C27.3649 9.7288 27.5252 9.67196 27.6533 9.56748C27.7814 9.463 27.8694 9.31732 27.9024 9.15521L28.3072 7.19461C28.3283 7.09009 28.3261 6.98219 28.3008 6.8786C28.2755 6.77502 28.2276 6.67831 28.1607 6.59537ZM7.45715 3.95224C10.2112 2.13959 18.3925 2.13959 21.1378 3.95224C22.0107 4.9664 22.6436 6.16487 22.9892 7.45818H5.60582C5.95145 6.16488 6.5843 4.96643 7.45715 3.95224ZM4.23626 13.1734C4.23602 12.7535 4.36015 12.343 4.59295 11.9939C4.82575 11.6447 5.15676 11.3725 5.54411 11.2117C5.93145 11.0509 6.35772 11.0088 6.76898 11.0906C7.18024 11.1725 7.55802 11.3746 7.85452 11.6715C8.15101 11.9684 8.3529 12.3466 8.43465 12.7584C8.51639 13.1702 8.47431 13.597 8.31374 13.9848C8.15316 14.3727 7.8813 14.7041 7.53256 14.9372C7.18381 15.1703 6.77385 15.2946 6.35455 15.2943C5.79274 15.2943 5.25395 15.0709 4.85669 14.6731C4.45944 14.2754 4.23626 13.7359 4.23626 13.1734ZM22.2727 15.2943C21.8539 15.2941 21.4445 15.1695 21.0963 14.9364C20.7482 14.7032 20.4769 14.372 20.3167 13.9845C20.1565 13.597 20.1147 13.1706 20.1964 12.7593C20.2782 12.348 20.4799 11.9702 20.7761 11.6736C21.0723 11.3771 21.4496 11.1751 21.8604 11.0932C22.2712 11.0113 22.697 11.0532 23.084 11.2136C23.471 11.374 23.8019 11.6456 24.0347 11.9942C24.2676 12.3428 24.392 12.7527 24.3922 13.1721C24.3922 13.735 24.1689 14.2748 23.7714 14.6728C23.374 15.0708 22.8348 15.2943 22.2727 15.2943Z" fill="#394158"/>
</svg>
