<svg width="20" height="19" viewBox="0 0 20 19" fill="none" xmlns="http://www.w3.org/2000/svg">
<path d="M19.9477 7.17902C19.816 6.77756 19.4568 6.49332 19.0335 6.45536L13.2601 5.93575L10.9784 0.640166C10.81 0.251105 10.4267 0 10 0C9.57337 0 9.18991 0.251105 9.02252 0.640166L6.74084 5.93575L0.966519 6.45536C0.543233 6.49408 0.184799 6.77831 0.0523506 7.17902C-0.0793348 7.58049 0.0422796 8.02083 0.362414 8.29916L4.72665 12.0928L3.43985 17.7112C3.34571 18.1243 3.50745 18.5515 3.85322 18.7993C4.03908 18.9331 4.25743 19 4.47655 19C4.66485 19 4.8533 18.9504 5.0216 18.8505L10 15.8996L14.9775 18.8505C15.3427 19.0669 15.8018 19.047 16.1468 18.7993C16.4926 18.5515 16.6543 18.1243 16.5602 17.7112L15.2734 12.0928L19.6376 8.29916C19.9576 8.02083 20.0794 7.58139 19.9477 7.17902Z" fill="#222222"/>
</svg>
