<svg width="383" height="266" viewBox="0 0 383 266" fill="none" xmlns="http://www.w3.org/2000/svg">
    <path d="M370.548 14.8797L370.548 250.983C370.548 258.362 364.133 264.363 356.246 264.363L15.9049 264.363C8.01792 264.363 1.6035 258.362 1.6035 250.983L1.60352 14.8797C1.60352 7.50101 8.01793 1.5 15.9049 1.5L356.251 1.50002C364.138 1.50002 370.553 7.50102 370.553 14.8797L370.548 14.8797ZM360.329 14.8797C360.329 12.7715 358.5 11.0604 356.246 11.0604L15.9049 11.0604C13.6515 11.0604 11.8226 12.7715 11.8226 14.8797L11.8225 250.983C11.8225 253.091 13.6515 254.802 15.9049 254.802L356.251 254.802C358.505 254.802 360.334 253.091 360.334 250.983L360.334 14.8797L360.329 14.8797Z" fill="#1E1E1E"/>
    <path d="M15.1704 265.71C15.0027 265.7 14.8297 265.69 14.662 265.675C14.5729 265.675 14.4943 265.665 14.4052 265.656C14.3686 265.656 14.3319 265.646 14.3004 265.646C14.0751 265.621 13.855 265.597 13.6349 265.567C13.3781 265.533 13.1266 265.489 12.875 265.445C12.6287 265.401 12.3772 265.352 12.1361 265.293C11.9003 265.234 11.6592 265.175 11.4234 265.111C11.4077 265.111 11.3919 265.102 11.3867 265.102C11.1509 265.033 10.9203 264.959 10.6897 264.886C10.4486 264.807 10.2181 264.724 9.98748 264.636C9.7569 264.548 9.53155 264.459 9.30621 264.356C9.11755 264.273 8.92889 264.19 8.74023 264.101C8.70355 264.082 8.67211 264.067 8.64066 264.052C8.42056 263.945 8.20046 263.832 7.99084 263.714C7.35673 263.366 6.75407 262.984 6.18809 262.567C6.17761 262.557 6.17237 262.552 6.16189 262.547C5.78457 262.263 5.41249 261.964 5.06138 261.655C5.0509 261.655 5.04566 261.64 5.04042 261.635C4.86748 261.478 4.69454 261.322 4.53208 261.155C4.43251 261.062 4.34342 260.973 4.2491 260.875C4.09712 260.714 3.9399 260.552 3.79841 260.385C3.69884 260.282 3.60975 260.174 3.51542 260.062C3.3058 259.811 3.10142 259.552 2.90752 259.287C2.83939 259.194 2.77126 259.096 2.70314 259.003C2.64025 258.909 2.57737 258.816 2.51448 258.723C2.37822 258.522 2.25245 258.321 2.13192 258.115C2.07427 258.017 2.01663 257.909 1.95898 257.811C1.42445 256.865 0.994724 255.86 0.696014 254.801C0.669811 254.718 0.648849 254.634 0.627887 254.546C0.591203 254.433 0.565 254.32 0.538798 254.203C0.392063 253.605 0.292493 252.997 0.229606 252.379C0.219125 252.276 0.208644 252.173 0.198163 252.07C0.16672 251.707 0.156239 251.339 0.156239 250.967L0.156249 14.8782C0.156249 14.5105 0.171971 14.1428 0.198174 13.7751C0.208655 13.6623 0.219136 13.5447 0.234857 13.427C0.297744 12.8191 0.402555 12.2258 0.538808 11.6424C0.565011 11.5247 0.591214 11.412 0.627898 11.2943C0.6541 11.1962 0.680303 11.0884 0.711746 10.9952C1.0157 9.95584 1.43494 8.96548 1.96423 8.03395C2.02188 7.93099 2.07953 7.82803 2.13717 7.72997C2.37824 7.31814 2.6455 6.92592 2.92325 6.5386C2.99138 6.45035 3.0595 6.3621 3.12763 6.26894C3.2534 6.10715 3.38442 5.94046 3.52067 5.78357C3.87179 5.36683 4.24387 4.96971 4.64215 4.58729C4.73124 4.49904 4.81508 4.4206 4.90941 4.33725C4.95134 4.29312 5.00374 4.249 5.04567 4.21468C5.08759 4.17546 5.13476 4.13133 5.17668 4.10191C5.31293 3.97444 5.45443 3.85678 5.60116 3.74401C5.73218 3.63615 5.87367 3.52339 6.01517 3.42043C6.07281 3.3763 6.13046 3.32727 6.1881 3.28805C6.22479 3.25864 6.25623 3.23412 6.29291 3.20961C6.44489 3.10175 6.59687 2.98898 6.74884 2.88602C6.76456 2.88602 6.77504 2.87132 6.78552 2.85661C6.96894 2.73404 7.16284 2.61637 7.35674 2.4987C7.3777 2.4889 7.39343 2.47419 7.41439 2.46439C7.60305 2.35652 7.79171 2.24376 7.99085 2.1408C8.20047 2.02313 8.42057 1.91527 8.64067 1.80251C8.67212 1.7829 8.7088 1.76819 8.74024 1.75348C8.92366 1.66523 9.11232 1.58188 9.30622 1.49854C9.53156 1.40048 9.75691 1.30733 9.98749 1.21908C10.2181 1.12593 10.4487 1.04748 10.6897 0.969036C11.3972 0.738605 12.1256 0.5523 12.875 0.415022C13.1266 0.370897 13.3781 0.326772 13.6349 0.292452C13.855 0.263035 14.0751 0.238522 14.3005 0.214008C14.3319 0.214008 14.3738 0.214008 14.4053 0.204202C14.5153 0.189494 14.6358 0.179688 14.7511 0.179688C14.6568 0.179688 14.5677 0.194396 14.4734 0.204202C14.2376 0.228716 14.007 0.25323 13.7764 0.287549C13.6663 0.302258 13.5511 0.316966 13.4462 0.34148C13.3047 0.361091 13.1685 0.380702 13.0322 0.410119C12.8226 0.444438 12.6182 0.493466 12.4191 0.542494C12.199 0.591522 11.9789 0.645452 11.7693 0.709189C11.5911 0.758216 11.4129 0.812147 11.24 0.87098C10.8679 0.988647 10.4958 1.12102 10.1395 1.27791C10.0294 1.31713 9.91412 1.37106 9.80931 1.42009C9.64162 1.49363 9.46868 1.57208 9.30098 1.65052C9.28526 1.66033 9.26954 1.66523 9.25906 1.67504C9.0704 1.76819 8.88698 1.86625 8.69832 1.9643C8.68784 1.9643 8.67736 1.97411 8.67212 1.97901C8.5411 2.05255 8.41009 2.12609 8.28432 2.19963C8.17427 2.26337 8.05897 2.33201 7.95416 2.40065C7.92796 2.41536 7.907 2.43007 7.8808 2.44968C7.70786 2.55754 7.52968 2.6752 7.36198 2.79777C7.19429 2.91054 7.03183 3.02821 6.86937 3.15568C6.83269 3.18019 6.79601 3.20471 6.7698 3.23902C6.60735 3.35179 6.45537 3.47926 6.3034 3.61654C6.1357 3.75872 5.968 3.9058 5.80554 4.05779C5.66405 4.18526 5.52256 4.32254 5.3863 4.46472C5.34962 4.49904 5.31293 4.53826 5.27625 4.57748C5.14524 4.71967 5.01422 4.86675 4.88321 5.00893C4.73124 5.17072 4.58974 5.34232 4.45873 5.51392C4.34868 5.65119 4.23863 5.78847 4.1443 5.92575C4.08665 5.99439 4.03948 6.06793 3.98184 6.14147C3.91895 6.22972 3.85607 6.31797 3.79842 6.41603C3.73553 6.50428 3.67789 6.58763 3.62548 6.68078C3.51543 6.85728 3.40014 7.03378 3.30057 7.22008C3.23768 7.32795 3.1748 7.44071 3.11715 7.55838C2.97566 7.82313 2.8394 8.09768 2.71887 8.37224C2.68219 8.46049 2.64026 8.54874 2.60358 8.64189C2.54593 8.77917 2.49353 8.91645 2.43588 9.05373C2.36775 9.23023 2.30487 9.41163 2.24722 9.59303C2.18434 9.77443 2.13193 9.96074 2.07953 10.147C2.07953 10.1569 2.07953 10.1667 2.07953 10.1765C2.02188 10.3824 1.96947 10.5883 1.92231 10.7893C1.92231 10.804 1.92231 10.8138 1.92231 10.8236C1.89087 10.9805 1.85418 11.1325 1.83322 11.2894C1.69697 12.015 1.62884 12.7553 1.62884 13.5153L1.62883 252.349C1.62883 252.614 1.63931 252.884 1.66027 253.144C1.66027 253.286 1.67599 253.428 1.69172 253.56C1.7022 253.678 1.71792 253.796 1.73364 253.913C1.73364 253.972 1.74936 254.026 1.7546 254.08C1.77556 254.242 1.79653 254.394 1.83321 254.551C1.83321 254.575 1.83321 254.59 1.84369 254.615C1.85941 254.708 1.88037 254.806 1.8961 254.904C1.90658 254.948 1.91706 254.997 1.92754 255.041C1.92754 255.061 1.93802 255.07 1.93802 255.09C1.96946 255.232 2.00091 255.37 2.03759 255.507C2.05331 255.566 2.06903 255.625 2.08476 255.683C2.13716 255.879 2.19481 256.076 2.25769 256.267C2.32058 256.458 2.38347 256.649 2.45683 256.831C2.45683 256.84 2.45683 256.845 2.46731 256.855C2.49876 256.953 2.53544 257.041 2.57737 257.135C2.57737 257.149 2.58785 257.159 2.59309 257.169C2.62977 257.272 2.67694 257.375 2.71886 257.473C2.71886 257.483 2.71886 257.488 2.72934 257.497C2.85511 257.777 2.98613 258.042 3.12762 258.306C3.18527 258.419 3.24815 258.527 3.31104 258.645C3.41061 258.826 3.5259 259.003 3.63595 259.184C3.68836 259.277 3.746 259.36 3.80889 259.449C3.86654 259.542 3.92942 259.63 3.99231 259.723C4.03947 259.797 4.09188 259.87 4.15477 259.939C4.25434 260.081 4.35915 260.218 4.4692 260.351C4.60021 260.522 4.74171 260.694 4.89368 260.856C4.99849 260.983 5.11902 261.111 5.23956 261.233C5.25528 261.253 5.27624 261.268 5.28672 261.287C5.3234 261.326 5.36533 261.366 5.39677 261.4C5.41249 261.415 5.42822 261.429 5.43346 261.439C5.55923 261.562 5.685 261.684 5.81077 261.802C5.93655 261.925 6.06232 262.037 6.18809 262.15C6.19857 262.15 6.20905 262.165 6.21954 262.175C6.27194 262.224 6.32959 262.273 6.39247 262.322C6.50776 262.425 6.6283 262.523 6.75407 262.611C6.79075 262.645 6.83268 262.675 6.8746 262.704C7.03706 262.827 7.19427 262.949 7.36721 263.062C7.48774 263.155 7.60828 263.234 7.73929 263.312C7.74977 263.322 7.76549 263.332 7.77597 263.341C7.87554 263.405 7.96987 263.469 8.06944 263.528C8.23714 263.626 8.40484 263.734 8.57778 263.827C8.58826 263.827 8.59874 263.837 8.60922 263.846C8.72451 263.91 8.84504 263.974 8.96558 264.033C9.02846 264.067 9.09659 264.106 9.16472 264.136C9.29049 264.199 9.41626 264.263 9.54203 264.317C9.70973 264.401 9.88267 264.474 10.0556 264.543C10.1814 264.597 10.3072 264.651 10.4329 264.7C10.4801 264.719 10.5273 264.734 10.5744 264.754C10.7107 264.803 10.8469 264.852 10.9884 264.901C11.0723 264.935 11.1614 264.959 11.2452 264.989C11.2662 264.989 11.2767 265.004 11.2976 265.008C11.4548 265.057 11.6068 265.102 11.7693 265.151C11.937 265.2 12.1047 265.249 12.2776 265.283C12.3038 265.293 12.3195 265.298 12.3457 265.303C12.4034 265.317 12.461 265.332 12.5187 265.342C12.6811 265.381 12.8436 265.415 13.0113 265.445C13.0217 265.445 13.027 265.445 13.0375 265.445C13.1737 265.474 13.31 265.494 13.4515 265.513C13.5563 265.538 13.6716 265.553 13.7816 265.567C14.0122 265.597 14.2428 265.626 14.4786 265.651C14.7092 265.675 14.945 265.69 15.1808 265.7L15.1704 265.71Z" fill="url(#paint0_linear_0_1)"/>
    <path d="M372.01 14.8782L372.01 250.982C372.01 251.349 371.994 251.717 371.968 252.085C371.958 252.188 371.947 252.291 371.937 252.394C371.874 253.011 371.769 253.624 371.628 254.217C371.601 254.33 371.575 254.443 371.539 254.561C371.518 254.649 371.497 254.732 371.47 254.816C371.166 255.87 370.742 256.88 370.207 257.826C370.15 257.924 370.092 258.032 370.034 258.13C369.914 258.341 369.788 258.542 369.652 258.738C369.589 258.831 369.526 258.924 369.463 259.017C369.395 259.115 369.327 259.208 369.259 259.302C369.065 259.566 368.861 259.826 368.651 260.076C368.557 260.189 368.468 260.297 368.368 260.4C368.221 260.567 368.064 260.733 367.917 260.89C367.823 260.983 367.734 261.076 367.634 261.17C367.467 261.331 367.299 261.493 367.126 261.65C367.126 261.65 367.116 261.665 367.105 261.67C366.754 261.978 366.387 262.278 366.005 262.562C365.994 262.562 365.989 262.572 365.978 262.582C365.407 262.998 364.804 263.381 364.176 263.729C363.966 263.846 363.746 263.954 363.531 264.067C363.5 264.082 363.463 264.101 363.431 264.116C363.248 264.204 363.059 264.288 362.865 264.371C362.64 264.469 362.415 264.562 362.184 264.651C361.954 264.744 361.723 264.822 361.482 264.901C361.251 264.974 361.021 265.048 360.785 265.116C360.774 265.116 360.759 265.116 360.748 265.126C360.512 265.19 360.277 265.249 360.036 265.308C359.795 265.361 359.543 265.41 359.297 265.46C359.045 265.504 358.794 265.548 358.537 265.582C358.317 265.611 358.097 265.636 357.871 265.66C357.84 265.66 357.798 265.66 357.766 265.67C357.677 265.68 357.599 265.685 357.51 265.69C357.573 265.69 357.635 265.675 357.698 265.67C357.934 265.651 358.165 265.626 358.395 265.587C358.505 265.572 358.621 265.553 358.725 265.533C358.867 265.513 359.003 265.494 359.139 265.464C359.375 265.42 359.601 265.371 359.831 265.312C360.025 265.268 360.219 265.219 360.408 265.16C360.57 265.116 360.722 265.067 360.879 265.018C361.178 264.925 361.461 264.822 361.744 264.714C361.87 264.665 361.996 264.611 362.121 264.557C362.294 264.489 362.472 264.41 362.635 264.332C362.761 264.273 362.886 264.214 363.012 264.15C363.08 264.121 363.148 264.082 363.211 264.047C363.342 263.984 363.468 263.915 363.594 263.842C363.767 263.748 363.94 263.641 364.102 263.542C364.202 263.484 364.296 263.42 364.396 263.356C364.537 263.268 364.673 263.175 364.804 263.077C364.972 262.964 365.135 262.846 365.297 262.719C365.339 262.689 365.381 262.655 365.418 262.626C365.538 262.533 365.659 262.439 365.779 262.336C365.842 262.292 365.9 262.243 365.952 262.189C366.094 262.072 366.23 261.954 366.361 261.822C366.502 261.694 366.644 261.557 366.78 261.415C366.812 261.38 366.853 261.341 366.89 261.302C367.021 261.16 367.152 261.018 367.283 260.87C367.435 260.709 367.577 260.537 367.708 260.366C367.818 260.228 367.928 260.091 368.022 259.954C368.08 259.885 368.132 259.811 368.185 259.738C368.247 259.645 368.31 259.557 368.368 259.463C368.431 259.375 368.489 259.292 368.541 259.199C368.651 259.022 368.766 258.846 368.866 258.659C368.929 258.547 368.992 258.439 369.049 258.321C369.191 258.056 369.322 257.787 369.448 257.512C369.495 257.404 369.542 257.291 369.584 257.184C369.631 257.076 369.678 256.963 369.72 256.845C369.793 256.664 369.856 256.473 369.919 256.281C369.982 256.09 370.04 255.894 370.092 255.698C370.155 255.487 370.202 255.272 370.255 255.051C370.291 254.889 370.323 254.727 370.349 254.565C370.48 253.85 370.548 253.114 370.548 252.364L370.548 13.5153C370.548 12.7553 370.48 12.015 370.344 11.2894C370.323 11.1325 370.291 10.9805 370.255 10.8236C370.255 10.8138 370.255 10.804 370.255 10.7893C370.213 10.5834 370.155 10.3775 370.097 10.1765C370.097 10.1667 370.097 10.1569 370.097 10.147C370.045 9.96074 369.993 9.77443 369.93 9.59303C369.872 9.41163 369.809 9.23023 369.741 9.05372C369.689 8.91154 369.636 8.77427 369.573 8.64189C369.537 8.54874 369.495 8.46049 369.458 8.37224C369.338 8.09278 369.201 7.82313 369.06 7.55838C369.002 7.44561 368.939 7.33285 368.876 7.22008C368.777 7.03868 368.662 6.86218 368.551 6.68078C368.499 6.58763 368.441 6.50428 368.379 6.41603C368.321 6.32288 368.258 6.22972 368.195 6.14147C368.143 6.06793 368.096 5.99439 368.033 5.92575C367.933 5.78357 367.828 5.64629 367.718 5.51392C367.587 5.34232 367.446 5.17072 367.294 5.00893C367.163 4.86185 367.032 4.71967 366.901 4.57748C366.864 4.53826 366.822 4.49904 366.791 4.46472C366.654 4.32254 366.513 4.18526 366.371 4.05779C366.209 3.9058 366.046 3.75872 365.874 3.61654C365.722 3.47926 365.57 3.35179 365.407 3.23902C365.376 3.20471 365.344 3.18019 365.308 3.15568C365.145 3.02821 364.983 2.91054 364.815 2.79777C364.647 2.68011 364.469 2.56244 364.296 2.44968C364.27 2.43007 364.249 2.41536 364.223 2.40065C364.118 2.33201 364.003 2.26337 363.893 2.19963C363.767 2.12119 363.636 2.04765 363.505 1.97901C363.505 1.97901 363.489 1.9692 363.479 1.9643C363.295 1.86625 363.107 1.76819 362.918 1.67504C362.902 1.66523 362.886 1.66033 362.876 1.65052C362.708 1.56718 362.541 1.49363 362.368 1.42009C362.263 1.37106 362.148 1.32204 362.037 1.27791C361.681 1.12102 361.314 0.99355 360.937 0.87098C360.764 0.812147 360.586 0.758216 360.408 0.709188C360.193 0.645452 359.973 0.591521 359.758 0.542494C359.559 0.493466 359.354 0.444438 359.145 0.410118C359.008 0.380702 358.872 0.361091 358.731 0.341479C358.626 0.316965 358.511 0.302257 358.401 0.287549C358.17 0.253229 357.939 0.228715 357.704 0.204201C357.609 0.194396 357.52 0.18459 357.426 0.179688C357.541 0.179688 357.662 0.189493 357.772 0.204201C357.803 0.204201 357.845 0.214007 357.876 0.214007C358.102 0.238521 358.322 0.263035 358.542 0.292452C358.799 0.326771 359.05 0.370896 359.302 0.415021C360.051 0.552299 360.78 0.738605 361.487 0.969036C361.723 1.04748 361.959 1.12592 362.189 1.21908C362.42 1.30733 362.645 1.39558 362.871 1.49854C363.059 1.58188 363.248 1.66523 363.437 1.75348C363.468 1.77309 363.505 1.7878 363.536 1.80251C363.756 1.91037 363.976 2.02313 364.181 2.1408C364.375 2.24376 364.563 2.35652 364.757 2.46439C364.778 2.47909 364.794 2.4938 364.815 2.4987C365.004 2.61637 365.197 2.73404 365.386 2.85661C365.402 2.87132 365.412 2.88112 365.423 2.88602C365.58 2.98898 365.727 3.10175 365.879 3.20961C365.915 3.23412 365.952 3.25864 365.984 3.28805C366.041 3.32727 366.099 3.3763 366.157 3.42043C366.298 3.52339 366.44 3.63615 366.571 3.74401C366.717 3.85678 366.859 3.97444 366.995 4.10191C367.037 4.13133 367.084 4.17546 367.126 4.21468C367.168 4.249 367.22 4.29312 367.262 4.33725C367.357 4.4206 367.44 4.49904 367.53 4.58729C367.928 4.96971 368.305 5.36683 368.651 5.78357C368.787 5.94046 368.918 6.10715 369.044 6.26894C369.112 6.3621 369.18 6.45035 369.248 6.5386C369.531 6.92592 369.793 7.32304 370.035 7.72997C370.092 7.82803 370.15 7.93099 370.207 8.03395C370.732 8.96547 371.156 9.96074 371.46 10.9952C371.491 11.0884 371.518 11.1962 371.544 11.2943C371.575 11.4071 371.607 11.5198 371.633 11.6424C371.774 12.2258 371.874 12.8191 371.937 13.427C371.953 13.5398 371.963 13.6574 371.968 13.7751C372 14.1379 372.01 14.5056 372.01 14.8782Z" fill="url(#paint1_linear_0_1)"/>
    <path d="M370.548 13.5145L370.548 14.8824C370.548 7.50371 364.133 1.5027 356.246 1.5027L15.9049 1.50268C8.01793 1.49778 1.60352 7.49879 1.60351 14.8775L1.60352 13.5096C1.60352 12.7497 1.67164 12.0093 1.8079 11.2837C1.82886 11.1268 1.8603 10.9749 1.89699 10.818C1.89699 10.8082 1.89699 10.7984 1.89699 10.7837C1.93891 10.5777 1.99656 10.3718 2.0542 10.1708C2.0542 10.161 2.0542 10.1512 2.0542 10.1414C2.10661 9.95508 2.15901 9.76878 2.2219 9.58737C2.27954 9.40597 2.34243 9.22457 2.41056 9.04807C2.46296 8.90589 2.51537 8.76861 2.57825 8.63623C2.61494 8.54308 2.65686 8.45483 2.69355 8.36658C2.81408 8.08712 2.95033 7.81747 3.09183 7.55272C3.14947 7.43995 3.21236 7.32719 3.27525 7.21443C3.37482 7.03302 3.49011 6.85652 3.60016 6.67512C3.65256 6.58197 3.71021 6.49862 3.7731 6.41037C3.83074 6.31722 3.89363 6.22406 3.95652 6.13581C4.00368 6.06227 4.05609 5.98873 4.11897 5.92009C4.21854 5.77791 4.32335 5.64063 4.4334 5.50826C4.56966 5.33666 4.71115 5.16506 4.85789 5.00327C4.9889 4.85619 5.11991 4.71401 5.25093 4.57183C5.28761 4.5326 5.32953 4.49338 5.36098 4.45906C5.49723 4.32178 5.63873 4.18451 5.78022 4.05213C5.94268 3.90014 6.10513 3.75306 6.27807 3.61088C6.43005 3.4785 6.58202 3.35594 6.74448 3.23337C6.77592 3.19905 6.80737 3.17453 6.84405 3.15002C7.00651 3.02745 7.16372 2.90978 7.33666 2.79211C7.50436 2.67445 7.68253 2.55678 7.85547 2.44402C7.88167 2.42441 7.90264 2.4097 7.92884 2.39499C8.03365 2.32635 8.14894 2.25771 8.25899 2.19398C8.38477 2.11553 8.51578 2.04199 8.64679 1.97335C8.64679 1.97335 8.66251 1.96354 8.673 1.95864C8.85641 1.86059 9.04507 1.76253 9.23373 1.66938C9.24945 1.65957 9.26518 1.65467 9.27566 1.64486C9.44335 1.56152 9.61105 1.48797 9.78399 1.41443C9.8888 1.3654 10.0041 1.31638 10.1141 1.27225C10.4705 1.11536 10.8373 0.98789 11.2147 0.865321C11.3876 0.806487 11.5658 0.752557 11.7439 0.703529C11.9588 0.644696 12.1789 0.585862 12.3938 0.536834C12.5929 0.487807 12.7973 0.438779 13.0069 0.404459C13.1432 0.375042 13.2794 0.355431 13.4209 0.33582C13.5257 0.311306 13.641 0.296598 13.7511 0.28189C13.9817 0.24757 14.2122 0.223056 14.4481 0.198542C14.5424 0.188737 14.6315 0.178931 14.7258 0.174028C14.8673 0.15932 15.0088 0.149515 15.1503 0.144612C15.3914 0.129903 15.6377 0.125001 15.884 0.125001L356.23 0.125016C356.477 0.125016 356.723 0.125016 356.964 0.144627C357.106 0.144627 357.247 0.159335 357.389 0.174043C357.483 0.174043 357.572 0.188752 357.666 0.198557C357.902 0.223071 358.133 0.247585 358.363 0.281905C358.473 0.296613 358.589 0.311321 358.693 0.335835C358.835 0.355446 358.971 0.375058 359.107 0.404474C359.317 0.438794 359.521 0.487822 359.721 0.53685C359.941 0.585877 360.161 0.644711 360.37 0.703544C360.549 0.752572 360.727 0.806503 360.9 0.865336C361.272 0.983003 361.644 1.11538 362 1.27227C362.11 1.31149 362.226 1.36542 362.33 1.41445C362.498 1.48799 362.671 1.56643 362.839 1.64488C362.854 1.65468 362.87 1.65959 362.881 1.66939C363.069 1.76255 363.253 1.8606 363.441 1.95866C363.452 1.95866 363.462 1.96846 363.468 1.97337C363.599 2.04691 363.73 2.12045 363.855 2.19399C363.965 2.25773 364.081 2.32637 364.186 2.39501C364.212 2.40971 364.233 2.42442 364.259 2.44403C364.432 2.55189 364.61 2.66956 364.778 2.79213C364.945 2.9098 365.108 3.02746 365.27 3.15003C365.307 3.17455 365.344 3.19906 365.37 3.23338C365.532 3.35595 365.684 3.47852 365.836 3.6109C366.004 3.75308 366.172 3.90016 366.334 4.05215C366.476 4.18452 366.617 4.3218 366.753 4.45908C366.785 4.4934 366.827 4.53262 366.863 4.57184C366.994 4.71402 367.125 4.86111 367.256 5.00329C367.403 5.16508 367.545 5.33668 367.681 5.50827C367.791 5.64555 367.901 5.78283 367.995 5.92011C368.053 5.98875 368.105 6.06229 368.158 6.13583C368.221 6.22408 368.284 6.31233 368.341 6.41039C368.404 6.49864 368.462 6.58198 368.514 6.67514C368.624 6.85164 368.74 7.02814 368.839 7.21444C368.902 7.3223 368.965 7.43507 369.023 7.55273C369.164 7.81748 369.3 8.09204 369.421 8.3666C369.458 8.45485 369.499 8.5431 369.536 8.63625C369.594 8.77353 369.646 8.9108 369.704 9.04808C369.772 9.22458 369.835 9.40599 369.892 9.58739C369.955 9.76879 370.008 9.9551 370.06 10.1414C370.06 10.1512 370.06 10.161 370.06 10.1708C370.118 10.3767 370.17 10.5827 370.217 10.7837C370.217 10.7984 370.217 10.8082 370.217 10.818C370.249 10.9749 370.286 11.1269 370.306 11.2838C370.443 12.0094 370.511 12.7497 370.511 13.5096L370.548 13.5145Z" fill="url(#paint2_linear_0_1)"/>
    <path d="M370.548 250.984L370.548 252.352C370.548 253.102 370.48 253.843 370.349 254.554C370.323 254.715 370.297 254.882 370.255 255.039C370.207 255.26 370.155 255.475 370.092 255.686C370.04 255.882 369.982 256.078 369.919 256.27C369.856 256.461 369.793 256.652 369.72 256.833C369.678 256.946 369.631 257.059 369.584 257.172C369.542 257.28 369.495 257.392 369.448 257.5C369.322 257.78 369.191 258.044 369.049 258.309C368.992 258.422 368.929 258.53 368.866 258.647C368.766 258.829 368.651 259.005 368.541 259.187C368.489 259.28 368.431 259.363 368.368 259.451C368.31 259.545 368.247 259.633 368.185 259.726C368.137 259.8 368.085 259.873 368.022 259.942C367.923 260.084 367.818 260.221 367.708 260.354C367.571 260.525 367.43 260.697 367.283 260.859C367.152 261.006 367.021 261.148 366.89 261.29C366.853 261.329 366.812 261.368 366.78 261.403C366.644 261.54 366.502 261.677 366.361 261.81C366.23 261.932 366.094 262.055 365.952 262.177C365.9 262.226 365.842 262.275 365.779 262.325C365.664 262.423 365.543 262.521 365.418 262.614C365.381 262.648 365.339 262.678 365.297 262.707C365.135 262.83 364.977 262.952 364.804 263.065C364.673 263.158 364.537 263.251 364.396 263.344C364.296 263.408 364.202 263.472 364.102 263.531C363.935 263.629 363.767 263.737 363.594 263.83C363.468 263.903 363.342 263.972 363.211 264.036C363.148 264.07 363.08 264.109 363.012 264.139C362.886 264.202 362.761 264.261 362.635 264.32C362.467 264.403 362.294 264.477 362.121 264.545C361.996 264.599 361.87 264.653 361.744 264.702C361.461 264.81 361.173 264.913 360.879 265.006C360.722 265.055 360.57 265.099 360.408 265.149C360.224 265.202 360.03 265.251 359.831 265.301C359.601 265.354 359.375 265.403 359.139 265.452C359.003 265.482 358.867 265.502 358.725 265.521C358.621 265.546 358.505 265.56 358.395 265.575C358.165 265.604 357.934 265.634 357.698 265.658C357.635 265.658 357.573 265.673 357.51 265.678C357.342 265.693 357.169 265.703 357.001 265.712C356.891 265.712 356.781 265.722 356.671 265.727C356.535 265.727 356.404 265.727 356.268 265.727L15.9055 265.727C15.7692 265.727 15.6382 265.727 15.5019 265.727C15.3919 265.727 15.2818 265.717 15.1718 265.712C15.0041 265.703 14.8311 265.693 14.6634 265.678C14.6006 265.678 14.5377 265.663 14.4748 265.658C14.239 265.634 14.0084 265.609 13.7778 265.575C13.6677 265.56 13.5525 265.541 13.4476 265.521C13.3061 265.502 13.1699 265.482 13.0336 265.452C13.0232 265.452 13.0179 265.452 13.0074 265.452C12.8397 265.418 12.6773 265.389 12.5148 265.35C12.4572 265.335 12.3995 265.32 12.3419 265.31C12.3157 265.31 12.3 265.3 12.2738 265.291C12.1061 265.256 11.9331 265.207 11.7654 265.158C11.603 265.114 11.451 265.065 11.2938 265.016C11.2728 265.016 11.2571 265.001 11.2414 264.997C11.1523 264.967 11.0684 264.943 10.9846 264.908C10.8431 264.864 10.7068 264.81 10.5706 264.761C10.5234 264.742 10.4763 264.727 10.4291 264.707C10.3033 264.658 10.1775 264.604 10.0518 264.55C9.87884 264.482 9.70066 264.403 9.53821 264.325C9.41243 264.271 9.28666 264.207 9.16089 264.143C9.09276 264.114 9.02463 264.075 8.96175 264.04C8.84121 263.982 8.72592 263.918 8.60539 263.854C8.59491 263.844 8.58443 263.839 8.57395 263.835C8.40101 263.741 8.22807 263.634 8.06562 263.536C7.96605 263.477 7.87172 263.413 7.77214 263.349C7.75642 263.339 7.7407 263.33 7.73546 263.32C7.60969 263.236 7.48392 263.158 7.36338 263.07C7.19045 262.957 7.03323 262.834 6.87077 262.712C6.82885 262.682 6.78693 262.648 6.75024 262.619C6.62971 262.526 6.50918 262.427 6.38864 262.329C6.32576 262.285 6.26811 262.236 6.21571 262.182C6.20523 262.173 6.19475 262.163 6.18426 262.158C6.05325 262.04 5.92748 261.927 5.80695 261.81C5.68641 261.692 5.5554 261.569 5.42963 261.447C5.41915 261.432 5.40342 261.417 5.39294 261.408C5.35626 261.373 5.31958 261.334 5.28289 261.295C5.26717 261.275 5.25145 261.261 5.23573 261.241C5.12044 261.118 5.00514 260.991 4.88985 260.863C4.74312 260.702 4.60162 260.53 4.46537 260.358C4.35532 260.221 4.24527 260.084 4.15094 259.947C4.09329 259.878 4.04089 259.804 3.98848 259.731C3.92559 259.638 3.86271 259.55 3.80506 259.456C3.74218 259.368 3.68453 259.285 3.63212 259.192C3.52207 259.015 3.40678 258.839 3.30721 258.652C3.24432 258.54 3.18144 258.432 3.12379 258.314C2.9823 258.049 2.85128 257.78 2.72551 257.505C2.72551 257.495 2.72551 257.49 2.71503 257.481C2.67311 257.382 2.62594 257.275 2.58926 257.177C2.58926 257.162 2.57878 257.152 2.57354 257.142C2.53161 257.049 2.49493 256.961 2.46349 256.863C2.46349 256.853 2.46349 256.848 2.453 256.838C2.37964 256.657 2.31675 256.466 2.25386 256.274C2.19098 256.083 2.13333 255.887 2.08093 255.691C2.05996 255.632 2.04424 255.573 2.03376 255.515C1.99708 255.372 1.96039 255.235 1.93419 255.098C1.93419 255.078 1.93419 255.063 1.92371 255.049C1.91323 255.005 1.90275 254.956 1.89227 254.911C1.8713 254.813 1.85558 254.72 1.83986 254.622C1.83986 254.598 1.83986 254.583 1.82938 254.559C1.79794 254.402 1.77698 254.25 1.75077 254.088C1.75077 254.034 1.73505 253.98 1.72981 253.921C1.70885 253.803 1.69837 253.686 1.68789 253.568C1.67216 253.431 1.66168 253.289 1.65644 253.151C1.63548 252.892 1.625 252.622 1.625 252.357L1.625 250.989C1.625 258.368 8.03941 264.369 15.9264 264.369L356.273 264.369C364.16 264.369 370.574 258.368 370.574 250.989L370.548 250.984Z" fill="url(#paint3_linear_0_1)"/>
    <path d="M12.0697 14.8828L12.0697 250.986C12.0697 252.967 13.7886 254.58 15.911 254.58L356.257 254.58C358.375 254.58 360.099 252.972 360.099 250.986L360.099 14.8828C360.099 12.9021 358.38 11.2891 356.257 11.2891L15.9058 11.2891C13.7886 11.2891 12.0645 12.8972 12.0645 14.8828L12.0697 14.8828Z" fill="white"/>
    <path d="M383 32.5547H373.131C373.131 29.6462 375.342 27.2827 378.063 27.2827C380.784 27.2827 382.995 29.641 382.995 32.5547H383Z" fill="url(#paint4_linear_0_1)"/>
    <path d="M383 227.666L381.186 237.586H374.95L373.131 227.666V32.5501H383V227.666Z" fill="url(#paint5_linear_0_1)"/>
    <path d="M376.856 247.997L375.027 238.019H381.107L379.278 247.997C379.018 249.418 377.116 249.418 376.856 247.997Z" fill="url(#paint6_linear_0_1)"/>
    <path d="M381.107 238.016H375.023L374.949 237.586H381.186L381.107 238.016Z" fill="url(#paint7_linear_0_1)"/>
    <defs>
        <linearGradient id="paint0_linear_0_1" x1="0.145763" y1="132.942" x2="15.1704" y2="132.942" gradientUnits="userSpaceOnUse">
            <stop stop-color="#FFE5C2"/>
            <stop offset="0.05" stop-color="#E9CFAC"/>
            <stop offset="0.12" stop-color="#CEB592"/>
            <stop offset="0.2" stop-color="#B7A07C"/>
            <stop offset="0.29" stop-color="#A6906C"/>
            <stop offset="0.41" stop-color="#9A8460"/>
            <stop offset="0.57" stop-color="#937D59"/>
            <stop offset="1" stop-color="#927C58"/>
        </linearGradient>
        <linearGradient id="paint1_linear_0_1" x1="357.41" y1="132.927" x2="372.01" y2="132.927" gradientUnits="userSpaceOnUse">
            <stop stop-color="#927C58"/>
            <stop offset="0.43" stop-color="#937D59"/>
            <stop offset="0.59" stop-color="#9A8460"/>
            <stop offset="0.71" stop-color="#A6906C"/>
            <stop offset="0.8" stop-color="#B7A07C"/>
            <stop offset="0.88" stop-color="#CEB592"/>
            <stop offset="0.95" stop-color="#E9CFAC"/>
            <stop offset="1" stop-color="#FFE5C2"/>
        </linearGradient>
        <linearGradient id="paint2_linear_0_1" x1="1.60352" y1="7.50369" x2="370.553" y2="7.50371" gradientUnits="userSpaceOnUse">
            <stop stop-color="#E6CFB1"/>
            <stop offset="0.48" stop-color="#FFE5C2"/>
            <stop offset="0.68" stop-color="#FAE0BE"/>
            <stop offset="0.92" stop-color="#ECD4B5"/>
            <stop offset="1" stop-color="#E6CFB1"/>
        </linearGradient>
        <linearGradient id="paint3_linear_0_1" x1="2762.1" y1="258.358" x2="2762.63" y2="258.358" gradientUnits="userSpaceOnUse">
            <stop stop-color="#E6CFB1"/>
            <stop offset="0.48" stop-color="#FFE5C2"/>
            <stop offset="0.68" stop-color="#FAE0BE"/>
            <stop offset="0.92" stop-color="#ECD4B5"/>
            <stop offset="1" stop-color="#E6CFB1"/>
        </linearGradient>
        <linearGradient id="paint4_linear_0_1" x1="375.092" y1="28.2837" x2="381.44" y2="34.2224" gradientUnits="userSpaceOnUse">
            <stop stop-color="#927C58"/>
            <stop offset="0.28" stop-color="#BAA78F"/>
            <stop offset="0.37" stop-color="#CEB99E"/>
            <stop offset="0.5" stop-color="#E9D0B1"/>
            <stop offset="0.61" stop-color="#F9DEBD"/>
            <stop offset="0.7" stop-color="#FFE4C2"/>
            <stop offset="0.83" stop-color="#FBE1BF"/>
            <stop offset="0.93" stop-color="#F2D9B9"/>
            <stop offset="1" stop-color="#E5CEB0"/>
        </linearGradient>
        <linearGradient id="paint5_linear_0_1" x1="373.131" y1="135.065" x2="383" y2="135.065" gradientUnits="userSpaceOnUse">
            <stop stop-color="#927C58"/>
            <stop offset="0.28" stop-color="#BAA78F"/>
            <stop offset="0.37" stop-color="#CEB99E"/>
            <stop offset="0.5" stop-color="#E9D0B1"/>
            <stop offset="0.61" stop-color="#F9DEBD"/>
            <stop offset="0.7" stop-color="#FFE4C2"/>
            <stop offset="0.83" stop-color="#FBE1BF"/>
            <stop offset="0.93" stop-color="#F2D9B9"/>
            <stop offset="1" stop-color="#E5CEB0"/>
        </linearGradient>
        <linearGradient id="paint6_linear_0_1" x1="375.022" y1="243.538" x2="381.107" y2="243.538" gradientUnits="userSpaceOnUse">
            <stop stop-color="#927C58"/>
            <stop offset="0.28" stop-color="#BAA78F"/>
            <stop offset="0.37" stop-color="#CEB99E"/>
            <stop offset="0.5" stop-color="#E9D0B1"/>
            <stop offset="0.61" stop-color="#F9DEBD"/>
            <stop offset="0.7" stop-color="#FFE4C2"/>
            <stop offset="0.83" stop-color="#FBE1BF"/>
            <stop offset="0.93" stop-color="#F2D9B9"/>
            <stop offset="1" stop-color="#E5CEB0"/>
        </linearGradient>
        <linearGradient id="paint7_linear_0_1" x1="374.949" y1="237.801" x2="381.186" y2="237.801" gradientUnits="userSpaceOnUse">
            <stop stop-color="#927C58"/>
            <stop offset="0.02" stop-color="#96805E"/>
            <stop offset="0.11" stop-color="#A69173"/>
            <stop offset="0.21" stop-color="#B19D83"/>
            <stop offset="0.32" stop-color="#B7A48C"/>
            <stop offset="0.49" stop-color="#BAA78F"/>
            <stop offset="0.66" stop-color="#B7A48C"/>
            <stop offset="0.78" stop-color="#B19D82"/>
            <stop offset="0.88" stop-color="#A59172"/>
            <stop offset="0.98" stop-color="#957F5C"/>
            <stop offset="1" stop-color="#927C58"/>
        </linearGradient>
    </defs>
</svg>
