<svg width="8" height="10" viewBox="0 0 8 10" fill="none" xmlns="http://www.w3.org/2000/svg">
    <path d="M5.99843 8.00931C5.99379 9.11439 5.10135 10 3.99854 10C2.87718 10 1.98473 9.09275 2.0002 7.97067C2.01412 6.86868 2.9143 5.9908 4.0202 6.00007C5.123 6.00935 6.00462 6.90577 5.99998 8.01086L5.99843 8.00931Z" fill="#004E44"/>
    <path d="M3.73359 0.798498C4.73086 0.798498 5.72996 0.794847 6.72722 0.798498C7.27883 0.800323 7.456 0.981031 7.45965 1.53046C7.4633 2.09083 7.45417 2.64939 7.4633 3.20977C7.46695 3.5438 7.34823 3.77197 7.03955 3.9399C6.09891 4.45099 5.16557 4.97852 4.24136 5.51699C3.88702 5.72325 3.57469 5.71778 3.224 5.51334C2.27422 4.96209 1.30618 4.44369 0.363707 3.87966C0.199322 3.7811 0.0404167 3.53468 0.0276313 3.34849C-0.0143782 2.7005 0.000233806 2.04885 0.0148458 1.39903C0.0221518 1.00111 0.239505 0.798498 0.64864 0.798498C1.67696 0.802148 2.70528 0.798498 3.73177 0.798498H3.73359Z" fill="#004E44"/>
</svg>
