<svg width="27" height="23" viewBox="0 0 27 23" fill="none" xmlns="http://www.w3.org/2000/svg">
<g id="layer2">
<path id="rect1555" d="M20.6982 1.34912V8.15001C20.1951 8.15001 19.8002 8.55744 19.8 9.04825L19.7983 13.1009H1.80088C0.794064 13.1009 0 13.9124 0 14.9018V19.3991C0 20.3886 0.797415 21.2 1.80088 21.2H2.24912V22.5483C2.24817 22.7982 2.45099 23.001 2.70089 23H5.85002C6.09854 22.999 6.30096 22.7968 6.30001 22.5483V21.2H20.6983V22.5483C20.6973 22.7985 20.9007 23.0015 21.1509 23H24.2992C24.5494 23.0015 24.7527 22.7985 24.7518 22.5483V21.2H25.2C26.2068 21.2 27 20.3886 27 19.3991V14.9018C27 13.9124 26.207 13.1009 25.2 13.1009H24.2992V9.04825C24.2992 8.55744 23.9014 8.15001 23.4 8.15001L23.3991 1.34912C23.3991 0.609005 22.8016 0 22.0509 0C21.3002 0 20.6982 0.609005 20.6982 1.34912ZM22.0508 0.900879C22.2956 0.900879 22.4991 1.09204 22.4991 1.34912L22.5 8.15001H21.6L21.5991 1.34912C21.5991 1.09204 21.8061 0.900879 22.0508 0.900879ZM9.25132 1.08887C6.16652 1.08887 3.2099 2.33229 1.03003 4.5377C0.591194 4.94761 1.26605 5.61546 1.67075 5.16876C3.68309 3.13284 6.40767 1.98975 9.25132 1.98975C12.0952 1.98975 14.823 3.13253 16.8354 5.16876C17.2428 5.61844 17.9115 4.94434 17.4762 4.5377C15.2962 2.33195 12.3364 1.08887 9.25132 1.08887ZM9.25132 3.91983C6.90734 3.91983 4.66258 4.86168 3.00669 6.53722C2.54147 6.93292 3.265 7.6226 3.64391 7.16827C5.13225 5.66226 7.14852 4.81632 9.25132 4.81632C11.3539 4.81632 13.3704 5.66256 14.8588 7.16827C15.2715 7.60381 15.9273 6.95545 15.5004 6.53722C13.8445 4.86201 11.5951 3.91983 9.25132 3.91983ZM9.25132 6.7464C7.64865 6.7464 6.11517 7.38816 4.98336 8.53321C4.54641 8.93634 5.21162 9.61474 5.62056 9.16778C6.58484 8.19223 7.88981 7.6464 9.25132 7.6464C10.613 7.6464 11.9213 8.19203 12.8856 9.16778C13.3032 9.60816 13.9565 8.94908 13.5263 8.53321C12.3945 7.38793 10.8542 6.7464 9.25132 6.7464ZM20.7 9.05001H23.3991V13.1009H20.6982L20.7 9.05001ZM9.25132 9.57296C8.38941 9.57296 7.56434 9.91834 6.9565 10.5336C6.5147 10.9607 7.17437 11.6141 7.59722 11.1682C8.03752 10.7225 8.63064 10.4738 9.25132 10.4738C9.87167 10.4738 10.4687 10.7229 10.9089 11.1682C11.3319 11.6109 11.9874 10.959 11.547 10.5336C10.9393 9.91895 10.1128 9.57296 9.25132 9.57296ZM1.80083 14.0018H25.2C25.7064 14.0018 26.1 14.4024 26.1 14.9018V19.3991C26.1 19.9055 25.6939 20.2991 25.2 20.2991H1.80083C1.30148 20.2991 0.90084 19.9055 0.90084 19.3991V14.9018C0.90084 14.4024 1.29445 14.0018 1.80083 14.0018ZM4.0482 14.9018C3.2974 14.9018 2.69995 15.5098 2.69995 16.25C2.69995 16.9903 3.298 17.5991 4.0482 17.5991C4.7984 17.5991 5.40084 16.9903 5.40084 16.25C5.40084 15.5098 4.799 14.9018 4.0482 14.9018ZM7.6526 14.9018C6.89495 14.9018 6.29996 15.5098 6.29996 16.25C6.29996 16.9903 6.90355 17.5991 7.6526 17.5991C8.40164 17.5991 9.00085 16.9903 9.00085 16.25C9.00085 15.5098 8.41025 14.9018 7.6526 14.9018ZM11.2517 14.9018C10.499 14.9018 9.89908 15.5098 9.89908 16.25C9.89908 16.9903 10.5027 17.5991 11.2517 17.5991C12.0008 17.5991 12.6 16.9903 12.6 16.25C12.6 15.5098 12.0044 14.9018 11.2517 14.9018ZM4.0482 15.7983C4.28799 15.7983 4.50083 15.9962 4.50083 16.25C4.50083 16.5039 4.29151 16.6983 4.0482 16.6983C3.80489 16.6983 3.59996 16.5039 3.59996 16.25C3.59996 15.9962 3.80841 15.7983 4.0482 15.7983ZM7.6526 15.7983C7.89402 15.7983 8.10084 15.9962 8.10084 16.25C8.10084 16.5039 7.89591 16.6983 7.6526 16.6983C7.40928 16.6983 7.19997 16.5039 7.19997 16.25C7.19997 15.9962 7.41117 15.7983 7.6526 15.7983ZM11.2517 15.7983C11.4882 15.7983 11.7 15.9962 11.7 16.25C11.7 16.5039 11.4968 16.6983 11.2517 16.6983C11.0067 16.6983 10.7991 16.5039 10.7991 16.25C10.7991 15.9962 11.0153 15.7983 11.2517 15.7983ZM13.9482 15.7983C13.3612 15.7983 13.3612 16.6983 13.9482 16.6983H18.0017C18.5887 16.6983 18.5887 15.7983 18.0017 15.7983H13.9482ZM20.0241 15.7983C19.4371 15.7983 19.4371 16.6983 20.0241 16.6983H21.1509C21.7378 16.6983 21.7378 15.7983 21.1509 15.7983H20.0241ZM3.14908 21.2H5.39995V22.1H3.14908V21.2ZM21.6 21.2H23.85V22.1H21.6V21.2Z" fill="black"/>
</g>
</svg>
