<svg width="27" height="20" viewBox="0 0 27 20" fill="none" xmlns="http://www.w3.org/2000/svg">
<path id="Vector" d="M26.0771 14.6306H21.6435V14.5576C21.6435 13.855 21.0674 13.2833 20.3594 13.2833H19.9581L19.2955 11.7571H24.1856C24.8398 11.7571 25.3721 11.229 25.3721 10.5797V2.05028C25.3721 1.40104 24.8398 0.872898 24.1856 0.872898H11.2714C10.8901 0.872898 10.55 1.05249 10.3325 1.33197L10.0842 1.1012C9.77437 0.813296 9.31932 0.761282 8.95177 0.971902L8.86238 1.02313L8.38129 0.196296C8.27207 0.00854296 8.03018 -0.055716 7.84102 0.0526554C7.65186 0.161027 7.58705 0.401056 7.69627 0.588756L8.17736 1.41559L8.08798 1.46682C7.72042 1.67739 7.53822 2.09444 7.63462 2.50464L7.73993 2.95262L5.39995 5.27499C5.21411 5.17751 5.00265 5.12204 4.77821 5.12204C4.04209 5.12204 3.44319 5.71633 3.44319 6.44678C3.44319 6.66943 3.49908 6.87932 3.59733 7.06372L1.74382 8.90248C1.58936 9.05575 1.58931 9.30425 1.74377 9.45752C1.82102 9.53418 1.92222 9.57249 2.02347 9.57249C2.12467 9.57249 2.22587 9.53418 2.30312 9.45757L4.15673 7.61871C4.22851 7.65634 4.30402 7.68794 4.38275 7.71222V13.2834H3.47277C2.78648 13.2834 2.22813 13.8374 2.22813 14.5184V14.6306H0.922852C0.414018 14.6306 0 15.0414 0 15.5464V16.1985C0 16.7034 0.414018 17.1142 0.922852 17.1142H2.38655V19.6074C2.38655 19.8242 2.56363 19.9999 2.78205 19.9999C3.00048 19.9999 3.17756 19.8242 3.17756 19.6074V17.1142H4.80479L3.98229 19.4794C3.91104 19.6844 4.02068 19.9077 4.22719 19.9784C4.2699 19.993 4.31341 20 4.35623 20C4.52023 20 4.67358 19.898 4.73006 19.7354L5.64158 17.1142H8.16819C8.38661 17.1142 8.56369 16.9384 8.56369 16.7217C8.56369 16.505 8.38661 16.3292 8.16819 16.3292H0.922852C0.850184 16.3292 0.791016 16.2705 0.791016 16.1984V15.5463C0.791016 15.4742 0.850184 15.4155 0.922852 15.4155H26.0771C26.1498 15.4155 26.209 15.4742 26.209 15.5463V16.1984C26.209 16.2705 26.1498 16.3292 26.0771 16.3292H9.75027C9.53184 16.3292 9.35476 16.505 9.35476 16.7217C9.35476 16.9384 9.53184 17.1142 9.75027 17.1142H21.3584L22.2699 19.7354C22.3265 19.898 22.4798 20 22.6438 20C22.6866 20 22.7301 19.993 22.7728 19.9784C22.9793 19.9077 23.089 19.6843 23.0177 19.4794L22.1952 17.1142H23.8224V19.6074C23.8224 19.8242 23.9995 19.9999 24.2179 19.9999C24.4364 19.9999 24.6135 19.8242 24.6135 19.6074V17.1142H26.0771C26.586 17.1142 27 16.7033 27 16.1984V15.5463C27 15.0414 26.586 14.6306 26.0771 14.6306ZM19.0968 13.2834H16.3602L17.0228 11.7572H18.4341L19.0968 13.2834ZM24.1856 10.9723H18.6961C18.6955 10.9723 18.695 10.9722 18.6944 10.9722H16.7626C16.762 10.9722 16.7615 10.9723 16.7609 10.9723H11.2714C11.0534 10.9723 10.8759 10.7962 10.8759 10.5798V9.93067C10.9998 9.97426 11.1328 9.99817 11.2714 9.99817H24.1854C24.3241 9.99817 24.4572 9.97421 24.581 9.93062V10.5797C24.5811 10.7962 24.4036 10.9723 24.1856 10.9723ZM9.54339 1.67409L12.1821 4.12681C12.1858 4.13016 12.1968 4.14042 12.1945 4.16025C12.1922 4.18003 12.1791 4.18751 12.1748 4.18997L9.28499 5.84553C9.28072 5.84799 9.26759 5.85552 9.24919 5.84757C9.23078 5.83967 9.22736 5.82507 9.2262 5.82025L8.40496 2.32631C8.3883 2.2553 8.41983 2.18303 8.48348 2.14656L9.34727 1.6517C9.41087 1.61522 9.48976 1.62422 9.54339 1.67409ZM4.77821 5.90691C5.07822 5.90691 5.32227 6.14908 5.32227 6.44672C5.32227 6.74442 5.07822 6.98659 4.77821 6.98659C4.47826 6.98659 4.2342 6.74442 4.2342 6.44672C4.23415 6.14908 4.4782 5.90691 4.77821 5.90691ZM5.17372 7.71217C5.71741 7.54451 6.11329 7.04065 6.11329 6.44672C6.11329 6.22412 6.05744 6.01434 5.95925 5.82999L7.9515 3.85272L8.45585 5.99848C8.51623 6.25536 8.69068 6.46284 8.93457 6.56771C9.04163 6.61376 9.15405 6.63662 9.26601 6.63662C9.40908 6.63662 9.55141 6.59926 9.6805 6.52527L10.0849 6.29356V6.80323C10.0849 7.01998 10.262 7.19569 10.4804 7.19569C10.6989 7.19569 10.8759 7.01998 10.8759 6.80323V5.84035L12.5703 4.86966C12.8005 4.73779 12.9499 4.51189 12.9803 4.24989C13.0107 3.98788 12.9169 3.73419 12.7229 3.55387L10.9174 1.87561C10.9824 1.74615 11.1168 1.65777 11.2715 1.65777H24.1856C24.4037 1.65777 24.5811 1.8338 24.5811 2.05023V8.8187C24.5811 8.81938 24.581 8.82006 24.581 8.82074C24.581 9.03717 24.4036 9.2132 24.1855 9.2132H11.2715C11.0534 9.2132 10.876 9.03717 10.876 8.82074V8.37302C10.876 8.15628 10.6989 7.98056 10.4805 7.98056C10.2621 7.98056 10.085 8.15628 10.085 8.37302V10.5797C10.085 11.2289 10.6172 11.7571 11.2715 11.7571H16.1615L15.4988 13.2833H15.0976C14.3895 13.2833 13.8135 13.8549 13.8135 14.5575V14.6305H7.32829V14.5183C7.32829 13.8373 6.76993 13.2833 6.08365 13.2833H5.17372V7.71217ZM3.01915 14.6306V14.5184C3.01915 14.2702 3.22265 14.0683 3.47277 14.0683H6.08365C6.33377 14.0683 6.53727 14.2702 6.53727 14.5184V14.6306H3.01915ZM14.6045 14.6306V14.5576C14.6045 14.2878 14.8257 14.0683 15.0976 14.0683H20.3594C20.6313 14.0683 20.8525 14.2878 20.8525 14.5576V14.6306H14.6045Z" fill="black"/>
</svg>
